<?xml version="1.0" standalone="no"?><!-- Generator: Gravit.io --><svg xmlns="http://www.w3.org/2000/svg" xmlns:xlink="http://www.w3.org/1999/xlink" style="isolation:isolate" viewBox="0 0 121.468 175.283" width="121.468" height="175.283"><defs><clipPath id="_clipPath_NbJzPGSAqDVwbuuU0VAOXW8QkI9vmAxm"><rect width="121.468" height="175.283"/></clipPath></defs><g clip-path="url(#_clipPath_NbJzPGSAqDVwbuuU0VAOXW8QkI9vmAxm)"><g id="card-flipped - spanish"><path d="M 18.22 0 L 103.248 0 C 113.304 0 121.468 8.164 121.468 18.22 L 121.468 157.063 C 121.468 167.119 113.304 175.283 103.248 175.283 L 18.22 175.283 C 8.164 175.283 0 167.119 0 157.063 L 0 18.22 C 0 8.164 8.164 0 18.22 0 Z" style="stroke:none;fill:#85A5B9;stroke-miterlimit:10;"/><path d=" M 48.211 94.39 L 48.211 94.39 L 48.211 94.39 Q 47.605 94.312 47.044 94.282 L 47.044 94.282 L 47.044 94.282 Q 46.482 94.253 45.906 94.253 L 45.906 94.253 L 45.906 94.253 Q 44.353 94.253 42.722 94.556 L 42.722 94.556 L 42.722 94.556 Q 42.781 94.321 42.854 94.141 L 42.854 94.141 L 42.854 94.141 Q 42.927 93.96 42.986 93.74 L 42.986 93.74 L 42.986 93.74 Q 43.045 93.521 43.084 93.228 L 43.084 93.228 L 43.084 93.228 Q 43.123 92.935 43.123 92.476 L 43.123 92.476 L 43.123 92.476 Q 43.123 92.007 43.054 91.582 L 43.054 91.582 L 43.054 91.582 Q 42.986 91.157 42.849 90.83 L 42.849 90.83 L 42.849 90.83 Q 42.713 90.503 42.512 90.308 L 42.512 90.308 L 42.512 90.308 Q 42.312 90.112 42.049 90.112 L 42.049 90.112 L 42.049 90.112 Q 41.756 90.112 41.555 90.288 L 41.555 90.288 L 41.555 90.288 Q 41.355 90.464 41.233 90.767 L 41.233 90.767 L 41.233 90.767 Q 41.111 91.069 41.057 91.46 L 41.057 91.46 L 41.057 91.46 Q 41.004 91.851 41.004 92.29 L 41.004 92.29 L 41.004 92.29 Q 41.004 92.73 41.057 93.047 L 41.057 93.047 L 41.057 93.047 Q 41.111 93.364 41.184 93.599 L 41.184 93.599 L 41.184 93.599 Q 41.258 93.833 41.326 94.014 L 41.326 94.014 L 41.326 94.014 Q 41.394 94.194 41.424 94.37 L 41.424 94.37 L 41.424 94.37 Q 40.75 94.292 40.1 94.253 L 40.1 94.253 L 40.1 94.253 Q 39.451 94.214 38.806 94.214 L 38.806 94.214 L 38.806 94.214 Q 38.162 94.214 37.512 94.253 L 37.512 94.253 L 37.512 94.253 Q 36.863 94.292 36.17 94.37 L 36.17 94.37 L 36.17 94.37 Q 36.775 92.612 37.229 90.884 L 37.229 90.884 L 37.229 90.884 Q 37.683 89.155 38.006 87.407 L 38.006 87.407 L 38.006 87.407 Q 38.328 85.659 38.528 83.872 L 38.528 83.872 L 38.528 83.872 Q 38.728 82.085 38.826 80.21 L 38.826 80.21 L 38.826 80.21 Q 39.549 80.308 40.413 80.352 L 40.413 80.352 L 40.413 80.352 Q 41.277 80.396 42.185 80.396 L 42.185 80.396 L 42.185 80.396 Q 42.957 80.396 43.684 80.356 L 43.684 80.356 L 43.684 80.356 Q 44.412 80.317 45.027 80.19 L 45.027 80.19 L 45.027 80.19 Q 45.095 82.056 45.379 83.862 L 45.379 83.862 L 45.379 83.862 Q 45.662 85.669 46.087 87.441 L 46.087 87.441 L 46.087 87.441 Q 46.511 89.214 47.058 90.947 L 47.058 90.947 L 47.058 90.947 Q 47.605 92.681 48.211 94.39 Z  M 42.742 86.812 L 42.742 86.812 L 42.742 86.812 Q 42.722 86.626 42.625 86.265 L 42.625 86.265 L 42.625 86.265 Q 42.537 85.952 42.361 85.439 L 42.361 85.439 L 42.361 85.439 Q 42.185 84.927 41.843 84.116 L 41.843 84.116 L 41.843 84.116 Q 41.765 84.624 41.668 85.02 L 41.668 85.02 L 41.668 85.02 Q 41.57 85.415 41.482 85.732 L 41.482 85.732 L 41.482 85.732 Q 41.394 86.05 41.331 86.313 L 41.331 86.313 L 41.331 86.313 Q 41.267 86.577 41.267 86.812 L 41.267 86.812 L 41.267 86.812 Q 41.267 87.3 41.497 87.568 L 41.497 87.568 L 41.497 87.568 Q 41.726 87.837 42.009 87.837 L 42.009 87.837 L 42.009 87.837 Q 42.312 87.837 42.517 87.544 L 42.517 87.544 L 42.517 87.544 Q 42.722 87.251 42.742 86.812 Z  M 58.259 94.409 L 58.259 94.409 L 58.259 94.409 Q 58.035 94.39 57.752 94.37 L 57.752 94.37 L 57.752 94.37 Q 57.508 94.351 57.18 94.341 L 57.18 94.341 L 57.18 94.341 Q 56.853 94.331 56.463 94.331 L 56.463 94.331 L 56.463 94.331 Q 55.906 94.331 55.281 94.37 L 55.281 94.37 L 55.281 94.37 Q 54.656 94.409 54.041 94.517 L 54.041 94.517 L 54.041 94.517 Q 54.099 94.399 54.168 94.028 L 54.168 94.028 L 54.168 94.028 Q 54.236 93.657 54.3 93.208 L 54.3 93.208 L 54.3 93.208 Q 54.363 92.759 54.417 92.319 L 54.417 92.319 L 54.417 92.319 Q 54.47 91.88 54.5 91.636 L 54.5 91.636 L 54.5 91.636 Q 54.343 92.368 54.065 92.969 L 54.065 92.969 L 54.065 92.969 Q 53.787 93.569 53.416 93.994 L 53.416 93.994 L 53.416 93.994 Q 53.045 94.419 52.586 94.653 L 52.586 94.653 L 52.586 94.653 Q 52.127 94.888 51.619 94.888 L 51.619 94.888 L 51.619 94.888 Q 51.384 94.888 51.043 94.858 L 51.043 94.858 L 51.043 94.858 Q 50.701 94.829 50.315 94.663 L 50.315 94.663 L 50.315 94.663 Q 49.929 94.497 49.544 94.15 L 49.544 94.15 L 49.544 94.15 Q 49.158 93.804 48.85 93.174 L 48.85 93.174 L 48.85 93.174 Q 48.543 92.544 48.352 91.577 L 48.352 91.577 L 48.352 91.577 Q 48.162 90.61 48.162 89.214 L 48.162 89.214 L 48.162 89.214 Q 48.162 88.042 48.333 87.119 L 48.333 87.119 L 48.333 87.119 Q 48.504 86.196 48.792 85.493 L 48.792 85.493 L 48.792 85.493 Q 49.08 84.79 49.466 84.297 L 49.466 84.297 L 49.466 84.297 Q 49.851 83.804 50.276 83.491 L 50.276 83.491 L 50.276 83.491 Q 50.701 83.179 51.145 83.037 L 51.145 83.037 L 51.145 83.037 Q 51.59 82.896 52 82.896 L 52 82.896 L 52 82.896 Q 52.459 82.896 52.83 83.047 L 52.83 83.047 L 52.83 83.047 Q 53.201 83.198 53.504 83.438 L 53.504 83.438 L 53.504 83.438 Q 53.806 83.677 54.031 83.984 L 54.031 83.984 L 54.031 83.984 Q 54.256 84.292 54.422 84.595 L 54.422 84.595 L 54.422 84.595 Q 54.402 84.146 54.383 83.618 L 54.383 83.618 L 54.383 83.618 Q 54.363 83.091 54.334 82.554 L 54.334 82.554 L 54.334 82.554 Q 54.304 82.017 54.26 81.494 L 54.26 81.494 L 54.26 81.494 Q 54.217 80.972 54.163 80.522 L 54.163 80.522 L 54.163 80.522 Q 54.109 80.073 54.041 79.731 L 54.041 79.731 L 54.041 79.731 Q 53.972 79.39 53.884 79.214 L 53.884 79.214 L 53.884 79.214 Q 54.666 79.351 55.34 79.399 L 55.34 79.399 L 55.34 79.399 Q 56.013 79.448 56.56 79.448 L 56.56 79.448 L 56.56 79.448 Q 56.912 79.448 57.195 79.434 L 57.195 79.434 L 57.195 79.434 Q 57.478 79.419 57.674 79.399 L 57.674 79.399 L 57.674 79.399 Q 57.908 79.38 58.084 79.351 L 58.084 79.351 L 58.084 79.351 Q 57.976 79.839 57.888 80.625 L 57.888 80.625 L 57.888 80.625 Q 57.801 81.411 57.737 82.397 L 57.737 82.397 L 57.737 82.397 Q 57.674 83.384 57.639 84.512 L 57.639 84.512 L 57.639 84.512 Q 57.605 85.64 57.605 86.812 L 57.605 86.812 L 57.605 86.812 Q 57.605 87.896 57.639 88.97 L 57.639 88.97 L 57.639 88.97 Q 57.674 90.044 57.752 91.035 L 57.752 91.035 L 57.752 91.035 Q 57.83 92.026 57.957 92.891 L 57.957 92.891 L 57.957 92.891 Q 58.084 93.755 58.259 94.409 Z  M 54.246 88.813 L 54.246 88.813 L 54.246 87.231 L 54.246 87.231 Q 54.246 86.968 54.217 86.694 L 54.217 86.694 L 54.217 86.694 Q 54.187 86.421 54.085 86.196 L 54.085 86.196 L 54.085 86.196 Q 53.982 85.972 53.787 85.83 L 53.787 85.83 L 53.787 85.83 Q 53.592 85.688 53.259 85.688 L 53.259 85.688 L 53.259 85.688 Q 53.025 85.688 52.859 85.874 L 52.859 85.874 L 52.859 85.874 Q 52.693 86.06 52.586 86.353 L 52.586 86.353 L 52.586 86.353 Q 52.478 86.646 52.41 87.007 L 52.41 87.007 L 52.41 87.007 Q 52.342 87.368 52.312 87.725 L 52.312 87.725 L 52.312 87.725 Q 52.283 88.081 52.273 88.389 L 52.273 88.389 L 52.273 88.389 Q 52.263 88.696 52.263 88.872 L 52.263 88.872 L 52.263 88.872 Q 52.263 89.136 52.288 89.521 L 52.288 89.521 L 52.288 89.521 Q 52.312 89.907 52.4 90.264 L 52.4 90.264 L 52.4 90.264 Q 52.488 90.62 52.669 90.874 L 52.669 90.874 L 52.669 90.874 Q 52.849 91.128 53.162 91.128 L 53.162 91.128 L 53.162 91.128 Q 53.513 91.128 53.728 90.884 L 53.728 90.884 L 53.728 90.884 Q 53.943 90.64 54.055 90.278 L 54.055 90.278 L 54.055 90.278 Q 54.168 89.917 54.207 89.521 L 54.207 89.521 L 54.207 89.521 Q 54.246 89.126 54.246 88.813 Z  M 63.621 94.233 L 63.621 94.233 L 63.621 94.233 Q 63.455 94.224 63.23 94.204 L 63.23 94.204 L 63.23 94.204 Q 63.035 94.194 62.771 94.185 L 62.771 94.185 L 62.771 94.185 Q 62.508 94.175 62.166 94.175 L 62.166 94.175 L 62.166 94.175 Q 61.531 94.175 60.701 94.229 L 60.701 94.229 L 60.701 94.229 Q 59.871 94.282 58.904 94.429 L 58.904 94.429 L 58.904 94.429 Q 59.09 94.058 59.217 93.496 L 59.217 93.496 L 59.217 93.496 Q 59.343 92.935 59.426 92.295 L 59.426 92.295 L 59.426 92.295 Q 59.509 91.655 59.553 91.001 L 59.553 91.001 L 59.553 91.001 Q 59.597 90.347 59.617 89.8 L 59.617 89.8 L 59.617 89.8 Q 59.636 89.253 59.641 88.872 L 59.641 88.872 L 59.641 88.872 Q 59.646 88.491 59.646 88.394 L 59.646 88.394 L 59.646 88.394 Q 59.627 87.124 59.558 86.021 L 59.558 86.021 L 59.558 86.021 Q 59.529 85.552 59.485 85.073 L 59.485 85.073 L 59.485 85.073 Q 59.441 84.595 59.383 84.17 L 59.383 84.17 L 59.383 84.17 Q 59.324 83.745 59.251 83.408 L 59.251 83.408 L 59.251 83.408 Q 59.177 83.071 59.08 82.876 L 59.08 82.876 L 59.08 82.876 Q 59.871 83.013 60.545 83.062 L 60.545 83.062 L 60.545 83.062 Q 61.218 83.11 61.765 83.11 L 61.765 83.11 L 61.765 83.11 Q 62.117 83.11 62.395 83.096 L 62.395 83.096 L 62.395 83.096 Q 62.674 83.081 62.869 83.062 L 62.869 83.062 L 62.869 83.062 Q 63.103 83.042 63.279 83.013 L 63.279 83.013 L 63.279 83.013 Q 63.103 83.892 62.991 85.132 L 62.991 85.132 L 62.991 85.132 Q 62.879 86.372 62.879 87.788 L 62.879 87.788 L 62.879 87.788 Q 62.879 88.599 62.918 89.429 L 62.918 89.429 L 62.918 89.429 Q 62.957 90.259 63.045 91.084 L 63.045 91.084 L 63.045 91.084 Q 63.133 91.909 63.274 92.705 L 63.274 92.705 L 63.274 92.705 Q 63.416 93.501 63.621 94.233 Z  M 65.359 78.921 L 62.127 82.407 L 60.183 81.538 L 60.183 81.538 Q 60.779 80.679 61.297 79.888 L 61.297 79.888 L 61.297 79.888 Q 61.511 79.556 61.741 79.204 L 61.741 79.204 L 61.741 79.204 Q 61.97 78.853 62.171 78.525 L 62.171 78.525 L 62.171 78.525 Q 62.371 78.198 62.537 77.905 L 62.537 77.905 L 62.537 77.905 Q 62.703 77.612 62.801 77.407 L 62.801 77.407 L 62.801 77.407 Q 63.103 77.632 63.538 77.896 L 63.538 77.896 L 63.538 77.896 Q 63.972 78.159 64.383 78.384 L 64.383 78.384 L 64.383 78.384 Q 64.851 78.647 65.359 78.921 L 65.359 78.921 Z  M 73.66 88.569 L 73.66 88.569 L 73.66 88.569 Q 73.66 89.136 73.572 89.814 L 73.572 89.814 L 73.572 89.814 Q 73.484 90.493 73.279 91.182 L 73.279 91.182 L 73.279 91.182 Q 73.074 91.87 72.722 92.52 L 72.722 92.52 L 72.722 92.52 Q 72.371 93.169 71.848 93.667 L 71.848 93.667 L 71.848 93.667 Q 71.326 94.165 70.603 94.468 L 70.603 94.468 L 70.603 94.468 Q 69.881 94.771 68.924 94.771 L 68.924 94.771 L 68.924 94.771 Q 67.967 94.771 67.249 94.487 L 67.249 94.487 L 67.249 94.487 Q 66.531 94.204 66.018 93.73 L 66.018 93.73 L 66.018 93.73 Q 65.506 93.257 65.174 92.637 L 65.174 92.637 L 65.174 92.637 Q 64.842 92.017 64.646 91.333 L 64.646 91.333 L 64.646 91.333 Q 64.451 90.649 64.378 89.951 L 64.378 89.951 L 64.378 89.951 Q 64.304 89.253 64.304 88.628 L 64.304 88.628 L 64.304 88.628 Q 64.304 87.524 64.597 86.465 L 64.597 86.465 L 64.597 86.465 Q 64.89 85.405 65.491 84.575 L 65.491 84.575 L 65.491 84.575 Q 66.092 83.745 66.995 83.237 L 66.995 83.237 L 66.995 83.237 Q 67.898 82.73 69.119 82.73 L 69.119 82.73 L 69.119 82.73 Q 69.939 82.73 70.593 82.979 L 70.593 82.979 L 70.593 82.979 Q 71.248 83.228 71.756 83.657 L 71.756 83.657 L 71.756 83.657 Q 72.263 84.087 72.62 84.663 L 72.62 84.663 L 72.62 84.663 Q 72.976 85.239 73.211 85.884 L 73.211 85.884 L 73.211 85.884 Q 73.445 86.528 73.552 87.222 L 73.552 87.222 L 73.552 87.222 Q 73.66 87.915 73.66 88.569 Z  M 70.261 88.892 L 70.261 88.892 L 70.261 88.892 Q 70.261 88.667 70.247 88.33 L 70.247 88.33 L 70.247 88.33 Q 70.232 87.993 70.183 87.622 L 70.183 87.622 L 70.183 87.622 Q 70.134 87.251 70.051 86.88 L 70.051 86.88 L 70.051 86.88 Q 69.968 86.509 69.832 86.216 L 69.832 86.216 L 69.832 86.216 Q 69.695 85.923 69.495 85.737 L 69.495 85.737 L 69.495 85.737 Q 69.295 85.552 69.021 85.552 L 69.021 85.552 L 69.021 85.552 Q 68.758 85.552 68.562 85.728 L 68.562 85.728 L 68.562 85.728 Q 68.367 85.903 68.225 86.187 L 68.225 86.187 L 68.225 86.187 Q 68.084 86.47 67.991 86.826 L 67.991 86.826 L 67.991 86.826 Q 67.898 87.183 67.844 87.539 L 67.844 87.539 L 67.844 87.539 Q 67.791 87.896 67.766 88.223 L 67.766 88.223 L 67.766 88.223 Q 67.742 88.55 67.742 88.774 L 67.742 88.774 L 67.742 88.774 Q 67.742 89.097 67.791 89.556 L 67.791 89.556 L 67.791 89.556 Q 67.84 90.015 67.976 90.435 L 67.976 90.435 L 67.976 90.435 Q 68.113 90.855 68.352 91.152 L 68.352 91.152 L 68.352 91.152 Q 68.592 91.45 68.982 91.45 L 68.982 91.45 L 68.982 91.45 Q 69.353 91.45 69.602 91.177 L 69.602 91.177 L 69.602 91.177 Q 69.851 90.903 69.998 90.508 L 69.998 90.508 L 69.998 90.508 Q 70.144 90.112 70.203 89.673 L 70.203 89.673 L 70.203 89.673 Q 70.261 89.233 70.261 88.892 Z  M 82.517 85.396 L 82.517 85.396 L 82.517 85.396 Q 82.517 85.786 82.361 86.099 L 82.361 86.099 L 82.361 86.099 Q 82.205 86.411 81.941 86.631 L 81.941 86.631 L 81.941 86.631 Q 81.677 86.851 81.326 86.973 L 81.326 86.973 L 81.326 86.973 Q 80.974 87.095 80.584 87.095 L 80.584 87.095 L 80.584 87.095 Q 80.134 87.095 79.817 86.987 L 79.817 86.987 L 79.817 86.987 Q 79.5 86.88 79.28 86.709 L 79.28 86.709 L 79.28 86.709 Q 79.06 86.538 78.933 86.328 L 78.933 86.328 L 78.933 86.328 Q 78.806 86.118 78.733 85.923 L 78.733 85.923 L 78.733 85.923 Q 78.66 85.728 78.64 85.562 L 78.64 85.562 L 78.64 85.562 Q 78.621 85.396 78.621 85.308 L 78.621 85.308 L 78.621 85.308 Q 78.709 85.474 78.845 85.513 L 78.845 85.513 L 78.845 85.513 Q 78.982 85.552 79.06 85.552 L 79.06 85.552 L 79.06 85.552 Q 79.285 85.552 79.383 85.435 L 79.383 85.435 L 79.383 85.435 Q 79.48 85.317 79.48 85.19 L 79.48 85.19 L 79.48 85.19 Q 79.48 85.112 79.441 85.015 L 79.441 85.015 L 79.441 85.015 Q 79.402 84.917 79.304 84.834 L 79.304 84.834 L 79.304 84.834 Q 79.207 84.751 79.051 84.692 L 79.051 84.692 L 79.051 84.692 Q 78.894 84.634 78.66 84.634 L 78.66 84.634 L 78.66 84.634 Q 78.513 84.634 78.347 84.692 L 78.347 84.692 L 78.347 84.692 Q 78.181 84.751 78.05 84.873 L 78.05 84.873 L 78.05 84.873 Q 77.918 84.995 77.83 85.176 L 77.83 85.176 L 77.83 85.176 Q 77.742 85.356 77.742 85.591 L 77.742 85.591 L 77.742 85.591 Q 77.742 86.03 77.967 86.333 L 77.967 86.333 L 77.967 86.333 Q 78.191 86.636 78.557 86.865 L 78.557 86.865 L 78.557 86.865 Q 78.924 87.095 79.387 87.29 L 79.387 87.29 L 79.387 87.29 Q 79.851 87.485 80.34 87.695 L 80.34 87.695 L 80.34 87.695 Q 80.828 87.905 81.292 88.164 L 81.292 88.164 L 81.292 88.164 Q 81.756 88.423 82.122 88.794 L 82.122 88.794 L 82.122 88.794 Q 82.488 89.165 82.713 89.683 L 82.713 89.683 L 82.713 89.683 Q 82.937 90.2 82.937 90.913 L 82.937 90.913 L 82.937 90.913 Q 82.937 91.821 82.566 92.554 L 82.566 92.554 L 82.566 92.554 Q 82.195 93.286 81.575 93.809 L 81.575 93.809 L 81.575 93.809 Q 80.955 94.331 80.134 94.609 L 80.134 94.609 L 80.134 94.609 Q 79.314 94.888 78.406 94.888 L 78.406 94.888 L 78.406 94.888 Q 77.576 94.888 76.834 94.663 L 76.834 94.663 L 76.834 94.663 Q 76.092 94.438 75.535 94.038 L 75.535 94.038 L 75.535 94.038 Q 74.978 93.638 74.651 93.091 L 74.651 93.091 L 74.651 93.091 Q 74.324 92.544 74.324 91.909 L 74.324 91.909 L 74.324 91.909 Q 74.324 91.431 74.48 91.074 L 74.48 91.074 L 74.48 91.074 Q 74.636 90.718 74.915 90.483 L 74.915 90.483 L 74.915 90.483 Q 75.193 90.249 75.569 90.132 L 75.569 90.132 L 75.569 90.132 Q 75.945 90.015 76.384 90.015 L 76.384 90.015 L 76.384 90.015 Q 76.707 90.015 77.029 90.083 L 77.029 90.083 L 77.029 90.083 Q 77.351 90.151 77.634 90.288 L 77.634 90.288 L 77.634 90.288 Q 77.918 90.425 78.142 90.62 L 78.142 90.62 L 78.142 90.62 Q 78.367 90.815 78.504 91.069 L 78.504 91.069 L 78.504 91.069 Q 78.426 91.05 78.352 91.04 L 78.352 91.04 L 78.352 91.04 Q 78.279 91.03 78.201 91.03 L 78.201 91.03 L 78.201 91.03 Q 77.986 91.03 77.864 91.143 L 77.864 91.143 L 77.864 91.143 Q 77.742 91.255 77.742 91.509 L 77.742 91.509 L 77.742 91.509 Q 77.742 91.782 77.967 91.968 L 77.967 91.968 L 77.967 91.968 Q 78.191 92.153 78.465 92.153 L 78.465 92.153 L 78.465 92.153 Q 78.621 92.153 78.758 92.085 L 78.758 92.085 L 78.758 92.085 Q 78.894 92.017 78.992 91.904 L 78.992 91.904 L 78.992 91.904 Q 79.09 91.792 79.143 91.655 L 79.143 91.655 L 79.143 91.655 Q 79.197 91.519 79.197 91.372 L 79.197 91.372 L 79.197 91.372 Q 79.197 91.118 79.026 90.825 L 79.026 90.825 L 79.026 90.825 Q 78.855 90.532 78.543 90.337 L 78.543 90.337 L 78.543 90.337 Q 77.927 89.956 77.381 89.683 L 77.381 89.683 L 77.381 89.683 Q 76.834 89.409 76.375 89.165 L 76.375 89.165 L 76.375 89.165 Q 75.916 88.921 75.55 88.677 L 75.55 88.677 L 75.55 88.677 Q 75.183 88.433 74.929 88.105 L 74.929 88.105 L 74.929 88.105 Q 74.676 87.778 74.539 87.334 L 74.539 87.334 L 74.539 87.334 Q 74.402 86.89 74.402 86.255 L 74.402 86.255 L 74.402 86.255 Q 74.402 85.503 74.7 84.863 L 74.7 84.863 L 74.7 84.863 Q 74.998 84.224 75.554 83.755 L 75.554 83.755 L 75.554 83.755 Q 76.111 83.286 76.922 83.018 L 76.922 83.018 L 76.922 83.018 Q 77.732 82.749 78.758 82.749 L 78.758 82.749 L 78.758 82.749 Q 79.802 82.749 80.52 82.993 L 80.52 82.993 L 80.52 82.993 Q 81.238 83.237 81.682 83.618 L 81.682 83.618 L 81.682 83.618 Q 82.127 83.999 82.322 84.468 L 82.322 84.468 L 82.322 84.468 Q 82.517 84.937 82.517 85.396 Z " fill-rule="evenodd" fill="rgb(255,255,255)"/><path d=" M 5.096 169.681 C 1.938 166.413 0 161.963 0 157.063 C 0 157.063 0 157.063 0 157.063 L 0 18.22 C 0 8.164 8.164 0 18.22 0 L 103.248 0 C 109.137 0 114.377 2.8 117.707 7.142 C 85.252 68.101 47.74 122.306 5.096 169.681 Z " fill="rgb(255,255,255)" fill-opacity="0.05"/></g></g></svg>