<?xml version="1.0" standalone="no"?><!-- Generator: Gravit.io --><svg xmlns="http://www.w3.org/2000/svg" xmlns:xlink="http://www.w3.org/1999/xlink" style="isolation:isolate" viewBox="0 0 121.468 175.283" width="121.468" height="175.283"><defs><clipPath id="_clipPath_ziSzggq8gZcdcetxduGvDx4fUnPr933w"><rect width="121.468" height="175.283"/></clipPath></defs><g clip-path="url(#_clipPath_ziSzggq8gZcdcetxduGvDx4fUnPr933w)"><g id="card-flipped - english"><path d="M 18.22 0 L 103.248 0 C 113.304 0 121.468 8.164 121.468 18.22 L 121.468 157.063 C 121.468 167.119 113.304 175.283 103.248 175.283 L 18.22 175.283 C 8.164 175.283 0 167.119 0 157.063 L 0 18.22 C 0 8.164 8.164 0 18.22 0 Z" style="stroke:none;fill:#8A85B9;stroke-miterlimit:10;"/><path d=" M 35.636 85.327 L 35.636 85.327 L 35.636 85.327 Q 34.836 87.31 34.836 89.175 L 34.836 89.175 L 34.836 89.175 Q 34.836 90.073 35.002 90.986 L 35.002 90.986 L 35.002 90.986 Q 35.168 91.899 35.519 92.847 L 35.519 92.847 L 35.519 92.847 Q 34.963 92.71 34.484 92.642 L 34.484 92.642 L 34.484 92.642 Q 34.006 92.573 33.537 92.573 L 33.537 92.573 L 33.537 92.573 Q 33.039 92.573 32.521 92.661 L 32.521 92.661 L 32.521 92.661 Q 32.004 92.749 31.398 92.935 L 31.398 92.935 L 31.799 91.372 L 31.799 91.372 Q 31.603 91.685 31.33 92.012 L 31.33 92.012 L 31.33 92.012 Q 31.056 92.339 30.68 92.603 L 30.68 92.603 L 30.68 92.603 Q 30.304 92.866 29.821 93.037 L 29.821 93.037 L 29.821 93.037 Q 29.338 93.208 28.713 93.208 L 28.713 93.208 L 28.713 93.208 Q 27.775 93.208 26.989 92.759 L 26.989 92.759 L 26.989 92.759 Q 26.203 92.31 25.636 91.46 L 25.636 91.46 L 25.636 91.46 Q 25.07 90.61 24.753 89.375 L 24.753 89.375 L 24.753 89.375 Q 24.435 88.14 24.435 86.567 L 24.435 86.567 L 24.435 86.567 Q 24.435 85.522 24.631 84.492 L 24.631 84.492 L 24.631 84.492 Q 24.826 83.462 25.197 82.529 L 25.197 82.529 L 25.197 82.529 Q 25.568 81.597 26.115 80.801 L 26.115 80.801 L 26.115 80.801 Q 26.662 80.005 27.355 79.424 L 27.355 79.424 L 27.355 79.424 Q 28.049 78.843 28.893 78.516 L 28.893 78.516 L 28.893 78.516 Q 29.738 78.188 30.715 78.188 L 30.715 78.188 L 30.715 78.188 Q 31.603 78.188 32.267 78.369 L 32.267 78.369 L 32.267 78.369 Q 32.931 78.55 33.42 78.848 L 33.42 78.848 L 33.42 78.848 Q 33.908 79.146 34.225 79.531 L 34.225 79.531 L 34.225 79.531 Q 34.543 79.917 34.728 80.337 L 34.728 80.337 L 34.728 80.337 Q 34.914 80.757 34.992 81.172 L 34.992 81.172 L 34.992 81.172 Q 35.07 81.587 35.07 81.948 L 35.07 81.948 L 35.07 81.948 Q 35.07 82.466 34.889 82.944 L 34.889 82.944 L 34.889 82.944 Q 34.709 83.423 34.386 83.784 L 34.386 83.784 L 34.386 83.784 Q 34.064 84.146 33.625 84.36 L 33.625 84.36 L 33.625 84.36 Q 33.185 84.575 32.658 84.575 L 32.658 84.575 L 32.658 84.575 Q 32.111 84.575 31.711 84.409 L 31.711 84.409 L 31.711 84.409 Q 31.31 84.243 31.047 83.975 L 31.047 83.975 L 31.047 83.975 Q 30.783 83.706 30.651 83.374 L 30.651 83.374 L 30.651 83.374 Q 30.519 83.042 30.519 82.71 L 30.519 82.71 L 30.519 82.71 Q 30.519 82.427 30.617 82.134 L 30.617 82.134 L 30.617 82.134 Q 30.715 81.841 30.89 81.587 L 30.89 81.587 L 30.89 81.587 Q 30.949 81.792 31.056 81.904 L 31.056 81.904 L 31.056 81.904 Q 31.164 82.017 31.271 82.065 L 31.271 82.065 L 31.271 82.065 Q 31.388 82.124 31.535 82.134 L 31.535 82.134 L 31.535 82.134 Q 31.867 82.134 32.009 81.968 L 32.009 81.968 L 32.009 81.968 Q 32.15 81.802 32.15 81.587 L 32.15 81.587 L 32.15 81.587 Q 32.15 81.489 32.106 81.387 L 32.106 81.387 L 32.106 81.387 Q 32.062 81.284 31.974 81.196 L 31.974 81.196 L 31.974 81.196 Q 31.886 81.108 31.745 81.05 L 31.745 81.05 L 31.745 81.05 Q 31.603 80.991 31.398 80.991 L 31.398 80.991 L 31.398 80.991 Q 31.261 80.991 31.022 81.045 L 31.022 81.045 L 31.022 81.045 Q 30.783 81.099 30.505 81.255 L 30.505 81.255 L 30.505 81.255 Q 30.226 81.411 29.943 81.699 L 29.943 81.699 L 29.943 81.699 Q 29.66 81.987 29.426 82.466 L 29.426 82.466 L 29.426 82.466 Q 29.191 82.944 29.045 83.638 L 29.045 83.638 L 29.045 83.638 Q 28.898 84.331 28.898 85.288 L 28.898 85.288 L 28.898 85.288 Q 28.898 86.079 29.03 86.675 L 29.03 86.675 L 29.03 86.675 Q 29.162 87.271 29.396 87.671 L 29.396 87.671 L 29.396 87.671 Q 29.631 88.071 29.953 88.272 L 29.953 88.272 L 29.953 88.272 Q 30.275 88.472 30.656 88.472 L 30.656 88.472 L 30.656 88.472 Q 31.017 88.472 31.252 88.286 L 31.252 88.286 L 31.252 88.286 Q 31.486 88.101 31.623 87.837 L 31.623 87.837 L 31.623 87.837 Q 31.759 87.573 31.808 87.29 L 31.808 87.29 L 31.808 87.29 Q 31.857 87.007 31.857 86.812 L 31.857 86.812 L 31.857 86.812 Q 31.857 86.802 31.843 86.675 L 31.843 86.675 L 31.843 86.675 Q 31.828 86.548 31.75 86.382 L 31.75 86.382 L 31.75 86.382 Q 31.672 86.216 31.496 86.04 L 31.496 86.04 L 31.496 86.04 Q 31.32 85.864 30.998 85.747 L 30.998 85.747 L 30.998 85.747 Q 32.15 85.747 33.312 85.645 L 33.312 85.645 L 33.312 85.645 Q 34.474 85.542 35.636 85.327 Z  M 45.549 86.968 L 45.549 86.968 L 45.549 86.968 Q 45.549 87.534 45.461 88.213 L 45.461 88.213 L 45.461 88.213 Q 45.373 88.892 45.168 89.58 L 45.168 89.58 L 45.168 89.58 Q 44.963 90.269 44.611 90.918 L 44.611 90.918 L 44.611 90.918 Q 44.259 91.567 43.737 92.065 L 43.737 92.065 L 43.737 92.065 Q 43.215 92.563 42.492 92.866 L 42.492 92.866 L 42.492 92.866 Q 41.769 93.169 40.812 93.169 L 40.812 93.169 L 40.812 93.169 Q 39.855 93.169 39.137 92.886 L 39.137 92.886 L 39.137 92.886 Q 38.42 92.603 37.907 92.129 L 37.907 92.129 L 37.907 92.129 Q 37.394 91.655 37.062 91.035 L 37.062 91.035 L 37.062 91.035 Q 36.73 90.415 36.535 89.731 L 36.535 89.731 L 36.535 89.731 Q 36.34 89.048 36.266 88.35 L 36.266 88.35 L 36.266 88.35 Q 36.193 87.651 36.193 87.026 L 36.193 87.026 L 36.193 87.026 Q 36.193 85.923 36.486 84.863 L 36.486 84.863 L 36.486 84.863 Q 36.779 83.804 37.38 82.974 L 37.38 82.974 L 37.38 82.974 Q 37.98 82.144 38.884 81.636 L 38.884 81.636 L 38.884 81.636 Q 39.787 81.128 41.008 81.128 L 41.008 81.128 L 41.008 81.128 Q 41.828 81.128 42.482 81.377 L 42.482 81.377 L 42.482 81.377 Q 43.136 81.626 43.644 82.056 L 43.644 82.056 L 43.644 82.056 Q 44.152 82.485 44.509 83.062 L 44.509 83.062 L 44.509 83.062 Q 44.865 83.638 45.099 84.282 L 45.099 84.282 L 45.099 84.282 Q 45.334 84.927 45.441 85.62 L 45.441 85.62 L 45.441 85.62 Q 45.549 86.313 45.549 86.968 Z  M 42.15 87.29 L 42.15 87.29 L 42.15 87.29 Q 42.15 87.065 42.135 86.729 L 42.135 86.729 L 42.135 86.729 Q 42.121 86.392 42.072 86.021 L 42.072 86.021 L 42.072 86.021 Q 42.023 85.649 41.94 85.278 L 41.94 85.278 L 41.94 85.278 Q 41.857 84.907 41.72 84.614 L 41.72 84.614 L 41.72 84.614 Q 41.584 84.321 41.384 84.136 L 41.384 84.136 L 41.384 84.136 Q 41.183 83.95 40.91 83.95 L 40.91 83.95 L 40.91 83.95 Q 40.646 83.95 40.451 84.126 L 40.451 84.126 L 40.451 84.126 Q 40.256 84.302 40.114 84.585 L 40.114 84.585 L 40.114 84.585 Q 39.972 84.868 39.88 85.225 L 39.88 85.225 L 39.88 85.225 Q 39.787 85.581 39.733 85.938 L 39.733 85.938 L 39.733 85.938 Q 39.679 86.294 39.655 86.621 L 39.655 86.621 L 39.655 86.621 Q 39.631 86.948 39.631 87.173 L 39.631 87.173 L 39.631 87.173 Q 39.631 87.495 39.679 87.954 L 39.679 87.954 L 39.679 87.954 Q 39.728 88.413 39.865 88.833 L 39.865 88.833 L 39.865 88.833 Q 40.002 89.253 40.241 89.551 L 40.241 89.551 L 40.241 89.551 Q 40.48 89.849 40.871 89.849 L 40.871 89.849 L 40.871 89.849 Q 41.242 89.849 41.491 89.575 L 41.491 89.575 L 41.491 89.575 Q 41.74 89.302 41.886 88.906 L 41.886 88.906 L 41.886 88.906 Q 42.033 88.511 42.092 88.071 L 42.092 88.071 L 42.092 88.071 Q 42.15 87.632 42.15 87.29 Z  M 55.627 86.968 L 55.627 86.968 L 55.627 86.968 Q 55.627 87.534 55.539 88.213 L 55.539 88.213 L 55.539 88.213 Q 55.451 88.892 55.246 89.58 L 55.246 89.58 L 55.246 89.58 Q 55.041 90.269 54.689 90.918 L 54.689 90.918 L 54.689 90.918 Q 54.338 91.567 53.815 92.065 L 53.815 92.065 L 53.815 92.065 Q 53.293 92.563 52.57 92.866 L 52.57 92.866 L 52.57 92.866 Q 51.847 93.169 50.89 93.169 L 50.89 93.169 L 50.89 93.169 Q 49.933 93.169 49.216 92.886 L 49.216 92.886 L 49.216 92.886 Q 48.498 92.603 47.985 92.129 L 47.985 92.129 L 47.985 92.129 Q 47.472 91.655 47.14 91.035 L 47.14 91.035 L 47.14 91.035 Q 46.808 90.415 46.613 89.731 L 46.613 89.731 L 46.613 89.731 Q 46.418 89.048 46.344 88.35 L 46.344 88.35 L 46.344 88.35 Q 46.271 87.651 46.271 87.026 L 46.271 87.026 L 46.271 87.026 Q 46.271 85.923 46.564 84.863 L 46.564 84.863 L 46.564 84.863 Q 46.857 83.804 47.458 82.974 L 47.458 82.974 L 47.458 82.974 Q 48.058 82.144 48.962 81.636 L 48.962 81.636 L 48.962 81.636 Q 49.865 81.128 51.086 81.128 L 51.086 81.128 L 51.086 81.128 Q 51.906 81.128 52.56 81.377 L 52.56 81.377 L 52.56 81.377 Q 53.215 81.626 53.722 82.056 L 53.722 82.056 L 53.722 82.056 Q 54.23 82.485 54.587 83.062 L 54.587 83.062 L 54.587 83.062 Q 54.943 83.638 55.177 84.282 L 55.177 84.282 L 55.177 84.282 Q 55.412 84.927 55.519 85.62 L 55.519 85.62 L 55.519 85.62 Q 55.627 86.313 55.627 86.968 Z  M 52.228 87.29 L 52.228 87.29 L 52.228 87.29 Q 52.228 87.065 52.214 86.729 L 52.214 86.729 L 52.214 86.729 Q 52.199 86.392 52.15 86.021 L 52.15 86.021 L 52.15 86.021 Q 52.101 85.649 52.018 85.278 L 52.018 85.278 L 52.018 85.278 Q 51.935 84.907 51.799 84.614 L 51.799 84.614 L 51.799 84.614 Q 51.662 84.321 51.462 84.136 L 51.462 84.136 L 51.462 84.136 Q 51.261 83.95 50.988 83.95 L 50.988 83.95 L 50.988 83.95 Q 50.724 83.95 50.529 84.126 L 50.529 84.126 L 50.529 84.126 Q 50.334 84.302 50.192 84.585 L 50.192 84.585 L 50.192 84.585 Q 50.051 84.868 49.958 85.225 L 49.958 85.225 L 49.958 85.225 Q 49.865 85.581 49.811 85.938 L 49.811 85.938 L 49.811 85.938 Q 49.758 86.294 49.733 86.621 L 49.733 86.621 L 49.733 86.621 Q 49.709 86.948 49.709 87.173 L 49.709 87.173 L 49.709 87.173 Q 49.709 87.495 49.758 87.954 L 49.758 87.954 L 49.758 87.954 Q 49.806 88.413 49.943 88.833 L 49.943 88.833 L 49.943 88.833 Q 50.08 89.253 50.319 89.551 L 50.319 89.551 L 50.319 89.551 Q 50.558 89.849 50.949 89.849 L 50.949 89.849 L 50.949 89.849 Q 51.32 89.849 51.569 89.575 L 51.569 89.575 L 51.569 89.575 Q 51.818 89.302 51.965 88.906 L 51.965 88.906 L 51.965 88.906 Q 52.111 88.511 52.17 88.071 L 52.17 88.071 L 52.17 88.071 Q 52.228 87.632 52.228 87.29 Z  M 66.486 92.808 L 66.486 92.808 L 66.486 92.808 Q 66.261 92.788 65.978 92.769 L 65.978 92.769 L 65.978 92.769 Q 65.734 92.749 65.407 92.739 L 65.407 92.739 L 65.407 92.739 Q 65.08 92.73 64.689 92.73 L 64.689 92.73 L 64.689 92.73 Q 64.133 92.73 63.508 92.769 L 63.508 92.769 L 63.508 92.769 Q 62.883 92.808 62.267 92.915 L 62.267 92.915 L 62.267 92.915 Q 62.326 92.798 62.394 92.427 L 62.394 92.427 L 62.394 92.427 Q 62.463 92.056 62.526 91.606 L 62.526 91.606 L 62.526 91.606 Q 62.59 91.157 62.643 90.718 L 62.643 90.718 L 62.643 90.718 Q 62.697 90.278 62.726 90.034 L 62.726 90.034 L 62.726 90.034 Q 62.57 90.767 62.292 91.367 L 62.292 91.367 L 62.292 91.367 Q 62.013 91.968 61.642 92.393 L 61.642 92.393 L 61.642 92.393 Q 61.271 92.817 60.812 93.052 L 60.812 93.052 L 60.812 93.052 Q 60.353 93.286 59.845 93.286 L 59.845 93.286 L 59.845 93.286 Q 59.611 93.286 59.269 93.257 L 59.269 93.257 L 59.269 93.257 Q 58.927 93.228 58.542 93.062 L 58.542 93.062 L 58.542 93.062 Q 58.156 92.896 57.77 92.549 L 57.77 92.549 L 57.77 92.549 Q 57.384 92.202 57.077 91.572 L 57.077 91.572 L 57.077 91.572 Q 56.769 90.942 56.579 89.976 L 56.579 89.976 L 56.579 89.976 Q 56.388 89.009 56.388 87.612 L 56.388 87.612 L 56.388 87.612 Q 56.388 86.44 56.559 85.518 L 56.559 85.518 L 56.559 85.518 Q 56.73 84.595 57.018 83.892 L 57.018 83.892 L 57.018 83.892 Q 57.306 83.188 57.692 82.695 L 57.692 82.695 L 57.692 82.695 Q 58.078 82.202 58.503 81.89 L 58.503 81.89 L 58.503 81.89 Q 58.927 81.577 59.372 81.436 L 59.372 81.436 L 59.372 81.436 Q 59.816 81.294 60.226 81.294 L 60.226 81.294 L 60.226 81.294 Q 60.685 81.294 61.056 81.445 L 61.056 81.445 L 61.056 81.445 Q 61.427 81.597 61.73 81.836 L 61.73 81.836 L 61.73 81.836 Q 62.033 82.075 62.258 82.383 L 62.258 82.383 L 62.258 82.383 Q 62.482 82.69 62.648 82.993 L 62.648 82.993 L 62.648 82.993 Q 62.629 82.544 62.609 82.017 L 62.609 82.017 L 62.609 82.017 Q 62.59 81.489 62.56 80.952 L 62.56 80.952 L 62.56 80.952 Q 62.531 80.415 62.487 79.893 L 62.487 79.893 L 62.487 79.893 Q 62.443 79.37 62.389 78.921 L 62.389 78.921 L 62.389 78.921 Q 62.336 78.472 62.267 78.13 L 62.267 78.13 L 62.267 78.13 Q 62.199 77.788 62.111 77.612 L 62.111 77.612 L 62.111 77.612 Q 62.892 77.749 63.566 77.798 L 63.566 77.798 L 63.566 77.798 Q 64.24 77.847 64.787 77.847 L 64.787 77.847 L 64.787 77.847 Q 65.138 77.847 65.422 77.832 L 65.422 77.832 L 65.422 77.832 Q 65.705 77.817 65.9 77.798 L 65.9 77.798 L 65.9 77.798 Q 66.134 77.778 66.31 77.749 L 66.31 77.749 L 66.31 77.749 Q 66.203 78.237 66.115 79.023 L 66.115 79.023 L 66.115 79.023 Q 66.027 79.81 65.964 80.796 L 65.964 80.796 L 65.964 80.796 Q 65.9 81.782 65.866 82.91 L 65.866 82.91 L 65.866 82.91 Q 65.832 84.038 65.832 85.21 L 65.832 85.21 L 65.832 85.21 Q 65.832 86.294 65.866 87.368 L 65.866 87.368 L 65.866 87.368 Q 65.9 88.442 65.978 89.434 L 65.978 89.434 L 65.978 89.434 Q 66.056 90.425 66.183 91.289 L 66.183 91.289 L 66.183 91.289 Q 66.31 92.153 66.486 92.808 Z  M 62.472 87.212 L 62.472 87.212 L 62.472 85.63 L 62.472 85.63 Q 62.472 85.366 62.443 85.093 L 62.443 85.093 L 62.443 85.093 Q 62.414 84.819 62.311 84.595 L 62.311 84.595 L 62.311 84.595 Q 62.209 84.37 62.013 84.229 L 62.013 84.229 L 62.013 84.229 Q 61.818 84.087 61.486 84.087 L 61.486 84.087 L 61.486 84.087 Q 61.252 84.087 61.086 84.272 L 61.086 84.272 L 61.086 84.272 Q 60.92 84.458 60.812 84.751 L 60.812 84.751 L 60.812 84.751 Q 60.705 85.044 60.636 85.405 L 60.636 85.405 L 60.636 85.405 Q 60.568 85.767 60.539 86.123 L 60.539 86.123 L 60.539 86.123 Q 60.509 86.48 60.5 86.787 L 60.5 86.787 L 60.5 86.787 Q 60.49 87.095 60.49 87.271 L 60.49 87.271 L 60.49 87.271 Q 60.49 87.534 60.514 87.92 L 60.514 87.92 L 60.514 87.92 Q 60.539 88.306 60.627 88.662 L 60.627 88.662 L 60.627 88.662 Q 60.715 89.019 60.895 89.272 L 60.895 89.272 L 60.895 89.272 Q 61.076 89.526 61.388 89.526 L 61.388 89.526 L 61.388 89.526 Q 61.74 89.526 61.955 89.282 L 61.955 89.282 L 61.955 89.282 Q 62.17 89.038 62.282 88.677 L 62.282 88.677 L 62.282 88.677 Q 62.394 88.315 62.433 87.92 L 62.433 87.92 L 62.433 87.92 Q 62.472 87.524 62.472 87.212 Z  M 67.072 92.808 L 67.072 92.808 L 67.072 92.808 Q 67.248 92.153 67.375 91.289 L 67.375 91.289 L 67.375 91.289 Q 67.502 90.425 67.58 89.434 L 67.58 89.434 L 67.58 89.434 Q 67.658 88.442 67.692 87.368 L 67.692 87.368 L 67.692 87.368 Q 67.726 86.294 67.726 85.21 L 67.726 85.21 L 67.726 85.21 Q 67.726 84.038 67.687 82.91 L 67.687 82.91 L 67.687 82.91 Q 67.648 81.782 67.585 80.796 L 67.585 80.796 L 67.585 80.796 Q 67.521 79.81 67.433 79.023 L 67.433 79.023 L 67.433 79.023 Q 67.345 78.237 67.248 77.749 L 67.248 77.749 L 67.248 77.749 Q 67.424 77.778 67.658 77.798 L 67.658 77.798 L 67.658 77.798 Q 67.853 77.817 68.132 77.832 L 68.132 77.832 L 68.132 77.832 Q 68.41 77.847 68.771 77.847 L 68.771 77.847 L 68.771 77.847 Q 69.308 77.847 69.987 77.798 L 69.987 77.798 L 69.987 77.798 Q 70.666 77.749 71.447 77.612 L 71.447 77.612 L 71.447 77.612 Q 71.359 77.798 71.286 78.154 L 71.286 78.154 L 71.286 78.154 Q 71.213 78.511 71.154 78.98 L 71.154 78.98 L 71.154 78.98 Q 71.095 79.448 71.056 79.995 L 71.056 79.995 L 71.056 79.995 Q 71.017 80.542 70.988 81.094 L 70.988 81.094 L 70.988 81.094 Q 70.959 81.646 70.939 82.178 L 70.939 82.178 L 70.939 82.178 Q 70.92 82.71 70.91 83.149 L 70.91 83.149 L 70.91 83.149 Q 71.31 82.28 71.979 81.787 L 71.979 81.787 L 71.979 81.787 Q 72.648 81.294 73.674 81.294 L 73.674 81.294 L 73.674 81.294 Q 73.898 81.294 74.245 81.382 L 74.245 81.382 L 74.245 81.382 Q 74.592 81.47 74.977 81.704 L 74.977 81.704 L 74.977 81.704 Q 75.363 81.938 75.749 82.344 L 75.749 82.344 L 75.749 82.344 Q 76.134 82.749 76.442 83.379 L 76.442 83.379 L 76.442 83.379 Q 76.75 84.009 76.94 84.893 L 76.94 84.893 L 76.94 84.893 Q 77.131 85.776 77.131 86.968 L 77.131 86.968 L 77.131 86.968 Q 77.131 88.726 76.779 89.912 L 76.779 89.912 L 76.779 89.912 Q 76.427 91.099 75.885 91.816 L 75.885 91.816 L 75.885 91.816 Q 75.343 92.534 74.684 92.842 L 74.684 92.842 L 74.684 92.842 Q 74.025 93.149 73.41 93.149 L 73.41 93.149 L 73.41 93.149 Q 72.961 93.149 72.551 92.896 L 72.551 92.896 L 72.551 92.896 Q 72.14 92.642 71.808 92.241 L 71.808 92.241 L 71.808 92.241 Q 71.476 91.841 71.227 91.333 L 71.227 91.333 L 71.227 91.333 Q 70.978 90.825 70.851 90.308 L 70.851 90.308 L 70.851 90.308 Q 70.881 90.513 70.934 90.908 L 70.934 90.908 L 70.934 90.908 Q 70.988 91.304 71.047 91.719 L 71.047 91.719 L 71.047 91.719 Q 71.105 92.134 71.169 92.476 L 71.169 92.476 L 71.169 92.476 Q 71.232 92.817 71.291 92.915 L 71.291 92.915 L 71.291 92.915 Q 70.676 92.808 70.046 92.769 L 70.046 92.769 L 70.046 92.769 Q 69.416 92.73 68.869 92.73 L 68.869 92.73 L 68.869 92.73 Q 68.468 92.73 68.146 92.739 L 68.146 92.739 L 68.146 92.739 Q 67.824 92.749 67.58 92.769 L 67.58 92.769 L 67.58 92.769 Q 67.297 92.788 67.072 92.808 Z  M 71.047 87.173 L 71.047 87.173 L 71.047 87.749 L 71.047 87.749 Q 71.047 88.013 71.076 88.286 L 71.076 88.286 L 71.076 88.286 Q 71.105 88.56 71.208 88.784 L 71.208 88.784 L 71.208 88.784 Q 71.31 89.009 71.506 89.15 L 71.506 89.15 L 71.506 89.15 Q 71.701 89.292 72.033 89.292 L 72.033 89.292 L 72.033 89.292 Q 72.267 89.292 72.433 89.15 L 72.433 89.15 L 72.433 89.15 Q 72.599 89.009 72.707 88.784 L 72.707 88.784 L 72.707 88.784 Q 72.814 88.56 72.883 88.272 L 72.883 88.272 L 72.883 88.272 Q 72.951 87.983 72.98 87.7 L 72.98 87.7 L 72.98 87.7 Q 73.009 87.417 73.019 87.153 L 73.019 87.153 L 73.019 87.153 Q 73.029 86.89 73.029 86.714 L 73.029 86.714 L 73.029 86.714 Q 73.029 86.45 73.005 86.001 L 73.005 86.001 L 73.005 86.001 Q 72.98 85.552 72.892 85.117 L 72.892 85.117 L 72.892 85.117 Q 72.804 84.683 72.624 84.365 L 72.624 84.365 L 72.624 84.365 Q 72.443 84.048 72.131 84.048 L 72.131 84.048 L 72.131 84.048 Q 71.896 84.048 71.725 84.224 L 71.725 84.224 L 71.725 84.224 Q 71.554 84.399 71.432 84.678 L 71.432 84.678 L 71.432 84.678 Q 71.31 84.956 71.237 85.303 L 71.237 85.303 L 71.237 85.303 Q 71.164 85.649 71.12 85.996 L 71.12 85.996 L 71.12 85.996 Q 71.076 86.343 71.061 86.655 L 71.061 86.655 L 71.061 86.655 Q 71.047 86.968 71.047 87.173 Z  M 87.648 81.45 L 87.648 81.45 L 87.648 81.45 Q 87.541 81.86 87.468 82.437 L 87.468 82.437 L 87.468 82.437 Q 87.394 83.013 87.336 83.677 L 87.336 83.677 L 87.336 83.677 Q 87.277 84.341 87.243 85.063 L 87.243 85.063 L 87.243 85.063 Q 87.209 85.786 87.179 86.47 L 87.179 86.47 L 87.179 86.47 Q 87.121 88.081 87.111 89.868 L 87.111 89.868 L 87.111 89.868 Q 87.111 90.864 86.989 91.831 L 86.989 91.831 L 86.989 91.831 Q 86.867 92.798 86.598 93.662 L 86.598 93.662 L 86.598 93.662 Q 86.33 94.526 85.905 95.264 L 85.905 95.264 L 85.905 95.264 Q 85.48 96.001 84.87 96.533 L 84.87 96.533 L 84.87 96.533 Q 84.259 97.065 83.454 97.368 L 83.454 97.368 L 83.454 97.368 Q 82.648 97.671 81.633 97.671 L 81.633 97.671 L 81.633 97.671 Q 80.685 97.671 79.992 97.476 L 79.992 97.476 L 79.992 97.476 Q 79.299 97.28 78.844 96.924 L 78.844 96.924 L 78.844 96.924 Q 78.39 96.567 78.171 96.069 L 78.171 96.069 L 78.171 96.069 Q 77.951 95.571 77.951 94.976 L 77.951 94.976 L 77.951 94.976 Q 77.951 94.38 78.156 93.897 L 78.156 93.897 L 78.156 93.897 Q 78.361 93.413 78.693 93.081 L 78.693 93.081 L 78.693 93.081 Q 79.025 92.749 79.445 92.568 L 79.445 92.568 L 79.445 92.568 Q 79.865 92.388 80.295 92.388 L 80.295 92.388 L 80.295 92.388 Q 80.842 92.388 81.33 92.7 L 81.33 92.7 L 81.33 92.7 Q 81.818 93.013 82.072 93.687 L 82.072 93.687 L 82.072 93.687 Q 82.013 93.638 81.94 93.623 L 81.94 93.623 L 81.94 93.623 Q 81.867 93.608 81.789 93.608 L 81.789 93.608 L 81.789 93.608 Q 81.681 93.608 81.569 93.657 L 81.569 93.657 L 81.569 93.657 Q 81.457 93.706 81.369 93.794 L 81.369 93.794 L 81.369 93.794 Q 81.281 93.882 81.227 93.994 L 81.227 93.994 L 81.227 93.994 Q 81.174 94.106 81.174 94.233 L 81.174 94.233 L 81.174 94.233 Q 81.174 94.38 81.232 94.482 L 81.232 94.482 L 81.232 94.482 Q 81.291 94.585 81.374 94.644 L 81.374 94.644 L 81.374 94.644 Q 81.457 94.702 81.559 94.727 L 81.559 94.727 L 81.559 94.727 Q 81.662 94.751 81.75 94.751 L 81.75 94.751 L 81.75 94.751 Q 81.886 94.751 82.092 94.692 L 82.092 94.692 L 82.092 94.692 Q 82.297 94.634 82.516 94.448 L 82.516 94.448 L 82.516 94.448 Q 82.736 94.263 82.956 93.931 L 82.956 93.931 L 82.956 93.931 Q 83.176 93.599 83.346 93.047 L 83.346 93.047 L 83.346 93.047 Q 83.517 92.495 83.62 91.704 L 83.62 91.704 L 83.62 91.704 Q 83.722 90.913 83.713 89.81 L 83.713 89.81 L 83.713 89.81 Q 83.459 90.493 83.18 90.918 L 83.18 90.918 L 83.18 90.918 Q 82.902 91.343 82.594 91.577 L 82.594 91.577 L 82.594 91.577 Q 82.287 91.812 81.95 91.89 L 81.95 91.89 L 81.95 91.89 Q 81.613 91.968 81.232 91.968 L 81.232 91.968 L 81.232 91.968 Q 80.754 91.968 80.231 91.797 L 80.231 91.797 L 80.231 91.797 Q 79.709 91.626 79.274 91.191 L 79.274 91.191 L 79.274 91.191 Q 78.84 90.757 78.556 90.005 L 78.556 90.005 L 78.556 90.005 Q 78.273 89.253 78.273 88.091 L 78.273 88.091 L 78.273 88.091 Q 78.273 87.935 78.278 87.871 L 78.278 87.871 L 78.278 87.871 Q 78.283 87.808 78.283 87.773 L 78.283 87.773 L 78.283 87.773 Q 78.283 87.739 78.293 87.69 L 78.293 87.69 L 78.293 87.69 Q 78.302 87.642 78.302 87.5 L 78.302 87.5 L 78.302 87.5 Q 78.302 87.358 78.307 87.095 L 78.307 87.095 L 78.307 87.095 Q 78.312 86.831 78.312 86.353 L 78.312 86.353 L 78.312 86.353 Q 78.312 85.796 78.293 85.093 L 78.293 85.093 L 78.293 85.093 Q 78.273 84.39 78.21 83.716 L 78.21 83.716 L 78.21 83.716 Q 78.146 83.042 78.029 82.49 L 78.029 82.49 L 78.029 82.49 Q 77.912 81.938 77.726 81.675 L 77.726 81.675 L 77.726 81.675 Q 78.517 81.812 79.216 81.86 L 79.216 81.86 L 79.216 81.86 Q 79.914 81.909 80.49 81.909 L 80.49 81.909 L 80.49 81.909 Q 80.871 81.909 81.178 81.895 L 81.178 81.895 L 81.178 81.895 Q 81.486 81.88 81.711 81.86 L 81.711 81.86 L 81.711 81.86 Q 81.965 81.841 82.17 81.812 L 82.17 81.812 L 82.17 81.812 Q 82.092 81.978 81.999 82.446 L 81.999 82.446 L 81.999 82.446 Q 81.906 82.915 81.818 83.569 L 81.818 83.569 L 81.818 83.569 Q 81.73 84.224 81.672 85 L 81.672 85 L 81.672 85 Q 81.613 85.776 81.613 86.567 L 81.613 86.567 L 81.613 86.567 Q 81.613 87.163 81.701 87.583 L 81.701 87.583 L 81.701 87.583 Q 81.789 88.003 81.94 88.272 L 81.94 88.272 L 81.94 88.272 Q 82.092 88.54 82.292 88.667 L 82.292 88.667 L 82.292 88.667 Q 82.492 88.794 82.726 88.794 L 82.726 88.794 L 82.726 88.794 Q 83.097 88.794 83.317 88.491 L 83.317 88.491 L 83.317 88.491 Q 83.537 88.188 83.693 87.73 L 83.693 87.73 L 83.693 87.73 Q 83.674 87.124 83.625 86.313 L 83.625 86.313 L 83.625 86.313 Q 83.576 85.503 83.493 84.624 L 83.493 84.624 L 83.493 84.624 Q 83.41 83.745 83.278 82.852 L 83.278 82.852 L 83.278 82.852 Q 83.146 81.958 82.951 81.187 L 82.951 81.187 L 82.951 81.187 Q 83.254 81.294 83.674 81.382 L 83.674 81.382 L 83.674 81.382 Q 84.035 81.46 84.552 81.514 L 84.552 81.514 L 84.552 81.514 Q 85.07 81.567 85.773 81.567 L 85.773 81.567 L 85.773 81.567 Q 86.603 81.567 87.648 81.45 Z  M 96.945 83.589 L 96.945 83.589 L 96.945 83.589 Q 96.945 84.321 96.735 85.015 L 96.735 85.015 L 96.735 85.015 Q 96.525 85.708 95.998 86.245 L 95.998 86.245 L 95.998 86.245 Q 95.47 86.782 94.577 87.105 L 94.577 87.105 L 94.577 87.105 Q 93.683 87.427 92.306 87.427 L 92.306 87.427 L 92.306 87.427 Q 92.345 87.905 92.507 88.228 L 92.507 88.228 L 92.507 88.228 Q 92.668 88.55 92.892 88.745 L 92.892 88.745 L 92.892 88.745 Q 93.117 88.94 93.371 89.038 L 93.371 89.038 L 93.371 89.038 Q 93.625 89.136 93.84 89.175 L 93.84 89.175 L 93.84 89.175 Q 94.054 89.214 94.201 89.214 L 94.201 89.214 L 94.201 89.214 Q 94.347 89.214 94.347 89.214 L 94.347 89.214 L 94.347 89.214 Q 94.953 89.146 95.431 88.901 L 95.431 88.901 L 95.431 88.901 Q 95.636 88.804 95.832 88.652 L 95.832 88.652 L 95.832 88.652 Q 96.027 88.501 96.188 88.291 L 96.188 88.291 L 96.188 88.291 Q 96.349 88.081 96.452 87.813 L 96.452 87.813 L 96.452 87.813 Q 96.554 87.544 96.574 87.192 L 96.574 87.192 L 96.574 87.192 Q 96.828 87.827 96.93 88.379 L 96.93 88.379 L 96.93 88.379 Q 97.033 88.931 97.033 89.409 L 97.033 89.409 L 97.033 89.409 Q 97.033 90.288 96.716 91.025 L 96.716 91.025 L 96.716 91.025 Q 96.398 91.763 95.842 92.3 L 95.842 92.3 L 95.842 92.3 Q 95.285 92.837 94.518 93.135 L 94.518 93.135 L 94.518 93.135 Q 93.752 93.433 92.853 93.433 L 92.853 93.433 L 92.853 93.433 Q 91.974 93.433 91.159 93.13 L 91.159 93.13 L 91.159 93.13 Q 90.343 92.827 89.714 92.168 L 89.714 92.168 L 89.714 92.168 Q 89.084 91.509 88.708 90.454 L 88.708 90.454 L 88.708 90.454 Q 88.332 89.399 88.332 87.896 L 88.332 87.896 L 88.332 87.896 Q 88.332 86.265 88.801 85.005 L 88.801 85.005 L 88.801 85.005 Q 89.269 83.745 90.06 82.891 L 90.06 82.891 L 90.06 82.891 Q 90.851 82.036 91.891 81.592 L 91.891 81.592 L 91.891 81.592 Q 92.931 81.147 94.074 81.147 L 94.074 81.147 L 94.074 81.147 Q 94.64 81.147 95.163 81.274 L 95.163 81.274 L 95.163 81.274 Q 95.685 81.401 96.081 81.694 L 96.081 81.694 L 96.081 81.694 Q 96.476 81.987 96.711 82.451 L 96.711 82.451 L 96.711 82.451 Q 96.945 82.915 96.945 83.589 Z  M 92.267 85.815 L 92.267 85.815 L 92.267 85.815 Q 92.541 85.806 92.902 85.703 L 92.902 85.703 L 92.902 85.703 Q 93.263 85.601 93.586 85.415 L 93.586 85.415 L 93.586 85.415 Q 93.908 85.23 94.128 84.956 L 94.128 84.956 L 94.128 84.956 Q 94.347 84.683 94.347 84.331 L 94.347 84.331 L 94.347 84.331 Q 94.347 84.106 94.191 83.97 L 94.191 83.97 L 94.191 83.97 Q 94.035 83.833 93.791 83.833 L 93.791 83.833 L 93.791 83.833 Q 93.449 83.833 93.18 84.028 L 93.18 84.028 L 93.18 84.028 Q 92.912 84.224 92.721 84.517 L 92.721 84.517 L 92.721 84.517 Q 92.531 84.81 92.414 85.161 L 92.414 85.161 L 92.414 85.161 Q 92.297 85.513 92.267 85.815 Z " fill-rule="evenodd" fill="rgb(255,255,255)"/><path d=" M 5.096 169.681 C 1.938 166.413 0 161.963 0 157.063 C 0 157.063 0 157.063 0 157.063 L 0 18.22 C 0 8.164 8.164 0 18.22 0 L 103.248 0 C 109.137 0 114.377 2.8 117.707 7.142 C 85.252 68.101 47.74 122.306 5.096 169.681 Z " fill="rgb(255,255,255)" fill-opacity="0.05"/></g></g></svg>