<?xml version="1.0" standalone="no"?><!-- Generator: Gravit.io --><svg xmlns="http://www.w3.org/2000/svg" xmlns:xlink="http://www.w3.org/1999/xlink" style="isolation:isolate" viewBox="0 0 121.468 175.283" width="121.468" height="175.283"><defs><clipPath id="_clipPath_Wp2tJiHqShAA6Y8poGgvlecaEGgOZbzA"><rect width="121.468" height="175.283"/></clipPath></defs><g clip-path="url(#_clipPath_Wp2tJiHqShAA6Y8poGgvlecaEGgOZbzA)"><g id="card-front"><path d="M 18.22 0 L 103.248 0 C 113.304 0 121.468 8.164 121.468 18.22 L 121.468 157.063 C 121.468 167.119 113.304 175.283 103.248 175.283 L 18.22 175.283 C 8.164 175.283 0 167.119 0 157.063 L 0 18.22 C 0 8.164 8.164 0 18.22 0 Z" style="stroke:none;fill:#373640;stroke-miterlimit:10;"/><path d=" M 55.637 110.676 L 55.637 110.676 L 55.637 110.676 Q 55.088 110.611 54.282 110.547 L 54.282 110.547 L 54.282 110.547 Q 53.604 110.482 52.621 110.45 L 52.621 110.45 L 52.621 110.45 Q 51.637 110.418 50.411 110.418 L 50.411 110.418 L 50.411 110.418 Q 48.023 110.418 44.733 110.643 L 44.733 110.643 L 44.733 110.643 Q 41.442 110.869 37.41 111.515 L 37.41 111.515 L 37.41 111.515 Q 39.119 104.32 39.781 97.417 L 39.781 97.417 L 39.781 97.417 Q 40.442 90.513 40.442 84.125 L 40.442 84.125 L 40.442 84.125 Q 40.442 78.318 39.99 73.205 L 39.99 73.205 L 39.99 73.205 Q 39.539 68.092 38.797 63.769 L 38.797 63.769 L 38.797 63.769 Q 42.023 64.349 44.588 64.543 L 44.588 64.543 L 44.588 64.543 Q 47.152 64.737 49.023 64.737 L 49.023 64.737 L 49.023 64.737 Q 50.314 64.737 51.298 64.672 L 51.298 64.672 L 51.298 64.672 Q 52.282 64.607 52.927 64.543 L 52.927 64.543 L 52.927 64.543 Q 53.701 64.446 54.25 64.349 L 54.25 64.349 L 54.25 64.349 Q 55.347 70.672 56.992 76.85 L 56.992 76.85 L 56.992 76.85 Q 58.637 83.028 61.057 89.255 L 61.057 89.255 L 61.057 89.255 Q 63.089 82.964 64.283 76.657 L 64.283 76.657 L 64.283 76.657 Q 65.476 70.35 65.896 63.769 L 65.896 63.769 L 66.154 64.349 L 65.896 63.769 L 65.896 63.769 Q 69.122 64.349 71.767 64.543 L 71.767 64.543 L 71.767 64.543 Q 74.413 64.737 76.445 64.737 L 76.445 64.737 L 76.445 64.737 Q 77.8 64.737 78.832 64.672 L 78.832 64.672 L 78.832 64.672 Q 79.865 64.607 80.607 64.543 L 80.607 64.543 L 80.607 64.543 Q 81.445 64.446 82.058 64.349 L 82.058 64.349 L 82.058 64.349 Q 81.381 67.575 81.026 71.979 L 81.026 71.979 L 81.026 71.979 Q 80.671 76.383 80.671 81.415 L 80.671 81.415 L 80.671 81.415 Q 80.671 84.996 80.865 88.787 L 80.865 88.787 L 80.865 88.787 Q 81.058 92.578 81.462 96.336 L 81.462 96.336 L 81.462 96.336 Q 81.865 100.094 82.51 103.74 L 82.51 103.74 L 82.51 103.74 Q 83.155 107.385 84.059 110.676 L 84.059 110.676 L 84.059 110.676 Q 83.413 110.611 82.575 110.547 L 82.575 110.547 L 82.575 110.547 Q 81.833 110.482 80.833 110.45 L 80.833 110.45 L 80.833 110.45 Q 79.832 110.418 78.51 110.418 L 78.51 110.418 L 78.51 110.418 Q 75.993 110.418 72.59 110.643 L 72.59 110.643 L 72.59 110.643 Q 69.186 110.869 65.154 111.515 L 65.154 111.515 L 65.154 111.515 Q 65.96 109.901 66.493 107.385 L 66.493 107.385 L 66.493 107.385 Q 67.025 104.869 67.364 102.03 L 67.364 102.03 L 67.364 102.03 Q 67.702 99.191 67.88 96.368 L 67.88 96.368 L 67.88 96.368 Q 68.057 93.545 68.122 91.319 L 68.122 91.319 L 68.122 91.319 Q 67.186 93.319 66.315 95.384 L 66.315 95.384 L 66.315 95.384 Q 65.444 97.449 64.525 99.788 L 64.525 99.788 L 64.525 99.788 Q 63.605 102.127 62.605 104.837 L 62.605 104.837 L 62.605 104.837 Q 61.605 107.546 60.411 110.869 L 60.411 110.869 L 60.411 110.869 Q 59.186 107.546 58.186 104.837 L 58.186 104.837 L 58.186 104.837 Q 57.185 102.127 56.298 99.804 L 56.298 99.804 L 56.298 99.804 Q 55.411 97.481 54.556 95.4 L 54.556 95.4 L 54.556 95.4 Q 53.701 93.319 52.798 91.255 L 52.798 91.255 L 52.798 91.255 Q 53.088 96.352 53.766 101.304 L 53.766 101.304 L 53.766 101.304 Q 54.443 106.256 55.637 110.676 Z " fill="rgb(131,129,149)"/><path d=" M 5.096 169.681 C 1.938 166.413 0 161.963 0 157.063 C 0 157.063 0 157.063 0 157.063 L 0 18.22 C 0 8.164 8.164 0 18.22 0 L 103.248 0 C 109.137 0 114.377 2.8 117.707 7.142 C 85.252 68.101 47.74 122.306 5.096 169.681 Z " fill="rgb(255,255,255)" fill-opacity="0.05"/></g></g></svg>