<?xml version="1.0" standalone="no"?><!-- Generator: Gravit.io --><svg xmlns="http://www.w3.org/2000/svg" xmlns:xlink="http://www.w3.org/1999/xlink" style="isolation:isolate" viewBox="0 0 121.468 175.283" width="121.468" height="175.283"><defs><clipPath id="_clipPath_ic3JcSGKE0zutiHe8xzJCWulQMTItMf8"><rect width="121.468" height="175.283"/></clipPath></defs><g clip-path="url(#_clipPath_ic3JcSGKE0zutiHe8xzJCWulQMTItMf8)"><g id="card-flipped - spanish"><path d="M 18.22 0 L 103.248 0 C 113.304 0 121.468 8.164 121.468 18.22 L 121.468 157.063 C 121.468 167.119 113.304 175.283 103.248 175.283 L 18.22 175.283 C 8.164 175.283 0 167.119 0 157.063 L 0 18.22 C 0 8.164 8.164 0 18.22 0 Z" style="stroke:none;fill:#85A5B9;stroke-miterlimit:10;"/><path d=" M 39.85 96.313 L 39.85 96.313 L 39.85 96.313 Q 39.772 96.753 39.738 97.173 L 39.738 97.173 L 39.738 97.173 Q 39.704 97.593 39.704 98.032 L 39.704 98.032 L 39.704 98.032 Q 39.704 98.452 39.738 98.877 L 39.738 98.877 L 39.738 98.877 Q 39.772 99.302 39.85 99.731 L 39.85 99.731 L 39.85 99.731 Q 39.382 99.487 38.791 99.37 L 38.791 99.37 L 38.791 99.37 Q 38.2 99.253 37.585 99.185 L 37.585 99.185 L 37.585 100.024 L 37.585 100.024 Q 37.585 101.128 37.624 102.256 L 37.624 102.256 L 37.624 102.256 Q 37.663 103.384 37.751 104.443 L 37.751 104.443 L 37.751 104.443 Q 37.839 105.503 37.98 106.45 L 37.98 106.45 L 37.98 106.45 Q 38.122 107.397 38.327 108.13 L 38.327 108.13 L 38.327 108.13 Q 38.161 108.12 37.936 108.101 L 37.936 108.101 L 37.936 108.101 Q 37.741 108.091 37.477 108.081 L 37.477 108.081 L 37.477 108.081 Q 37.214 108.071 36.872 108.071 L 36.872 108.071 L 36.872 108.071 Q 36.237 108.071 35.407 108.125 L 35.407 108.125 L 35.407 108.125 Q 34.577 108.179 33.61 108.325 L 33.61 108.325 L 33.61 108.325 Q 33.942 106.421 34.084 104.365 L 34.084 104.365 L 34.084 104.365 Q 34.225 102.31 34.225 100.347 L 34.225 100.347 L 34.225 99.185 L 34.225 99.185 Q 33.561 99.233 32.912 99.336 L 32.912 99.336 L 32.912 99.336 Q 32.262 99.438 31.686 99.585 L 31.686 99.585 L 31.686 99.585 Q 31.725 99.478 31.755 99.302 L 31.755 99.302 L 31.755 99.302 Q 31.784 99.126 31.799 98.94 L 31.799 98.94 L 31.799 98.94 Q 31.813 98.755 31.818 98.579 L 31.818 98.579 L 31.818 98.579 Q 31.823 98.403 31.823 98.286 L 31.823 98.286 L 31.823 98.286 Q 31.823 97.788 31.784 97.3 L 31.784 97.3 L 31.784 97.3 Q 31.745 96.812 31.686 96.313 L 31.686 96.313 L 31.686 96.313 Q 32.155 96.509 32.8 96.631 L 32.8 96.631 L 32.8 96.631 Q 33.444 96.753 34.108 96.812 L 34.108 96.812 L 34.108 96.812 Q 34.05 95.962 33.971 95.239 L 33.971 95.239 L 33.971 95.239 Q 33.893 94.517 33.786 93.931 L 33.786 93.931 L 33.786 93.931 Q 34.577 94.067 35.251 94.116 L 35.251 94.116 L 35.251 94.116 Q 35.925 94.165 36.471 94.165 L 36.471 94.165 L 36.471 94.165 Q 36.823 94.165 37.101 94.15 L 37.101 94.15 L 37.101 94.15 Q 37.38 94.136 37.575 94.116 L 37.575 94.116 L 37.575 94.116 Q 37.809 94.097 37.985 94.067 L 37.985 94.067 L 37.985 94.067 Q 37.878 94.536 37.804 95.234 L 37.804 95.234 L 37.804 95.234 Q 37.731 95.933 37.663 96.792 L 37.663 96.792 L 37.663 96.792 Q 38.307 96.724 38.879 96.606 L 38.879 96.606 L 38.879 96.606 Q 39.45 96.489 39.85 96.313 Z  M 50.446 108.306 L 50.446 108.306 L 50.446 108.306 Q 50.26 108.286 50.016 108.267 L 50.016 108.267 L 50.016 108.267 Q 49.811 108.247 49.523 108.237 L 49.523 108.237 L 49.523 108.237 Q 49.235 108.228 48.893 108.228 L 48.893 108.228 L 48.893 108.228 Q 48.405 108.228 47.824 108.267 L 47.824 108.267 L 47.824 108.267 Q 47.243 108.306 46.628 108.413 L 46.628 108.413 L 46.667 105.669 L 46.667 105.669 Q 46.296 107.124 45.578 107.915 L 45.578 107.915 L 45.578 107.915 Q 44.86 108.706 43.893 108.706 L 43.893 108.706 L 43.893 108.706 Q 43.591 108.706 43.21 108.628 L 43.21 108.628 L 43.21 108.628 Q 42.829 108.55 42.433 108.33 L 42.433 108.33 L 42.433 108.33 Q 42.038 108.11 41.662 107.72 L 41.662 107.72 L 41.662 107.72 Q 41.286 107.329 40.993 106.709 L 40.993 106.709 L 40.993 106.709 Q 40.7 106.089 40.524 105.205 L 40.524 105.205 L 40.524 105.205 Q 40.348 104.321 40.348 103.11 L 40.348 103.11 L 40.348 103.11 Q 40.348 101.47 40.68 100.303 L 40.68 100.303 L 40.68 100.303 Q 41.012 99.136 41.53 98.394 L 41.53 98.394 L 41.53 98.394 Q 42.048 97.651 42.673 97.31 L 42.673 97.31 L 42.673 97.31 Q 43.298 96.968 43.893 96.968 L 43.893 96.968 L 43.893 96.968 Q 44.401 96.968 44.816 97.109 L 44.816 97.109 L 44.816 97.109 Q 45.231 97.251 45.553 97.471 L 45.553 97.471 L 45.553 97.471 Q 45.876 97.69 46.11 97.964 L 46.11 97.964 L 46.11 97.964 Q 46.344 98.237 46.491 98.511 L 46.491 98.511 L 46.491 98.511 Q 46.462 98.179 46.403 97.803 L 46.403 97.803 L 46.403 97.803 Q 46.344 97.427 46.266 97.026 L 46.266 97.026 L 46.266 97.026 Q 46.901 97.153 47.555 97.192 L 47.555 97.192 L 47.555 97.192 Q 48.21 97.231 48.766 97.231 L 48.766 97.231 L 48.766 97.231 Q 49.43 97.231 49.841 97.202 L 49.841 97.202 L 49.841 97.202 Q 50.075 97.192 50.27 97.173 L 50.27 97.173 L 50.27 97.173 Q 50.163 97.661 50.075 98.267 L 50.075 98.267 L 50.075 98.267 Q 49.987 98.872 49.924 99.561 L 49.924 99.561 L 49.924 99.561 Q 49.86 100.249 49.826 101.006 L 49.826 101.006 L 49.826 101.006 Q 49.792 101.763 49.792 102.554 L 49.792 102.554 L 49.792 102.554 Q 49.792 104.028 49.938 105.513 L 49.938 105.513 L 49.938 105.513 Q 50.085 106.997 50.446 108.306 Z  M 46.432 102.71 L 46.432 102.71 L 46.432 101.128 L 46.432 101.128 Q 46.432 100.864 46.403 100.591 L 46.403 100.591 L 46.403 100.591 Q 46.374 100.317 46.271 100.093 L 46.271 100.093 L 46.271 100.093 Q 46.169 99.868 45.973 99.727 L 45.973 99.727 L 45.973 99.727 Q 45.778 99.585 45.446 99.585 L 45.446 99.585 L 45.446 99.585 Q 45.094 99.585 44.865 99.829 L 44.865 99.829 L 44.865 99.829 Q 44.635 100.073 44.494 100.498 L 44.494 100.498 L 44.494 100.498 Q 44.352 100.923 44.299 101.504 L 44.299 101.504 L 44.299 101.504 Q 44.245 102.085 44.245 102.769 L 44.245 102.769 L 44.245 102.769 Q 44.245 103.159 44.299 103.56 L 44.299 103.56 L 44.299 103.56 Q 44.352 103.96 44.479 104.287 L 44.479 104.287 L 44.479 104.287 Q 44.606 104.614 44.821 104.819 L 44.821 104.819 L 44.821 104.819 Q 45.036 105.024 45.348 105.024 L 45.348 105.024 L 45.348 105.024 Q 45.7 105.024 45.915 104.78 L 45.915 104.78 L 45.915 104.78 Q 46.13 104.536 46.242 104.175 L 46.242 104.175 L 46.242 104.175 Q 46.354 103.813 46.393 103.418 L 46.393 103.418 L 46.393 103.418 Q 46.432 103.022 46.432 102.71 Z  M 56.569 99.312 L 56.569 99.312 L 56.569 99.312 Q 56.266 99.312 56.022 99.482 L 56.022 99.482 L 56.022 99.482 Q 55.778 99.653 55.588 99.961 L 55.588 99.961 L 55.588 99.961 Q 55.397 100.269 55.256 100.698 L 55.256 100.698 L 55.256 100.698 Q 55.114 101.128 55.026 101.646 L 55.026 101.646 L 55.026 101.646 Q 55.026 102.476 55.065 103.325 L 55.065 103.325 L 55.065 103.325 Q 55.104 104.175 55.192 105.005 L 55.192 105.005 L 55.192 105.005 Q 55.28 105.835 55.422 106.626 L 55.422 106.626 L 55.422 106.626 Q 55.563 107.417 55.768 108.13 L 55.768 108.13 L 55.768 108.13 Q 55.612 108.12 55.407 108.101 L 55.407 108.101 L 55.407 108.101 Q 55.231 108.091 54.982 108.081 L 54.982 108.081 L 54.982 108.081 Q 54.733 108.071 54.411 108.071 L 54.411 108.071 L 54.411 108.071 Q 53.805 108.071 53.009 108.125 L 53.009 108.125 L 53.009 108.125 Q 52.214 108.179 51.247 108.325 L 51.247 108.325 L 51.247 108.325 Q 51.364 107.778 51.452 106.987 L 51.452 106.987 L 51.452 106.987 Q 51.54 106.196 51.598 105.269 L 51.598 105.269 L 51.598 105.269 Q 51.657 104.341 51.691 103.33 L 51.691 103.33 L 51.691 103.33 Q 51.725 102.319 51.725 101.333 L 51.725 101.333 L 51.725 101.333 Q 51.725 100.601 51.706 99.897 L 51.706 99.897 L 51.706 99.897 Q 51.686 99.194 51.652 98.569 L 51.652 98.569 L 51.652 98.569 Q 51.618 97.944 51.559 97.417 L 51.559 97.417 L 51.559 97.417 Q 51.501 96.89 51.423 96.509 L 51.423 96.509 L 51.423 96.509 Q 52.214 96.646 52.863 96.699 L 52.863 96.699 L 52.863 96.699 Q 53.512 96.753 54.03 96.753 L 54.03 96.753 L 54.03 96.753 Q 54.362 96.753 54.616 96.738 L 54.616 96.738 L 54.616 96.738 Q 54.87 96.724 55.055 96.704 L 55.055 96.704 L 55.055 96.704 Q 55.26 96.675 55.426 96.646 L 55.426 96.646 L 55.426 96.646 Q 55.309 97.134 55.251 97.73 L 55.251 97.73 L 55.251 97.73 Q 55.759 97.114 56.359 96.821 L 56.359 96.821 L 56.359 96.821 Q 56.96 96.528 57.487 96.528 L 57.487 96.528 L 57.487 96.528 Q 58.366 96.528 58.971 96.846 L 58.971 96.846 L 58.971 96.846 Q 59.577 97.163 59.948 97.676 L 59.948 97.676 L 59.948 97.676 Q 60.319 98.188 60.485 98.843 L 60.485 98.843 L 60.485 98.843 Q 60.651 99.497 60.651 100.171 L 60.651 100.171 L 60.651 100.171 Q 60.651 100.825 60.466 101.45 L 60.466 101.45 L 60.466 101.45 Q 60.28 102.075 59.928 102.568 L 59.928 102.568 L 59.928 102.568 Q 59.577 103.062 59.059 103.364 L 59.059 103.364 L 59.059 103.364 Q 58.542 103.667 57.887 103.667 L 57.887 103.667 L 57.887 103.667 Q 57.311 103.667 56.906 103.472 L 56.906 103.472 L 56.906 103.472 Q 56.501 103.276 56.237 102.964 L 56.237 102.964 L 56.237 102.964 Q 55.973 102.651 55.851 102.275 L 55.851 102.275 L 55.851 102.275 Q 55.729 101.899 55.729 101.528 L 55.729 101.528 L 55.729 101.528 Q 55.729 101.138 55.842 100.767 L 55.842 100.767 L 55.842 100.767 Q 55.954 100.396 56.169 100.093 L 56.169 100.093 L 56.169 100.093 Q 56.237 100.308 56.34 100.42 L 56.34 100.42 L 56.34 100.42 Q 56.442 100.532 56.55 100.581 L 56.55 100.581 L 56.55 100.581 Q 56.667 100.64 56.803 100.649 L 56.803 100.649 L 56.803 100.649 Q 57.165 100.649 57.345 100.483 L 57.345 100.483 L 57.345 100.483 Q 57.526 100.317 57.526 100.093 L 57.526 100.093 L 57.526 100.093 Q 57.526 99.985 57.487 99.849 L 57.487 99.849 L 57.487 99.849 Q 57.448 99.712 57.345 99.595 L 57.345 99.595 L 57.345 99.595 Q 57.243 99.478 57.057 99.395 L 57.057 99.395 L 57.057 99.395 Q 56.872 99.312 56.569 99.312 Z  M 71.208 108.306 L 71.208 108.306 L 71.208 108.306 Q 70.983 108.286 70.7 108.267 L 70.7 108.267 L 70.7 108.267 Q 70.456 108.247 70.129 108.237 L 70.129 108.237 L 70.129 108.237 Q 69.801 108.228 69.411 108.228 L 69.411 108.228 L 69.411 108.228 Q 68.854 108.228 68.229 108.267 L 68.229 108.267 L 68.229 108.267 Q 67.604 108.306 66.989 108.413 L 66.989 108.413 L 66.989 108.413 Q 67.048 108.296 67.116 107.925 L 67.116 107.925 L 67.116 107.925 Q 67.184 107.554 67.248 107.105 L 67.248 107.105 L 67.248 107.105 Q 67.311 106.655 67.365 106.216 L 67.365 106.216 L 67.365 106.216 Q 67.419 105.776 67.448 105.532 L 67.448 105.532 L 67.448 105.532 Q 67.292 106.265 67.013 106.865 L 67.013 106.865 L 67.013 106.865 Q 66.735 107.466 66.364 107.891 L 66.364 107.891 L 66.364 107.891 Q 65.993 108.315 65.534 108.55 L 65.534 108.55 L 65.534 108.55 Q 65.075 108.784 64.567 108.784 L 64.567 108.784 L 64.567 108.784 Q 64.333 108.784 63.991 108.755 L 63.991 108.755 L 63.991 108.755 Q 63.649 108.726 63.263 108.56 L 63.263 108.56 L 63.263 108.56 Q 62.878 108.394 62.492 108.047 L 62.492 108.047 L 62.492 108.047 Q 62.106 107.7 61.799 107.07 L 61.799 107.07 L 61.799 107.07 Q 61.491 106.44 61.301 105.474 L 61.301 105.474 L 61.301 105.474 Q 61.11 104.507 61.11 103.11 L 61.11 103.11 L 61.11 103.11 Q 61.11 101.938 61.281 101.016 L 61.281 101.016 L 61.281 101.016 Q 61.452 100.093 61.74 99.39 L 61.74 99.39 L 61.74 99.39 Q 62.028 98.687 62.414 98.193 L 62.414 98.193 L 62.414 98.193 Q 62.8 97.7 63.224 97.388 L 63.224 97.388 L 63.224 97.388 Q 63.649 97.075 64.093 96.934 L 64.093 96.934 L 64.093 96.934 Q 64.538 96.792 64.948 96.792 L 64.948 96.792 L 64.948 96.792 Q 65.407 96.792 65.778 96.943 L 65.778 96.943 L 65.778 96.943 Q 66.149 97.095 66.452 97.334 L 66.452 97.334 L 66.452 97.334 Q 66.755 97.573 66.979 97.881 L 66.979 97.881 L 66.979 97.881 Q 67.204 98.188 67.37 98.491 L 67.37 98.491 L 67.37 98.491 Q 67.35 98.042 67.331 97.515 L 67.331 97.515 L 67.331 97.515 Q 67.311 96.987 67.282 96.45 L 67.282 96.45 L 67.282 96.45 Q 67.253 95.913 67.209 95.391 L 67.209 95.391 L 67.209 95.391 Q 67.165 94.868 67.111 94.419 L 67.111 94.419 L 67.111 94.419 Q 67.057 93.97 66.989 93.628 L 66.989 93.628 L 66.989 93.628 Q 66.921 93.286 66.833 93.11 L 66.833 93.11 L 66.833 93.11 Q 67.614 93.247 68.288 93.296 L 68.288 93.296 L 68.288 93.296 Q 68.962 93.345 69.509 93.345 L 69.509 93.345 L 69.509 93.345 Q 69.86 93.345 70.143 93.33 L 70.143 93.33 L 70.143 93.33 Q 70.426 93.315 70.622 93.296 L 70.622 93.296 L 70.622 93.296 Q 70.856 93.276 71.032 93.247 L 71.032 93.247 L 71.032 93.247 Q 70.925 93.735 70.837 94.522 L 70.837 94.522 L 70.837 94.522 Q 70.749 95.308 70.685 96.294 L 70.685 96.294 L 70.685 96.294 Q 70.622 97.28 70.588 98.408 L 70.588 98.408 L 70.588 98.408 Q 70.553 99.536 70.553 100.708 L 70.553 100.708 L 70.553 100.708 Q 70.553 101.792 70.588 102.866 L 70.588 102.866 L 70.588 102.866 Q 70.622 103.94 70.7 104.932 L 70.7 104.932 L 70.7 104.932 Q 70.778 105.923 70.905 106.787 L 70.905 106.787 L 70.905 106.787 Q 71.032 107.651 71.208 108.306 Z  M 67.194 102.71 L 67.194 102.71 L 67.194 101.128 L 67.194 101.128 Q 67.194 100.864 67.165 100.591 L 67.165 100.591 L 67.165 100.591 Q 67.135 100.317 67.033 100.093 L 67.033 100.093 L 67.033 100.093 Q 66.93 99.868 66.735 99.727 L 66.735 99.727 L 66.735 99.727 Q 66.54 99.585 66.208 99.585 L 66.208 99.585 L 66.208 99.585 Q 65.973 99.585 65.807 99.771 L 65.807 99.771 L 65.807 99.771 Q 65.641 99.956 65.534 100.249 L 65.534 100.249 L 65.534 100.249 Q 65.426 100.542 65.358 100.903 L 65.358 100.903 L 65.358 100.903 Q 65.29 101.265 65.26 101.621 L 65.26 101.621 L 65.26 101.621 Q 65.231 101.978 65.221 102.285 L 65.221 102.285 L 65.221 102.285 Q 65.212 102.593 65.212 102.769 L 65.212 102.769 L 65.212 102.769 Q 65.212 103.032 65.236 103.418 L 65.236 103.418 L 65.236 103.418 Q 65.26 103.804 65.348 104.16 L 65.348 104.16 L 65.348 104.16 Q 65.436 104.517 65.617 104.771 L 65.617 104.771 L 65.617 104.771 Q 65.798 105.024 66.11 105.024 L 66.11 105.024 L 66.11 105.024 Q 66.462 105.024 66.676 104.78 L 66.676 104.78 L 66.676 104.78 Q 66.891 104.536 67.004 104.175 L 67.004 104.175 L 67.004 104.175 Q 67.116 103.813 67.155 103.418 L 67.155 103.418 L 67.155 103.418 Q 67.194 103.022 67.194 102.71 Z  M 80.446 99.087 L 80.446 99.087 L 80.446 99.087 Q 80.446 99.819 80.236 100.513 L 80.236 100.513 L 80.236 100.513 Q 80.026 101.206 79.499 101.743 L 79.499 101.743 L 79.499 101.743 Q 78.971 102.28 78.078 102.603 L 78.078 102.603 L 78.078 102.603 Q 77.184 102.925 75.807 102.925 L 75.807 102.925 L 75.807 102.925 Q 75.846 103.403 76.008 103.726 L 76.008 103.726 L 76.008 103.726 Q 76.169 104.048 76.393 104.243 L 76.393 104.243 L 76.393 104.243 Q 76.618 104.438 76.872 104.536 L 76.872 104.536 L 76.872 104.536 Q 77.126 104.634 77.341 104.673 L 77.341 104.673 L 77.341 104.673 Q 77.555 104.712 77.702 104.712 L 77.702 104.712 L 77.702 104.712 Q 77.848 104.712 77.848 104.712 L 77.848 104.712 L 77.848 104.712 Q 78.454 104.644 78.932 104.399 L 78.932 104.399 L 78.932 104.399 Q 79.137 104.302 79.333 104.15 L 79.333 104.15 L 79.333 104.15 Q 79.528 103.999 79.689 103.789 L 79.689 103.789 L 79.689 103.789 Q 79.85 103.579 79.953 103.311 L 79.953 103.311 L 79.953 103.311 Q 80.055 103.042 80.075 102.69 L 80.075 102.69 L 80.075 102.69 Q 80.329 103.325 80.431 103.877 L 80.431 103.877 L 80.431 103.877 Q 80.534 104.429 80.534 104.907 L 80.534 104.907 L 80.534 104.907 Q 80.534 105.786 80.217 106.523 L 80.217 106.523 L 80.217 106.523 Q 79.899 107.261 79.343 107.798 L 79.343 107.798 L 79.343 107.798 Q 78.786 108.335 78.019 108.633 L 78.019 108.633 L 78.019 108.633 Q 77.253 108.931 76.354 108.931 L 76.354 108.931 L 76.354 108.931 Q 75.475 108.931 74.66 108.628 L 74.66 108.628 L 74.66 108.628 Q 73.844 108.325 73.215 107.666 L 73.215 107.666 L 73.215 107.666 Q 72.585 107.007 72.209 105.952 L 72.209 105.952 L 72.209 105.952 Q 71.833 104.897 71.833 103.394 L 71.833 103.394 L 71.833 103.394 Q 71.833 101.763 72.301 100.503 L 72.301 100.503 L 72.301 100.503 Q 72.77 99.243 73.561 98.389 L 73.561 98.389 L 73.561 98.389 Q 74.352 97.534 75.392 97.09 L 75.392 97.09 L 75.392 97.09 Q 76.432 96.646 77.575 96.646 L 77.575 96.646 L 77.575 96.646 Q 78.141 96.646 78.664 96.772 L 78.664 96.772 L 78.664 96.772 Q 79.186 96.899 79.582 97.192 L 79.582 97.192 L 79.582 97.192 Q 79.977 97.485 80.212 97.949 L 80.212 97.949 L 80.212 97.949 Q 80.446 98.413 80.446 99.087 Z  M 75.768 101.313 L 75.768 101.313 L 75.768 101.313 Q 76.042 101.304 76.403 101.201 L 76.403 101.201 L 76.403 101.201 Q 76.764 101.099 77.087 100.913 L 77.087 100.913 L 77.087 100.913 Q 77.409 100.728 77.629 100.454 L 77.629 100.454 L 77.629 100.454 Q 77.848 100.181 77.848 99.829 L 77.848 99.829 L 77.848 99.829 Q 77.848 99.605 77.692 99.468 L 77.692 99.468 L 77.692 99.468 Q 77.536 99.331 77.292 99.331 L 77.292 99.331 L 77.292 99.331 Q 76.95 99.331 76.681 99.526 L 76.681 99.526 L 76.681 99.526 Q 76.413 99.722 76.222 100.015 L 76.222 100.015 L 76.222 100.015 Q 76.032 100.308 75.915 100.659 L 75.915 100.659 L 75.915 100.659 Q 75.798 101.011 75.768 101.313 Z  M 89.362 99.292 L 89.362 99.292 L 89.362 99.292 Q 89.362 99.683 89.206 99.995 L 89.206 99.995 L 89.206 99.995 Q 89.05 100.308 88.786 100.527 L 88.786 100.527 L 88.786 100.527 Q 88.522 100.747 88.171 100.869 L 88.171 100.869 L 88.171 100.869 Q 87.819 100.991 87.428 100.991 L 87.428 100.991 L 87.428 100.991 Q 86.979 100.991 86.662 100.884 L 86.662 100.884 L 86.662 100.884 Q 86.344 100.776 86.125 100.605 L 86.125 100.605 L 86.125 100.605 Q 85.905 100.435 85.778 100.225 L 85.778 100.225 L 85.778 100.225 Q 85.651 100.015 85.578 99.819 L 85.578 99.819 L 85.578 99.819 Q 85.505 99.624 85.485 99.458 L 85.485 99.458 L 85.485 99.458 Q 85.466 99.292 85.466 99.204 L 85.466 99.204 L 85.466 99.204 Q 85.553 99.37 85.69 99.409 L 85.69 99.409 L 85.69 99.409 Q 85.827 99.448 85.905 99.448 L 85.905 99.448 L 85.905 99.448 Q 86.13 99.448 86.227 99.331 L 86.227 99.331 L 86.227 99.331 Q 86.325 99.214 86.325 99.087 L 86.325 99.087 L 86.325 99.087 Q 86.325 99.009 86.286 98.911 L 86.286 98.911 L 86.286 98.911 Q 86.247 98.813 86.149 98.73 L 86.149 98.73 L 86.149 98.73 Q 86.051 98.647 85.895 98.589 L 85.895 98.589 L 85.895 98.589 Q 85.739 98.53 85.505 98.53 L 85.505 98.53 L 85.505 98.53 Q 85.358 98.53 85.192 98.589 L 85.192 98.589 L 85.192 98.589 Q 85.026 98.647 84.894 98.77 L 84.894 98.77 L 84.894 98.77 Q 84.762 98.892 84.675 99.072 L 84.675 99.072 L 84.675 99.072 Q 84.587 99.253 84.587 99.487 L 84.587 99.487 L 84.587 99.487 Q 84.587 99.927 84.811 100.23 L 84.811 100.23 L 84.811 100.23 Q 85.036 100.532 85.402 100.762 L 85.402 100.762 L 85.402 100.762 Q 85.768 100.991 86.232 101.187 L 86.232 101.187 L 86.232 101.187 Q 86.696 101.382 87.184 101.592 L 87.184 101.592 L 87.184 101.592 Q 87.673 101.802 88.136 102.061 L 88.136 102.061 L 88.136 102.061 Q 88.6 102.319 88.967 102.69 L 88.967 102.69 L 88.967 102.69 Q 89.333 103.062 89.557 103.579 L 89.557 103.579 L 89.557 103.579 Q 89.782 104.097 89.782 104.81 L 89.782 104.81 L 89.782 104.81 Q 89.782 105.718 89.411 106.45 L 89.411 106.45 L 89.411 106.45 Q 89.04 107.183 88.42 107.705 L 88.42 107.705 L 88.42 107.705 Q 87.8 108.228 86.979 108.506 L 86.979 108.506 L 86.979 108.506 Q 86.159 108.784 85.251 108.784 L 85.251 108.784 L 85.251 108.784 Q 84.421 108.784 83.678 108.56 L 83.678 108.56 L 83.678 108.56 Q 82.936 108.335 82.38 107.935 L 82.38 107.935 L 82.38 107.935 Q 81.823 107.534 81.496 106.987 L 81.496 106.987 L 81.496 106.987 Q 81.169 106.44 81.169 105.806 L 81.169 105.806 L 81.169 105.806 Q 81.169 105.327 81.325 104.971 L 81.325 104.971 L 81.325 104.971 Q 81.481 104.614 81.759 104.38 L 81.759 104.38 L 81.759 104.38 Q 82.038 104.146 82.414 104.028 L 82.414 104.028 L 82.414 104.028 Q 82.79 103.911 83.229 103.911 L 83.229 103.911 L 83.229 103.911 Q 83.551 103.911 83.874 103.98 L 83.874 103.98 L 83.874 103.98 Q 84.196 104.048 84.479 104.185 L 84.479 104.185 L 84.479 104.185 Q 84.762 104.321 84.987 104.517 L 84.987 104.517 L 84.987 104.517 Q 85.212 104.712 85.348 104.966 L 85.348 104.966 L 85.348 104.966 Q 85.27 104.946 85.197 104.937 L 85.197 104.937 L 85.197 104.937 Q 85.124 104.927 85.046 104.927 L 85.046 104.927 L 85.046 104.927 Q 84.831 104.927 84.709 105.039 L 84.709 105.039 L 84.709 105.039 Q 84.587 105.151 84.587 105.405 L 84.587 105.405 L 84.587 105.405 Q 84.587 105.679 84.811 105.864 L 84.811 105.864 L 84.811 105.864 Q 85.036 106.05 85.309 106.05 L 85.309 106.05 L 85.309 106.05 Q 85.466 106.05 85.602 105.981 L 85.602 105.981 L 85.602 105.981 Q 85.739 105.913 85.837 105.801 L 85.837 105.801 L 85.837 105.801 Q 85.934 105.688 85.988 105.552 L 85.988 105.552 L 85.988 105.552 Q 86.042 105.415 86.042 105.269 L 86.042 105.269 L 86.042 105.269 Q 86.042 105.015 85.871 104.722 L 85.871 104.722 L 85.871 104.722 Q 85.7 104.429 85.387 104.233 L 85.387 104.233 L 85.387 104.233 Q 84.772 103.853 84.225 103.579 L 84.225 103.579 L 84.225 103.579 Q 83.678 103.306 83.219 103.062 L 83.219 103.062 L 83.219 103.062 Q 82.76 102.817 82.394 102.573 L 82.394 102.573 L 82.394 102.573 Q 82.028 102.329 81.774 102.002 L 81.774 102.002 L 81.774 102.002 Q 81.52 101.675 81.384 101.23 L 81.384 101.23 L 81.384 101.23 Q 81.247 100.786 81.247 100.151 L 81.247 100.151 L 81.247 100.151 Q 81.247 99.399 81.545 98.76 L 81.545 98.76 L 81.545 98.76 Q 81.843 98.12 82.399 97.651 L 82.399 97.651 L 82.399 97.651 Q 82.956 97.183 83.766 96.914 L 83.766 96.914 L 83.766 96.914 Q 84.577 96.646 85.602 96.646 L 85.602 96.646 L 85.602 96.646 Q 86.647 96.646 87.365 96.89 L 87.365 96.89 L 87.365 96.89 Q 88.083 97.134 88.527 97.515 L 88.527 97.515 L 88.527 97.515 Q 88.971 97.896 89.167 98.364 L 89.167 98.364 L 89.167 98.364 Q 89.362 98.833 89.362 99.292 Z  M 41.408 76.792 L 41.408 76.792 L 41.408 76.792 Q 41.408 77.876 40.954 78.638 L 40.954 78.638 L 40.954 78.638 Q 40.5 79.399 39.748 79.883 L 39.748 79.883 L 39.748 79.883 Q 38.996 80.366 38.024 80.601 L 38.024 80.601 L 38.024 80.601 Q 37.052 80.835 36.027 80.874 L 36.027 80.874 L 36.027 80.874 Q 35.373 80.855 34.777 80.825 L 34.777 80.825 L 34.777 80.825 Q 34.523 80.815 34.259 80.811 L 34.259 80.811 L 34.259 80.811 Q 33.996 80.806 33.747 80.796 L 33.747 80.796 L 33.747 80.796 Q 33.498 80.786 33.273 80.786 L 33.273 80.786 L 33.273 80.786 Q 33.049 80.786 32.892 80.786 L 32.892 80.786 L 32.892 80.786 Q 32.248 80.806 31.559 80.815 L 31.559 80.815 L 31.559 80.815 Q 30.871 80.825 30.207 80.874 L 30.207 80.874 L 30.207 80.874 Q 30.646 80.278 30.92 79.351 L 30.92 79.351 L 30.92 79.351 Q 31.193 78.423 31.354 77.349 L 31.354 77.349 L 31.354 77.349 Q 31.515 76.274 31.574 75.147 L 31.574 75.147 L 31.574 75.147 Q 31.633 74.019 31.633 73.032 L 31.633 73.032 L 31.633 73.032 Q 31.633 72.612 31.618 72.012 L 31.618 72.012 L 31.618 72.012 Q 31.603 71.411 31.564 70.732 L 31.564 70.732 L 31.564 70.732 Q 31.525 70.054 31.457 69.36 L 31.457 69.36 L 31.457 69.36 Q 31.388 68.667 31.266 68.066 L 31.266 68.066 L 31.266 68.066 Q 31.144 67.466 30.968 67.007 L 30.968 67.007 L 30.968 67.007 Q 30.793 66.548 30.549 66.353 L 30.549 66.353 L 30.549 66.353 Q 31.252 66.46 31.916 66.494 L 31.916 66.494 L 31.916 66.494 Q 32.58 66.528 33.049 66.528 L 33.049 66.528 L 33.049 66.528 Q 33.459 66.528 33.781 66.514 L 33.781 66.514 L 33.781 66.514 Q 34.103 66.499 34.416 66.48 L 34.416 66.48 L 34.416 66.48 Q 34.728 66.46 35.06 66.445 L 35.06 66.445 L 35.06 66.445 Q 35.392 66.431 35.812 66.431 L 35.812 66.431 L 35.812 66.431 Q 36.457 66.44 37.106 66.504 L 37.106 66.504 L 37.106 66.504 Q 37.756 66.567 38.346 66.724 L 38.346 66.724 L 38.346 66.724 Q 38.937 66.88 39.455 67.148 L 39.455 67.148 L 39.455 67.148 Q 39.972 67.417 40.348 67.847 L 40.348 67.847 L 40.348 67.847 Q 40.724 68.276 40.944 68.882 L 40.944 68.882 L 40.944 68.882 Q 41.164 69.487 41.164 70.308 L 41.164 70.308 L 41.164 70.308 Q 41.164 70.747 41.051 71.187 L 41.051 71.187 L 41.051 71.187 Q 40.939 71.626 40.69 72.046 L 40.69 72.046 L 40.69 72.046 Q 40.441 72.466 40.036 72.852 L 40.036 72.852 L 40.036 72.852 Q 39.631 73.237 39.045 73.569 L 39.045 73.569 L 39.045 73.569 Q 40.295 74.087 40.851 74.893 L 40.851 74.893 L 40.851 74.893 Q 41.408 75.698 41.408 76.792 Z  M 35.588 72.388 L 35.588 72.388 L 35.588 72.388 Q 35.783 72.241 36.047 71.992 L 36.047 71.992 L 36.047 71.992 Q 36.31 71.743 36.545 71.445 L 36.545 71.445 L 36.545 71.445 Q 36.779 71.147 36.945 70.825 L 36.945 70.825 L 36.945 70.825 Q 37.111 70.503 37.111 70.21 L 37.111 70.21 L 37.111 70.21 Q 37.111 69.897 36.93 69.702 L 36.93 69.702 L 36.93 69.702 Q 36.75 69.507 36.525 69.507 L 36.525 69.507 L 36.525 69.507 Q 36.213 69.507 36.027 69.79 L 36.027 69.79 L 36.027 69.79 Q 35.842 70.073 35.739 70.459 L 35.739 70.459 L 35.739 70.459 Q 35.636 70.845 35.602 71.24 L 35.602 71.24 L 35.602 71.24 Q 35.568 71.636 35.568 71.87 L 35.568 71.87 L 35.568 71.87 Q 35.568 71.987 35.568 72.119 L 35.568 72.119 L 35.568 72.119 Q 35.568 72.251 35.588 72.388 Z  M 36.926 77.251 L 36.926 77.251 L 36.926 77.251 Q 36.926 76.899 36.818 76.543 L 36.818 76.543 L 36.818 76.543 Q 36.711 76.187 36.53 75.84 L 36.53 75.84 L 36.53 75.84 Q 36.349 75.493 36.12 75.171 L 36.12 75.171 L 36.12 75.171 Q 35.89 74.849 35.646 74.556 L 35.646 74.556 L 35.646 74.556 Q 35.5 74.995 35.456 75.42 L 35.456 75.42 L 35.456 75.42 Q 35.412 75.845 35.412 76.187 L 35.412 76.187 L 35.412 76.187 Q 35.412 76.694 35.48 77.031 L 35.48 77.031 L 35.48 77.031 Q 35.549 77.368 35.671 77.573 L 35.671 77.573 L 35.671 77.573 Q 35.793 77.778 35.959 77.866 L 35.959 77.866 L 35.959 77.866 Q 36.125 77.954 36.33 77.954 L 36.33 77.954 L 36.33 77.954 Q 36.574 77.954 36.75 77.773 L 36.75 77.773 L 36.75 77.773 Q 36.926 77.593 36.926 77.251 Z  M 50.929 69.331 L 50.929 69.331 L 50.929 69.331 Q 50.842 69.771 50.768 70.356 L 50.768 70.356 L 50.768 70.356 Q 50.695 70.942 50.641 71.621 L 50.641 71.621 L 50.641 71.621 Q 50.588 72.3 50.558 73.037 L 50.558 73.037 L 50.558 73.037 Q 50.529 73.774 50.529 74.507 L 50.529 74.507 L 50.529 74.507 Q 50.529 74.751 50.539 74.99 L 50.539 74.99 L 50.539 74.99 Q 50.549 75.23 50.549 75.454 L 50.549 75.454 L 50.549 75.454 Q 50.549 75.933 50.495 76.538 L 50.495 76.538 L 50.495 76.538 Q 50.441 77.144 50.28 77.773 L 50.28 77.773 L 50.28 77.773 Q 50.119 78.403 49.836 79.009 L 49.836 79.009 L 49.836 79.009 Q 49.552 79.614 49.089 80.083 L 49.089 80.083 L 49.089 80.083 Q 48.625 80.552 47.961 80.84 L 47.961 80.84 L 47.961 80.84 Q 47.297 81.128 46.388 81.128 L 46.388 81.128 L 46.388 81.128 Q 45.607 81.128 45.007 80.923 L 45.007 80.923 L 45.007 80.923 Q 44.406 80.718 43.962 80.361 L 43.962 80.361 L 43.962 80.361 Q 43.517 80.005 43.215 79.517 L 43.215 79.517 L 43.215 79.517 Q 42.912 79.028 42.726 78.467 L 42.726 78.467 L 42.726 78.467 Q 42.541 77.905 42.458 77.29 L 42.458 77.29 L 42.458 77.29 Q 42.375 76.675 42.375 76.069 L 42.375 76.069 L 42.375 76.069 Q 42.375 75.923 42.38 75.889 L 42.38 75.889 L 42.38 75.889 Q 42.384 75.855 42.384 75.845 L 42.384 75.845 L 42.384 75.845 Q 42.384 75.835 42.394 75.811 L 42.394 75.811 L 42.394 75.811 Q 42.404 75.786 42.404 75.659 L 42.404 75.659 L 42.404 75.659 Q 42.404 75.532 42.409 75.259 L 42.409 75.259 L 42.409 75.259 Q 42.414 74.985 42.414 74.487 L 42.414 74.487 L 42.414 74.487 Q 42.414 73.901 42.394 73.164 L 42.394 73.164 L 42.394 73.164 Q 42.375 72.427 42.311 71.719 L 42.311 71.719 L 42.311 71.719 Q 42.248 71.011 42.131 70.435 L 42.131 70.435 L 42.131 70.435 Q 42.013 69.858 41.828 69.595 L 41.828 69.595 L 41.828 69.595 Q 42.619 69.731 43.317 69.78 L 43.317 69.78 L 43.317 69.78 Q 44.015 69.829 44.592 69.829 L 44.592 69.829 L 44.592 69.829 Q 44.972 69.829 45.28 69.814 L 45.28 69.814 L 45.28 69.814 Q 45.588 69.8 45.812 69.78 L 45.812 69.78 L 45.812 69.78 Q 46.066 69.761 46.271 69.731 L 46.271 69.731 L 46.271 69.731 Q 46.076 70.688 45.895 71.904 L 45.895 71.904 L 45.895 71.904 Q 45.715 73.12 45.715 74.692 L 45.715 74.692 L 45.715 74.692 Q 45.715 75.054 45.749 75.444 L 45.749 75.444 L 45.749 75.444 Q 45.783 75.835 45.871 76.162 L 45.871 76.162 L 45.871 76.162 Q 45.959 76.489 46.11 76.699 L 46.11 76.699 L 46.11 76.699 Q 46.261 76.909 46.496 76.909 L 46.496 76.909 L 46.496 76.909 Q 46.789 76.909 46.955 76.714 L 46.955 76.714 L 46.955 76.714 Q 47.121 76.519 47.204 76.201 L 47.204 76.201 L 47.204 76.201 Q 47.287 75.884 47.301 75.493 L 47.301 75.493 L 47.301 75.493 Q 47.316 75.103 47.316 74.712 L 47.316 74.712 L 47.316 74.712 Q 47.306 73.442 47.238 72.339 L 47.238 72.339 L 47.238 72.339 Q 47.209 71.87 47.165 71.392 L 47.165 71.392 L 47.165 71.392 Q 47.121 70.913 47.062 70.488 L 47.062 70.488 L 47.062 70.488 Q 47.004 70.063 46.926 69.727 L 46.926 69.727 L 46.926 69.727 Q 46.847 69.39 46.75 69.194 L 46.75 69.194 L 46.75 69.194 Q 47.541 69.331 48.215 69.38 L 48.215 69.38 L 48.215 69.38 Q 48.888 69.429 49.416 69.429 L 49.416 69.429 L 49.416 69.429 Q 49.767 69.429 50.046 69.414 L 50.046 69.414 L 50.046 69.414 Q 50.324 69.399 50.519 69.38 L 50.519 69.38 L 50.519 69.38 Q 50.754 69.36 50.929 69.331 Z  M 60.148 71.509 L 60.148 71.509 L 60.148 71.509 Q 60.148 72.241 59.938 72.935 L 59.938 72.935 L 59.938 72.935 Q 59.728 73.628 59.201 74.165 L 59.201 74.165 L 59.201 74.165 Q 58.674 74.702 57.78 75.024 L 57.78 75.024 L 57.78 75.024 Q 56.886 75.347 55.509 75.347 L 55.509 75.347 L 55.509 75.347 Q 55.549 75.825 55.71 76.147 L 55.71 76.147 L 55.71 76.147 Q 55.871 76.47 56.095 76.665 L 56.095 76.665 L 56.095 76.665 Q 56.32 76.86 56.574 76.958 L 56.574 76.958 L 56.574 76.958 Q 56.828 77.056 57.043 77.095 L 57.043 77.095 L 57.043 77.095 Q 57.258 77.134 57.404 77.134 L 57.404 77.134 L 57.404 77.134 Q 57.551 77.134 57.551 77.134 L 57.551 77.134 L 57.551 77.134 Q 58.156 77.065 58.634 76.821 L 58.634 76.821 L 58.634 76.821 Q 58.84 76.724 59.035 76.572 L 59.035 76.572 L 59.035 76.572 Q 59.23 76.421 59.391 76.211 L 59.391 76.211 L 59.391 76.211 Q 59.552 76.001 59.655 75.732 L 59.655 75.732 L 59.655 75.732 Q 59.758 75.464 59.777 75.112 L 59.777 75.112 L 59.777 75.112 Q 60.031 75.747 60.134 76.299 L 60.134 76.299 L 60.134 76.299 Q 60.236 76.851 60.236 77.329 L 60.236 77.329 L 60.236 77.329 Q 60.236 78.208 59.919 78.945 L 59.919 78.945 L 59.919 78.945 Q 59.601 79.683 59.045 80.22 L 59.045 80.22 L 59.045 80.22 Q 58.488 80.757 57.721 81.055 L 57.721 81.055 L 57.721 81.055 Q 56.955 81.353 56.056 81.353 L 56.056 81.353 L 56.056 81.353 Q 55.177 81.353 54.362 81.05 L 54.362 81.05 L 54.362 81.05 Q 53.547 80.747 52.917 80.088 L 52.917 80.088 L 52.917 80.088 Q 52.287 79.429 51.911 78.374 L 51.911 78.374 L 51.911 78.374 Q 51.535 77.319 51.535 75.815 L 51.535 75.815 L 51.535 75.815 Q 51.535 74.185 52.004 72.925 L 52.004 72.925 L 52.004 72.925 Q 52.472 71.665 53.263 70.811 L 53.263 70.811 L 53.263 70.811 Q 54.054 69.956 55.094 69.512 L 55.094 69.512 L 55.094 69.512 Q 56.134 69.067 57.277 69.067 L 57.277 69.067 L 57.277 69.067 Q 57.843 69.067 58.366 69.194 L 58.366 69.194 L 58.366 69.194 Q 58.888 69.321 59.284 69.614 L 59.284 69.614 L 59.284 69.614 Q 59.679 69.907 59.914 70.371 L 59.914 70.371 L 59.914 70.371 Q 60.148 70.835 60.148 71.509 Z  M 55.47 73.735 L 55.47 73.735 L 55.47 73.735 Q 55.744 73.726 56.105 73.623 L 56.105 73.623 L 56.105 73.623 Q 56.467 73.521 56.789 73.335 L 56.789 73.335 L 56.789 73.335 Q 57.111 73.149 57.331 72.876 L 57.331 72.876 L 57.331 72.876 Q 57.551 72.603 57.551 72.251 L 57.551 72.251 L 57.551 72.251 Q 57.551 72.026 57.394 71.89 L 57.394 71.89 L 57.394 71.89 Q 57.238 71.753 56.994 71.753 L 56.994 71.753 L 56.994 71.753 Q 56.652 71.753 56.384 71.948 L 56.384 71.948 L 56.384 71.948 Q 56.115 72.144 55.925 72.437 L 55.925 72.437 L 55.925 72.437 Q 55.734 72.73 55.617 73.081 L 55.617 73.081 L 55.617 73.081 Q 55.5 73.433 55.47 73.735 Z  M 71.144 80.786 L 71.144 80.786 L 71.144 80.786 Q 70.842 80.737 70.48 80.723 L 70.48 80.723 L 70.48 80.723 Q 70.119 80.708 69.728 80.708 L 69.728 80.708 L 69.728 80.708 Q 69.259 80.708 68.776 80.732 L 68.776 80.732 L 68.776 80.732 Q 68.293 80.757 67.834 80.796 L 67.834 80.796 L 67.834 80.796 Q 67.375 80.835 66.965 80.884 L 66.965 80.884 L 66.965 80.884 Q 66.554 80.933 66.252 80.972 L 66.252 80.972 L 66.252 80.972 Q 66.672 79.556 66.901 77.944 L 66.901 77.944 L 66.901 77.944 Q 67.131 76.333 67.131 74.37 L 67.131 74.37 L 67.131 74.37 Q 67.131 74.224 67.126 73.98 L 67.126 73.98 L 67.126 73.98 Q 67.121 73.735 67.101 73.452 L 67.101 73.452 L 67.101 73.452 Q 67.082 73.169 67.038 72.881 L 67.038 72.881 L 67.038 72.881 Q 66.994 72.593 66.911 72.358 L 66.911 72.358 L 66.911 72.358 Q 66.828 72.124 66.701 71.978 L 66.701 71.978 L 66.701 71.978 Q 66.574 71.831 66.388 71.831 L 66.388 71.831 L 66.388 71.831 Q 66.115 71.831 65.856 72.026 L 65.856 72.026 L 65.856 72.026 Q 65.597 72.222 65.397 72.544 L 65.397 72.544 L 65.397 72.544 Q 65.197 72.866 65.075 73.286 L 65.075 73.286 L 65.075 73.286 Q 64.953 73.706 64.953 74.155 L 64.953 74.155 L 64.953 74.155 Q 64.953 74.966 64.992 75.801 L 64.992 75.801 L 64.992 75.801 Q 65.031 76.636 65.119 77.456 L 65.119 77.456 L 65.119 77.456 Q 65.207 78.276 65.343 79.063 L 65.343 79.063 L 65.343 79.063 Q 65.48 79.849 65.685 80.552 L 65.685 80.552 L 65.685 80.552 Q 65.519 80.542 65.295 80.522 L 65.295 80.522 L 65.295 80.522 Q 65.099 80.513 64.836 80.503 L 64.836 80.503 L 64.836 80.503 Q 64.572 80.493 64.23 80.493 L 64.23 80.493 L 64.23 80.493 Q 63.595 80.493 62.765 80.547 L 62.765 80.547 L 62.765 80.547 Q 61.935 80.601 60.968 80.747 L 60.968 80.747 L 60.968 80.747 Q 61.086 80.2 61.174 79.409 L 61.174 79.409 L 61.174 79.409 Q 61.261 78.618 61.32 77.69 L 61.32 77.69 L 61.32 77.69 Q 61.379 76.763 61.413 75.752 L 61.413 75.752 L 61.413 75.752 Q 61.447 74.741 61.447 73.755 L 61.447 73.755 L 61.447 73.755 Q 61.447 73.022 61.427 72.319 L 61.427 72.319 L 61.427 72.319 Q 61.408 71.616 61.374 70.991 L 61.374 70.991 L 61.374 70.991 Q 61.34 70.366 61.281 69.839 L 61.281 69.839 L 61.281 69.839 Q 61.222 69.312 61.144 68.931 L 61.144 68.931 L 61.144 68.931 Q 61.935 69.067 62.609 69.121 L 62.609 69.121 L 62.609 69.121 Q 63.283 69.175 63.83 69.175 L 63.83 69.175 L 63.83 69.175 Q 64.181 69.175 64.46 69.16 L 64.46 69.16 L 64.46 69.16 Q 64.738 69.146 64.933 69.126 L 64.933 69.126 L 64.933 69.126 Q 65.168 69.097 65.343 69.067 L 65.343 69.067 L 65.343 69.067 Q 65.285 69.37 65.231 69.712 L 65.231 69.712 L 65.231 69.712 Q 65.177 70.054 65.129 70.454 L 65.129 70.454 L 65.129 70.454 Q 65.451 70.044 65.812 69.736 L 65.812 69.736 L 65.812 69.736 Q 66.174 69.429 66.54 69.224 L 66.54 69.224 L 66.54 69.224 Q 66.906 69.019 67.267 68.916 L 67.267 68.916 L 67.267 68.916 Q 67.629 68.813 67.951 68.813 L 67.951 68.813 L 67.951 68.813 Q 68.654 68.813 69.167 69.102 L 69.167 69.102 L 69.167 69.102 Q 69.679 69.39 70.016 70.005 L 70.016 70.005 L 70.016 70.005 Q 70.353 70.62 70.519 71.577 L 70.519 71.577 L 70.519 71.577 Q 70.685 72.534 70.685 73.872 L 70.685 73.872 L 70.685 73.872 Q 70.685 74.79 70.69 75.737 L 70.69 75.737 L 70.69 75.737 Q 70.695 76.685 70.734 77.593 L 70.734 77.593 L 70.734 77.593 Q 70.773 78.501 70.871 79.316 L 70.871 79.316 L 70.871 79.316 Q 70.968 80.132 71.144 80.786 Z  M 81.945 80.728 L 81.945 80.728 L 81.945 80.728 Q 81.759 80.708 81.515 80.688 L 81.515 80.688 L 81.515 80.688 Q 81.31 80.669 81.022 80.659 L 81.022 80.659 L 81.022 80.659 Q 80.734 80.649 80.392 80.649 L 80.392 80.649 L 80.392 80.649 Q 79.904 80.649 79.323 80.688 L 79.323 80.688 L 79.323 80.688 Q 78.742 80.728 78.127 80.835 L 78.127 80.835 L 78.166 78.091 L 78.166 78.091 Q 77.795 79.546 77.077 80.337 L 77.077 80.337 L 77.077 80.337 Q 76.359 81.128 75.392 81.128 L 75.392 81.128 L 75.392 81.128 Q 75.09 81.128 74.709 81.05 L 74.709 81.05 L 74.709 81.05 Q 74.328 80.972 73.932 80.752 L 73.932 80.752 L 73.932 80.752 Q 73.537 80.532 73.161 80.142 L 73.161 80.142 L 73.161 80.142 Q 72.785 79.751 72.492 79.131 L 72.492 79.131 L 72.492 79.131 Q 72.199 78.511 72.023 77.627 L 72.023 77.627 L 72.023 77.627 Q 71.847 76.743 71.847 75.532 L 71.847 75.532 L 71.847 75.532 Q 71.847 73.892 72.179 72.725 L 72.179 72.725 L 72.179 72.725 Q 72.511 71.558 73.029 70.815 L 73.029 70.815 L 73.029 70.815 Q 73.547 70.073 74.172 69.731 L 74.172 69.731 L 74.172 69.731 Q 74.797 69.39 75.392 69.39 L 75.392 69.39 L 75.392 69.39 Q 75.9 69.39 76.315 69.531 L 76.315 69.531 L 76.315 69.531 Q 76.73 69.673 77.052 69.893 L 77.052 69.893 L 77.052 69.893 Q 77.375 70.112 77.609 70.386 L 77.609 70.386 L 77.609 70.386 Q 77.843 70.659 77.99 70.933 L 77.99 70.933 L 77.99 70.933 Q 77.961 70.601 77.902 70.225 L 77.902 70.225 L 77.902 70.225 Q 77.843 69.849 77.765 69.448 L 77.765 69.448 L 77.765 69.448 Q 78.4 69.575 79.054 69.614 L 79.054 69.614 L 79.054 69.614 Q 79.709 69.653 80.265 69.653 L 80.265 69.653 L 80.265 69.653 Q 80.929 69.653 81.34 69.624 L 81.34 69.624 L 81.34 69.624 Q 81.574 69.614 81.769 69.595 L 81.769 69.595 L 81.769 69.595 Q 81.662 70.083 81.574 70.688 L 81.574 70.688 L 81.574 70.688 Q 81.486 71.294 81.423 71.982 L 81.423 71.982 L 81.423 71.982 Q 81.359 72.671 81.325 73.428 L 81.325 73.428 L 81.325 73.428 Q 81.291 74.185 81.291 74.976 L 81.291 74.976 L 81.291 74.976 Q 81.291 76.45 81.437 77.935 L 81.437 77.935 L 81.437 77.935 Q 81.584 79.419 81.945 80.728 Z  M 77.931 75.132 L 77.931 75.132 L 77.931 73.55 L 77.931 73.55 Q 77.931 73.286 77.902 73.013 L 77.902 73.013 L 77.902 73.013 Q 77.873 72.739 77.77 72.515 L 77.77 72.515 L 77.77 72.515 Q 77.668 72.29 77.472 72.148 L 77.472 72.148 L 77.472 72.148 Q 77.277 72.007 76.945 72.007 L 76.945 72.007 L 76.945 72.007 Q 76.593 72.007 76.364 72.251 L 76.364 72.251 L 76.364 72.251 Q 76.134 72.495 75.993 72.92 L 75.993 72.92 L 75.993 72.92 Q 75.851 73.345 75.798 73.926 L 75.798 73.926 L 75.798 73.926 Q 75.744 74.507 75.744 75.19 L 75.744 75.19 L 75.744 75.19 Q 75.744 75.581 75.798 75.981 L 75.798 75.981 L 75.798 75.981 Q 75.851 76.382 75.978 76.709 L 75.978 76.709 L 75.978 76.709 Q 76.105 77.036 76.32 77.241 L 76.32 77.241 L 76.32 77.241 Q 76.535 77.446 76.847 77.446 L 76.847 77.446 L 76.847 77.446 Q 77.199 77.446 77.414 77.202 L 77.414 77.202 L 77.414 77.202 Q 77.629 76.958 77.741 76.597 L 77.741 76.597 L 77.741 76.597 Q 77.853 76.235 77.892 75.84 L 77.892 75.84 L 77.892 75.84 Q 77.931 75.444 77.931 75.132 Z  M 90.842 71.714 L 90.842 71.714 L 90.842 71.714 Q 90.842 72.105 90.685 72.417 L 90.685 72.417 L 90.685 72.417 Q 90.529 72.73 90.265 72.949 L 90.265 72.949 L 90.265 72.949 Q 90.002 73.169 89.65 73.291 L 89.65 73.291 L 89.65 73.291 Q 89.299 73.413 88.908 73.413 L 88.908 73.413 L 88.908 73.413 Q 88.459 73.413 88.141 73.306 L 88.141 73.306 L 88.141 73.306 Q 87.824 73.198 87.604 73.027 L 87.604 73.027 L 87.604 73.027 Q 87.384 72.856 87.258 72.647 L 87.258 72.647 L 87.258 72.647 Q 87.131 72.437 87.057 72.241 L 87.057 72.241 L 87.057 72.241 Q 86.984 72.046 86.965 71.88 L 86.965 71.88 L 86.965 71.88 Q 86.945 71.714 86.945 71.626 L 86.945 71.626 L 86.945 71.626 Q 87.033 71.792 87.17 71.831 L 87.17 71.831 L 87.17 71.831 Q 87.306 71.87 87.384 71.87 L 87.384 71.87 L 87.384 71.87 Q 87.609 71.87 87.707 71.753 L 87.707 71.753 L 87.707 71.753 Q 87.804 71.636 87.804 71.509 L 87.804 71.509 L 87.804 71.509 Q 87.804 71.431 87.765 71.333 L 87.765 71.333 L 87.765 71.333 Q 87.726 71.235 87.629 71.152 L 87.629 71.152 L 87.629 71.152 Q 87.531 71.069 87.375 71.011 L 87.375 71.011 L 87.375 71.011 Q 87.218 70.952 86.984 70.952 L 86.984 70.952 L 86.984 70.952 Q 86.838 70.952 86.672 71.011 L 86.672 71.011 L 86.672 71.011 Q 86.506 71.069 86.374 71.191 L 86.374 71.191 L 86.374 71.191 Q 86.242 71.313 86.154 71.494 L 86.154 71.494 L 86.154 71.494 Q 86.066 71.675 86.066 71.909 L 86.066 71.909 L 86.066 71.909 Q 86.066 72.349 86.291 72.651 L 86.291 72.651 L 86.291 72.651 Q 86.515 72.954 86.882 73.184 L 86.882 73.184 L 86.882 73.184 Q 87.248 73.413 87.712 73.608 L 87.712 73.608 L 87.712 73.608 Q 88.176 73.804 88.664 74.014 L 88.664 74.014 L 88.664 74.014 Q 89.152 74.224 89.616 74.482 L 89.616 74.482 L 89.616 74.482 Q 90.08 74.741 90.446 75.112 L 90.446 75.112 L 90.446 75.112 Q 90.812 75.483 91.037 76.001 L 91.037 76.001 L 91.037 76.001 Q 91.261 76.519 91.261 77.231 L 91.261 77.231 L 91.261 77.231 Q 91.261 78.14 90.89 78.872 L 90.89 78.872 L 90.89 78.872 Q 90.519 79.605 89.899 80.127 L 89.899 80.127 L 89.899 80.127 Q 89.279 80.649 88.459 80.928 L 88.459 80.928 L 88.459 80.928 Q 87.638 81.206 86.73 81.206 L 86.73 81.206 L 86.73 81.206 Q 85.9 81.206 85.158 80.981 L 85.158 80.981 L 85.158 80.981 Q 84.416 80.757 83.859 80.356 L 83.859 80.356 L 83.859 80.356 Q 83.302 79.956 82.975 79.409 L 82.975 79.409 L 82.975 79.409 Q 82.648 78.862 82.648 78.228 L 82.648 78.228 L 82.648 78.228 Q 82.648 77.749 82.804 77.393 L 82.804 77.393 L 82.804 77.393 Q 82.961 77.036 83.239 76.802 L 83.239 76.802 L 83.239 76.802 Q 83.517 76.567 83.893 76.45 L 83.893 76.45 L 83.893 76.45 Q 84.269 76.333 84.709 76.333 L 84.709 76.333 L 84.709 76.333 Q 85.031 76.333 85.353 76.401 L 85.353 76.401 L 85.353 76.401 Q 85.676 76.47 85.959 76.606 L 85.959 76.606 L 85.959 76.606 Q 86.242 76.743 86.467 76.938 L 86.467 76.938 L 86.467 76.938 Q 86.691 77.134 86.828 77.388 L 86.828 77.388 L 86.828 77.388 Q 86.75 77.368 86.676 77.358 L 86.676 77.358 L 86.676 77.358 Q 86.603 77.349 86.525 77.349 L 86.525 77.349 L 86.525 77.349 Q 86.31 77.349 86.188 77.461 L 86.188 77.461 L 86.188 77.461 Q 86.066 77.573 86.066 77.827 L 86.066 77.827 L 86.066 77.827 Q 86.066 78.101 86.291 78.286 L 86.291 78.286 L 86.291 78.286 Q 86.515 78.472 86.789 78.472 L 86.789 78.472 L 86.789 78.472 Q 86.945 78.472 87.082 78.403 L 87.082 78.403 L 87.082 78.403 Q 87.218 78.335 87.316 78.223 L 87.316 78.223 L 87.316 78.223 Q 87.414 78.11 87.468 77.974 L 87.468 77.974 L 87.468 77.974 Q 87.521 77.837 87.521 77.69 L 87.521 77.69 L 87.521 77.69 Q 87.521 77.437 87.35 77.144 L 87.35 77.144 L 87.35 77.144 Q 87.179 76.851 86.867 76.655 L 86.867 76.655 L 86.867 76.655 Q 86.252 76.274 85.705 76.001 L 85.705 76.001 L 85.705 76.001 Q 85.158 75.728 84.699 75.483 L 84.699 75.483 L 84.699 75.483 Q 84.24 75.239 83.874 74.995 L 83.874 74.995 L 83.874 74.995 Q 83.508 74.751 83.254 74.424 L 83.254 74.424 L 83.254 74.424 Q 83 74.097 82.863 73.652 L 82.863 73.652 L 82.863 73.652 Q 82.726 73.208 82.726 72.573 L 82.726 72.573 L 82.726 72.573 Q 82.726 71.821 83.024 71.182 L 83.024 71.182 L 83.024 71.182 Q 83.322 70.542 83.879 70.073 L 83.879 70.073 L 83.879 70.073 Q 84.435 69.605 85.246 69.336 L 85.246 69.336 L 85.246 69.336 Q 86.056 69.067 87.082 69.067 L 87.082 69.067 L 87.082 69.067 Q 88.127 69.067 88.844 69.312 L 88.844 69.312 L 88.844 69.312 Q 89.562 69.556 90.007 69.937 L 90.007 69.937 L 90.007 69.937 Q 90.451 70.317 90.646 70.786 L 90.646 70.786 L 90.646 70.786 Q 90.842 71.255 90.842 71.714 Z " fill-rule="evenodd" fill="rgb(255,255,255)"/><path d=" M 5.096 169.681 C 1.938 166.413 0 161.963 0 157.063 C 0 157.063 0 157.063 0 157.063 L 0 18.22 C 0 8.164 8.164 0 18.22 0 L 103.248 0 C 109.137 0 114.377 2.8 117.707 7.142 C 85.252 68.101 47.74 122.306 5.096 169.681 Z " fill="rgb(255,255,255)" fill-opacity="0.05"/></g></g></svg>