<?xml version="1.0" standalone="no"?><!-- Generator: Gravit.io --><svg xmlns="http://www.w3.org/2000/svg" xmlns:xlink="http://www.w3.org/1999/xlink" style="isolation:isolate" viewBox="0 0 121.468 175.283" width="121.468" height="175.283"><defs><clipPath id="_clipPath_29zUtqZoy6hUPu8XPQbK5wAPQyc6cgU2"><rect width="121.468" height="175.283"/></clipPath></defs><g clip-path="url(#_clipPath_29zUtqZoy6hUPu8XPQbK5wAPQyc6cgU2)"><g id="card-flipped - english"><path d="M 18.22 0 L 103.248 0 C 113.304 0 121.468 8.164 121.468 18.22 L 121.468 157.063 C 121.468 167.119 113.304 175.283 103.248 175.283 L 18.22 175.283 C 8.164 175.283 0 167.119 0 157.063 L 0 18.22 C 0 8.164 8.164 0 18.22 0 Z" style="stroke:none;fill:#8A85B9;stroke-miterlimit:10;"/><path d=" M 27.238 108.716 L 27.238 108.716 L 27.238 108.716 Q 27.052 108.696 26.808 108.677 L 26.808 108.677 L 26.808 108.677 Q 26.603 108.657 26.315 108.647 L 26.315 108.647 L 26.315 108.647 Q 26.027 108.638 25.685 108.638 L 25.685 108.638 L 25.685 108.638 Q 25.197 108.638 24.616 108.677 L 24.616 108.677 L 24.616 108.677 Q 24.035 108.716 23.42 108.823 L 23.42 108.823 L 23.459 106.079 L 23.459 106.079 Q 23.088 107.534 22.37 108.325 L 22.37 108.325 L 22.37 108.325 Q 21.652 109.116 20.685 109.116 L 20.685 109.116 L 20.685 109.116 Q 20.383 109.116 20.002 109.038 L 20.002 109.038 L 20.002 109.038 Q 19.621 108.96 19.225 108.74 L 19.225 108.74 L 19.225 108.74 Q 18.83 108.521 18.454 108.13 L 18.454 108.13 L 18.454 108.13 Q 18.078 107.739 17.785 107.119 L 17.785 107.119 L 17.785 107.119 Q 17.492 106.499 17.316 105.615 L 17.316 105.615 L 17.316 105.615 Q 17.14 104.731 17.14 103.521 L 17.14 103.521 L 17.14 103.521 Q 17.14 101.88 17.472 100.713 L 17.472 100.713 L 17.472 100.713 Q 17.804 99.546 18.322 98.804 L 18.322 98.804 L 18.322 98.804 Q 18.84 98.062 19.465 97.72 L 19.465 97.72 L 19.465 97.72 Q 20.09 97.378 20.685 97.378 L 20.685 97.378 L 20.685 97.378 Q 21.193 97.378 21.608 97.52 L 21.608 97.52 L 21.608 97.52 Q 22.023 97.661 22.345 97.881 L 22.345 97.881 L 22.345 97.881 Q 22.668 98.101 22.902 98.374 L 22.902 98.374 L 22.902 98.374 Q 23.136 98.647 23.283 98.921 L 23.283 98.921 L 23.283 98.921 Q 23.254 98.589 23.195 98.213 L 23.195 98.213 L 23.195 98.213 Q 23.136 97.837 23.058 97.437 L 23.058 97.437 L 23.058 97.437 Q 23.693 97.563 24.347 97.603 L 24.347 97.603 L 24.347 97.603 Q 25.002 97.642 25.558 97.642 L 25.558 97.642 L 25.558 97.642 Q 26.222 97.642 26.633 97.612 L 26.633 97.612 L 26.633 97.612 Q 26.867 97.603 27.062 97.583 L 27.062 97.583 L 27.062 97.583 Q 26.955 98.071 26.867 98.677 L 26.867 98.677 L 26.867 98.677 Q 26.779 99.282 26.716 99.971 L 26.716 99.971 L 26.716 99.971 Q 26.652 100.659 26.618 101.416 L 26.618 101.416 L 26.618 101.416 Q 26.584 102.173 26.584 102.964 L 26.584 102.964 L 26.584 102.964 Q 26.584 104.438 26.73 105.923 L 26.73 105.923 L 26.73 105.923 Q 26.877 107.407 27.238 108.716 Z  M 23.224 103.12 L 23.224 103.12 L 23.224 101.538 L 23.224 101.538 Q 23.224 101.274 23.195 101.001 L 23.195 101.001 L 23.195 101.001 Q 23.166 100.728 23.063 100.503 L 23.063 100.503 L 23.063 100.503 Q 22.961 100.278 22.765 100.137 L 22.765 100.137 L 22.765 100.137 Q 22.57 99.995 22.238 99.995 L 22.238 99.995 L 22.238 99.995 Q 21.886 99.995 21.657 100.239 L 21.657 100.239 L 21.657 100.239 Q 21.427 100.483 21.286 100.908 L 21.286 100.908 L 21.286 100.908 Q 21.144 101.333 21.091 101.914 L 21.091 101.914 L 21.091 101.914 Q 21.037 102.495 21.037 103.179 L 21.037 103.179 L 21.037 103.179 Q 21.037 103.569 21.091 103.97 L 21.091 103.97 L 21.091 103.97 Q 21.144 104.37 21.271 104.697 L 21.271 104.697 L 21.271 104.697 Q 21.398 105.024 21.613 105.23 L 21.613 105.23 L 21.613 105.23 Q 21.828 105.435 22.14 105.435 L 22.14 105.435 L 22.14 105.435 Q 22.492 105.435 22.707 105.19 L 22.707 105.19 L 22.707 105.19 Q 22.922 104.946 23.034 104.585 L 23.034 104.585 L 23.034 104.585 Q 23.146 104.224 23.185 103.828 L 23.185 103.828 L 23.185 103.828 Q 23.224 103.433 23.224 103.12 Z  M 35.519 92.983 L 35.519 92.983 L 35.519 92.983 Q 35.402 93.677 35.339 94.346 L 35.339 94.346 L 35.339 94.346 Q 35.275 95.015 35.275 95.659 L 35.275 95.659 L 35.275 95.659 Q 35.275 95.855 35.275 96.06 L 35.275 96.06 L 35.275 96.06 Q 35.275 96.265 35.295 96.46 L 35.295 96.46 L 35.295 96.46 Q 35.06 96.069 34.709 95.874 L 34.709 95.874 L 34.709 95.874 Q 34.357 95.679 34.015 95.679 L 34.015 95.679 L 34.015 95.679 Q 33.781 95.679 33.556 95.776 L 33.556 95.776 L 33.556 95.776 Q 33.332 95.874 33.166 96.069 L 33.166 96.069 L 33.166 96.069 Q 33 96.265 32.897 96.558 L 32.897 96.558 L 32.897 96.558 Q 32.795 96.851 32.795 97.241 L 32.795 97.241 L 35.236 97.144 L 35.236 97.144 Q 35.129 97.593 35.094 98.057 L 35.094 98.057 L 35.094 98.057 Q 35.06 98.521 35.06 99.019 L 35.06 99.019 L 35.06 99.019 Q 35.06 99.292 35.07 99.565 L 35.07 99.565 L 35.07 99.565 Q 35.08 99.839 35.099 100.122 L 35.099 100.122 L 35.099 100.122 Q 34.484 100.044 33.927 99.98 L 33.927 99.98 L 33.927 99.98 Q 33.371 99.917 32.756 99.917 L 32.756 99.917 L 32.756 99.917 Q 32.736 100.62 32.726 101.348 L 32.726 101.348 L 32.726 101.348 Q 32.717 102.075 32.717 102.798 L 32.717 102.798 L 32.717 102.798 Q 32.717 104.341 32.8 105.855 L 32.8 105.855 L 32.8 105.855 Q 32.883 107.368 33.156 108.804 L 33.156 108.804 L 33.156 108.804 Q 32.062 108.579 30.881 108.579 L 30.881 108.579 L 30.881 108.579 Q 30.265 108.579 29.665 108.638 L 29.665 108.638 L 29.665 108.638 Q 29.064 108.696 28.478 108.804 L 28.478 108.804 L 28.478 108.804 Q 28.703 107.837 28.83 106.724 L 28.83 106.724 L 28.83 106.724 Q 28.957 105.61 29.02 104.458 L 29.02 104.458 L 29.02 104.458 Q 29.084 103.306 29.113 102.173 L 29.113 102.173 L 29.113 102.173 Q 29.142 101.04 29.162 100.044 L 29.162 100.044 L 29.162 100.044 Q 28.849 100.063 28.478 100.098 L 28.478 100.098 L 28.478 100.098 Q 28.107 100.132 27.795 100.181 L 27.795 100.181 L 27.795 100.181 Q 27.843 99.751 27.873 99.346 L 27.873 99.346 L 27.873 99.346 Q 27.902 98.94 27.902 98.521 L 27.902 98.521 L 27.902 98.521 Q 27.902 98.149 27.883 97.783 L 27.883 97.783 L 27.883 97.783 Q 27.863 97.417 27.795 97.017 L 27.795 97.017 L 29.279 97.095 L 29.279 97.095 Q 29.279 96.079 29.538 95.234 L 29.538 95.234 L 29.538 95.234 Q 29.797 94.39 30.314 93.779 L 30.314 93.779 L 30.314 93.779 Q 30.832 93.169 31.608 92.832 L 31.608 92.832 L 31.608 92.832 Q 32.384 92.495 33.42 92.495 L 33.42 92.495 L 33.42 92.495 Q 33.752 92.495 34.001 92.539 L 34.001 92.539 L 34.001 92.539 Q 34.25 92.583 34.484 92.656 L 34.484 92.656 L 34.484 92.656 Q 34.718 92.73 34.963 92.813 L 34.963 92.813 L 34.963 92.813 Q 35.207 92.896 35.519 92.983 Z  M 43.439 96.724 L 43.439 96.724 L 43.439 96.724 Q 43.361 97.163 43.327 97.583 L 43.327 97.583 L 43.327 97.583 Q 43.293 98.003 43.293 98.442 L 43.293 98.442 L 43.293 98.442 Q 43.293 98.862 43.327 99.287 L 43.327 99.287 L 43.327 99.287 Q 43.361 99.712 43.439 100.142 L 43.439 100.142 L 43.439 100.142 Q 42.97 99.897 42.38 99.78 L 42.38 99.78 L 42.38 99.78 Q 41.789 99.663 41.174 99.595 L 41.174 99.595 L 41.174 100.435 L 41.174 100.435 Q 41.174 101.538 41.213 102.666 L 41.213 102.666 L 41.213 102.666 Q 41.252 103.794 41.34 104.854 L 41.34 104.854 L 41.34 104.854 Q 41.427 105.913 41.569 106.86 L 41.569 106.86 L 41.569 106.86 Q 41.711 107.808 41.916 108.54 L 41.916 108.54 L 41.916 108.54 Q 41.75 108.53 41.525 108.511 L 41.525 108.511 L 41.525 108.511 Q 41.33 108.501 41.066 108.491 L 41.066 108.491 L 41.066 108.491 Q 40.802 108.481 40.461 108.481 L 40.461 108.481 L 40.461 108.481 Q 39.826 108.481 38.996 108.535 L 38.996 108.535 L 38.996 108.535 Q 38.166 108.589 37.199 108.735 L 37.199 108.735 L 37.199 108.735 Q 37.531 106.831 37.673 104.775 L 37.673 104.775 L 37.673 104.775 Q 37.814 102.72 37.814 100.757 L 37.814 100.757 L 37.814 99.595 L 37.814 99.595 Q 37.15 99.644 36.501 99.746 L 36.501 99.746 L 36.501 99.746 Q 35.851 99.849 35.275 99.995 L 35.275 99.995 L 35.275 99.995 Q 35.314 99.888 35.343 99.712 L 35.343 99.712 L 35.343 99.712 Q 35.373 99.536 35.387 99.351 L 35.387 99.351 L 35.387 99.351 Q 35.402 99.165 35.407 98.989 L 35.407 98.989 L 35.407 98.989 Q 35.412 98.813 35.412 98.696 L 35.412 98.696 L 35.412 98.696 Q 35.412 98.198 35.373 97.71 L 35.373 97.71 L 35.373 97.71 Q 35.334 97.222 35.275 96.724 L 35.275 96.724 L 35.275 96.724 Q 35.744 96.919 36.388 97.041 L 36.388 97.041 L 36.388 97.041 Q 37.033 97.163 37.697 97.222 L 37.697 97.222 L 37.697 97.222 Q 37.638 96.372 37.56 95.649 L 37.56 95.649 L 37.56 95.649 Q 37.482 94.927 37.375 94.341 L 37.375 94.341 L 37.375 94.341 Q 38.166 94.478 38.84 94.526 L 38.84 94.526 L 38.84 94.526 Q 39.513 94.575 40.06 94.575 L 40.06 94.575 L 40.06 94.575 Q 40.412 94.575 40.69 94.561 L 40.69 94.561 L 40.69 94.561 Q 40.968 94.546 41.164 94.526 L 41.164 94.526 L 41.164 94.526 Q 41.398 94.507 41.574 94.478 L 41.574 94.478 L 41.574 94.478 Q 41.467 94.946 41.393 95.645 L 41.393 95.645 L 41.393 95.645 Q 41.32 96.343 41.252 97.202 L 41.252 97.202 L 41.252 97.202 Q 41.896 97.134 42.468 97.017 L 42.468 97.017 L 42.468 97.017 Q 43.039 96.899 43.439 96.724 Z  M 52.453 99.497 L 52.453 99.497 L 52.453 99.497 Q 52.453 100.23 52.243 100.923 L 52.243 100.923 L 52.243 100.923 Q 52.033 101.616 51.506 102.153 L 51.506 102.153 L 51.506 102.153 Q 50.978 102.69 50.085 103.013 L 50.085 103.013 L 50.085 103.013 Q 49.191 103.335 47.814 103.335 L 47.814 103.335 L 47.814 103.335 Q 47.853 103.813 48.014 104.136 L 48.014 104.136 L 48.014 104.136 Q 48.176 104.458 48.4 104.653 L 48.4 104.653 L 48.4 104.653 Q 48.625 104.849 48.879 104.946 L 48.879 104.946 L 48.879 104.946 Q 49.133 105.044 49.347 105.083 L 49.347 105.083 L 49.347 105.083 Q 49.562 105.122 49.709 105.122 L 49.709 105.122 L 49.709 105.122 Q 49.855 105.122 49.855 105.122 L 49.855 105.122 L 49.855 105.122 Q 50.461 105.054 50.939 104.81 L 50.939 104.81 L 50.939 104.81 Q 51.144 104.712 51.34 104.561 L 51.34 104.561 L 51.34 104.561 Q 51.535 104.409 51.696 104.199 L 51.696 104.199 L 51.696 104.199 Q 51.857 103.989 51.96 103.721 L 51.96 103.721 L 51.96 103.721 Q 52.062 103.452 52.082 103.101 L 52.082 103.101 L 52.082 103.101 Q 52.336 103.735 52.438 104.287 L 52.438 104.287 L 52.438 104.287 Q 52.541 104.839 52.541 105.317 L 52.541 105.317 L 52.541 105.317 Q 52.541 106.196 52.223 106.934 L 52.223 106.934 L 52.223 106.934 Q 51.906 107.671 51.349 108.208 L 51.349 108.208 L 51.349 108.208 Q 50.793 108.745 50.026 109.043 L 50.026 109.043 L 50.026 109.043 Q 49.259 109.341 48.361 109.341 L 48.361 109.341 L 48.361 109.341 Q 47.482 109.341 46.667 109.038 L 46.667 109.038 L 46.667 109.038 Q 45.851 108.735 45.221 108.076 L 45.221 108.076 L 45.221 108.076 Q 44.592 107.417 44.216 106.362 L 44.216 106.362 L 44.216 106.362 Q 43.84 105.308 43.84 103.804 L 43.84 103.804 L 43.84 103.804 Q 43.84 102.173 44.308 100.913 L 44.308 100.913 L 44.308 100.913 Q 44.777 99.653 45.568 98.799 L 45.568 98.799 L 45.568 98.799 Q 46.359 97.944 47.399 97.5 L 47.399 97.5 L 47.399 97.5 Q 48.439 97.056 49.582 97.056 L 49.582 97.056 L 49.582 97.056 Q 50.148 97.056 50.671 97.183 L 50.671 97.183 L 50.671 97.183 Q 51.193 97.31 51.589 97.603 L 51.589 97.603 L 51.589 97.603 Q 51.984 97.896 52.218 98.359 L 52.218 98.359 L 52.218 98.359 Q 52.453 98.823 52.453 99.497 Z  M 47.775 101.724 L 47.775 101.724 L 47.775 101.724 Q 48.049 101.714 48.41 101.611 L 48.41 101.611 L 48.41 101.611 Q 48.771 101.509 49.093 101.323 L 49.093 101.323 L 49.093 101.323 Q 49.416 101.138 49.635 100.864 L 49.635 100.864 L 49.635 100.864 Q 49.855 100.591 49.855 100.239 L 49.855 100.239 L 49.855 100.239 Q 49.855 100.015 49.699 99.878 L 49.699 99.878 L 49.699 99.878 Q 49.543 99.741 49.299 99.741 L 49.299 99.741 L 49.299 99.741 Q 48.957 99.741 48.688 99.937 L 48.688 99.937 L 48.688 99.937 Q 48.42 100.132 48.229 100.425 L 48.229 100.425 L 48.229 100.425 Q 48.039 100.718 47.922 101.069 L 47.922 101.069 L 47.922 101.069 Q 47.804 101.421 47.775 101.724 Z  M 58.595 99.722 L 58.595 99.722 L 58.595 99.722 Q 58.293 99.722 58.049 99.893 L 58.049 99.893 L 58.049 99.893 Q 57.804 100.063 57.614 100.371 L 57.614 100.371 L 57.614 100.371 Q 57.424 100.679 57.282 101.108 L 57.282 101.108 L 57.282 101.108 Q 57.14 101.538 57.052 102.056 L 57.052 102.056 L 57.052 102.056 Q 57.052 102.886 57.092 103.735 L 57.092 103.735 L 57.092 103.735 Q 57.131 104.585 57.218 105.415 L 57.218 105.415 L 57.218 105.415 Q 57.306 106.245 57.448 107.036 L 57.448 107.036 L 57.448 107.036 Q 57.59 107.827 57.795 108.54 L 57.795 108.54 L 57.795 108.54 Q 57.638 108.53 57.433 108.511 L 57.433 108.511 L 57.433 108.511 Q 57.258 108.501 57.009 108.491 L 57.009 108.491 L 57.009 108.491 Q 56.759 108.481 56.437 108.481 L 56.437 108.481 L 56.437 108.481 Q 55.832 108.481 55.036 108.535 L 55.036 108.535 L 55.036 108.535 Q 54.24 108.589 53.273 108.735 L 53.273 108.735 L 53.273 108.735 Q 53.39 108.188 53.478 107.397 L 53.478 107.397 L 53.478 107.397 Q 53.566 106.606 53.625 105.679 L 53.625 105.679 L 53.625 105.679 Q 53.683 104.751 53.718 103.74 L 53.718 103.74 L 53.718 103.74 Q 53.752 102.73 53.752 101.743 L 53.752 101.743 L 53.752 101.743 Q 53.752 101.011 53.732 100.308 L 53.732 100.308 L 53.732 100.308 Q 53.713 99.605 53.678 98.98 L 53.678 98.98 L 53.678 98.98 Q 53.644 98.355 53.586 97.827 L 53.586 97.827 L 53.586 97.827 Q 53.527 97.3 53.449 96.919 L 53.449 96.919 L 53.449 96.919 Q 54.24 97.056 54.889 97.109 L 54.889 97.109 L 54.889 97.109 Q 55.539 97.163 56.056 97.163 L 56.056 97.163 L 56.056 97.163 Q 56.388 97.163 56.642 97.148 L 56.642 97.148 L 56.642 97.148 Q 56.896 97.134 57.082 97.114 L 57.082 97.114 L 57.082 97.114 Q 57.287 97.085 57.453 97.056 L 57.453 97.056 L 57.453 97.056 Q 57.336 97.544 57.277 98.14 L 57.277 98.14 L 57.277 98.14 Q 57.785 97.524 58.385 97.231 L 58.385 97.231 L 58.385 97.231 Q 58.986 96.938 59.513 96.938 L 59.513 96.938 L 59.513 96.938 Q 60.392 96.938 60.998 97.256 L 60.998 97.256 L 60.998 97.256 Q 61.603 97.573 61.974 98.086 L 61.974 98.086 L 61.974 98.086 Q 62.345 98.599 62.511 99.253 L 62.511 99.253 L 62.511 99.253 Q 62.677 99.907 62.677 100.581 L 62.677 100.581 L 62.677 100.581 Q 62.677 101.235 62.492 101.86 L 62.492 101.86 L 62.492 101.86 Q 62.306 102.485 61.955 102.979 L 61.955 102.979 L 61.955 102.979 Q 61.603 103.472 61.086 103.774 L 61.086 103.774 L 61.086 103.774 Q 60.568 104.077 59.914 104.077 L 59.914 104.077 L 59.914 104.077 Q 59.338 104.077 58.932 103.882 L 58.932 103.882 L 58.932 103.882 Q 58.527 103.687 58.263 103.374 L 58.263 103.374 L 58.263 103.374 Q 58 103.062 57.878 102.686 L 57.878 102.686 L 57.878 102.686 Q 57.756 102.31 57.756 101.938 L 57.756 101.938 L 57.756 101.938 Q 57.756 101.548 57.868 101.177 L 57.868 101.177 L 57.868 101.177 Q 57.98 100.806 58.195 100.503 L 58.195 100.503 L 58.195 100.503 Q 58.263 100.718 58.366 100.83 L 58.366 100.83 L 58.366 100.83 Q 58.468 100.942 58.576 100.991 L 58.576 100.991 L 58.576 100.991 Q 58.693 101.05 58.83 101.06 L 58.83 101.06 L 58.83 101.06 Q 59.191 101.06 59.372 100.894 L 59.372 100.894 L 59.372 100.894 Q 59.552 100.728 59.552 100.503 L 59.552 100.503 L 59.552 100.503 Q 59.552 100.396 59.513 100.259 L 59.513 100.259 L 59.513 100.259 Q 59.474 100.122 59.372 100.005 L 59.372 100.005 L 59.372 100.005 Q 59.269 99.888 59.084 99.805 L 59.084 99.805 L 59.084 99.805 Q 58.898 99.722 58.595 99.722 Z  M 73.312 108.774 L 73.312 108.774 L 73.312 108.774 Q 73.009 108.726 72.648 108.711 L 72.648 108.711 L 72.648 108.711 Q 72.287 108.696 71.896 108.696 L 71.896 108.696 L 71.896 108.696 Q 71.427 108.696 70.944 108.721 L 70.944 108.721 L 70.944 108.721 Q 70.461 108.745 70.002 108.784 L 70.002 108.784 L 70.002 108.784 Q 69.543 108.823 69.133 108.872 L 69.133 108.872 L 69.133 108.872 Q 68.722 108.921 68.42 108.96 L 68.42 108.96 L 68.42 108.96 Q 68.84 107.544 69.069 105.933 L 69.069 105.933 L 69.069 105.933 Q 69.299 104.321 69.299 102.358 L 69.299 102.358 L 69.299 102.358 Q 69.299 102.212 69.294 101.968 L 69.294 101.968 L 69.294 101.968 Q 69.289 101.724 69.269 101.44 L 69.269 101.44 L 69.269 101.44 Q 69.25 101.157 69.206 100.869 L 69.206 100.869 L 69.206 100.869 Q 69.162 100.581 69.079 100.347 L 69.079 100.347 L 69.079 100.347 Q 68.996 100.112 68.869 99.966 L 68.869 99.966 L 68.869 99.966 Q 68.742 99.819 68.556 99.819 L 68.556 99.819 L 68.556 99.819 Q 68.283 99.819 68.024 100.015 L 68.024 100.015 L 68.024 100.015 Q 67.765 100.21 67.565 100.532 L 67.565 100.532 L 67.565 100.532 Q 67.365 100.855 67.243 101.274 L 67.243 101.274 L 67.243 101.274 Q 67.121 101.694 67.121 102.144 L 67.121 102.144 L 67.121 102.144 Q 67.121 102.954 67.16 103.789 L 67.16 103.789 L 67.16 103.789 Q 67.199 104.624 67.287 105.444 L 67.287 105.444 L 67.287 105.444 Q 67.375 106.265 67.511 107.051 L 67.511 107.051 L 67.511 107.051 Q 67.648 107.837 67.853 108.54 L 67.853 108.54 L 67.853 108.54 Q 67.687 108.53 67.463 108.511 L 67.463 108.511 L 67.463 108.511 Q 67.267 108.501 67.004 108.491 L 67.004 108.491 L 67.004 108.491 Q 66.74 108.481 66.398 108.481 L 66.398 108.481 L 66.398 108.481 Q 65.763 108.481 64.933 108.535 L 64.933 108.535 L 64.933 108.535 Q 64.103 108.589 63.136 108.735 L 63.136 108.735 L 63.136 108.735 Q 63.254 108.188 63.342 107.397 L 63.342 107.397 L 63.342 107.397 Q 63.429 106.606 63.488 105.679 L 63.488 105.679 L 63.488 105.679 Q 63.547 104.751 63.581 103.74 L 63.581 103.74 L 63.581 103.74 Q 63.615 102.73 63.615 101.743 L 63.615 101.743 L 63.615 101.743 Q 63.615 101.011 63.595 100.308 L 63.595 100.308 L 63.595 100.308 Q 63.576 99.605 63.542 98.98 L 63.542 98.98 L 63.542 98.98 Q 63.508 98.355 63.449 97.827 L 63.449 97.827 L 63.449 97.827 Q 63.39 97.3 63.312 96.919 L 63.312 96.919 L 63.312 96.919 Q 64.103 97.056 64.777 97.109 L 64.777 97.109 L 64.777 97.109 Q 65.451 97.163 65.998 97.163 L 65.998 97.163 L 65.998 97.163 Q 66.349 97.163 66.628 97.148 L 66.628 97.148 L 66.628 97.148 Q 66.906 97.134 67.101 97.114 L 67.101 97.114 L 67.101 97.114 Q 67.336 97.085 67.511 97.056 L 67.511 97.056 L 67.511 97.056 Q 67.453 97.358 67.399 97.7 L 67.399 97.7 L 67.399 97.7 Q 67.345 98.042 67.297 98.442 L 67.297 98.442 L 67.297 98.442 Q 67.619 98.032 67.98 97.725 L 67.98 97.725 L 67.98 97.725 Q 68.342 97.417 68.708 97.212 L 68.708 97.212 L 68.708 97.212 Q 69.074 97.007 69.435 96.904 L 69.435 96.904 L 69.435 96.904 Q 69.797 96.802 70.119 96.802 L 70.119 96.802 L 70.119 96.802 Q 70.822 96.802 71.335 97.09 L 71.335 97.09 L 71.335 97.09 Q 71.847 97.378 72.184 97.993 L 72.184 97.993 L 72.184 97.993 Q 72.521 98.608 72.687 99.565 L 72.687 99.565 L 72.687 99.565 Q 72.853 100.522 72.853 101.86 L 72.853 101.86 L 72.853 101.86 Q 72.853 102.778 72.858 103.726 L 72.858 103.726 L 72.858 103.726 Q 72.863 104.673 72.902 105.581 L 72.902 105.581 L 72.902 105.581 Q 72.941 106.489 73.039 107.305 L 73.039 107.305 L 73.039 107.305 Q 73.136 108.12 73.312 108.774 Z  M 83.312 102.876 L 83.312 102.876 L 83.312 102.876 Q 83.312 103.442 83.224 104.121 L 83.224 104.121 L 83.224 104.121 Q 83.136 104.8 82.931 105.488 L 82.931 105.488 L 82.931 105.488 Q 82.726 106.177 82.375 106.826 L 82.375 106.826 L 82.375 106.826 Q 82.023 107.476 81.501 107.974 L 81.501 107.974 L 81.501 107.974 Q 80.978 108.472 80.256 108.774 L 80.256 108.774 L 80.256 108.774 Q 79.533 109.077 78.576 109.077 L 78.576 109.077 L 78.576 109.077 Q 77.619 109.077 76.901 108.794 L 76.901 108.794 L 76.901 108.794 Q 76.183 108.511 75.671 108.037 L 75.671 108.037 L 75.671 108.037 Q 75.158 107.563 74.826 106.943 L 74.826 106.943 L 74.826 106.943 Q 74.494 106.323 74.299 105.64 L 74.299 105.64 L 74.299 105.64 Q 74.103 104.956 74.03 104.258 L 74.03 104.258 L 74.03 104.258 Q 73.957 103.56 73.957 102.935 L 73.957 102.935 L 73.957 102.935 Q 73.957 101.831 74.25 100.772 L 74.25 100.772 L 74.25 100.772 Q 74.543 99.712 75.143 98.882 L 75.143 98.882 L 75.143 98.882 Q 75.744 98.052 76.647 97.544 L 76.647 97.544 L 76.647 97.544 Q 77.551 97.036 78.771 97.036 L 78.771 97.036 L 78.771 97.036 Q 79.592 97.036 80.246 97.285 L 80.246 97.285 L 80.246 97.285 Q 80.9 97.534 81.408 97.964 L 81.408 97.964 L 81.408 97.964 Q 81.916 98.394 82.272 98.97 L 82.272 98.97 L 82.272 98.97 Q 82.629 99.546 82.863 100.19 L 82.863 100.19 L 82.863 100.19 Q 83.097 100.835 83.205 101.528 L 83.205 101.528 L 83.205 101.528 Q 83.312 102.222 83.312 102.876 Z  M 79.914 103.198 L 79.914 103.198 L 79.914 103.198 Q 79.914 102.974 79.899 102.637 L 79.899 102.637 L 79.899 102.637 Q 79.884 102.3 79.836 101.929 L 79.836 101.929 L 79.836 101.929 Q 79.787 101.558 79.704 101.187 L 79.704 101.187 L 79.704 101.187 Q 79.621 100.815 79.484 100.522 L 79.484 100.522 L 79.484 100.522 Q 79.347 100.23 79.147 100.044 L 79.147 100.044 L 79.147 100.044 Q 78.947 99.858 78.674 99.858 L 78.674 99.858 L 78.674 99.858 Q 78.41 99.858 78.215 100.034 L 78.215 100.034 L 78.215 100.034 Q 78.019 100.21 77.878 100.493 L 77.878 100.493 L 77.878 100.493 Q 77.736 100.776 77.643 101.133 L 77.643 101.133 L 77.643 101.133 Q 77.551 101.489 77.497 101.846 L 77.497 101.846 L 77.497 101.846 Q 77.443 102.202 77.419 102.529 L 77.419 102.529 L 77.419 102.529 Q 77.394 102.856 77.394 103.081 L 77.394 103.081 L 77.394 103.081 Q 77.394 103.403 77.443 103.862 L 77.443 103.862 L 77.443 103.862 Q 77.492 104.321 77.629 104.741 L 77.629 104.741 L 77.629 104.741 Q 77.765 105.161 78.005 105.459 L 78.005 105.459 L 78.005 105.459 Q 78.244 105.757 78.634 105.757 L 78.634 105.757 L 78.634 105.757 Q 79.006 105.757 79.255 105.483 L 79.255 105.483 L 79.255 105.483 Q 79.504 105.21 79.65 104.814 L 79.65 104.814 L 79.65 104.814 Q 79.797 104.419 79.855 103.98 L 79.855 103.98 L 79.855 103.98 Q 79.914 103.54 79.914 103.198 Z  M 93.39 102.876 L 93.39 102.876 L 93.39 102.876 Q 93.39 103.442 93.302 104.121 L 93.302 104.121 L 93.302 104.121 Q 93.215 104.8 93.009 105.488 L 93.009 105.488 L 93.009 105.488 Q 92.804 106.177 92.453 106.826 L 92.453 106.826 L 92.453 106.826 Q 92.101 107.476 91.579 107.974 L 91.579 107.974 L 91.579 107.974 Q 91.056 108.472 90.334 108.774 L 90.334 108.774 L 90.334 108.774 Q 89.611 109.077 88.654 109.077 L 88.654 109.077 L 88.654 109.077 Q 87.697 109.077 86.979 108.794 L 86.979 108.794 L 86.979 108.794 Q 86.261 108.511 85.749 108.037 L 85.749 108.037 L 85.749 108.037 Q 85.236 107.563 84.904 106.943 L 84.904 106.943 L 84.904 106.943 Q 84.572 106.323 84.377 105.64 L 84.377 105.64 L 84.377 105.64 Q 84.181 104.956 84.108 104.258 L 84.108 104.258 L 84.108 104.258 Q 84.035 103.56 84.035 102.935 L 84.035 102.935 L 84.035 102.935 Q 84.035 101.831 84.328 100.772 L 84.328 100.772 L 84.328 100.772 Q 84.621 99.712 85.221 98.882 L 85.221 98.882 L 85.221 98.882 Q 85.822 98.052 86.725 97.544 L 86.725 97.544 L 86.725 97.544 Q 87.629 97.036 88.849 97.036 L 88.849 97.036 L 88.849 97.036 Q 89.67 97.036 90.324 97.285 L 90.324 97.285 L 90.324 97.285 Q 90.978 97.534 91.486 97.964 L 91.486 97.964 L 91.486 97.964 Q 91.994 98.394 92.35 98.97 L 92.35 98.97 L 92.35 98.97 Q 92.707 99.546 92.941 100.19 L 92.941 100.19 L 92.941 100.19 Q 93.176 100.835 93.283 101.528 L 93.283 101.528 L 93.283 101.528 Q 93.39 102.222 93.39 102.876 Z  M 89.992 103.198 L 89.992 103.198 L 89.992 103.198 Q 89.992 102.974 89.977 102.637 L 89.977 102.637 L 89.977 102.637 Q 89.963 102.3 89.914 101.929 L 89.914 101.929 L 89.914 101.929 Q 89.865 101.558 89.782 101.187 L 89.782 101.187 L 89.782 101.187 Q 89.699 100.815 89.562 100.522 L 89.562 100.522 L 89.562 100.522 Q 89.426 100.23 89.225 100.044 L 89.225 100.044 L 89.225 100.044 Q 89.025 99.858 88.752 99.858 L 88.752 99.858 L 88.752 99.858 Q 88.488 99.858 88.293 100.034 L 88.293 100.034 L 88.293 100.034 Q 88.097 100.21 87.956 100.493 L 87.956 100.493 L 87.956 100.493 Q 87.814 100.776 87.721 101.133 L 87.721 101.133 L 87.721 101.133 Q 87.629 101.489 87.575 101.846 L 87.575 101.846 L 87.575 101.846 Q 87.521 102.202 87.497 102.529 L 87.497 102.529 L 87.497 102.529 Q 87.472 102.856 87.472 103.081 L 87.472 103.081 L 87.472 103.081 Q 87.472 103.403 87.521 103.862 L 87.521 103.862 L 87.521 103.862 Q 87.57 104.321 87.707 104.741 L 87.707 104.741 L 87.707 104.741 Q 87.843 105.161 88.083 105.459 L 88.083 105.459 L 88.083 105.459 Q 88.322 105.757 88.713 105.757 L 88.713 105.757 L 88.713 105.757 Q 89.084 105.757 89.333 105.483 L 89.333 105.483 L 89.333 105.483 Q 89.582 105.21 89.728 104.814 L 89.728 104.814 L 89.728 104.814 Q 89.875 104.419 89.933 103.98 L 89.933 103.98 L 89.933 103.98 Q 89.992 103.54 89.992 103.198 Z  M 104.328 108.774 L 104.328 108.774 L 104.328 108.774 Q 104.025 108.726 103.664 108.711 L 103.664 108.711 L 103.664 108.711 Q 103.302 108.696 102.912 108.696 L 102.912 108.696 L 102.912 108.696 Q 102.443 108.696 101.96 108.721 L 101.96 108.721 L 101.96 108.721 Q 101.476 108.745 101.017 108.784 L 101.017 108.784 L 101.017 108.784 Q 100.558 108.823 100.148 108.872 L 100.148 108.872 L 100.148 108.872 Q 99.738 108.921 99.435 108.96 L 99.435 108.96 L 99.435 108.96 Q 99.855 107.544 100.085 105.933 L 100.085 105.933 L 100.085 105.933 Q 100.314 104.321 100.314 102.358 L 100.314 102.358 L 100.314 102.358 Q 100.314 102.212 100.309 101.968 L 100.309 101.968 L 100.309 101.968 Q 100.304 101.724 100.285 101.44 L 100.285 101.44 L 100.285 101.44 Q 100.265 101.157 100.221 100.869 L 100.221 100.869 L 100.221 100.869 Q 100.177 100.581 100.094 100.347 L 100.094 100.347 L 100.094 100.347 Q 100.011 100.112 99.884 99.966 L 99.884 99.966 L 99.884 99.966 Q 99.758 99.819 99.572 99.819 L 99.572 99.819 L 99.572 99.819 Q 99.299 99.819 99.04 100.015 L 99.04 100.015 L 99.04 100.015 Q 98.781 100.21 98.581 100.532 L 98.581 100.532 L 98.581 100.532 Q 98.381 100.855 98.259 101.274 L 98.259 101.274 L 98.259 101.274 Q 98.136 101.694 98.136 102.144 L 98.136 102.144 L 98.136 102.144 Q 98.136 102.954 98.176 103.789 L 98.176 103.789 L 98.176 103.789 Q 98.215 104.624 98.302 105.444 L 98.302 105.444 L 98.302 105.444 Q 98.39 106.265 98.527 107.051 L 98.527 107.051 L 98.527 107.051 Q 98.664 107.837 98.869 108.54 L 98.869 108.54 L 98.869 108.54 Q 98.703 108.53 98.478 108.511 L 98.478 108.511 L 98.478 108.511 Q 98.283 108.501 98.019 108.491 L 98.019 108.491 L 98.019 108.491 Q 97.756 108.481 97.414 108.481 L 97.414 108.481 L 97.414 108.481 Q 96.779 108.481 95.949 108.535 L 95.949 108.535 L 95.949 108.535 Q 95.119 108.589 94.152 108.735 L 94.152 108.735 L 94.152 108.735 Q 94.269 108.188 94.357 107.397 L 94.357 107.397 L 94.357 107.397 Q 94.445 106.606 94.504 105.679 L 94.504 105.679 L 94.504 105.679 Q 94.562 104.751 94.596 103.74 L 94.596 103.74 L 94.596 103.74 Q 94.631 102.73 94.631 101.743 L 94.631 101.743 L 94.631 101.743 Q 94.631 101.011 94.611 100.308 L 94.611 100.308 L 94.611 100.308 Q 94.592 99.605 94.557 98.98 L 94.557 98.98 L 94.557 98.98 Q 94.523 98.355 94.465 97.827 L 94.465 97.827 L 94.465 97.827 Q 94.406 97.3 94.328 96.919 L 94.328 96.919 L 94.328 96.919 Q 95.119 97.056 95.793 97.109 L 95.793 97.109 L 95.793 97.109 Q 96.467 97.163 97.013 97.163 L 97.013 97.163 L 97.013 97.163 Q 97.365 97.163 97.643 97.148 L 97.643 97.148 L 97.643 97.148 Q 97.922 97.134 98.117 97.114 L 98.117 97.114 L 98.117 97.114 Q 98.351 97.085 98.527 97.056 L 98.527 97.056 L 98.527 97.056 Q 98.468 97.358 98.415 97.7 L 98.415 97.7 L 98.415 97.7 Q 98.361 98.042 98.312 98.442 L 98.312 98.442 L 98.312 98.442 Q 98.634 98.032 98.996 97.725 L 98.996 97.725 L 98.996 97.725 Q 99.357 97.417 99.723 97.212 L 99.723 97.212 L 99.723 97.212 Q 100.09 97.007 100.451 96.904 L 100.451 96.904 L 100.451 96.904 Q 100.812 96.802 101.134 96.802 L 101.134 96.802 L 101.134 96.802 Q 101.838 96.802 102.35 97.09 L 102.35 97.09 L 102.35 97.09 Q 102.863 97.378 103.2 97.993 L 103.2 97.993 L 103.2 97.993 Q 103.537 98.608 103.703 99.565 L 103.703 99.565 L 103.703 99.565 Q 103.869 100.522 103.869 101.86 L 103.869 101.86 L 103.869 101.86 Q 103.869 102.778 103.874 103.726 L 103.874 103.726 L 103.874 103.726 Q 103.879 104.673 103.918 105.581 L 103.918 105.581 L 103.918 105.581 Q 103.957 106.489 104.054 107.305 L 104.054 107.305 L 104.054 107.305 Q 104.152 108.12 104.328 108.774 Z  M 50.89 73.657 L 50.89 73.657 L 50.89 73.657 Q 50.09 75.64 50.09 77.505 L 50.09 77.505 L 50.09 77.505 Q 50.09 78.403 50.256 79.316 L 50.256 79.316 L 50.256 79.316 Q 50.422 80.23 50.773 81.177 L 50.773 81.177 L 50.773 81.177 Q 50.217 81.04 49.738 80.972 L 49.738 80.972 L 49.738 80.972 Q 49.259 80.903 48.791 80.903 L 48.791 80.903 L 48.791 80.903 Q 48.293 80.903 47.775 80.991 L 47.775 80.991 L 47.775 80.991 Q 47.258 81.079 46.652 81.265 L 46.652 81.265 L 47.052 79.702 L 47.052 79.702 Q 46.857 80.015 46.584 80.342 L 46.584 80.342 L 46.584 80.342 Q 46.31 80.669 45.934 80.933 L 45.934 80.933 L 45.934 80.933 Q 45.558 81.196 45.075 81.367 L 45.075 81.367 L 45.075 81.367 Q 44.592 81.538 43.967 81.538 L 43.967 81.538 L 43.967 81.538 Q 43.029 81.538 42.243 81.089 L 42.243 81.089 L 42.243 81.089 Q 41.457 80.64 40.89 79.79 L 40.89 79.79 L 40.89 79.79 Q 40.324 78.94 40.007 77.705 L 40.007 77.705 L 40.007 77.705 Q 39.689 76.47 39.689 74.897 L 39.689 74.897 L 39.689 74.897 Q 39.689 73.853 39.884 72.822 L 39.884 72.822 L 39.884 72.822 Q 40.08 71.792 40.451 70.859 L 40.451 70.859 L 40.451 70.859 Q 40.822 69.927 41.369 69.131 L 41.369 69.131 L 41.369 69.131 Q 41.916 68.335 42.609 67.754 L 42.609 67.754 L 42.609 67.754 Q 43.302 67.173 44.147 66.846 L 44.147 66.846 L 44.147 66.846 Q 44.992 66.519 45.968 66.519 L 45.968 66.519 L 45.968 66.519 Q 46.857 66.519 47.521 66.699 L 47.521 66.699 L 47.521 66.699 Q 48.185 66.88 48.674 67.178 L 48.674 67.178 L 48.674 67.178 Q 49.162 67.476 49.479 67.861 L 49.479 67.861 L 49.479 67.861 Q 49.797 68.247 49.982 68.667 L 49.982 68.667 L 49.982 68.667 Q 50.168 69.087 50.246 69.502 L 50.246 69.502 L 50.246 69.502 Q 50.324 69.917 50.324 70.278 L 50.324 70.278 L 50.324 70.278 Q 50.324 70.796 50.143 71.274 L 50.143 71.274 L 50.143 71.274 Q 49.963 71.753 49.64 72.114 L 49.64 72.114 L 49.64 72.114 Q 49.318 72.476 48.879 72.69 L 48.879 72.69 L 48.879 72.69 Q 48.439 72.905 47.912 72.905 L 47.912 72.905 L 47.912 72.905 Q 47.365 72.905 46.965 72.739 L 46.965 72.739 L 46.965 72.739 Q 46.564 72.573 46.301 72.305 L 46.301 72.305 L 46.301 72.305 Q 46.037 72.036 45.905 71.704 L 45.905 71.704 L 45.905 71.704 Q 45.773 71.372 45.773 71.04 L 45.773 71.04 L 45.773 71.04 Q 45.773 70.757 45.871 70.464 L 45.871 70.464 L 45.871 70.464 Q 45.968 70.171 46.144 69.917 L 46.144 69.917 L 46.144 69.917 Q 46.203 70.122 46.31 70.234 L 46.31 70.234 L 46.31 70.234 Q 46.418 70.347 46.525 70.396 L 46.525 70.396 L 46.525 70.396 Q 46.642 70.454 46.789 70.464 L 46.789 70.464 L 46.789 70.464 Q 47.121 70.464 47.262 70.298 L 47.262 70.298 L 47.262 70.298 Q 47.404 70.132 47.404 69.917 L 47.404 69.917 L 47.404 69.917 Q 47.404 69.819 47.36 69.717 L 47.36 69.717 L 47.36 69.717 Q 47.316 69.614 47.228 69.526 L 47.228 69.526 L 47.228 69.526 Q 47.14 69.438 46.999 69.38 L 46.999 69.38 L 46.999 69.38 Q 46.857 69.321 46.652 69.321 L 46.652 69.321 L 46.652 69.321 Q 46.515 69.321 46.276 69.375 L 46.276 69.375 L 46.276 69.375 Q 46.037 69.429 45.759 69.585 L 45.759 69.585 L 45.759 69.585 Q 45.48 69.741 45.197 70.029 L 45.197 70.029 L 45.197 70.029 Q 44.914 70.317 44.679 70.796 L 44.679 70.796 L 44.679 70.796 Q 44.445 71.274 44.299 71.968 L 44.299 71.968 L 44.299 71.968 Q 44.152 72.661 44.152 73.618 L 44.152 73.618 L 44.152 73.618 Q 44.152 74.409 44.284 75.005 L 44.284 75.005 L 44.284 75.005 Q 44.416 75.601 44.65 76.001 L 44.65 76.001 L 44.65 76.001 Q 44.884 76.401 45.207 76.602 L 45.207 76.602 L 45.207 76.602 Q 45.529 76.802 45.91 76.802 L 45.91 76.802 L 45.91 76.802 Q 46.271 76.802 46.506 76.616 L 46.506 76.616 L 46.506 76.616 Q 46.74 76.431 46.877 76.167 L 46.877 76.167 L 46.877 76.167 Q 47.013 75.903 47.062 75.62 L 47.062 75.62 L 47.062 75.62 Q 47.111 75.337 47.111 75.142 L 47.111 75.142 L 47.111 75.142 Q 47.111 75.132 47.096 75.005 L 47.096 75.005 L 47.096 75.005 Q 47.082 74.878 47.004 74.712 L 47.004 74.712 L 47.004 74.712 Q 46.926 74.546 46.75 74.37 L 46.75 74.37 L 46.75 74.37 Q 46.574 74.194 46.252 74.077 L 46.252 74.077 L 46.252 74.077 Q 47.404 74.077 48.566 73.975 L 48.566 73.975 L 48.566 73.975 Q 49.728 73.872 50.89 73.657 Z  M 60.802 75.298 L 60.802 75.298 L 60.802 75.298 Q 60.802 75.864 60.715 76.543 L 60.715 76.543 L 60.715 76.543 Q 60.627 77.222 60.422 77.91 L 60.422 77.91 L 60.422 77.91 Q 60.217 78.599 59.865 79.248 L 59.865 79.248 L 59.865 79.248 Q 59.513 79.897 58.991 80.396 L 58.991 80.396 L 58.991 80.396 Q 58.468 80.894 57.746 81.196 L 57.746 81.196 L 57.746 81.196 Q 57.023 81.499 56.066 81.499 L 56.066 81.499 L 56.066 81.499 Q 55.109 81.499 54.391 81.216 L 54.391 81.216 L 54.391 81.216 Q 53.674 80.933 53.161 80.459 L 53.161 80.459 L 53.161 80.459 Q 52.648 79.985 52.316 79.365 L 52.316 79.365 L 52.316 79.365 Q 51.984 78.745 51.789 78.062 L 51.789 78.062 L 51.789 78.062 Q 51.593 77.378 51.52 76.68 L 51.52 76.68 L 51.52 76.68 Q 51.447 75.981 51.447 75.356 L 51.447 75.356 L 51.447 75.356 Q 51.447 74.253 51.74 73.193 L 51.74 73.193 L 51.74 73.193 Q 52.033 72.134 52.634 71.304 L 52.634 71.304 L 52.634 71.304 Q 53.234 70.474 54.137 69.966 L 54.137 69.966 L 54.137 69.966 Q 55.041 69.458 56.261 69.458 L 56.261 69.458 L 56.261 69.458 Q 57.082 69.458 57.736 69.707 L 57.736 69.707 L 57.736 69.707 Q 58.39 69.956 58.898 70.386 L 58.898 70.386 L 58.898 70.386 Q 59.406 70.815 59.762 71.392 L 59.762 71.392 L 59.762 71.392 Q 60.119 71.968 60.353 72.612 L 60.353 72.612 L 60.353 72.612 Q 60.588 73.257 60.695 73.95 L 60.695 73.95 L 60.695 73.95 Q 60.802 74.644 60.802 75.298 Z  M 57.404 75.62 L 57.404 75.62 L 57.404 75.62 Q 57.404 75.396 57.389 75.059 L 57.389 75.059 L 57.389 75.059 Q 57.375 74.722 57.326 74.351 L 57.326 74.351 L 57.326 74.351 Q 57.277 73.98 57.194 73.608 L 57.194 73.608 L 57.194 73.608 Q 57.111 73.237 56.974 72.944 L 56.974 72.944 L 56.974 72.944 Q 56.838 72.651 56.637 72.466 L 56.637 72.466 L 56.637 72.466 Q 56.437 72.28 56.164 72.28 L 56.164 72.28 L 56.164 72.28 Q 55.9 72.28 55.705 72.456 L 55.705 72.456 L 55.705 72.456 Q 55.509 72.632 55.368 72.915 L 55.368 72.915 L 55.368 72.915 Q 55.226 73.198 55.134 73.555 L 55.134 73.555 L 55.134 73.555 Q 55.041 73.911 54.987 74.268 L 54.987 74.268 L 54.987 74.268 Q 54.933 74.624 54.909 74.951 L 54.909 74.951 L 54.909 74.951 Q 54.884 75.278 54.884 75.503 L 54.884 75.503 L 54.884 75.503 Q 54.884 75.825 54.933 76.284 L 54.933 76.284 L 54.933 76.284 Q 54.982 76.743 55.119 77.163 L 55.119 77.163 L 55.119 77.163 Q 55.256 77.583 55.495 77.881 L 55.495 77.881 L 55.495 77.881 Q 55.734 78.179 56.125 78.179 L 56.125 78.179 L 56.125 78.179 Q 56.496 78.179 56.745 77.905 L 56.745 77.905 L 56.745 77.905 Q 56.994 77.632 57.14 77.236 L 57.14 77.236 L 57.14 77.236 Q 57.287 76.841 57.345 76.401 L 57.345 76.401 L 57.345 76.401 Q 57.404 75.962 57.404 75.62 Z  M 70.881 75.298 L 70.881 75.298 L 70.881 75.298 Q 70.881 75.864 70.793 76.543 L 70.793 76.543 L 70.793 76.543 Q 70.705 77.222 70.5 77.91 L 70.5 77.91 L 70.5 77.91 Q 70.295 78.599 69.943 79.248 L 69.943 79.248 L 69.943 79.248 Q 69.592 79.897 69.069 80.396 L 69.069 80.396 L 69.069 80.396 Q 68.547 80.894 67.824 81.196 L 67.824 81.196 L 67.824 81.196 Q 67.101 81.499 66.144 81.499 L 66.144 81.499 L 66.144 81.499 Q 65.187 81.499 64.469 81.216 L 64.469 81.216 L 64.469 81.216 Q 63.752 80.933 63.239 80.459 L 63.239 80.459 L 63.239 80.459 Q 62.726 79.985 62.394 79.365 L 62.394 79.365 L 62.394 79.365 Q 62.062 78.745 61.867 78.062 L 61.867 78.062 L 61.867 78.062 Q 61.672 77.378 61.598 76.68 L 61.598 76.68 L 61.598 76.68 Q 61.525 75.981 61.525 75.356 L 61.525 75.356 L 61.525 75.356 Q 61.525 74.253 61.818 73.193 L 61.818 73.193 L 61.818 73.193 Q 62.111 72.134 62.712 71.304 L 62.712 71.304 L 62.712 71.304 Q 63.312 70.474 64.216 69.966 L 64.216 69.966 L 64.216 69.966 Q 65.119 69.458 66.34 69.458 L 66.34 69.458 L 66.34 69.458 Q 67.16 69.458 67.814 69.707 L 67.814 69.707 L 67.814 69.707 Q 68.468 69.956 68.976 70.386 L 68.976 70.386 L 68.976 70.386 Q 69.484 70.815 69.841 71.392 L 69.841 71.392 L 69.841 71.392 Q 70.197 71.968 70.431 72.612 L 70.431 72.612 L 70.431 72.612 Q 70.666 73.257 70.773 73.95 L 70.773 73.95 L 70.773 73.95 Q 70.881 74.644 70.881 75.298 Z  M 67.482 75.62 L 67.482 75.62 L 67.482 75.62 Q 67.482 75.396 67.468 75.059 L 67.468 75.059 L 67.468 75.059 Q 67.453 74.722 67.404 74.351 L 67.404 74.351 L 67.404 74.351 Q 67.355 73.98 67.272 73.608 L 67.272 73.608 L 67.272 73.608 Q 67.189 73.237 67.052 72.944 L 67.052 72.944 L 67.052 72.944 Q 66.916 72.651 66.716 72.466 L 66.716 72.466 L 66.716 72.466 Q 66.515 72.28 66.242 72.28 L 66.242 72.28 L 66.242 72.28 Q 65.978 72.28 65.783 72.456 L 65.783 72.456 L 65.783 72.456 Q 65.588 72.632 65.446 72.915 L 65.446 72.915 L 65.446 72.915 Q 65.304 73.198 65.212 73.555 L 65.212 73.555 L 65.212 73.555 Q 65.119 73.911 65.065 74.268 L 65.065 74.268 L 65.065 74.268 Q 65.011 74.624 64.987 74.951 L 64.987 74.951 L 64.987 74.951 Q 64.963 75.278 64.963 75.503 L 64.963 75.503 L 64.963 75.503 Q 64.963 75.825 65.011 76.284 L 65.011 76.284 L 65.011 76.284 Q 65.06 76.743 65.197 77.163 L 65.197 77.163 L 65.197 77.163 Q 65.334 77.583 65.573 77.881 L 65.573 77.881 L 65.573 77.881 Q 65.812 78.179 66.203 78.179 L 66.203 78.179 L 66.203 78.179 Q 66.574 78.179 66.823 77.905 L 66.823 77.905 L 66.823 77.905 Q 67.072 77.632 67.218 77.236 L 67.218 77.236 L 67.218 77.236 Q 67.365 76.841 67.424 76.401 L 67.424 76.401 L 67.424 76.401 Q 67.482 75.962 67.482 75.62 Z  M 81.74 81.138 L 81.74 81.138 L 81.74 81.138 Q 81.515 81.118 81.232 81.099 L 81.232 81.099 L 81.232 81.099 Q 80.988 81.079 80.661 81.069 L 80.661 81.069 L 80.661 81.069 Q 80.334 81.06 79.943 81.06 L 79.943 81.06 L 79.943 81.06 Q 79.386 81.06 78.761 81.099 L 78.761 81.099 L 78.761 81.099 Q 78.136 81.138 77.521 81.245 L 77.521 81.245 L 77.521 81.245 Q 77.58 81.128 77.648 80.757 L 77.648 80.757 L 77.648 80.757 Q 77.717 80.386 77.78 79.937 L 77.78 79.937 L 77.78 79.937 Q 77.843 79.487 77.897 79.048 L 77.897 79.048 L 77.897 79.048 Q 77.951 78.608 77.98 78.364 L 77.98 78.364 L 77.98 78.364 Q 77.824 79.097 77.546 79.697 L 77.546 79.697 L 77.546 79.697 Q 77.267 80.298 76.896 80.723 L 76.896 80.723 L 76.896 80.723 Q 76.525 81.147 76.066 81.382 L 76.066 81.382 L 76.066 81.382 Q 75.607 81.616 75.099 81.616 L 75.099 81.616 L 75.099 81.616 Q 74.865 81.616 74.523 81.587 L 74.523 81.587 L 74.523 81.587 Q 74.181 81.558 73.796 81.392 L 73.796 81.392 L 73.796 81.392 Q 73.41 81.226 73.024 80.879 L 73.024 80.879 L 73.024 80.879 Q 72.638 80.532 72.331 79.902 L 72.331 79.902 L 72.331 79.902 Q 72.023 79.272 71.833 78.306 L 71.833 78.306 L 71.833 78.306 Q 71.642 77.339 71.642 75.942 L 71.642 75.942 L 71.642 75.942 Q 71.642 74.771 71.813 73.848 L 71.813 73.848 L 71.813 73.848 Q 71.984 72.925 72.272 72.222 L 72.272 72.222 L 72.272 72.222 Q 72.56 71.519 72.946 71.025 L 72.946 71.025 L 72.946 71.025 Q 73.332 70.532 73.757 70.22 L 73.757 70.22 L 73.757 70.22 Q 74.181 69.907 74.626 69.766 L 74.626 69.766 L 74.626 69.766 Q 75.07 69.624 75.48 69.624 L 75.48 69.624 L 75.48 69.624 Q 75.939 69.624 76.31 69.775 L 76.31 69.775 L 76.31 69.775 Q 76.681 69.927 76.984 70.166 L 76.984 70.166 L 76.984 70.166 Q 77.287 70.405 77.511 70.713 L 77.511 70.713 L 77.511 70.713 Q 77.736 71.021 77.902 71.323 L 77.902 71.323 L 77.902 71.323 Q 77.883 70.874 77.863 70.347 L 77.863 70.347 L 77.863 70.347 Q 77.843 69.819 77.814 69.282 L 77.814 69.282 L 77.814 69.282 Q 77.785 68.745 77.741 68.223 L 77.741 68.223 L 77.741 68.223 Q 77.697 67.7 77.643 67.251 L 77.643 67.251 L 77.643 67.251 Q 77.59 66.802 77.521 66.46 L 77.521 66.46 L 77.521 66.46 Q 77.453 66.118 77.365 65.942 L 77.365 65.942 L 77.365 65.942 Q 78.146 66.079 78.82 66.128 L 78.82 66.128 L 78.82 66.128 Q 79.494 66.177 80.041 66.177 L 80.041 66.177 L 80.041 66.177 Q 80.392 66.177 80.676 66.162 L 80.676 66.162 L 80.676 66.162 Q 80.959 66.147 81.154 66.128 L 81.154 66.128 L 81.154 66.128 Q 81.388 66.108 81.564 66.079 L 81.564 66.079 L 81.564 66.079 Q 81.457 66.567 81.369 67.354 L 81.369 67.354 L 81.369 67.354 Q 81.281 68.14 81.218 69.126 L 81.218 69.126 L 81.218 69.126 Q 81.154 70.112 81.12 71.24 L 81.12 71.24 L 81.12 71.24 Q 81.086 72.368 81.086 73.54 L 81.086 73.54 L 81.086 73.54 Q 81.086 74.624 81.12 75.698 L 81.12 75.698 L 81.12 75.698 Q 81.154 76.772 81.232 77.764 L 81.232 77.764 L 81.232 77.764 Q 81.31 78.755 81.437 79.619 L 81.437 79.619 L 81.437 79.619 Q 81.564 80.483 81.74 81.138 Z  M 77.726 75.542 L 77.726 75.542 L 77.726 73.96 L 77.726 73.96 Q 77.726 73.696 77.697 73.423 L 77.697 73.423 L 77.697 73.423 Q 77.668 73.149 77.565 72.925 L 77.565 72.925 L 77.565 72.925 Q 77.463 72.7 77.267 72.559 L 77.267 72.559 L 77.267 72.559 Q 77.072 72.417 76.74 72.417 L 76.74 72.417 L 76.74 72.417 Q 76.506 72.417 76.34 72.603 L 76.34 72.603 L 76.34 72.603 Q 76.174 72.788 76.066 73.081 L 76.066 73.081 L 76.066 73.081 Q 75.959 73.374 75.89 73.735 L 75.89 73.735 L 75.89 73.735 Q 75.822 74.097 75.793 74.453 L 75.793 74.453 L 75.793 74.453 Q 75.763 74.81 75.754 75.117 L 75.754 75.117 L 75.754 75.117 Q 75.744 75.425 75.744 75.601 L 75.744 75.601 L 75.744 75.601 Q 75.744 75.864 75.768 76.25 L 75.768 76.25 L 75.768 76.25 Q 75.793 76.636 75.881 76.992 L 75.881 76.992 L 75.881 76.992 Q 75.968 77.349 76.149 77.603 L 76.149 77.603 L 76.149 77.603 Q 76.33 77.856 76.642 77.856 L 76.642 77.856 L 76.642 77.856 Q 76.994 77.856 77.209 77.612 L 77.209 77.612 L 77.209 77.612 Q 77.424 77.368 77.536 77.007 L 77.536 77.007 L 77.536 77.007 Q 77.648 76.646 77.687 76.25 L 77.687 76.25 L 77.687 76.25 Q 77.726 75.855 77.726 75.542 Z " fill-rule="evenodd" fill="rgb(255,255,255)"/><path d=" M 5.096 169.681 C 1.938 166.413 0 161.963 0 157.063 C 0 157.063 0 157.063 0 157.063 L 0 18.22 C 0 8.164 8.164 0 18.22 0 L 103.248 0 C 109.137 0 114.377 2.8 117.707 7.142 C 85.252 68.101 47.74 122.306 5.096 169.681 Z " fill="rgb(255,255,255)" fill-opacity="0.05"/></g></g></svg>