<?xml version="1.0" standalone="no"?><!-- Generator: Gravit.io --><svg xmlns="http://www.w3.org/2000/svg" xmlns:xlink="http://www.w3.org/1999/xlink" style="isolation:isolate" viewBox="0 0 121.468 175.283" width="121.468" height="175.283"><defs><clipPath id="_clipPath_GpgF8jNRePsyphIMB3BM0KV5GoxeFMJL"><rect width="121.468" height="175.283"/></clipPath></defs><g clip-path="url(#_clipPath_GpgF8jNRePsyphIMB3BM0KV5GoxeFMJL)"><g id="card-flipped - spanish"><path d="M 18.22 0 L 103.248 0 C 113.304 0 121.468 8.164 121.468 18.22 L 121.468 157.063 C 121.468 167.119 113.304 175.283 103.248 175.283 L 18.22 175.283 C 8.164 175.283 0 167.119 0 157.063 L 0 18.22 C 0 8.164 8.164 0 18.22 0 Z" style="stroke:none;fill:#85A5B9;stroke-miterlimit:10;"/><path d=" M 41.735 108.364 L 41.735 108.364 L 41.735 108.364 Q 41.432 108.315 41.071 108.301 L 41.071 108.301 L 41.071 108.301 Q 40.71 108.286 40.319 108.286 L 40.319 108.286 L 40.319 108.286 Q 39.85 108.286 39.367 108.311 L 39.367 108.311 L 39.367 108.311 Q 38.884 108.335 38.425 108.374 L 38.425 108.374 L 38.425 108.374 Q 37.966 108.413 37.555 108.462 L 37.555 108.462 L 37.555 108.462 Q 37.145 108.511 36.843 108.55 L 36.843 108.55 L 36.843 108.55 Q 37.262 107.134 37.492 105.522 L 37.492 105.522 L 37.492 105.522 Q 37.721 103.911 37.721 101.948 L 37.721 101.948 L 37.721 101.948 Q 37.721 101.802 37.717 101.558 L 37.717 101.558 L 37.717 101.558 Q 37.712 101.313 37.692 101.03 L 37.692 101.03 L 37.692 101.03 Q 37.673 100.747 37.629 100.459 L 37.629 100.459 L 37.629 100.459 Q 37.585 100.171 37.502 99.937 L 37.502 99.937 L 37.502 99.937 Q 37.419 99.702 37.292 99.556 L 37.292 99.556 L 37.292 99.556 Q 37.165 99.409 36.979 99.409 L 36.979 99.409 L 36.979 99.409 Q 36.706 99.409 36.447 99.605 L 36.447 99.605 L 36.447 99.605 Q 36.188 99.8 35.988 100.122 L 35.988 100.122 L 35.988 100.122 Q 35.788 100.444 35.666 100.864 L 35.666 100.864 L 35.666 100.864 Q 35.544 101.284 35.544 101.733 L 35.544 101.733 L 35.544 101.733 Q 35.544 102.544 35.583 103.379 L 35.583 103.379 L 35.583 103.379 Q 35.622 104.214 35.71 105.034 L 35.71 105.034 L 35.71 105.034 Q 35.798 105.855 35.934 106.641 L 35.934 106.641 L 35.934 106.641 Q 36.071 107.427 36.276 108.13 L 36.276 108.13 L 36.276 108.13 Q 36.11 108.12 35.885 108.101 L 35.885 108.101 L 35.885 108.101 Q 35.69 108.091 35.426 108.081 L 35.426 108.081 L 35.426 108.081 Q 35.163 108.071 34.821 108.071 L 34.821 108.071 L 34.821 108.071 Q 34.186 108.071 33.356 108.125 L 33.356 108.125 L 33.356 108.125 Q 32.526 108.179 31.559 108.325 L 31.559 108.325 L 31.559 108.325 Q 31.676 107.778 31.764 106.987 L 31.764 106.987 L 31.764 106.987 Q 31.852 106.196 31.911 105.269 L 31.911 105.269 L 31.911 105.269 Q 31.969 104.341 32.004 103.33 L 32.004 103.33 L 32.004 103.33 Q 32.038 102.319 32.038 101.333 L 32.038 101.333 L 32.038 101.333 Q 32.038 100.601 32.018 99.897 L 32.018 99.897 L 32.018 99.897 Q 31.999 99.194 31.965 98.569 L 31.965 98.569 L 31.965 98.569 Q 31.93 97.944 31.872 97.417 L 31.872 97.417 L 31.872 97.417 Q 31.813 96.89 31.735 96.509 L 31.735 96.509 L 31.735 96.509 Q 32.526 96.646 33.2 96.699 L 33.2 96.699 L 33.2 96.699 Q 33.874 96.753 34.421 96.753 L 34.421 96.753 L 34.421 96.753 Q 34.772 96.753 35.051 96.738 L 35.051 96.738 L 35.051 96.738 Q 35.329 96.724 35.524 96.704 L 35.524 96.704 L 35.524 96.704 Q 35.759 96.675 35.934 96.646 L 35.934 96.646 L 35.934 96.646 Q 35.876 96.948 35.822 97.29 L 35.822 97.29 L 35.822 97.29 Q 35.768 97.632 35.719 98.032 L 35.719 98.032 L 35.719 98.032 Q 36.042 97.622 36.403 97.314 L 36.403 97.314 L 36.403 97.314 Q 36.764 97.007 37.131 96.802 L 37.131 96.802 L 37.131 96.802 Q 37.497 96.597 37.858 96.494 L 37.858 96.494 L 37.858 96.494 Q 38.219 96.392 38.542 96.392 L 38.542 96.392 L 38.542 96.392 Q 39.245 96.392 39.758 96.68 L 39.758 96.68 L 39.758 96.68 Q 40.27 96.968 40.607 97.583 L 40.607 97.583 L 40.607 97.583 Q 40.944 98.198 41.11 99.155 L 41.11 99.155 L 41.11 99.155 Q 41.276 100.112 41.276 101.45 L 41.276 101.45 L 41.276 101.45 Q 41.276 102.368 41.281 103.315 L 41.281 103.315 L 41.281 103.315 Q 41.286 104.263 41.325 105.171 L 41.325 105.171 L 41.325 105.171 Q 41.364 106.079 41.462 106.895 L 41.462 106.895 L 41.462 106.895 Q 41.559 107.71 41.735 108.364 Z  M 51.735 102.466 L 51.735 102.466 L 51.735 102.466 Q 51.735 103.032 51.647 103.711 L 51.647 103.711 L 51.647 103.711 Q 51.559 104.39 51.354 105.078 L 51.354 105.078 L 51.354 105.078 Q 51.149 105.767 50.798 106.416 L 50.798 106.416 L 50.798 106.416 Q 50.446 107.065 49.924 107.563 L 49.924 107.563 L 49.924 107.563 Q 49.401 108.062 48.678 108.364 L 48.678 108.364 L 48.678 108.364 Q 47.956 108.667 46.999 108.667 L 46.999 108.667 L 46.999 108.667 Q 46.042 108.667 45.324 108.384 L 45.324 108.384 L 45.324 108.384 Q 44.606 108.101 44.093 107.627 L 44.093 107.627 L 44.093 107.627 Q 43.581 107.153 43.249 106.533 L 43.249 106.533 L 43.249 106.533 Q 42.917 105.913 42.721 105.23 L 42.721 105.23 L 42.721 105.23 Q 42.526 104.546 42.453 103.848 L 42.453 103.848 L 42.453 103.848 Q 42.38 103.149 42.38 102.524 L 42.38 102.524 L 42.38 102.524 Q 42.38 101.421 42.673 100.361 L 42.673 100.361 L 42.673 100.361 Q 42.966 99.302 43.566 98.472 L 43.566 98.472 L 43.566 98.472 Q 44.167 97.642 45.07 97.134 L 45.07 97.134 L 45.07 97.134 Q 45.973 96.626 47.194 96.626 L 47.194 96.626 L 47.194 96.626 Q 48.014 96.626 48.669 96.875 L 48.669 96.875 L 48.669 96.875 Q 49.323 97.124 49.831 97.554 L 49.831 97.554 L 49.831 97.554 Q 50.339 97.983 50.695 98.56 L 50.695 98.56 L 50.695 98.56 Q 51.051 99.136 51.286 99.78 L 51.286 99.78 L 51.286 99.78 Q 51.52 100.425 51.628 101.118 L 51.628 101.118 L 51.628 101.118 Q 51.735 101.812 51.735 102.466 Z  M 48.337 102.788 L 48.337 102.788 L 48.337 102.788 Q 48.337 102.563 48.322 102.227 L 48.322 102.227 L 48.322 102.227 Q 48.307 101.89 48.259 101.519 L 48.259 101.519 L 48.259 101.519 Q 48.21 101.147 48.127 100.776 L 48.127 100.776 L 48.127 100.776 Q 48.044 100.405 47.907 100.112 L 47.907 100.112 L 47.907 100.112 Q 47.77 99.819 47.57 99.634 L 47.57 99.634 L 47.57 99.634 Q 47.37 99.448 47.096 99.448 L 47.096 99.448 L 47.096 99.448 Q 46.833 99.448 46.637 99.624 L 46.637 99.624 L 46.637 99.624 Q 46.442 99.8 46.301 100.083 L 46.301 100.083 L 46.301 100.083 Q 46.159 100.366 46.066 100.723 L 46.066 100.723 L 46.066 100.723 Q 45.973 101.079 45.92 101.436 L 45.92 101.436 L 45.92 101.436 Q 45.866 101.792 45.842 102.119 L 45.842 102.119 L 45.842 102.119 Q 45.817 102.446 45.817 102.671 L 45.817 102.671 L 45.817 102.671 Q 45.817 102.993 45.866 103.452 L 45.866 103.452 L 45.866 103.452 Q 45.915 103.911 46.051 104.331 L 46.051 104.331 L 46.051 104.331 Q 46.188 104.751 46.427 105.049 L 46.427 105.049 L 46.427 105.049 Q 46.667 105.347 47.057 105.347 L 47.057 105.347 L 47.057 105.347 Q 47.428 105.347 47.677 105.073 L 47.677 105.073 L 47.677 105.073 Q 47.926 104.8 48.073 104.404 L 48.073 104.404 L 48.073 104.404 Q 48.219 104.009 48.278 103.569 L 48.278 103.569 L 48.278 103.569 Q 48.337 103.13 48.337 102.788 Z  M 61.012 99.888 L 61.012 99.888 L 61.012 99.888 Q 61.012 100.298 60.871 100.708 L 60.871 100.708 L 60.871 100.708 Q 60.729 101.118 60.466 101.445 L 60.466 101.445 L 60.466 101.445 Q 60.202 101.772 59.816 101.982 L 59.816 101.982 L 59.816 101.982 Q 59.43 102.192 58.952 102.192 L 58.952 102.192 L 58.952 102.192 Q 58.522 102.192 58.219 102.046 L 58.219 102.046 L 58.219 102.046 Q 57.917 101.899 57.721 101.665 L 57.721 101.665 L 57.721 101.665 Q 57.526 101.431 57.433 101.123 L 57.433 101.123 L 57.433 101.123 Q 57.341 100.815 57.341 100.493 L 57.341 100.493 L 57.341 100.493 Q 57.341 99.81 57.673 99.312 L 57.673 99.312 L 57.673 99.312 Q 57.721 99.478 57.814 99.561 L 57.814 99.561 L 57.814 99.561 Q 57.907 99.644 57.985 99.683 L 57.985 99.683 L 57.985 99.683 Q 58.083 99.722 58.18 99.731 L 58.18 99.731 L 58.18 99.731 Q 58.464 99.731 58.542 99.605 L 58.542 99.605 L 58.542 99.605 Q 58.62 99.478 58.639 99.312 L 58.639 99.312 L 58.639 99.312 Q 58.639 99.146 58.512 98.989 L 58.512 98.989 L 58.512 98.989 Q 58.385 98.833 58.073 98.833 L 58.073 98.833 L 58.073 98.833 Q 57.985 98.833 57.824 98.857 L 57.824 98.857 L 57.824 98.857 Q 57.663 98.882 57.463 98.98 L 57.463 98.98 L 57.463 98.98 Q 57.262 99.077 57.057 99.268 L 57.057 99.268 L 57.057 99.268 Q 56.852 99.458 56.681 99.795 L 56.681 99.795 L 56.681 99.795 Q 56.51 100.132 56.403 100.635 L 56.403 100.635 L 56.403 100.635 Q 56.296 101.138 56.296 101.851 L 56.296 101.851 L 56.296 101.851 Q 56.296 102.583 56.51 103.037 L 56.51 103.037 L 56.51 103.037 Q 56.725 103.491 57.023 103.74 L 57.023 103.74 L 57.023 103.74 Q 57.321 103.989 57.653 104.077 L 57.653 104.077 L 57.653 104.077 Q 57.985 104.165 58.219 104.165 L 58.219 104.165 L 58.219 104.165 Q 58.425 104.165 58.737 104.092 L 58.737 104.092 L 58.737 104.092 Q 59.05 104.019 59.357 103.823 L 59.357 103.823 L 59.357 103.823 Q 59.665 103.628 59.919 103.281 L 59.919 103.281 L 59.919 103.281 Q 60.173 102.935 60.26 102.388 L 60.26 102.388 L 60.26 102.388 Q 60.524 102.778 60.68 103.32 L 60.68 103.32 L 60.68 103.32 Q 60.837 103.862 60.837 104.448 L 60.837 104.448 L 60.837 104.448 Q 60.837 105.249 60.539 106.011 L 60.539 106.011 L 60.539 106.011 Q 60.241 106.772 59.699 107.363 L 59.699 107.363 L 59.699 107.363 Q 59.157 107.954 58.395 108.311 L 58.395 108.311 L 58.395 108.311 Q 57.634 108.667 56.716 108.667 L 56.716 108.667 L 56.716 108.667 Q 56.032 108.667 55.446 108.447 L 55.446 108.447 L 55.446 108.447 Q 54.86 108.228 54.386 107.837 L 54.386 107.837 L 54.386 107.837 Q 53.913 107.446 53.542 106.914 L 53.542 106.914 L 53.542 106.914 Q 53.171 106.382 52.922 105.762 L 52.922 105.762 L 52.922 105.762 Q 52.673 105.142 52.546 104.458 L 52.546 104.458 L 52.546 104.458 Q 52.419 103.774 52.419 103.091 L 52.419 103.091 L 52.419 103.091 Q 52.419 102.329 52.585 101.538 L 52.585 101.538 L 52.585 101.538 Q 52.751 100.747 53.058 100.015 L 53.058 100.015 L 53.058 100.015 Q 53.366 99.282 53.815 98.638 L 53.815 98.638 L 53.815 98.638 Q 54.264 97.993 54.831 97.52 L 54.831 97.52 L 54.831 97.52 Q 55.397 97.046 56.081 96.768 L 56.081 96.768 L 56.081 96.768 Q 56.764 96.489 57.536 96.489 L 57.536 96.489 L 57.536 96.489 Q 58.229 96.489 58.757 96.655 L 58.757 96.655 L 58.757 96.655 Q 59.284 96.821 59.675 97.095 L 59.675 97.095 L 59.675 97.095 Q 60.065 97.368 60.319 97.725 L 60.319 97.725 L 60.319 97.725 Q 60.573 98.081 60.729 98.457 L 60.729 98.457 L 60.729 98.457 Q 60.885 98.833 60.949 99.204 L 60.949 99.204 L 60.949 99.204 Q 61.012 99.575 61.012 99.888 Z  M 71.735 108.569 L 71.735 108.569 L 71.735 108.569 Q 71.208 108.491 70.563 108.452 L 70.563 108.452 L 70.563 108.452 Q 69.919 108.413 69.274 108.413 L 69.274 108.413 L 69.274 108.413 Q 68.659 108.413 68.088 108.452 L 68.088 108.452 L 68.088 108.452 Q 67.516 108.491 67.096 108.55 L 67.096 108.55 L 67.096 108.55 Q 67.301 107.847 67.424 107.095 L 67.424 107.095 L 67.424 107.095 Q 67.546 106.343 67.609 105.527 L 67.609 105.527 L 67.609 105.527 Q 67.673 104.712 67.692 103.823 L 67.692 103.823 L 67.692 103.823 Q 67.712 102.935 67.712 101.948 L 67.712 101.948 L 67.712 101.948 Q 67.712 101.802 67.697 101.558 L 67.697 101.558 L 67.697 101.558 Q 67.682 101.313 67.643 101.03 L 67.643 101.03 L 67.643 101.03 Q 67.604 100.747 67.531 100.459 L 67.531 100.459 L 67.531 100.459 Q 67.458 100.171 67.341 99.937 L 67.341 99.937 L 67.341 99.937 Q 67.223 99.702 67.052 99.556 L 67.052 99.556 L 67.052 99.556 Q 66.882 99.409 66.657 99.409 L 66.657 99.409 L 66.657 99.409 Q 66.51 99.409 66.369 99.561 L 66.369 99.561 L 66.369 99.561 Q 66.227 99.712 66.081 99.961 L 66.081 99.961 L 66.081 99.961 Q 65.934 100.21 65.798 100.537 L 65.798 100.537 L 65.798 100.537 Q 65.661 100.864 65.534 101.226 L 65.534 101.226 L 65.534 101.226 Q 65.553 102.222 65.607 103.193 L 65.607 103.193 L 65.607 103.193 Q 65.661 104.165 65.754 105.059 L 65.754 105.059 L 65.754 105.059 Q 65.846 105.952 65.973 106.738 L 65.973 106.738 L 65.973 106.738 Q 66.1 107.524 66.276 108.13 L 66.276 108.13 L 66.276 108.13 Q 66.11 108.12 65.885 108.101 L 65.885 108.101 L 65.885 108.101 Q 65.69 108.091 65.422 108.081 L 65.422 108.081 L 65.422 108.081 Q 65.153 108.071 64.811 108.071 L 64.811 108.071 L 64.811 108.071 Q 64.176 108.071 63.351 108.125 L 63.351 108.125 L 63.351 108.125 Q 62.526 108.179 61.559 108.325 L 61.559 108.325 L 61.559 108.325 Q 61.696 108.052 61.803 107.568 L 61.803 107.568 L 61.803 107.568 Q 61.911 107.085 61.989 106.475 L 61.989 106.475 L 61.989 106.475 Q 62.067 105.864 62.121 105.176 L 62.121 105.176 L 62.121 105.176 Q 62.175 104.487 62.209 103.794 L 62.209 103.794 L 62.209 103.794 Q 62.243 103.101 62.258 102.451 L 62.258 102.451 L 62.258 102.451 Q 62.272 101.802 62.282 101.279 L 62.282 101.279 L 62.282 101.279 Q 62.292 100.757 62.292 100.396 L 62.292 100.396 L 62.292 100.396 Q 62.292 100.034 62.292 99.927 L 62.292 99.927 L 62.292 99.927 Q 62.272 98.296 62.204 96.899 L 62.204 96.899 L 62.204 96.899 Q 62.175 96.313 62.135 95.718 L 62.135 95.718 L 62.135 95.718 Q 62.096 95.122 62.038 94.605 L 62.038 94.605 L 62.038 94.605 Q 61.979 94.087 61.906 93.696 L 61.906 93.696 L 61.906 93.696 Q 61.833 93.306 61.735 93.11 L 61.735 93.11 L 61.735 93.11 Q 62.526 93.247 63.2 93.296 L 63.2 93.296 L 63.2 93.296 Q 63.874 93.345 64.411 93.345 L 64.411 93.345 L 64.411 93.345 Q 64.762 93.345 65.046 93.33 L 65.046 93.33 L 65.046 93.33 Q 65.329 93.315 65.524 93.296 L 65.524 93.296 L 65.524 93.296 Q 65.759 93.276 65.934 93.247 L 65.934 93.247 L 65.934 93.247 Q 65.856 93.589 65.798 94.067 L 65.798 94.067 L 65.798 94.067 Q 65.739 94.546 65.69 95.142 L 65.69 95.142 L 65.69 95.142 Q 65.641 95.737 65.607 96.421 L 65.607 96.421 L 65.607 96.421 Q 65.573 97.105 65.553 97.847 L 65.553 97.847 L 65.553 97.847 Q 66.11 96.978 66.755 96.621 L 66.755 96.621 L 66.755 96.621 Q 67.399 96.265 68.093 96.265 L 68.093 96.265 L 68.093 96.265 Q 68.786 96.265 69.367 96.572 L 69.367 96.572 L 69.367 96.572 Q 69.948 96.88 70.373 97.52 L 70.373 97.52 L 70.373 97.52 Q 70.798 98.159 71.037 99.136 L 71.037 99.136 L 71.037 99.136 Q 71.276 100.112 71.276 101.45 L 71.276 101.45 L 71.276 101.45 Q 71.276 102.368 71.281 103.35 L 71.281 103.35 L 71.281 103.35 Q 71.286 104.331 71.325 105.273 L 71.325 105.273 L 71.325 105.273 Q 71.364 106.216 71.462 107.065 L 71.462 107.065 L 71.462 107.065 Q 71.559 107.915 71.735 108.569 Z  M 80.915 99.087 L 80.915 99.087 L 80.915 99.087 Q 80.915 99.819 80.705 100.513 L 80.705 100.513 L 80.705 100.513 Q 80.495 101.206 79.968 101.743 L 79.968 101.743 L 79.968 101.743 Q 79.44 102.28 78.547 102.603 L 78.547 102.603 L 78.547 102.603 Q 77.653 102.925 76.276 102.925 L 76.276 102.925 L 76.276 102.925 Q 76.315 103.403 76.476 103.726 L 76.476 103.726 L 76.476 103.726 Q 76.637 104.048 76.862 104.243 L 76.862 104.243 L 76.862 104.243 Q 77.087 104.438 77.341 104.536 L 77.341 104.536 L 77.341 104.536 Q 77.594 104.634 77.809 104.673 L 77.809 104.673 L 77.809 104.673 Q 78.024 104.712 78.171 104.712 L 78.171 104.712 L 78.171 104.712 Q 78.317 104.712 78.317 104.712 L 78.317 104.712 L 78.317 104.712 Q 78.923 104.644 79.401 104.399 L 79.401 104.399 L 79.401 104.399 Q 79.606 104.302 79.801 104.15 L 79.801 104.15 L 79.801 104.15 Q 79.997 103.999 80.158 103.789 L 80.158 103.789 L 80.158 103.789 Q 80.319 103.579 80.422 103.311 L 80.422 103.311 L 80.422 103.311 Q 80.524 103.042 80.544 102.69 L 80.544 102.69 L 80.544 102.69 Q 80.798 103.325 80.9 103.877 L 80.9 103.877 L 80.9 103.877 Q 81.003 104.429 81.003 104.907 L 81.003 104.907 L 81.003 104.907 Q 81.003 105.786 80.685 106.523 L 80.685 106.523 L 80.685 106.523 Q 80.368 107.261 79.811 107.798 L 79.811 107.798 L 79.811 107.798 Q 79.255 108.335 78.488 108.633 L 78.488 108.633 L 78.488 108.633 Q 77.721 108.931 76.823 108.931 L 76.823 108.931 L 76.823 108.931 Q 75.944 108.931 75.129 108.628 L 75.129 108.628 L 75.129 108.628 Q 74.313 108.325 73.683 107.666 L 73.683 107.666 L 73.683 107.666 Q 73.053 107.007 72.677 105.952 L 72.677 105.952 L 72.677 105.952 Q 72.301 104.897 72.301 103.394 L 72.301 103.394 L 72.301 103.394 Q 72.301 101.763 72.77 100.503 L 72.77 100.503 L 72.77 100.503 Q 73.239 99.243 74.03 98.389 L 74.03 98.389 L 74.03 98.389 Q 74.821 97.534 75.861 97.09 L 75.861 97.09 L 75.861 97.09 Q 76.901 96.646 78.044 96.646 L 78.044 96.646 L 78.044 96.646 Q 78.61 96.646 79.133 96.772 L 79.133 96.772 L 79.133 96.772 Q 79.655 96.899 80.051 97.192 L 80.051 97.192 L 80.051 97.192 Q 80.446 97.485 80.68 97.949 L 80.68 97.949 L 80.68 97.949 Q 80.915 98.413 80.915 99.087 Z  M 76.237 101.313 L 76.237 101.313 L 76.237 101.313 Q 76.51 101.304 76.872 101.201 L 76.872 101.201 L 76.872 101.201 Q 77.233 101.099 77.555 100.913 L 77.555 100.913 L 77.555 100.913 Q 77.878 100.728 78.097 100.454 L 78.097 100.454 L 78.097 100.454 Q 78.317 100.181 78.317 99.829 L 78.317 99.829 L 78.317 99.829 Q 78.317 99.605 78.161 99.468 L 78.161 99.468 L 78.161 99.468 Q 78.005 99.331 77.76 99.331 L 77.76 99.331 L 77.76 99.331 Q 77.419 99.331 77.15 99.526 L 77.15 99.526 L 77.15 99.526 Q 76.882 99.722 76.691 100.015 L 76.691 100.015 L 76.691 100.015 Q 76.501 100.308 76.384 100.659 L 76.384 100.659 L 76.384 100.659 Q 76.266 101.011 76.237 101.313 Z  M 89.831 99.292 L 89.831 99.292 L 89.831 99.292 Q 89.831 99.683 89.675 99.995 L 89.675 99.995 L 89.675 99.995 Q 89.518 100.308 89.255 100.527 L 89.255 100.527 L 89.255 100.527 Q 88.991 100.747 88.639 100.869 L 88.639 100.869 L 88.639 100.869 Q 88.288 100.991 87.897 100.991 L 87.897 100.991 L 87.897 100.991 Q 87.448 100.991 87.131 100.884 L 87.131 100.884 L 87.131 100.884 Q 86.813 100.776 86.593 100.605 L 86.593 100.605 L 86.593 100.605 Q 86.374 100.435 86.247 100.225 L 86.247 100.225 L 86.247 100.225 Q 86.12 100.015 86.047 99.819 L 86.047 99.819 L 86.047 99.819 Q 85.973 99.624 85.954 99.458 L 85.954 99.458 L 85.954 99.458 Q 85.934 99.292 85.934 99.204 L 85.934 99.204 L 85.934 99.204 Q 86.022 99.37 86.159 99.409 L 86.159 99.409 L 86.159 99.409 Q 86.296 99.448 86.374 99.448 L 86.374 99.448 L 86.374 99.448 Q 86.598 99.448 86.696 99.331 L 86.696 99.331 L 86.696 99.331 Q 86.794 99.214 86.794 99.087 L 86.794 99.087 L 86.794 99.087 Q 86.794 99.009 86.755 98.911 L 86.755 98.911 L 86.755 98.911 Q 86.716 98.813 86.618 98.73 L 86.618 98.73 L 86.618 98.73 Q 86.52 98.647 86.364 98.589 L 86.364 98.589 L 86.364 98.589 Q 86.208 98.53 85.973 98.53 L 85.973 98.53 L 85.973 98.53 Q 85.827 98.53 85.661 98.589 L 85.661 98.589 L 85.661 98.589 Q 85.495 98.647 85.363 98.77 L 85.363 98.77 L 85.363 98.77 Q 85.231 98.892 85.143 99.072 L 85.143 99.072 L 85.143 99.072 Q 85.055 99.253 85.055 99.487 L 85.055 99.487 L 85.055 99.487 Q 85.055 99.927 85.28 100.23 L 85.28 100.23 L 85.28 100.23 Q 85.505 100.532 85.871 100.762 L 85.871 100.762 L 85.871 100.762 Q 86.237 100.991 86.701 101.187 L 86.701 101.187 L 86.701 101.187 Q 87.165 101.382 87.653 101.592 L 87.653 101.592 L 87.653 101.592 Q 88.141 101.802 88.605 102.061 L 88.605 102.061 L 88.605 102.061 Q 89.069 102.319 89.435 102.69 L 89.435 102.69 L 89.435 102.69 Q 89.801 103.062 90.026 103.579 L 90.026 103.579 L 90.026 103.579 Q 90.251 104.097 90.251 104.81 L 90.251 104.81 L 90.251 104.81 Q 90.251 105.718 89.88 106.45 L 89.88 106.45 L 89.88 106.45 Q 89.509 107.183 88.888 107.705 L 88.888 107.705 L 88.888 107.705 Q 88.268 108.228 87.448 108.506 L 87.448 108.506 L 87.448 108.506 Q 86.628 108.784 85.719 108.784 L 85.719 108.784 L 85.719 108.784 Q 84.889 108.784 84.147 108.56 L 84.147 108.56 L 84.147 108.56 Q 83.405 108.335 82.848 107.935 L 82.848 107.935 L 82.848 107.935 Q 82.292 107.534 81.965 106.987 L 81.965 106.987 L 81.965 106.987 Q 81.637 106.44 81.637 105.806 L 81.637 105.806 L 81.637 105.806 Q 81.637 105.327 81.794 104.971 L 81.794 104.971 L 81.794 104.971 Q 81.95 104.614 82.228 104.38 L 82.228 104.38 L 82.228 104.38 Q 82.507 104.146 82.883 104.028 L 82.883 104.028 L 82.883 104.028 Q 83.259 103.911 83.698 103.911 L 83.698 103.911 L 83.698 103.911 Q 84.02 103.911 84.343 103.98 L 84.343 103.98 L 84.343 103.98 Q 84.665 104.048 84.948 104.185 L 84.948 104.185 L 84.948 104.185 Q 85.231 104.321 85.456 104.517 L 85.456 104.517 L 85.456 104.517 Q 85.68 104.712 85.817 104.966 L 85.817 104.966 L 85.817 104.966 Q 85.739 104.946 85.666 104.937 L 85.666 104.937 L 85.666 104.937 Q 85.593 104.927 85.514 104.927 L 85.514 104.927 L 85.514 104.927 Q 85.3 104.927 85.177 105.039 L 85.177 105.039 L 85.177 105.039 Q 85.055 105.151 85.055 105.405 L 85.055 105.405 L 85.055 105.405 Q 85.055 105.679 85.28 105.864 L 85.28 105.864 L 85.28 105.864 Q 85.505 106.05 85.778 106.05 L 85.778 106.05 L 85.778 106.05 Q 85.934 106.05 86.071 105.981 L 86.071 105.981 L 86.071 105.981 Q 86.208 105.913 86.305 105.801 L 86.305 105.801 L 86.305 105.801 Q 86.403 105.688 86.457 105.552 L 86.457 105.552 L 86.457 105.552 Q 86.51 105.415 86.51 105.269 L 86.51 105.269 L 86.51 105.269 Q 86.51 105.015 86.34 104.722 L 86.34 104.722 L 86.34 104.722 Q 86.169 104.429 85.856 104.233 L 85.856 104.233 L 85.856 104.233 Q 85.241 103.853 84.694 103.579 L 84.694 103.579 L 84.694 103.579 Q 84.147 103.306 83.688 103.062 L 83.688 103.062 L 83.688 103.062 Q 83.229 102.817 82.863 102.573 L 82.863 102.573 L 82.863 102.573 Q 82.497 102.329 82.243 102.002 L 82.243 102.002 L 82.243 102.002 Q 81.989 101.675 81.852 101.23 L 81.852 101.23 L 81.852 101.23 Q 81.716 100.786 81.716 100.151 L 81.716 100.151 L 81.716 100.151 Q 81.716 99.399 82.013 98.76 L 82.013 98.76 L 82.013 98.76 Q 82.311 98.12 82.868 97.651 L 82.868 97.651 L 82.868 97.651 Q 83.425 97.183 84.235 96.914 L 84.235 96.914 L 84.235 96.914 Q 85.046 96.646 86.071 96.646 L 86.071 96.646 L 86.071 96.646 Q 87.116 96.646 87.834 96.89 L 87.834 96.89 L 87.834 96.89 Q 88.551 97.134 88.996 97.515 L 88.996 97.515 L 88.996 97.515 Q 89.44 97.896 89.635 98.364 L 89.635 98.364 L 89.635 98.364 Q 89.831 98.833 89.831 99.292 Z  M 41.408 76.792 L 41.408 76.792 L 41.408 76.792 Q 41.408 77.876 40.954 78.638 L 40.954 78.638 L 40.954 78.638 Q 40.5 79.399 39.748 79.883 L 39.748 79.883 L 39.748 79.883 Q 38.996 80.366 38.024 80.601 L 38.024 80.601 L 38.024 80.601 Q 37.052 80.835 36.027 80.874 L 36.027 80.874 L 36.027 80.874 Q 35.373 80.855 34.777 80.825 L 34.777 80.825 L 34.777 80.825 Q 34.523 80.815 34.259 80.811 L 34.259 80.811 L 34.259 80.811 Q 33.996 80.806 33.747 80.796 L 33.747 80.796 L 33.747 80.796 Q 33.498 80.786 33.273 80.786 L 33.273 80.786 L 33.273 80.786 Q 33.049 80.786 32.892 80.786 L 32.892 80.786 L 32.892 80.786 Q 32.248 80.806 31.559 80.815 L 31.559 80.815 L 31.559 80.815 Q 30.871 80.825 30.207 80.874 L 30.207 80.874 L 30.207 80.874 Q 30.646 80.278 30.92 79.351 L 30.92 79.351 L 30.92 79.351 Q 31.193 78.423 31.354 77.349 L 31.354 77.349 L 31.354 77.349 Q 31.515 76.274 31.574 75.147 L 31.574 75.147 L 31.574 75.147 Q 31.633 74.019 31.633 73.032 L 31.633 73.032 L 31.633 73.032 Q 31.633 72.612 31.618 72.012 L 31.618 72.012 L 31.618 72.012 Q 31.603 71.411 31.564 70.732 L 31.564 70.732 L 31.564 70.732 Q 31.525 70.054 31.457 69.36 L 31.457 69.36 L 31.457 69.36 Q 31.388 68.667 31.266 68.066 L 31.266 68.066 L 31.266 68.066 Q 31.144 67.466 30.968 67.007 L 30.968 67.007 L 30.968 67.007 Q 30.793 66.548 30.549 66.353 L 30.549 66.353 L 30.549 66.353 Q 31.252 66.46 31.916 66.494 L 31.916 66.494 L 31.916 66.494 Q 32.58 66.528 33.049 66.528 L 33.049 66.528 L 33.049 66.528 Q 33.459 66.528 33.781 66.514 L 33.781 66.514 L 33.781 66.514 Q 34.103 66.499 34.416 66.48 L 34.416 66.48 L 34.416 66.48 Q 34.728 66.46 35.06 66.445 L 35.06 66.445 L 35.06 66.445 Q 35.392 66.431 35.812 66.431 L 35.812 66.431 L 35.812 66.431 Q 36.457 66.44 37.106 66.504 L 37.106 66.504 L 37.106 66.504 Q 37.756 66.567 38.346 66.724 L 38.346 66.724 L 38.346 66.724 Q 38.937 66.88 39.455 67.148 L 39.455 67.148 L 39.455 67.148 Q 39.972 67.417 40.348 67.847 L 40.348 67.847 L 40.348 67.847 Q 40.724 68.276 40.944 68.882 L 40.944 68.882 L 40.944 68.882 Q 41.164 69.487 41.164 70.308 L 41.164 70.308 L 41.164 70.308 Q 41.164 70.747 41.051 71.187 L 41.051 71.187 L 41.051 71.187 Q 40.939 71.626 40.69 72.046 L 40.69 72.046 L 40.69 72.046 Q 40.441 72.466 40.036 72.852 L 40.036 72.852 L 40.036 72.852 Q 39.631 73.237 39.045 73.569 L 39.045 73.569 L 39.045 73.569 Q 40.295 74.087 40.851 74.893 L 40.851 74.893 L 40.851 74.893 Q 41.408 75.698 41.408 76.792 Z  M 35.588 72.388 L 35.588 72.388 L 35.588 72.388 Q 35.783 72.241 36.047 71.992 L 36.047 71.992 L 36.047 71.992 Q 36.31 71.743 36.545 71.445 L 36.545 71.445 L 36.545 71.445 Q 36.779 71.147 36.945 70.825 L 36.945 70.825 L 36.945 70.825 Q 37.111 70.503 37.111 70.21 L 37.111 70.21 L 37.111 70.21 Q 37.111 69.897 36.93 69.702 L 36.93 69.702 L 36.93 69.702 Q 36.75 69.507 36.525 69.507 L 36.525 69.507 L 36.525 69.507 Q 36.213 69.507 36.027 69.79 L 36.027 69.79 L 36.027 69.79 Q 35.842 70.073 35.739 70.459 L 35.739 70.459 L 35.739 70.459 Q 35.636 70.845 35.602 71.24 L 35.602 71.24 L 35.602 71.24 Q 35.568 71.636 35.568 71.87 L 35.568 71.87 L 35.568 71.87 Q 35.568 71.987 35.568 72.119 L 35.568 72.119 L 35.568 72.119 Q 35.568 72.251 35.588 72.388 Z  M 36.926 77.251 L 36.926 77.251 L 36.926 77.251 Q 36.926 76.899 36.818 76.543 L 36.818 76.543 L 36.818 76.543 Q 36.711 76.187 36.53 75.84 L 36.53 75.84 L 36.53 75.84 Q 36.349 75.493 36.12 75.171 L 36.12 75.171 L 36.12 75.171 Q 35.89 74.849 35.646 74.556 L 35.646 74.556 L 35.646 74.556 Q 35.5 74.995 35.456 75.42 L 35.456 75.42 L 35.456 75.42 Q 35.412 75.845 35.412 76.187 L 35.412 76.187 L 35.412 76.187 Q 35.412 76.694 35.48 77.031 L 35.48 77.031 L 35.48 77.031 Q 35.549 77.368 35.671 77.573 L 35.671 77.573 L 35.671 77.573 Q 35.793 77.778 35.959 77.866 L 35.959 77.866 L 35.959 77.866 Q 36.125 77.954 36.33 77.954 L 36.33 77.954 L 36.33 77.954 Q 36.574 77.954 36.75 77.773 L 36.75 77.773 L 36.75 77.773 Q 36.926 77.593 36.926 77.251 Z  M 50.929 69.331 L 50.929 69.331 L 50.929 69.331 Q 50.842 69.771 50.768 70.356 L 50.768 70.356 L 50.768 70.356 Q 50.695 70.942 50.641 71.621 L 50.641 71.621 L 50.641 71.621 Q 50.588 72.3 50.558 73.037 L 50.558 73.037 L 50.558 73.037 Q 50.529 73.774 50.529 74.507 L 50.529 74.507 L 50.529 74.507 Q 50.529 74.751 50.539 74.99 L 50.539 74.99 L 50.539 74.99 Q 50.549 75.23 50.549 75.454 L 50.549 75.454 L 50.549 75.454 Q 50.549 75.933 50.495 76.538 L 50.495 76.538 L 50.495 76.538 Q 50.441 77.144 50.28 77.773 L 50.28 77.773 L 50.28 77.773 Q 50.119 78.403 49.836 79.009 L 49.836 79.009 L 49.836 79.009 Q 49.552 79.614 49.089 80.083 L 49.089 80.083 L 49.089 80.083 Q 48.625 80.552 47.961 80.84 L 47.961 80.84 L 47.961 80.84 Q 47.297 81.128 46.388 81.128 L 46.388 81.128 L 46.388 81.128 Q 45.607 81.128 45.007 80.923 L 45.007 80.923 L 45.007 80.923 Q 44.406 80.718 43.962 80.361 L 43.962 80.361 L 43.962 80.361 Q 43.517 80.005 43.215 79.517 L 43.215 79.517 L 43.215 79.517 Q 42.912 79.028 42.726 78.467 L 42.726 78.467 L 42.726 78.467 Q 42.541 77.905 42.458 77.29 L 42.458 77.29 L 42.458 77.29 Q 42.375 76.675 42.375 76.069 L 42.375 76.069 L 42.375 76.069 Q 42.375 75.923 42.38 75.889 L 42.38 75.889 L 42.38 75.889 Q 42.384 75.855 42.384 75.845 L 42.384 75.845 L 42.384 75.845 Q 42.384 75.835 42.394 75.811 L 42.394 75.811 L 42.394 75.811 Q 42.404 75.786 42.404 75.659 L 42.404 75.659 L 42.404 75.659 Q 42.404 75.532 42.409 75.259 L 42.409 75.259 L 42.409 75.259 Q 42.414 74.985 42.414 74.487 L 42.414 74.487 L 42.414 74.487 Q 42.414 73.901 42.394 73.164 L 42.394 73.164 L 42.394 73.164 Q 42.375 72.427 42.311 71.719 L 42.311 71.719 L 42.311 71.719 Q 42.248 71.011 42.131 70.435 L 42.131 70.435 L 42.131 70.435 Q 42.013 69.858 41.828 69.595 L 41.828 69.595 L 41.828 69.595 Q 42.619 69.731 43.317 69.78 L 43.317 69.78 L 43.317 69.78 Q 44.015 69.829 44.592 69.829 L 44.592 69.829 L 44.592 69.829 Q 44.972 69.829 45.28 69.814 L 45.28 69.814 L 45.28 69.814 Q 45.588 69.8 45.812 69.78 L 45.812 69.78 L 45.812 69.78 Q 46.066 69.761 46.271 69.731 L 46.271 69.731 L 46.271 69.731 Q 46.076 70.688 45.895 71.904 L 45.895 71.904 L 45.895 71.904 Q 45.715 73.12 45.715 74.692 L 45.715 74.692 L 45.715 74.692 Q 45.715 75.054 45.749 75.444 L 45.749 75.444 L 45.749 75.444 Q 45.783 75.835 45.871 76.162 L 45.871 76.162 L 45.871 76.162 Q 45.959 76.489 46.11 76.699 L 46.11 76.699 L 46.11 76.699 Q 46.261 76.909 46.496 76.909 L 46.496 76.909 L 46.496 76.909 Q 46.789 76.909 46.955 76.714 L 46.955 76.714 L 46.955 76.714 Q 47.121 76.519 47.204 76.201 L 47.204 76.201 L 47.204 76.201 Q 47.287 75.884 47.301 75.493 L 47.301 75.493 L 47.301 75.493 Q 47.316 75.103 47.316 74.712 L 47.316 74.712 L 47.316 74.712 Q 47.306 73.442 47.238 72.339 L 47.238 72.339 L 47.238 72.339 Q 47.209 71.87 47.165 71.392 L 47.165 71.392 L 47.165 71.392 Q 47.121 70.913 47.062 70.488 L 47.062 70.488 L 47.062 70.488 Q 47.004 70.063 46.926 69.727 L 46.926 69.727 L 46.926 69.727 Q 46.847 69.39 46.75 69.194 L 46.75 69.194 L 46.75 69.194 Q 47.541 69.331 48.215 69.38 L 48.215 69.38 L 48.215 69.38 Q 48.888 69.429 49.416 69.429 L 49.416 69.429 L 49.416 69.429 Q 49.767 69.429 50.046 69.414 L 50.046 69.414 L 50.046 69.414 Q 50.324 69.399 50.519 69.38 L 50.519 69.38 L 50.519 69.38 Q 50.754 69.36 50.929 69.331 Z  M 60.148 71.509 L 60.148 71.509 L 60.148 71.509 Q 60.148 72.241 59.938 72.935 L 59.938 72.935 L 59.938 72.935 Q 59.728 73.628 59.201 74.165 L 59.201 74.165 L 59.201 74.165 Q 58.674 74.702 57.78 75.024 L 57.78 75.024 L 57.78 75.024 Q 56.886 75.347 55.509 75.347 L 55.509 75.347 L 55.509 75.347 Q 55.549 75.825 55.71 76.147 L 55.71 76.147 L 55.71 76.147 Q 55.871 76.47 56.095 76.665 L 56.095 76.665 L 56.095 76.665 Q 56.32 76.86 56.574 76.958 L 56.574 76.958 L 56.574 76.958 Q 56.828 77.056 57.043 77.095 L 57.043 77.095 L 57.043 77.095 Q 57.258 77.134 57.404 77.134 L 57.404 77.134 L 57.404 77.134 Q 57.551 77.134 57.551 77.134 L 57.551 77.134 L 57.551 77.134 Q 58.156 77.065 58.634 76.821 L 58.634 76.821 L 58.634 76.821 Q 58.84 76.724 59.035 76.572 L 59.035 76.572 L 59.035 76.572 Q 59.23 76.421 59.391 76.211 L 59.391 76.211 L 59.391 76.211 Q 59.552 76.001 59.655 75.732 L 59.655 75.732 L 59.655 75.732 Q 59.758 75.464 59.777 75.112 L 59.777 75.112 L 59.777 75.112 Q 60.031 75.747 60.134 76.299 L 60.134 76.299 L 60.134 76.299 Q 60.236 76.851 60.236 77.329 L 60.236 77.329 L 60.236 77.329 Q 60.236 78.208 59.919 78.945 L 59.919 78.945 L 59.919 78.945 Q 59.601 79.683 59.045 80.22 L 59.045 80.22 L 59.045 80.22 Q 58.488 80.757 57.721 81.055 L 57.721 81.055 L 57.721 81.055 Q 56.955 81.353 56.056 81.353 L 56.056 81.353 L 56.056 81.353 Q 55.177 81.353 54.362 81.05 L 54.362 81.05 L 54.362 81.05 Q 53.547 80.747 52.917 80.088 L 52.917 80.088 L 52.917 80.088 Q 52.287 79.429 51.911 78.374 L 51.911 78.374 L 51.911 78.374 Q 51.535 77.319 51.535 75.815 L 51.535 75.815 L 51.535 75.815 Q 51.535 74.185 52.004 72.925 L 52.004 72.925 L 52.004 72.925 Q 52.472 71.665 53.263 70.811 L 53.263 70.811 L 53.263 70.811 Q 54.054 69.956 55.094 69.512 L 55.094 69.512 L 55.094 69.512 Q 56.134 69.067 57.277 69.067 L 57.277 69.067 L 57.277 69.067 Q 57.843 69.067 58.366 69.194 L 58.366 69.194 L 58.366 69.194 Q 58.888 69.321 59.284 69.614 L 59.284 69.614 L 59.284 69.614 Q 59.679 69.907 59.914 70.371 L 59.914 70.371 L 59.914 70.371 Q 60.148 70.835 60.148 71.509 Z  M 55.47 73.735 L 55.47 73.735 L 55.47 73.735 Q 55.744 73.726 56.105 73.623 L 56.105 73.623 L 56.105 73.623 Q 56.467 73.521 56.789 73.335 L 56.789 73.335 L 56.789 73.335 Q 57.111 73.149 57.331 72.876 L 57.331 72.876 L 57.331 72.876 Q 57.551 72.603 57.551 72.251 L 57.551 72.251 L 57.551 72.251 Q 57.551 72.026 57.394 71.89 L 57.394 71.89 L 57.394 71.89 Q 57.238 71.753 56.994 71.753 L 56.994 71.753 L 56.994 71.753 Q 56.652 71.753 56.384 71.948 L 56.384 71.948 L 56.384 71.948 Q 56.115 72.144 55.925 72.437 L 55.925 72.437 L 55.925 72.437 Q 55.734 72.73 55.617 73.081 L 55.617 73.081 L 55.617 73.081 Q 55.5 73.433 55.47 73.735 Z  M 71.144 80.786 L 71.144 80.786 L 71.144 80.786 Q 70.842 80.737 70.48 80.723 L 70.48 80.723 L 70.48 80.723 Q 70.119 80.708 69.728 80.708 L 69.728 80.708 L 69.728 80.708 Q 69.259 80.708 68.776 80.732 L 68.776 80.732 L 68.776 80.732 Q 68.293 80.757 67.834 80.796 L 67.834 80.796 L 67.834 80.796 Q 67.375 80.835 66.965 80.884 L 66.965 80.884 L 66.965 80.884 Q 66.554 80.933 66.252 80.972 L 66.252 80.972 L 66.252 80.972 Q 66.672 79.556 66.901 77.944 L 66.901 77.944 L 66.901 77.944 Q 67.131 76.333 67.131 74.37 L 67.131 74.37 L 67.131 74.37 Q 67.131 74.224 67.126 73.98 L 67.126 73.98 L 67.126 73.98 Q 67.121 73.735 67.101 73.452 L 67.101 73.452 L 67.101 73.452 Q 67.082 73.169 67.038 72.881 L 67.038 72.881 L 67.038 72.881 Q 66.994 72.593 66.911 72.358 L 66.911 72.358 L 66.911 72.358 Q 66.828 72.124 66.701 71.978 L 66.701 71.978 L 66.701 71.978 Q 66.574 71.831 66.388 71.831 L 66.388 71.831 L 66.388 71.831 Q 66.115 71.831 65.856 72.026 L 65.856 72.026 L 65.856 72.026 Q 65.597 72.222 65.397 72.544 L 65.397 72.544 L 65.397 72.544 Q 65.197 72.866 65.075 73.286 L 65.075 73.286 L 65.075 73.286 Q 64.953 73.706 64.953 74.155 L 64.953 74.155 L 64.953 74.155 Q 64.953 74.966 64.992 75.801 L 64.992 75.801 L 64.992 75.801 Q 65.031 76.636 65.119 77.456 L 65.119 77.456 L 65.119 77.456 Q 65.207 78.276 65.343 79.063 L 65.343 79.063 L 65.343 79.063 Q 65.48 79.849 65.685 80.552 L 65.685 80.552 L 65.685 80.552 Q 65.519 80.542 65.295 80.522 L 65.295 80.522 L 65.295 80.522 Q 65.099 80.513 64.836 80.503 L 64.836 80.503 L 64.836 80.503 Q 64.572 80.493 64.23 80.493 L 64.23 80.493 L 64.23 80.493 Q 63.595 80.493 62.765 80.547 L 62.765 80.547 L 62.765 80.547 Q 61.935 80.601 60.968 80.747 L 60.968 80.747 L 60.968 80.747 Q 61.086 80.2 61.174 79.409 L 61.174 79.409 L 61.174 79.409 Q 61.261 78.618 61.32 77.69 L 61.32 77.69 L 61.32 77.69 Q 61.379 76.763 61.413 75.752 L 61.413 75.752 L 61.413 75.752 Q 61.447 74.741 61.447 73.755 L 61.447 73.755 L 61.447 73.755 Q 61.447 73.022 61.427 72.319 L 61.427 72.319 L 61.427 72.319 Q 61.408 71.616 61.374 70.991 L 61.374 70.991 L 61.374 70.991 Q 61.34 70.366 61.281 69.839 L 61.281 69.839 L 61.281 69.839 Q 61.222 69.312 61.144 68.931 L 61.144 68.931 L 61.144 68.931 Q 61.935 69.067 62.609 69.121 L 62.609 69.121 L 62.609 69.121 Q 63.283 69.175 63.83 69.175 L 63.83 69.175 L 63.83 69.175 Q 64.181 69.175 64.46 69.16 L 64.46 69.16 L 64.46 69.16 Q 64.738 69.146 64.933 69.126 L 64.933 69.126 L 64.933 69.126 Q 65.168 69.097 65.343 69.067 L 65.343 69.067 L 65.343 69.067 Q 65.285 69.37 65.231 69.712 L 65.231 69.712 L 65.231 69.712 Q 65.177 70.054 65.129 70.454 L 65.129 70.454 L 65.129 70.454 Q 65.451 70.044 65.812 69.736 L 65.812 69.736 L 65.812 69.736 Q 66.174 69.429 66.54 69.224 L 66.54 69.224 L 66.54 69.224 Q 66.906 69.019 67.267 68.916 L 67.267 68.916 L 67.267 68.916 Q 67.629 68.813 67.951 68.813 L 67.951 68.813 L 67.951 68.813 Q 68.654 68.813 69.167 69.102 L 69.167 69.102 L 69.167 69.102 Q 69.679 69.39 70.016 70.005 L 70.016 70.005 L 70.016 70.005 Q 70.353 70.62 70.519 71.577 L 70.519 71.577 L 70.519 71.577 Q 70.685 72.534 70.685 73.872 L 70.685 73.872 L 70.685 73.872 Q 70.685 74.79 70.69 75.737 L 70.69 75.737 L 70.69 75.737 Q 70.695 76.685 70.734 77.593 L 70.734 77.593 L 70.734 77.593 Q 70.773 78.501 70.871 79.316 L 70.871 79.316 L 70.871 79.316 Q 70.968 80.132 71.144 80.786 Z  M 81.945 80.728 L 81.945 80.728 L 81.945 80.728 Q 81.759 80.708 81.515 80.688 L 81.515 80.688 L 81.515 80.688 Q 81.31 80.669 81.022 80.659 L 81.022 80.659 L 81.022 80.659 Q 80.734 80.649 80.392 80.649 L 80.392 80.649 L 80.392 80.649 Q 79.904 80.649 79.323 80.688 L 79.323 80.688 L 79.323 80.688 Q 78.742 80.728 78.127 80.835 L 78.127 80.835 L 78.166 78.091 L 78.166 78.091 Q 77.795 79.546 77.077 80.337 L 77.077 80.337 L 77.077 80.337 Q 76.359 81.128 75.392 81.128 L 75.392 81.128 L 75.392 81.128 Q 75.09 81.128 74.709 81.05 L 74.709 81.05 L 74.709 81.05 Q 74.328 80.972 73.932 80.752 L 73.932 80.752 L 73.932 80.752 Q 73.537 80.532 73.161 80.142 L 73.161 80.142 L 73.161 80.142 Q 72.785 79.751 72.492 79.131 L 72.492 79.131 L 72.492 79.131 Q 72.199 78.511 72.023 77.627 L 72.023 77.627 L 72.023 77.627 Q 71.847 76.743 71.847 75.532 L 71.847 75.532 L 71.847 75.532 Q 71.847 73.892 72.179 72.725 L 72.179 72.725 L 72.179 72.725 Q 72.511 71.558 73.029 70.815 L 73.029 70.815 L 73.029 70.815 Q 73.547 70.073 74.172 69.731 L 74.172 69.731 L 74.172 69.731 Q 74.797 69.39 75.392 69.39 L 75.392 69.39 L 75.392 69.39 Q 75.9 69.39 76.315 69.531 L 76.315 69.531 L 76.315 69.531 Q 76.73 69.673 77.052 69.893 L 77.052 69.893 L 77.052 69.893 Q 77.375 70.112 77.609 70.386 L 77.609 70.386 L 77.609 70.386 Q 77.843 70.659 77.99 70.933 L 77.99 70.933 L 77.99 70.933 Q 77.961 70.601 77.902 70.225 L 77.902 70.225 L 77.902 70.225 Q 77.843 69.849 77.765 69.448 L 77.765 69.448 L 77.765 69.448 Q 78.4 69.575 79.054 69.614 L 79.054 69.614 L 79.054 69.614 Q 79.709 69.653 80.265 69.653 L 80.265 69.653 L 80.265 69.653 Q 80.929 69.653 81.34 69.624 L 81.34 69.624 L 81.34 69.624 Q 81.574 69.614 81.769 69.595 L 81.769 69.595 L 81.769 69.595 Q 81.662 70.083 81.574 70.688 L 81.574 70.688 L 81.574 70.688 Q 81.486 71.294 81.423 71.982 L 81.423 71.982 L 81.423 71.982 Q 81.359 72.671 81.325 73.428 L 81.325 73.428 L 81.325 73.428 Q 81.291 74.185 81.291 74.976 L 81.291 74.976 L 81.291 74.976 Q 81.291 76.45 81.437 77.935 L 81.437 77.935 L 81.437 77.935 Q 81.584 79.419 81.945 80.728 Z  M 77.931 75.132 L 77.931 75.132 L 77.931 73.55 L 77.931 73.55 Q 77.931 73.286 77.902 73.013 L 77.902 73.013 L 77.902 73.013 Q 77.873 72.739 77.77 72.515 L 77.77 72.515 L 77.77 72.515 Q 77.668 72.29 77.472 72.148 L 77.472 72.148 L 77.472 72.148 Q 77.277 72.007 76.945 72.007 L 76.945 72.007 L 76.945 72.007 Q 76.593 72.007 76.364 72.251 L 76.364 72.251 L 76.364 72.251 Q 76.134 72.495 75.993 72.92 L 75.993 72.92 L 75.993 72.92 Q 75.851 73.345 75.798 73.926 L 75.798 73.926 L 75.798 73.926 Q 75.744 74.507 75.744 75.19 L 75.744 75.19 L 75.744 75.19 Q 75.744 75.581 75.798 75.981 L 75.798 75.981 L 75.798 75.981 Q 75.851 76.382 75.978 76.709 L 75.978 76.709 L 75.978 76.709 Q 76.105 77.036 76.32 77.241 L 76.32 77.241 L 76.32 77.241 Q 76.535 77.446 76.847 77.446 L 76.847 77.446 L 76.847 77.446 Q 77.199 77.446 77.414 77.202 L 77.414 77.202 L 77.414 77.202 Q 77.629 76.958 77.741 76.597 L 77.741 76.597 L 77.741 76.597 Q 77.853 76.235 77.892 75.84 L 77.892 75.84 L 77.892 75.84 Q 77.931 75.444 77.931 75.132 Z  M 90.842 71.714 L 90.842 71.714 L 90.842 71.714 Q 90.842 72.105 90.685 72.417 L 90.685 72.417 L 90.685 72.417 Q 90.529 72.73 90.265 72.949 L 90.265 72.949 L 90.265 72.949 Q 90.002 73.169 89.65 73.291 L 89.65 73.291 L 89.65 73.291 Q 89.299 73.413 88.908 73.413 L 88.908 73.413 L 88.908 73.413 Q 88.459 73.413 88.141 73.306 L 88.141 73.306 L 88.141 73.306 Q 87.824 73.198 87.604 73.027 L 87.604 73.027 L 87.604 73.027 Q 87.384 72.856 87.258 72.647 L 87.258 72.647 L 87.258 72.647 Q 87.131 72.437 87.057 72.241 L 87.057 72.241 L 87.057 72.241 Q 86.984 72.046 86.965 71.88 L 86.965 71.88 L 86.965 71.88 Q 86.945 71.714 86.945 71.626 L 86.945 71.626 L 86.945 71.626 Q 87.033 71.792 87.17 71.831 L 87.17 71.831 L 87.17 71.831 Q 87.306 71.87 87.384 71.87 L 87.384 71.87 L 87.384 71.87 Q 87.609 71.87 87.707 71.753 L 87.707 71.753 L 87.707 71.753 Q 87.804 71.636 87.804 71.509 L 87.804 71.509 L 87.804 71.509 Q 87.804 71.431 87.765 71.333 L 87.765 71.333 L 87.765 71.333 Q 87.726 71.235 87.629 71.152 L 87.629 71.152 L 87.629 71.152 Q 87.531 71.069 87.375 71.011 L 87.375 71.011 L 87.375 71.011 Q 87.218 70.952 86.984 70.952 L 86.984 70.952 L 86.984 70.952 Q 86.838 70.952 86.672 71.011 L 86.672 71.011 L 86.672 71.011 Q 86.506 71.069 86.374 71.191 L 86.374 71.191 L 86.374 71.191 Q 86.242 71.313 86.154 71.494 L 86.154 71.494 L 86.154 71.494 Q 86.066 71.675 86.066 71.909 L 86.066 71.909 L 86.066 71.909 Q 86.066 72.349 86.291 72.651 L 86.291 72.651 L 86.291 72.651 Q 86.515 72.954 86.882 73.184 L 86.882 73.184 L 86.882 73.184 Q 87.248 73.413 87.712 73.608 L 87.712 73.608 L 87.712 73.608 Q 88.176 73.804 88.664 74.014 L 88.664 74.014 L 88.664 74.014 Q 89.152 74.224 89.616 74.482 L 89.616 74.482 L 89.616 74.482 Q 90.08 74.741 90.446 75.112 L 90.446 75.112 L 90.446 75.112 Q 90.812 75.483 91.037 76.001 L 91.037 76.001 L 91.037 76.001 Q 91.261 76.519 91.261 77.231 L 91.261 77.231 L 91.261 77.231 Q 91.261 78.14 90.89 78.872 L 90.89 78.872 L 90.89 78.872 Q 90.519 79.605 89.899 80.127 L 89.899 80.127 L 89.899 80.127 Q 89.279 80.649 88.459 80.928 L 88.459 80.928 L 88.459 80.928 Q 87.638 81.206 86.73 81.206 L 86.73 81.206 L 86.73 81.206 Q 85.9 81.206 85.158 80.981 L 85.158 80.981 L 85.158 80.981 Q 84.416 80.757 83.859 80.356 L 83.859 80.356 L 83.859 80.356 Q 83.302 79.956 82.975 79.409 L 82.975 79.409 L 82.975 79.409 Q 82.648 78.862 82.648 78.228 L 82.648 78.228 L 82.648 78.228 Q 82.648 77.749 82.804 77.393 L 82.804 77.393 L 82.804 77.393 Q 82.961 77.036 83.239 76.802 L 83.239 76.802 L 83.239 76.802 Q 83.517 76.567 83.893 76.45 L 83.893 76.45 L 83.893 76.45 Q 84.269 76.333 84.709 76.333 L 84.709 76.333 L 84.709 76.333 Q 85.031 76.333 85.353 76.401 L 85.353 76.401 L 85.353 76.401 Q 85.676 76.47 85.959 76.606 L 85.959 76.606 L 85.959 76.606 Q 86.242 76.743 86.467 76.938 L 86.467 76.938 L 86.467 76.938 Q 86.691 77.134 86.828 77.388 L 86.828 77.388 L 86.828 77.388 Q 86.75 77.368 86.676 77.358 L 86.676 77.358 L 86.676 77.358 Q 86.603 77.349 86.525 77.349 L 86.525 77.349 L 86.525 77.349 Q 86.31 77.349 86.188 77.461 L 86.188 77.461 L 86.188 77.461 Q 86.066 77.573 86.066 77.827 L 86.066 77.827 L 86.066 77.827 Q 86.066 78.101 86.291 78.286 L 86.291 78.286 L 86.291 78.286 Q 86.515 78.472 86.789 78.472 L 86.789 78.472 L 86.789 78.472 Q 86.945 78.472 87.082 78.403 L 87.082 78.403 L 87.082 78.403 Q 87.218 78.335 87.316 78.223 L 87.316 78.223 L 87.316 78.223 Q 87.414 78.11 87.468 77.974 L 87.468 77.974 L 87.468 77.974 Q 87.521 77.837 87.521 77.69 L 87.521 77.69 L 87.521 77.69 Q 87.521 77.437 87.35 77.144 L 87.35 77.144 L 87.35 77.144 Q 87.179 76.851 86.867 76.655 L 86.867 76.655 L 86.867 76.655 Q 86.252 76.274 85.705 76.001 L 85.705 76.001 L 85.705 76.001 Q 85.158 75.728 84.699 75.483 L 84.699 75.483 L 84.699 75.483 Q 84.24 75.239 83.874 74.995 L 83.874 74.995 L 83.874 74.995 Q 83.508 74.751 83.254 74.424 L 83.254 74.424 L 83.254 74.424 Q 83 74.097 82.863 73.652 L 82.863 73.652 L 82.863 73.652 Q 82.726 73.208 82.726 72.573 L 82.726 72.573 L 82.726 72.573 Q 82.726 71.821 83.024 71.182 L 83.024 71.182 L 83.024 71.182 Q 83.322 70.542 83.879 70.073 L 83.879 70.073 L 83.879 70.073 Q 84.435 69.605 85.246 69.336 L 85.246 69.336 L 85.246 69.336 Q 86.056 69.067 87.082 69.067 L 87.082 69.067 L 87.082 69.067 Q 88.127 69.067 88.844 69.312 L 88.844 69.312 L 88.844 69.312 Q 89.562 69.556 90.007 69.937 L 90.007 69.937 L 90.007 69.937 Q 90.451 70.317 90.646 70.786 L 90.646 70.786 L 90.646 70.786 Q 90.842 71.255 90.842 71.714 Z " fill-rule="evenodd" fill="rgb(255,255,255)"/><path d=" M 5.096 169.681 C 1.938 166.413 0 161.963 0 157.063 C 0 157.063 0 157.063 0 157.063 L 0 18.22 C 0 8.164 8.164 0 18.22 0 L 103.248 0 C 109.137 0 114.377 2.8 117.707 7.142 C 85.252 68.101 47.74 122.306 5.096 169.681 Z " fill="rgb(255,255,255)" fill-opacity="0.05"/></g></g></svg>