<?xml version="1.0" standalone="no"?><!-- Generator: Gravit.io --><svg xmlns="http://www.w3.org/2000/svg" xmlns:xlink="http://www.w3.org/1999/xlink" style="isolation:isolate" viewBox="0 0 121.468 175.283" width="121.468" height="175.283"><defs><clipPath id="_clipPath_3lB9fSQTPjXciyX2eUsEMVd897iJohvo"><rect width="121.468" height="175.283"/></clipPath></defs><g clip-path="url(#_clipPath_3lB9fSQTPjXciyX2eUsEMVd897iJohvo)"><g id="card-flipped - english"><path d="M 18.22 0 L 103.248 0 C 113.304 0 121.468 8.164 121.468 18.22 L 121.468 157.063 C 121.468 167.119 113.304 175.283 103.248 175.283 L 18.22 175.283 C 8.164 175.283 0 167.119 0 157.063 L 0 18.22 C 0 8.164 8.164 0 18.22 0 Z" style="stroke:none;fill:#8A85B9;stroke-miterlimit:10;"/><path d=" M 29.578 85.791 L 29.578 85.791 L 29.578 85.791 Q 28.778 87.773 28.778 89.639 L 28.778 89.639 L 28.778 89.639 Q 28.778 90.537 28.944 91.45 L 28.944 91.45 L 28.944 91.45 Q 29.11 92.363 29.461 93.311 L 29.461 93.311 L 29.461 93.311 Q 28.905 93.174 28.426 93.105 L 28.426 93.105 L 28.426 93.105 Q 27.948 93.037 27.479 93.037 L 27.479 93.037 L 27.479 93.037 Q 26.981 93.037 26.463 93.125 L 26.463 93.125 L 26.463 93.125 Q 25.946 93.213 25.34 93.398 L 25.34 93.398 L 25.741 91.836 L 25.741 91.836 Q 25.545 92.148 25.272 92.476 L 25.272 92.476 L 25.272 92.476 Q 24.998 92.803 24.622 93.066 L 24.622 93.066 L 24.622 93.066 Q 24.246 93.33 23.763 93.501 L 23.763 93.501 L 23.763 93.501 Q 23.28 93.672 22.655 93.672 L 22.655 93.672 L 22.655 93.672 Q 21.717 93.672 20.931 93.223 L 20.931 93.223 L 20.931 93.223 Q 20.145 92.773 19.578 91.924 L 19.578 91.924 L 19.578 91.924 Q 19.012 91.074 18.695 89.839 L 18.695 89.839 L 18.695 89.839 Q 18.377 88.604 18.377 87.031 L 18.377 87.031 L 18.377 87.031 Q 18.377 85.986 18.573 84.956 L 18.573 84.956 L 18.573 84.956 Q 18.768 83.926 19.139 82.993 L 19.139 82.993 L 19.139 82.993 Q 19.51 82.061 20.057 81.265 L 20.057 81.265 L 20.057 81.265 Q 20.604 80.469 21.297 79.888 L 21.297 79.888 L 21.297 79.888 Q 21.991 79.307 22.835 78.98 L 22.835 78.98 L 22.835 78.98 Q 23.68 78.652 24.657 78.652 L 24.657 78.652 L 24.657 78.652 Q 25.545 78.652 26.209 78.833 L 26.209 78.833 L 26.209 78.833 Q 26.873 79.014 27.362 79.312 L 27.362 79.312 L 27.362 79.312 Q 27.85 79.609 28.167 79.995 L 28.167 79.995 L 28.167 79.995 Q 28.485 80.381 28.67 80.801 L 28.67 80.801 L 28.67 80.801 Q 28.856 81.221 28.934 81.636 L 28.934 81.636 L 28.934 81.636 Q 29.012 82.051 29.012 82.412 L 29.012 82.412 L 29.012 82.412 Q 29.012 82.93 28.831 83.408 L 28.831 83.408 L 28.831 83.408 Q 28.651 83.887 28.328 84.248 L 28.328 84.248 L 28.328 84.248 Q 28.006 84.609 27.567 84.824 L 27.567 84.824 L 27.567 84.824 Q 27.127 85.039 26.6 85.039 L 26.6 85.039 L 26.6 85.039 Q 26.053 85.039 25.653 84.873 L 25.653 84.873 L 25.653 84.873 Q 25.252 84.707 24.989 84.438 L 24.989 84.438 L 24.989 84.438 Q 24.725 84.17 24.593 83.838 L 24.593 83.838 L 24.593 83.838 Q 24.461 83.506 24.461 83.174 L 24.461 83.174 L 24.461 83.174 Q 24.461 82.891 24.559 82.598 L 24.559 82.598 L 24.559 82.598 Q 24.657 82.305 24.832 82.051 L 24.832 82.051 L 24.832 82.051 Q 24.891 82.256 24.998 82.368 L 24.998 82.368 L 24.998 82.368 Q 25.106 82.48 25.213 82.529 L 25.213 82.529 L 25.213 82.529 Q 25.33 82.588 25.477 82.598 L 25.477 82.598 L 25.477 82.598 Q 25.809 82.598 25.951 82.432 L 25.951 82.432 L 25.951 82.432 Q 26.092 82.266 26.092 82.051 L 26.092 82.051 L 26.092 82.051 Q 26.092 81.953 26.048 81.851 L 26.048 81.851 L 26.048 81.851 Q 26.004 81.748 25.916 81.66 L 25.916 81.66 L 25.916 81.66 Q 25.828 81.572 25.687 81.514 L 25.687 81.514 L 25.687 81.514 Q 25.545 81.455 25.34 81.455 L 25.34 81.455 L 25.34 81.455 Q 25.203 81.455 24.964 81.509 L 24.964 81.509 L 24.964 81.509 Q 24.725 81.563 24.447 81.719 L 24.447 81.719 L 24.447 81.719 Q 24.168 81.875 23.885 82.163 L 23.885 82.163 L 23.885 82.163 Q 23.602 82.451 23.368 82.93 L 23.368 82.93 L 23.368 82.93 Q 23.133 83.408 22.987 84.102 L 22.987 84.102 L 22.987 84.102 Q 22.84 84.795 22.84 85.752 L 22.84 85.752 L 22.84 85.752 Q 22.84 86.543 22.972 87.139 L 22.972 87.139 L 22.972 87.139 Q 23.104 87.734 23.338 88.135 L 23.338 88.135 L 23.338 88.135 Q 23.573 88.535 23.895 88.735 L 23.895 88.735 L 23.895 88.735 Q 24.217 88.936 24.598 88.936 L 24.598 88.936 L 24.598 88.936 Q 24.959 88.936 25.194 88.75 L 25.194 88.75 L 25.194 88.75 Q 25.428 88.564 25.565 88.301 L 25.565 88.301 L 25.565 88.301 Q 25.702 88.037 25.75 87.754 L 25.75 87.754 L 25.75 87.754 Q 25.799 87.471 25.799 87.275 L 25.799 87.275 L 25.799 87.275 Q 25.799 87.266 25.785 87.139 L 25.785 87.139 L 25.785 87.139 Q 25.77 87.012 25.692 86.846 L 25.692 86.846 L 25.692 86.846 Q 25.614 86.68 25.438 86.504 L 25.438 86.504 L 25.438 86.504 Q 25.262 86.328 24.94 86.211 L 24.94 86.211 L 24.94 86.211 Q 26.092 86.211 27.254 86.108 L 27.254 86.108 L 27.254 86.108 Q 28.416 86.006 29.578 85.791 Z  M 39.491 87.432 L 39.491 87.432 L 39.491 87.432 Q 39.491 87.998 39.403 88.677 L 39.403 88.677 L 39.403 88.677 Q 39.315 89.355 39.11 90.044 L 39.11 90.044 L 39.11 90.044 Q 38.905 90.732 38.553 91.382 L 38.553 91.382 L 38.553 91.382 Q 38.202 92.031 37.679 92.529 L 37.679 92.529 L 37.679 92.529 Q 37.157 93.027 36.434 93.33 L 36.434 93.33 L 36.434 93.33 Q 35.711 93.633 34.754 93.633 L 34.754 93.633 L 34.754 93.633 Q 33.797 93.633 33.079 93.35 L 33.079 93.35 L 33.079 93.35 Q 32.362 93.066 31.849 92.593 L 31.849 92.593 L 31.849 92.593 Q 31.336 92.119 31.004 91.499 L 31.004 91.499 L 31.004 91.499 Q 30.672 90.879 30.477 90.195 L 30.477 90.195 L 30.477 90.195 Q 30.282 89.512 30.208 88.813 L 30.208 88.813 L 30.208 88.813 Q 30.135 88.115 30.135 87.49 L 30.135 87.49 L 30.135 87.49 Q 30.135 86.387 30.428 85.327 L 30.428 85.327 L 30.428 85.327 Q 30.721 84.268 31.322 83.438 L 31.322 83.438 L 31.322 83.438 Q 31.922 82.607 32.826 82.1 L 32.826 82.1 L 32.826 82.1 Q 33.729 81.592 34.95 81.592 L 34.95 81.592 L 34.95 81.592 Q 35.77 81.592 36.424 81.841 L 36.424 81.841 L 36.424 81.841 Q 37.078 82.09 37.586 82.52 L 37.586 82.52 L 37.586 82.52 Q 38.094 82.949 38.451 83.525 L 38.451 83.525 L 38.451 83.525 Q 38.807 84.102 39.041 84.746 L 39.041 84.746 L 39.041 84.746 Q 39.276 85.391 39.383 86.084 L 39.383 86.084 L 39.383 86.084 Q 39.491 86.777 39.491 87.432 Z  M 36.092 87.754 L 36.092 87.754 L 36.092 87.754 Q 36.092 87.529 36.078 87.192 L 36.078 87.192 L 36.078 87.192 Q 36.063 86.855 36.014 86.484 L 36.014 86.484 L 36.014 86.484 Q 35.965 86.113 35.882 85.742 L 35.882 85.742 L 35.882 85.742 Q 35.799 85.371 35.662 85.078 L 35.662 85.078 L 35.662 85.078 Q 35.526 84.785 35.326 84.6 L 35.326 84.6 L 35.326 84.6 Q 35.125 84.414 34.852 84.414 L 34.852 84.414 L 34.852 84.414 Q 34.588 84.414 34.393 84.59 L 34.393 84.59 L 34.393 84.59 Q 34.198 84.766 34.056 85.049 L 34.056 85.049 L 34.056 85.049 Q 33.914 85.332 33.822 85.688 L 33.822 85.688 L 33.822 85.688 Q 33.729 86.045 33.675 86.401 L 33.675 86.401 L 33.675 86.401 Q 33.621 86.758 33.597 87.085 L 33.597 87.085 L 33.597 87.085 Q 33.573 87.412 33.573 87.637 L 33.573 87.637 L 33.573 87.637 Q 33.573 87.959 33.621 88.418 L 33.621 88.418 L 33.621 88.418 Q 33.67 88.877 33.807 89.297 L 33.807 89.297 L 33.807 89.297 Q 33.944 89.717 34.183 90.015 L 34.183 90.015 L 34.183 90.015 Q 34.422 90.313 34.813 90.313 L 34.813 90.313 L 34.813 90.313 Q 35.184 90.313 35.433 90.039 L 35.433 90.039 L 35.433 90.039 Q 35.682 89.766 35.828 89.37 L 35.828 89.37 L 35.828 89.37 Q 35.975 88.975 36.034 88.535 L 36.034 88.535 L 36.034 88.535 Q 36.092 88.096 36.092 87.754 Z  M 49.569 87.432 L 49.569 87.432 L 49.569 87.432 Q 49.569 87.998 49.481 88.677 L 49.481 88.677 L 49.481 88.677 Q 49.393 89.355 49.188 90.044 L 49.188 90.044 L 49.188 90.044 Q 48.983 90.732 48.631 91.382 L 48.631 91.382 L 48.631 91.382 Q 48.28 92.031 47.757 92.529 L 47.757 92.529 L 47.757 92.529 Q 47.235 93.027 46.512 93.33 L 46.512 93.33 L 46.512 93.33 Q 45.789 93.633 44.832 93.633 L 44.832 93.633 L 44.832 93.633 Q 43.875 93.633 43.158 93.35 L 43.158 93.35 L 43.158 93.35 Q 42.44 93.066 41.927 92.593 L 41.927 92.593 L 41.927 92.593 Q 41.414 92.119 41.082 91.499 L 41.082 91.499 L 41.082 91.499 Q 40.75 90.879 40.555 90.195 L 40.555 90.195 L 40.555 90.195 Q 40.36 89.512 40.286 88.813 L 40.286 88.813 L 40.286 88.813 Q 40.213 88.115 40.213 87.49 L 40.213 87.49 L 40.213 87.49 Q 40.213 86.387 40.506 85.327 L 40.506 85.327 L 40.506 85.327 Q 40.799 84.268 41.4 83.438 L 41.4 83.438 L 41.4 83.438 Q 42 82.607 42.904 82.1 L 42.904 82.1 L 42.904 82.1 Q 43.807 81.592 45.028 81.592 L 45.028 81.592 L 45.028 81.592 Q 45.848 81.592 46.502 81.841 L 46.502 81.841 L 46.502 81.841 Q 47.157 82.09 47.664 82.52 L 47.664 82.52 L 47.664 82.52 Q 48.172 82.949 48.529 83.525 L 48.529 83.525 L 48.529 83.525 Q 48.885 84.102 49.119 84.746 L 49.119 84.746 L 49.119 84.746 Q 49.354 85.391 49.461 86.084 L 49.461 86.084 L 49.461 86.084 Q 49.569 86.777 49.569 87.432 Z  M 46.17 87.754 L 46.17 87.754 L 46.17 87.754 Q 46.17 87.529 46.156 87.192 L 46.156 87.192 L 46.156 87.192 Q 46.141 86.855 46.092 86.484 L 46.092 86.484 L 46.092 86.484 Q 46.043 86.113 45.96 85.742 L 45.96 85.742 L 45.96 85.742 Q 45.877 85.371 45.741 85.078 L 45.741 85.078 L 45.741 85.078 Q 45.604 84.785 45.404 84.6 L 45.404 84.6 L 45.404 84.6 Q 45.203 84.414 44.93 84.414 L 44.93 84.414 L 44.93 84.414 Q 44.666 84.414 44.471 84.59 L 44.471 84.59 L 44.471 84.59 Q 44.276 84.766 44.134 85.049 L 44.134 85.049 L 44.134 85.049 Q 43.993 85.332 43.9 85.688 L 43.9 85.688 L 43.9 85.688 Q 43.807 86.045 43.753 86.401 L 43.753 86.401 L 43.753 86.401 Q 43.7 86.758 43.675 87.085 L 43.675 87.085 L 43.675 87.085 Q 43.651 87.412 43.651 87.637 L 43.651 87.637 L 43.651 87.637 Q 43.651 87.959 43.7 88.418 L 43.7 88.418 L 43.7 88.418 Q 43.748 88.877 43.885 89.297 L 43.885 89.297 L 43.885 89.297 Q 44.022 89.717 44.261 90.015 L 44.261 90.015 L 44.261 90.015 Q 44.5 90.313 44.891 90.313 L 44.891 90.313 L 44.891 90.313 Q 45.262 90.313 45.511 90.039 L 45.511 90.039 L 45.511 90.039 Q 45.76 89.766 45.907 89.37 L 45.907 89.37 L 45.907 89.37 Q 46.053 88.975 46.112 88.535 L 46.112 88.535 L 46.112 88.535 Q 46.17 88.096 46.17 87.754 Z  M 60.428 93.272 L 60.428 93.272 L 60.428 93.272 Q 60.203 93.252 59.92 93.232 L 59.92 93.232 L 59.92 93.232 Q 59.676 93.213 59.349 93.203 L 59.349 93.203 L 59.349 93.203 Q 59.022 93.193 58.631 93.193 L 58.631 93.193 L 58.631 93.193 Q 58.075 93.193 57.45 93.232 L 57.45 93.232 L 57.45 93.232 Q 56.825 93.272 56.209 93.379 L 56.209 93.379 L 56.209 93.379 Q 56.268 93.262 56.336 92.891 L 56.336 92.891 L 56.336 92.891 Q 56.405 92.52 56.468 92.07 L 56.468 92.07 L 56.468 92.07 Q 56.532 91.621 56.585 91.182 L 56.585 91.182 L 56.585 91.182 Q 56.639 90.742 56.668 90.498 L 56.668 90.498 L 56.668 90.498 Q 56.512 91.23 56.234 91.831 L 56.234 91.831 L 56.234 91.831 Q 55.955 92.432 55.584 92.856 L 55.584 92.856 L 55.584 92.856 Q 55.213 93.281 54.754 93.516 L 54.754 93.516 L 54.754 93.516 Q 54.295 93.75 53.787 93.75 L 53.787 93.75 L 53.787 93.75 Q 53.553 93.75 53.211 93.721 L 53.211 93.721 L 53.211 93.721 Q 52.869 93.691 52.484 93.525 L 52.484 93.525 L 52.484 93.525 Q 52.098 93.359 51.712 93.013 L 51.712 93.013 L 51.712 93.013 Q 51.327 92.666 51.019 92.036 L 51.019 92.036 L 51.019 92.036 Q 50.711 91.406 50.521 90.439 L 50.521 90.439 L 50.521 90.439 Q 50.33 89.473 50.33 88.076 L 50.33 88.076 L 50.33 88.076 Q 50.33 86.904 50.501 85.981 L 50.501 85.981 L 50.501 85.981 Q 50.672 85.059 50.96 84.355 L 50.96 84.355 L 50.96 84.355 Q 51.248 83.652 51.634 83.159 L 51.634 83.159 L 51.634 83.159 Q 52.02 82.666 52.445 82.354 L 52.445 82.354 L 52.445 82.354 Q 52.869 82.041 53.314 81.899 L 53.314 81.899 L 53.314 81.899 Q 53.758 81.758 54.168 81.758 L 54.168 81.758 L 54.168 81.758 Q 54.627 81.758 54.998 81.909 L 54.998 81.909 L 54.998 81.909 Q 55.369 82.061 55.672 82.3 L 55.672 82.3 L 55.672 82.3 Q 55.975 82.539 56.2 82.847 L 56.2 82.847 L 56.2 82.847 Q 56.424 83.154 56.59 83.457 L 56.59 83.457 L 56.59 83.457 Q 56.571 83.008 56.551 82.48 L 56.551 82.48 L 56.551 82.48 Q 56.532 81.953 56.502 81.416 L 56.502 81.416 L 56.502 81.416 Q 56.473 80.879 56.429 80.356 L 56.429 80.356 L 56.429 80.356 Q 56.385 79.834 56.331 79.385 L 56.331 79.385 L 56.331 79.385 Q 56.278 78.936 56.209 78.594 L 56.209 78.594 L 56.209 78.594 Q 56.141 78.252 56.053 78.076 L 56.053 78.076 L 56.053 78.076 Q 56.834 78.213 57.508 78.262 L 57.508 78.262 L 57.508 78.262 Q 58.182 78.311 58.729 78.311 L 58.729 78.311 L 58.729 78.311 Q 59.08 78.311 59.364 78.296 L 59.364 78.296 L 59.364 78.296 Q 59.647 78.281 59.842 78.262 L 59.842 78.262 L 59.842 78.262 Q 60.077 78.242 60.252 78.213 L 60.252 78.213 L 60.252 78.213 Q 60.145 78.701 60.057 79.487 L 60.057 79.487 L 60.057 79.487 Q 59.969 80.273 59.906 81.26 L 59.906 81.26 L 59.906 81.26 Q 59.842 82.246 59.808 83.374 L 59.808 83.374 L 59.808 83.374 Q 59.774 84.502 59.774 85.674 L 59.774 85.674 L 59.774 85.674 Q 59.774 86.758 59.808 87.832 L 59.808 87.832 L 59.808 87.832 Q 59.842 88.906 59.92 89.897 L 59.92 89.897 L 59.92 89.897 Q 59.998 90.889 60.125 91.753 L 60.125 91.753 L 60.125 91.753 Q 60.252 92.617 60.428 93.272 Z  M 56.414 87.676 L 56.414 87.676 L 56.414 86.094 L 56.414 86.094 Q 56.414 85.83 56.385 85.557 L 56.385 85.557 L 56.385 85.557 Q 56.356 85.283 56.253 85.059 L 56.253 85.059 L 56.253 85.059 Q 56.151 84.834 55.955 84.692 L 55.955 84.692 L 55.955 84.692 Q 55.76 84.551 55.428 84.551 L 55.428 84.551 L 55.428 84.551 Q 55.194 84.551 55.028 84.736 L 55.028 84.736 L 55.028 84.736 Q 54.862 84.922 54.754 85.215 L 54.754 85.215 L 54.754 85.215 Q 54.647 85.508 54.578 85.869 L 54.578 85.869 L 54.578 85.869 Q 54.51 86.23 54.481 86.587 L 54.481 86.587 L 54.481 86.587 Q 54.452 86.943 54.442 87.251 L 54.442 87.251 L 54.442 87.251 Q 54.432 87.559 54.432 87.734 L 54.432 87.734 L 54.432 87.734 Q 54.432 87.998 54.456 88.384 L 54.456 88.384 L 54.456 88.384 Q 54.481 88.77 54.569 89.126 L 54.569 89.126 L 54.569 89.126 Q 54.657 89.482 54.837 89.736 L 54.837 89.736 L 54.837 89.736 Q 55.018 89.99 55.33 89.99 L 55.33 89.99 L 55.33 89.99 Q 55.682 89.99 55.897 89.746 L 55.897 89.746 L 55.897 89.746 Q 56.112 89.502 56.224 89.141 L 56.224 89.141 L 56.224 89.141 Q 56.336 88.779 56.375 88.384 L 56.375 88.384 L 56.375 88.384 Q 56.414 87.988 56.414 87.676 Z  M 71.307 93.33 L 71.307 93.33 L 71.307 93.33 Q 71.004 93.281 70.643 93.267 L 70.643 93.267 L 70.643 93.267 Q 70.282 93.252 69.891 93.252 L 69.891 93.252 L 69.891 93.252 Q 69.422 93.252 68.939 93.276 L 68.939 93.276 L 68.939 93.276 Q 68.455 93.301 67.996 93.34 L 67.996 93.34 L 67.996 93.34 Q 67.537 93.379 67.127 93.428 L 67.127 93.428 L 67.127 93.428 Q 66.717 93.477 66.414 93.516 L 66.414 93.516 L 66.414 93.516 Q 66.834 92.1 67.064 90.488 L 67.064 90.488 L 67.064 90.488 Q 67.293 88.877 67.293 86.914 L 67.293 86.914 L 67.293 86.914 Q 67.293 86.768 67.288 86.523 L 67.288 86.523 L 67.288 86.523 Q 67.284 86.279 67.264 85.996 L 67.264 85.996 L 67.264 85.996 Q 67.244 85.713 67.201 85.425 L 67.201 85.425 L 67.201 85.425 Q 67.157 85.137 67.074 84.902 L 67.074 84.902 L 67.074 84.902 Q 66.991 84.668 66.864 84.522 L 66.864 84.522 L 66.864 84.522 Q 66.737 84.375 66.551 84.375 L 66.551 84.375 L 66.551 84.375 Q 66.278 84.375 66.019 84.57 L 66.019 84.57 L 66.019 84.57 Q 65.76 84.766 65.56 85.088 L 65.56 85.088 L 65.56 85.088 Q 65.36 85.41 65.238 85.83 L 65.238 85.83 L 65.238 85.83 Q 65.116 86.25 65.116 86.699 L 65.116 86.699 L 65.116 86.699 Q 65.116 87.51 65.155 88.345 L 65.155 88.345 L 65.155 88.345 Q 65.194 89.18 65.282 90 L 65.282 90 L 65.282 90 Q 65.369 90.82 65.506 91.606 L 65.506 91.606 L 65.506 91.606 Q 65.643 92.393 65.848 93.096 L 65.848 93.096 L 65.848 93.096 Q 65.682 93.086 65.457 93.066 L 65.457 93.066 L 65.457 93.066 Q 65.262 93.057 64.998 93.047 L 64.998 93.047 L 64.998 93.047 Q 64.735 93.037 64.393 93.037 L 64.393 93.037 L 64.393 93.037 Q 63.758 93.037 62.928 93.091 L 62.928 93.091 L 62.928 93.091 Q 62.098 93.145 61.131 93.291 L 61.131 93.291 L 61.131 93.291 Q 61.248 92.744 61.336 91.953 L 61.336 91.953 L 61.336 91.953 Q 61.424 91.162 61.483 90.234 L 61.483 90.234 L 61.483 90.234 Q 61.541 89.307 61.576 88.296 L 61.576 88.296 L 61.576 88.296 Q 61.61 87.285 61.61 86.299 L 61.61 86.299 L 61.61 86.299 Q 61.61 85.566 61.59 84.863 L 61.59 84.863 L 61.59 84.863 Q 61.571 84.16 61.536 83.535 L 61.536 83.535 L 61.536 83.535 Q 61.502 82.91 61.444 82.383 L 61.444 82.383 L 61.444 82.383 Q 61.385 81.855 61.307 81.475 L 61.307 81.475 L 61.307 81.475 Q 62.098 81.611 62.772 81.665 L 62.772 81.665 L 62.772 81.665 Q 63.446 81.719 63.993 81.719 L 63.993 81.719 L 63.993 81.719 Q 64.344 81.719 64.622 81.704 L 64.622 81.704 L 64.622 81.704 Q 64.901 81.689 65.096 81.67 L 65.096 81.67 L 65.096 81.67 Q 65.33 81.641 65.506 81.611 L 65.506 81.611 L 65.506 81.611 Q 65.448 81.914 65.394 82.256 L 65.394 82.256 L 65.394 82.256 Q 65.34 82.598 65.291 82.998 L 65.291 82.998 L 65.291 82.998 Q 65.614 82.588 65.975 82.28 L 65.975 82.28 L 65.975 82.28 Q 66.336 81.973 66.703 81.768 L 66.703 81.768 L 66.703 81.768 Q 67.069 81.563 67.43 81.46 L 67.43 81.46 L 67.43 81.46 Q 67.791 81.357 68.114 81.357 L 68.114 81.357 L 68.114 81.357 Q 68.817 81.357 69.329 81.646 L 69.329 81.646 L 69.329 81.646 Q 69.842 81.934 70.179 82.549 L 70.179 82.549 L 70.179 82.549 Q 70.516 83.164 70.682 84.121 L 70.682 84.121 L 70.682 84.121 Q 70.848 85.078 70.848 86.416 L 70.848 86.416 L 70.848 86.416 Q 70.848 87.334 70.853 88.281 L 70.853 88.281 L 70.853 88.281 Q 70.858 89.229 70.897 90.137 L 70.897 90.137 L 70.897 90.137 Q 70.936 91.045 71.034 91.86 L 71.034 91.86 L 71.034 91.86 Q 71.131 92.676 71.307 93.33 Z  M 76.649 93.096 L 76.649 93.096 L 76.649 93.096 Q 76.483 93.086 76.258 93.066 L 76.258 93.066 L 76.258 93.066 Q 76.063 93.057 75.799 93.047 L 75.799 93.047 L 75.799 93.047 Q 75.536 93.037 75.194 93.037 L 75.194 93.037 L 75.194 93.037 Q 74.559 93.037 73.729 93.091 L 73.729 93.091 L 73.729 93.091 Q 72.899 93.145 71.932 93.291 L 71.932 93.291 L 71.932 93.291 Q 72.118 92.92 72.244 92.358 L 72.244 92.358 L 72.244 92.358 Q 72.371 91.797 72.454 91.157 L 72.454 91.157 L 72.454 91.157 Q 72.537 90.518 72.581 89.863 L 72.581 89.863 L 72.581 89.863 Q 72.625 89.209 72.645 88.662 L 72.645 88.662 L 72.645 88.662 Q 72.664 88.115 72.669 87.734 L 72.669 87.734 L 72.669 87.734 Q 72.674 87.354 72.674 87.256 L 72.674 87.256 L 72.674 87.256 Q 72.655 85.986 72.586 84.883 L 72.586 84.883 L 72.586 84.883 Q 72.557 84.414 72.513 83.936 L 72.513 83.936 L 72.513 83.936 Q 72.469 83.457 72.411 83.032 L 72.411 83.032 L 72.411 83.032 Q 72.352 82.607 72.279 82.271 L 72.279 82.271 L 72.279 82.271 Q 72.205 81.934 72.108 81.738 L 72.108 81.738 L 72.108 81.738 Q 72.899 81.875 73.573 81.924 L 73.573 81.924 L 73.573 81.924 Q 74.246 81.973 74.793 81.973 L 74.793 81.973 L 74.793 81.973 Q 75.145 81.973 75.423 81.958 L 75.423 81.958 L 75.423 81.958 Q 75.702 81.943 75.897 81.924 L 75.897 81.924 L 75.897 81.924 Q 76.131 81.904 76.307 81.875 L 76.307 81.875 L 76.307 81.875 Q 76.131 82.754 76.019 83.994 L 76.019 83.994 L 76.019 83.994 Q 75.907 85.234 75.907 86.65 L 75.907 86.65 L 75.907 86.65 Q 75.907 87.461 75.946 88.291 L 75.946 88.291 L 75.946 88.291 Q 75.985 89.121 76.073 89.946 L 76.073 89.946 L 76.073 89.946 Q 76.161 90.772 76.302 91.567 L 76.302 91.567 L 76.302 91.567 Q 76.444 92.363 76.649 93.096 Z  M 72.166 79.131 L 72.166 79.131 L 72.166 79.131 Q 72.166 78.682 72.337 78.286 L 72.337 78.286 L 72.337 78.286 Q 72.508 77.891 72.806 77.593 L 72.806 77.593 L 72.806 77.593 Q 73.104 77.295 73.504 77.124 L 73.504 77.124 L 73.504 77.124 Q 73.905 76.953 74.354 76.953 L 74.354 76.953 L 74.354 76.953 Q 74.803 76.953 75.199 77.124 L 75.199 77.124 L 75.199 77.124 Q 75.594 77.295 75.892 77.593 L 75.892 77.593 L 75.892 77.593 Q 76.19 77.891 76.361 78.286 L 76.361 78.286 L 76.361 78.286 Q 76.532 78.682 76.532 79.131 L 76.532 79.131 L 76.532 79.131 Q 76.532 79.58 76.361 79.98 L 76.361 79.98 L 76.361 79.98 Q 76.19 80.381 75.892 80.679 L 75.892 80.679 L 75.892 80.679 Q 75.594 80.977 75.199 81.147 L 75.199 81.147 L 75.199 81.147 Q 74.803 81.318 74.354 81.318 L 74.354 81.318 L 74.354 81.318 Q 73.905 81.318 73.504 81.147 L 73.504 81.147 L 73.504 81.147 Q 73.104 80.977 72.806 80.679 L 72.806 80.679 L 72.806 80.679 Q 72.508 80.381 72.337 79.98 L 72.337 79.98 L 72.337 79.98 Q 72.166 79.58 72.166 79.131 Z  M 87.411 81.914 L 87.411 81.914 L 87.411 81.914 Q 87.303 82.324 87.23 82.915 L 87.23 82.915 L 87.23 82.915 Q 87.157 83.506 87.098 84.204 L 87.098 84.204 L 87.098 84.204 Q 87.039 84.902 87.005 85.654 L 87.005 85.654 L 87.005 85.654 Q 86.971 86.406 86.942 87.129 L 86.942 87.129 L 86.942 87.129 Q 86.883 88.828 86.873 90.732 L 86.873 90.732 L 86.873 90.732 Q 86.873 91.729 86.751 92.681 L 86.751 92.681 L 86.751 92.681 Q 86.629 93.633 86.361 94.473 L 86.361 94.473 L 86.361 94.473 Q 86.092 95.313 85.662 96.025 L 85.662 96.025 L 85.662 96.025 Q 85.233 96.738 84.622 97.246 L 84.622 97.246 L 84.622 97.246 Q 84.012 97.754 83.211 98.042 L 83.211 98.042 L 83.211 98.042 Q 82.411 98.33 81.395 98.33 L 81.395 98.33 L 81.395 98.33 Q 80.448 98.33 79.754 98.135 L 79.754 98.135 L 79.754 98.135 Q 79.061 97.939 78.607 97.583 L 78.607 97.583 L 78.607 97.583 Q 78.153 97.227 77.933 96.733 L 77.933 96.733 L 77.933 96.733 Q 77.713 96.24 77.713 95.635 L 77.713 95.635 L 77.713 95.635 Q 77.713 95.039 77.918 94.561 L 77.918 94.561 L 77.918 94.561 Q 78.123 94.082 78.455 93.745 L 78.455 93.745 L 78.455 93.745 Q 78.787 93.408 79.203 93.232 L 79.203 93.232 L 79.203 93.232 Q 79.618 93.057 80.047 93.057 L 80.047 93.057 L 80.047 93.057 Q 80.604 93.057 81.092 93.369 L 81.092 93.369 L 81.092 93.369 Q 81.58 93.682 81.834 94.355 L 81.834 94.355 L 81.834 94.355 Q 81.717 94.277 81.551 94.277 L 81.551 94.277 L 81.551 94.277 Q 81.327 94.277 81.131 94.458 L 81.131 94.458 L 81.131 94.458 Q 80.936 94.639 80.936 94.893 L 80.936 94.893 L 80.936 94.893 Q 80.936 95.039 80.99 95.142 L 80.99 95.142 L 80.99 95.142 Q 81.043 95.244 81.131 95.303 L 81.131 95.303 L 81.131 95.303 Q 81.219 95.361 81.322 95.386 L 81.322 95.386 L 81.322 95.386 Q 81.424 95.41 81.512 95.41 L 81.512 95.41 L 81.512 95.41 Q 81.619 95.41 81.81 95.376 L 81.81 95.376 L 81.81 95.376 Q 82 95.342 82.225 95.186 L 82.225 95.186 L 82.225 95.186 Q 82.45 95.029 82.674 94.707 L 82.674 94.707 L 82.674 94.707 Q 82.899 94.385 83.084 93.818 L 83.084 93.818 L 83.084 93.818 Q 83.27 93.252 83.382 92.383 L 83.382 92.383 L 83.382 92.383 Q 83.494 91.514 83.494 90.273 L 83.494 90.273 L 83.494 90.273 Q 83.299 91.143 83.006 91.641 L 83.006 91.641 L 83.006 91.641 Q 82.713 92.139 82.381 92.388 L 82.381 92.388 L 82.381 92.388 Q 82.049 92.637 81.703 92.695 L 81.703 92.695 L 81.703 92.695 Q 81.356 92.754 81.053 92.754 L 81.053 92.754 L 81.053 92.754 Q 80.819 92.754 80.457 92.671 L 80.457 92.671 L 80.457 92.671 Q 80.096 92.588 79.691 92.378 L 79.691 92.378 L 79.691 92.378 Q 79.286 92.168 78.87 91.802 L 78.87 91.802 L 78.87 91.802 Q 78.455 91.436 78.123 90.874 L 78.123 90.874 L 78.123 90.874 Q 77.791 90.313 77.581 89.526 L 77.581 89.526 L 77.581 89.526 Q 77.371 88.74 77.371 87.676 L 77.371 87.676 L 77.371 87.676 Q 77.371 86.035 77.708 84.902 L 77.708 84.902 L 77.708 84.902 Q 78.045 83.77 78.578 83.071 L 78.578 83.071 L 78.578 83.071 Q 79.11 82.373 79.754 82.065 L 79.754 82.065 L 79.754 82.065 Q 80.399 81.758 81.014 81.758 L 81.014 81.758 L 81.014 81.758 Q 81.453 81.758 81.815 81.899 L 81.815 81.899 L 81.815 81.899 Q 82.176 82.041 82.469 82.275 L 82.469 82.275 L 82.469 82.275 Q 82.762 82.51 82.987 82.798 L 82.987 82.798 L 82.987 82.798 Q 83.211 83.086 83.387 83.379 L 83.387 83.379 L 83.387 83.379 Q 83.328 82.949 83.245 82.52 L 83.245 82.52 L 83.245 82.52 Q 83.162 82.09 83.055 81.65 L 83.055 81.65 L 83.055 81.65 Q 83.299 81.758 83.661 81.846 L 83.661 81.846 L 83.661 81.846 Q 83.973 81.924 84.442 81.978 L 84.442 81.978 L 84.442 81.978 Q 84.911 82.031 85.575 82.031 L 85.575 82.031 L 85.575 82.031 Q 86.356 82.031 87.411 81.914 Z  M 83.25 88.076 L 83.25 86.816 L 83.25 86.816 Q 83.25 86.543 83.211 86.157 L 83.211 86.157 L 83.211 86.157 Q 83.172 85.772 83.065 85.415 L 83.065 85.415 L 83.065 85.415 Q 82.957 85.059 82.767 84.805 L 82.767 84.805 L 82.767 84.805 Q 82.577 84.551 82.274 84.551 L 82.274 84.551 L 82.274 84.551 Q 82.049 84.551 81.864 84.81 L 81.864 84.81 L 81.864 84.81 Q 81.678 85.068 81.546 85.435 L 81.546 85.435 L 81.546 85.435 Q 81.414 85.801 81.341 86.191 L 81.341 86.191 L 81.341 86.191 Q 81.268 86.582 81.268 86.855 L 81.268 86.855 L 81.268 86.855 Q 81.268 87.324 81.317 87.813 L 81.317 87.813 L 81.317 87.813 Q 81.366 88.301 81.478 88.696 L 81.478 88.696 L 81.478 88.696 Q 81.59 89.092 81.761 89.346 L 81.761 89.346 L 81.761 89.346 Q 81.932 89.6 82.166 89.6 L 82.166 89.6 L 82.166 89.6 Q 82.42 89.6 82.62 89.478 L 82.62 89.478 L 82.62 89.478 Q 82.821 89.355 82.962 89.146 L 82.962 89.146 L 82.962 89.146 Q 83.104 88.936 83.177 88.662 L 83.177 88.662 L 83.177 88.662 Q 83.25 88.389 83.25 88.076 L 83.25 88.076 Z  M 98.192 93.535 L 98.192 93.535 L 98.192 93.535 Q 97.664 93.457 97.02 93.418 L 97.02 93.418 L 97.02 93.418 Q 96.375 93.379 95.731 93.379 L 95.731 93.379 L 95.731 93.379 Q 95.116 93.379 94.544 93.418 L 94.544 93.418 L 94.544 93.418 Q 93.973 93.457 93.553 93.516 L 93.553 93.516 L 93.553 93.516 Q 93.758 92.813 93.88 92.061 L 93.88 92.061 L 93.88 92.061 Q 94.002 91.309 94.066 90.493 L 94.066 90.493 L 94.066 90.493 Q 94.129 89.678 94.149 88.789 L 94.149 88.789 L 94.149 88.789 Q 94.168 87.9 94.168 86.914 L 94.168 86.914 L 94.168 86.914 Q 94.168 86.768 94.154 86.523 L 94.154 86.523 L 94.154 86.523 Q 94.139 86.279 94.1 85.996 L 94.1 85.996 L 94.1 85.996 Q 94.061 85.713 93.988 85.425 L 93.988 85.425 L 93.988 85.425 Q 93.914 85.137 93.797 84.902 L 93.797 84.902 L 93.797 84.902 Q 93.68 84.668 93.509 84.522 L 93.509 84.522 L 93.509 84.522 Q 93.338 84.375 93.114 84.375 L 93.114 84.375 L 93.114 84.375 Q 92.967 84.375 92.826 84.526 L 92.826 84.526 L 92.826 84.526 Q 92.684 84.678 92.537 84.927 L 92.537 84.927 L 92.537 84.927 Q 92.391 85.176 92.254 85.503 L 92.254 85.503 L 92.254 85.503 Q 92.118 85.83 91.991 86.191 L 91.991 86.191 L 91.991 86.191 Q 92.01 87.188 92.064 88.159 L 92.064 88.159 L 92.064 88.159 Q 92.118 89.131 92.21 90.024 L 92.21 90.024 L 92.21 90.024 Q 92.303 90.918 92.43 91.704 L 92.43 91.704 L 92.43 91.704 Q 92.557 92.49 92.733 93.096 L 92.733 93.096 L 92.733 93.096 Q 92.567 93.086 92.342 93.066 L 92.342 93.066 L 92.342 93.066 Q 92.147 93.057 91.878 93.047 L 91.878 93.047 L 91.878 93.047 Q 91.61 93.037 91.268 93.037 L 91.268 93.037 L 91.268 93.037 Q 90.633 93.037 89.808 93.091 L 89.808 93.091 L 89.808 93.091 Q 88.983 93.145 88.016 93.291 L 88.016 93.291 L 88.016 93.291 Q 88.153 93.018 88.26 92.534 L 88.26 92.534 L 88.26 92.534 Q 88.368 92.051 88.446 91.44 L 88.446 91.44 L 88.446 91.44 Q 88.524 90.83 88.578 90.142 L 88.578 90.142 L 88.578 90.142 Q 88.631 89.453 88.665 88.76 L 88.665 88.76 L 88.665 88.76 Q 88.7 88.066 88.714 87.417 L 88.714 87.417 L 88.714 87.417 Q 88.729 86.768 88.739 86.245 L 88.739 86.245 L 88.739 86.245 Q 88.748 85.723 88.748 85.361 L 88.748 85.361 L 88.748 85.361 Q 88.748 85 88.748 84.893 L 88.748 84.893 L 88.748 84.893 Q 88.729 83.262 88.661 81.865 L 88.661 81.865 L 88.661 81.865 Q 88.631 81.279 88.592 80.684 L 88.592 80.684 L 88.592 80.684 Q 88.553 80.088 88.494 79.57 L 88.494 79.57 L 88.494 79.57 Q 88.436 79.053 88.363 78.662 L 88.363 78.662 L 88.363 78.662 Q 88.289 78.272 88.192 78.076 L 88.192 78.076 L 88.192 78.076 Q 88.983 78.213 89.657 78.262 L 89.657 78.262 L 89.657 78.262 Q 90.33 78.311 90.868 78.311 L 90.868 78.311 L 90.868 78.311 Q 91.219 78.311 91.502 78.296 L 91.502 78.296 L 91.502 78.296 Q 91.786 78.281 91.981 78.262 L 91.981 78.262 L 91.981 78.262 Q 92.215 78.242 92.391 78.213 L 92.391 78.213 L 92.391 78.213 Q 92.313 78.555 92.254 79.033 L 92.254 79.033 L 92.254 79.033 Q 92.196 79.512 92.147 80.107 L 92.147 80.107 L 92.147 80.107 Q 92.098 80.703 92.064 81.387 L 92.064 81.387 L 92.064 81.387 Q 92.03 82.07 92.01 82.813 L 92.01 82.813 L 92.01 82.813 Q 92.567 81.943 93.211 81.587 L 93.211 81.587 L 93.211 81.587 Q 93.856 81.23 94.549 81.23 L 94.549 81.23 L 94.549 81.23 Q 95.243 81.23 95.824 81.538 L 95.824 81.538 L 95.824 81.538 Q 96.405 81.846 96.829 82.485 L 96.829 82.485 L 96.829 82.485 Q 97.254 83.125 97.494 84.102 L 97.494 84.102 L 97.494 84.102 Q 97.733 85.078 97.733 86.416 L 97.733 86.416 L 97.733 86.416 Q 97.733 87.334 97.738 88.315 L 97.738 88.315 L 97.738 88.315 Q 97.743 89.297 97.782 90.239 L 97.782 90.239 L 97.782 90.239 Q 97.821 91.182 97.918 92.031 L 97.918 92.031 L 97.918 92.031 Q 98.016 92.881 98.192 93.535 Z  M 106.659 81.279 L 106.659 81.279 L 106.659 81.279 Q 106.58 81.719 106.546 82.139 L 106.546 82.139 L 106.546 82.139 Q 106.512 82.559 106.512 82.998 L 106.512 82.998 L 106.512 82.998 Q 106.512 83.418 106.546 83.843 L 106.546 83.843 L 106.546 83.843 Q 106.58 84.268 106.659 84.697 L 106.659 84.697 L 106.659 84.697 Q 106.19 84.453 105.599 84.336 L 105.599 84.336 L 105.599 84.336 Q 105.008 84.219 104.393 84.15 L 104.393 84.15 L 104.393 84.99 L 104.393 84.99 Q 104.393 86.094 104.432 87.222 L 104.432 87.222 L 104.432 87.222 Q 104.471 88.35 104.559 89.409 L 104.559 89.409 L 104.559 89.409 Q 104.647 90.469 104.788 91.416 L 104.788 91.416 L 104.788 91.416 Q 104.93 92.363 105.135 93.096 L 105.135 93.096 L 105.135 93.096 Q 104.969 93.086 104.744 93.066 L 104.744 93.066 L 104.744 93.066 Q 104.549 93.057 104.286 93.047 L 104.286 93.047 L 104.286 93.047 Q 104.022 93.037 103.68 93.037 L 103.68 93.037 L 103.68 93.037 Q 103.045 93.037 102.215 93.091 L 102.215 93.091 L 102.215 93.091 Q 101.385 93.145 100.418 93.291 L 100.418 93.291 L 100.418 93.291 Q 100.75 91.387 100.892 89.331 L 100.892 89.331 L 100.892 89.331 Q 101.034 87.275 101.034 85.313 L 101.034 85.313 L 101.034 84.15 L 101.034 84.15 Q 100.369 84.199 99.72 84.302 L 99.72 84.302 L 99.72 84.302 Q 99.071 84.404 98.494 84.551 L 98.494 84.551 L 98.494 84.551 Q 98.534 84.443 98.563 84.268 L 98.563 84.268 L 98.563 84.268 Q 98.592 84.092 98.607 83.906 L 98.607 83.906 L 98.607 83.906 Q 98.621 83.721 98.626 83.545 L 98.626 83.545 L 98.626 83.545 Q 98.631 83.369 98.631 83.252 L 98.631 83.252 L 98.631 83.252 Q 98.631 82.754 98.592 82.266 L 98.592 82.266 L 98.592 82.266 Q 98.553 81.777 98.494 81.279 L 98.494 81.279 L 98.494 81.279 Q 98.963 81.475 99.608 81.597 L 99.608 81.597 L 99.608 81.597 Q 100.252 81.719 100.916 81.777 L 100.916 81.777 L 100.916 81.777 Q 100.858 80.928 100.78 80.205 L 100.78 80.205 L 100.78 80.205 Q 100.702 79.482 100.594 78.897 L 100.594 78.897 L 100.594 78.897 Q 101.385 79.033 102.059 79.082 L 102.059 79.082 L 102.059 79.082 Q 102.733 79.131 103.28 79.131 L 103.28 79.131 L 103.28 79.131 Q 103.631 79.131 103.91 79.116 L 103.91 79.116 L 103.91 79.116 Q 104.188 79.102 104.383 79.082 L 104.383 79.082 L 104.383 79.082 Q 104.618 79.063 104.793 79.033 L 104.793 79.033 L 104.793 79.033 Q 104.686 79.502 104.613 80.2 L 104.613 80.2 L 104.613 80.2 Q 104.539 80.898 104.471 81.758 L 104.471 81.758 L 104.471 81.758 Q 105.116 81.689 105.687 81.572 L 105.687 81.572 L 105.687 81.572 Q 106.258 81.455 106.659 81.279 Z " fill-rule="evenodd" fill="rgb(255,255,255)"/><path d=" M 5.096 169.681 C 1.938 166.413 0 161.963 0 157.063 C 0 157.063 0 157.063 0 157.063 L 0 18.22 C 0 8.164 8.164 0 18.22 0 L 103.248 0 C 109.137 0 114.377 2.8 117.707 7.142 C 85.252 68.101 47.74 122.306 5.096 169.681 Z " fill="rgb(255,255,255)" fill-opacity="0.05"/></g></g></svg>