<?xml version="1.0" standalone="no"?><!-- Generator: Gravit.io --><svg xmlns="http://www.w3.org/2000/svg" xmlns:xlink="http://www.w3.org/1999/xlink" style="isolation:isolate" viewBox="0 0 121.468 175.283" width="121.468" height="175.283"><defs><clipPath id="_clipPath_Q1brGiUjP6V8mlUneYEKA99KepmxBrRT"><rect width="121.468" height="175.283"/></clipPath></defs><g clip-path="url(#_clipPath_Q1brGiUjP6V8mlUneYEKA99KepmxBrRT)"><g id="card-flipped - spanish"><path d="M 18.22 0 L 103.248 0 C 113.304 0 121.468 8.164 121.468 18.22 L 121.468 157.063 C 121.468 167.119 113.304 175.283 103.248 175.283 L 18.22 175.283 C 8.164 175.283 0 167.119 0 157.063 L 0 18.22 C 0 8.164 8.164 0 18.22 0 Z" style="stroke:none;fill:#85A5B9;stroke-miterlimit:10;"/><path d=" M 47.35 94.824 L 47.35 94.824 L 47.35 94.824 Q 47.165 94.805 46.921 94.785 L 46.921 94.785 L 46.921 94.785 Q 46.716 94.766 46.413 94.756 L 46.413 94.756 L 46.413 94.756 Q 46.11 94.746 45.729 94.746 L 45.729 94.746 L 45.729 94.746 Q 44.997 94.746 43.976 94.814 L 43.976 94.814 L 43.976 94.814 Q 42.956 94.883 41.735 95.078 L 41.735 95.078 L 41.735 95.078 Q 41.95 94.639 42.106 93.965 L 42.106 93.965 L 42.106 93.965 Q 42.262 93.291 42.365 92.524 L 42.365 92.524 L 42.365 92.524 Q 42.468 91.758 42.526 90.967 L 42.526 90.967 L 42.526 90.967 Q 42.585 90.176 42.614 89.492 L 42.614 89.492 L 42.614 89.492 Q 42.643 88.809 42.648 88.311 L 42.648 88.311 L 42.648 88.311 Q 42.653 87.813 42.653 87.627 L 42.653 87.627 L 42.653 87.627 Q 42.653 87.588 42.648 87.324 L 42.648 87.324 L 42.648 87.324 Q 42.643 87.061 42.634 86.641 L 42.634 86.641 L 42.634 86.641 Q 42.624 86.221 42.604 85.679 L 42.604 85.679 L 42.604 85.679 Q 42.585 85.137 42.551 84.551 L 42.551 84.551 L 42.551 84.551 Q 42.516 83.965 42.463 83.369 L 42.463 83.369 L 42.463 83.369 Q 42.409 82.773 42.336 82.246 L 42.336 82.246 L 42.336 82.246 Q 42.262 81.719 42.17 81.294 L 42.17 81.294 L 42.17 81.294 Q 42.077 80.869 41.95 80.625 L 41.95 80.625 L 41.95 80.625 Q 42.897 80.791 43.737 80.855 L 43.737 80.855 L 43.737 80.855 Q 44.577 80.918 45.27 80.918 L 45.27 80.918 L 45.27 80.918 Q 45.749 80.918 46.139 80.898 L 46.139 80.898 L 46.139 80.898 Q 46.53 80.879 46.803 80.85 L 46.803 80.85 L 46.803 80.85 Q 47.126 80.82 47.37 80.781 L 47.37 80.781 L 47.37 80.781 Q 46.93 82.002 46.75 83.11 L 46.75 83.11 L 46.75 83.11 Q 46.569 84.219 46.569 85.059 L 46.569 85.059 L 46.569 85.059 Q 46.569 86.133 46.852 86.636 L 46.852 86.636 L 46.852 86.636 Q 47.135 87.139 47.634 87.139 L 47.634 87.139 L 47.634 87.139 Q 48.249 87.139 48.503 86.509 L 48.503 86.509 L 48.503 86.509 Q 48.757 85.879 48.757 84.766 L 48.757 84.766 L 48.757 84.766 Q 48.757 84.16 48.698 83.545 L 48.698 83.545 L 48.698 83.545 Q 48.639 82.93 48.527 82.363 L 48.527 82.363 L 48.527 82.363 Q 48.415 81.797 48.263 81.299 L 48.263 81.299 L 48.263 81.299 Q 48.112 80.801 47.936 80.42 L 47.936 80.42 L 47.936 80.42 Q 48.913 80.605 49.762 80.664 L 49.762 80.664 L 49.762 80.664 Q 50.612 80.723 51.276 80.723 L 51.276 80.723 L 51.276 80.723 Q 51.725 80.723 52.077 80.703 L 52.077 80.703 L 52.077 80.703 Q 52.428 80.684 52.682 80.664 L 52.682 80.664 L 52.682 80.664 Q 52.975 80.635 53.19 80.605 L 53.19 80.605 L 53.19 80.605 Q 53.083 81.152 52.99 81.846 L 52.99 81.846 L 52.99 81.846 Q 52.897 82.539 52.829 83.335 L 52.829 83.335 L 52.829 83.335 Q 52.76 84.131 52.726 85.02 L 52.726 85.02 L 52.726 85.02 Q 52.692 85.908 52.692 86.846 L 52.692 86.846 L 52.692 86.846 Q 52.692 87.91 52.741 89.009 L 52.741 89.009 L 52.741 89.009 Q 52.79 90.107 52.902 91.182 L 52.902 91.182 L 52.902 91.182 Q 53.014 92.256 53.185 93.276 L 53.185 93.276 L 53.185 93.276 Q 53.356 94.297 53.591 95.205 L 53.591 95.205 L 53.591 95.205 Q 53.405 95.186 53.161 95.166 L 53.161 95.166 L 53.161 95.166 Q 52.956 95.147 52.653 95.137 L 52.653 95.137 L 52.653 95.137 Q 52.35 95.127 51.969 95.127 L 51.969 95.127 L 51.969 95.127 Q 51.237 95.127 50.217 95.195 L 50.217 95.195 L 50.217 95.195 Q 49.196 95.264 47.975 95.459 L 47.975 95.459 L 47.975 95.459 Q 48.112 95.186 48.239 94.756 L 48.239 94.756 L 48.239 94.756 Q 48.366 94.326 48.464 93.828 L 48.464 93.828 L 48.464 93.828 Q 48.561 93.33 48.62 92.798 L 48.62 92.798 L 48.62 92.798 Q 48.678 92.266 48.678 91.787 L 48.678 91.787 L 48.678 91.787 Q 48.678 90.869 48.42 90.396 L 48.42 90.396 L 48.42 90.396 Q 48.161 89.922 47.692 89.922 L 47.692 89.922 L 47.692 89.922 Q 47.282 89.922 47.028 90.303 L 47.028 90.303 L 47.028 90.303 Q 46.774 90.684 46.774 91.504 L 46.774 91.504 L 46.774 91.504 Q 46.774 91.885 46.823 92.305 L 46.823 92.305 L 46.823 92.305 Q 46.872 92.725 46.95 93.154 L 46.95 93.154 L 46.95 93.154 Q 47.028 93.584 47.135 94.009 L 47.135 94.009 L 47.135 94.009 Q 47.243 94.434 47.35 94.824 Z  M 63.61 89.18 L 63.61 89.18 L 63.61 89.18 Q 63.61 89.746 63.522 90.425 L 63.522 90.425 L 63.522 90.425 Q 63.434 91.104 63.229 91.792 L 63.229 91.792 L 63.229 91.792 Q 63.024 92.48 62.673 93.13 L 62.673 93.13 L 62.673 93.13 Q 62.321 93.779 61.799 94.277 L 61.799 94.277 L 61.799 94.277 Q 61.276 94.775 60.553 95.078 L 60.553 95.078 L 60.553 95.078 Q 59.831 95.381 58.874 95.381 L 58.874 95.381 L 58.874 95.381 Q 57.917 95.381 57.199 95.098 L 57.199 95.098 L 57.199 95.098 Q 56.481 94.814 55.968 94.341 L 55.968 94.341 L 55.968 94.341 Q 55.456 93.867 55.124 93.247 L 55.124 93.247 L 55.124 93.247 Q 54.792 92.627 54.596 91.943 L 54.596 91.943 L 54.596 91.943 Q 54.401 91.26 54.328 90.562 L 54.328 90.562 L 54.328 90.562 Q 54.255 89.863 54.255 89.238 L 54.255 89.238 L 54.255 89.238 Q 54.255 88.135 54.548 87.075 L 54.548 87.075 L 54.548 87.075 Q 54.841 86.016 55.441 85.186 L 55.441 85.186 L 55.441 85.186 Q 56.042 84.355 56.945 83.848 L 56.945 83.848 L 56.945 83.848 Q 57.848 83.34 59.069 83.34 L 59.069 83.34 L 59.069 83.34 Q 59.889 83.34 60.544 83.589 L 60.544 83.589 L 60.544 83.589 Q 61.198 83.838 61.706 84.268 L 61.706 84.268 L 61.706 84.268 Q 62.214 84.697 62.57 85.273 L 62.57 85.273 L 62.57 85.273 Q 62.926 85.85 63.161 86.494 L 63.161 86.494 L 63.161 86.494 Q 63.395 87.139 63.503 87.832 L 63.503 87.832 L 63.503 87.832 Q 63.61 88.525 63.61 89.18 Z  M 60.212 89.502 L 60.212 89.502 L 60.212 89.502 Q 60.212 89.277 60.197 88.94 L 60.197 88.94 L 60.197 88.94 Q 60.182 88.604 60.134 88.232 L 60.134 88.232 L 60.134 88.232 Q 60.085 87.861 60.002 87.49 L 60.002 87.49 L 60.002 87.49 Q 59.919 87.119 59.782 86.826 L 59.782 86.826 L 59.782 86.826 Q 59.645 86.533 59.445 86.348 L 59.445 86.348 L 59.445 86.348 Q 59.245 86.162 58.971 86.162 L 58.971 86.162 L 58.971 86.162 Q 58.708 86.162 58.512 86.338 L 58.512 86.338 L 58.512 86.338 Q 58.317 86.514 58.176 86.797 L 58.176 86.797 L 58.176 86.797 Q 58.034 87.08 57.941 87.437 L 57.941 87.437 L 57.941 87.437 Q 57.848 87.793 57.795 88.149 L 57.795 88.149 L 57.795 88.149 Q 57.741 88.506 57.717 88.833 L 57.717 88.833 L 57.717 88.833 Q 57.692 89.16 57.692 89.385 L 57.692 89.385 L 57.692 89.385 Q 57.692 89.707 57.741 90.166 L 57.741 90.166 L 57.741 90.166 Q 57.79 90.625 57.926 91.045 L 57.926 91.045 L 57.926 91.045 Q 58.063 91.465 58.302 91.763 L 58.302 91.763 L 58.302 91.763 Q 58.542 92.061 58.932 92.061 L 58.932 92.061 L 58.932 92.061 Q 59.303 92.061 59.552 91.787 L 59.552 91.787 L 59.552 91.787 Q 59.801 91.514 59.948 91.118 L 59.948 91.118 L 59.948 91.118 Q 60.094 90.723 60.153 90.283 L 60.153 90.283 L 60.153 90.283 Q 60.212 89.844 60.212 89.502 Z  M 68.952 94.844 L 68.952 94.844 L 68.952 94.844 Q 68.786 94.834 68.561 94.814 L 68.561 94.814 L 68.561 94.814 Q 68.366 94.805 68.097 94.795 L 68.097 94.795 L 68.097 94.795 Q 67.829 94.785 67.487 94.785 L 67.487 94.785 L 67.487 94.785 Q 66.852 94.785 66.027 94.839 L 66.027 94.839 L 66.027 94.839 Q 65.202 94.893 64.235 95.039 L 64.235 95.039 L 64.235 95.039 Q 64.372 94.766 64.479 94.282 L 64.479 94.282 L 64.479 94.282 Q 64.587 93.799 64.665 93.188 L 64.665 93.188 L 64.665 93.188 Q 64.743 92.578 64.797 91.89 L 64.797 91.89 L 64.797 91.89 Q 64.85 91.201 64.884 90.508 L 64.884 90.508 L 64.884 90.508 Q 64.919 89.814 64.933 89.165 L 64.933 89.165 L 64.933 89.165 Q 64.948 88.516 64.958 87.993 L 64.958 87.993 L 64.958 87.993 Q 64.968 87.471 64.968 87.109 L 64.968 87.109 L 64.968 87.109 Q 64.968 86.748 64.968 86.641 L 64.968 86.641 L 64.968 86.641 Q 64.948 85.01 64.88 83.613 L 64.88 83.613 L 64.88 83.613 Q 64.85 83.027 64.811 82.432 L 64.811 82.432 L 64.811 82.432 Q 64.772 81.836 64.714 81.318 L 64.714 81.318 L 64.714 81.318 Q 64.655 80.801 64.582 80.41 L 64.582 80.41 L 64.582 80.41 Q 64.509 80.02 64.411 79.824 L 64.411 79.824 L 64.411 79.824 Q 65.202 79.961 65.876 80.01 L 65.876 80.01 L 65.876 80.01 Q 66.55 80.059 67.087 80.059 L 67.087 80.059 L 67.087 80.059 Q 67.438 80.059 67.721 80.044 L 67.721 80.044 L 67.721 80.044 Q 68.005 80.029 68.2 80.01 L 68.2 80.01 L 68.2 80.01 Q 68.434 79.99 68.61 79.961 L 68.61 79.961 L 68.61 79.961 Q 68.522 80.4 68.449 81.074 L 68.449 81.074 L 68.449 81.074 Q 68.376 81.748 68.322 82.588 L 68.322 82.588 L 68.322 82.588 Q 68.268 83.428 68.239 84.395 L 68.239 84.395 L 68.239 84.395 Q 68.21 85.361 68.21 86.387 L 68.21 86.387 L 68.21 86.387 Q 68.21 87.559 68.249 88.75 L 68.249 88.75 L 68.249 88.75 Q 68.288 89.941 68.376 91.055 L 68.376 91.055 L 68.376 91.055 Q 68.464 92.168 68.605 93.14 L 68.605 93.14 L 68.605 93.14 Q 68.747 94.111 68.952 94.844 Z  M 79.733 95.02 L 79.733 95.02 L 79.733 95.02 Q 79.548 95 79.303 94.98 L 79.303 94.98 L 79.303 94.98 Q 79.098 94.961 78.81 94.951 L 78.81 94.951 L 78.81 94.951 Q 78.522 94.941 78.18 94.941 L 78.18 94.941 L 78.18 94.941 Q 77.692 94.941 77.111 94.98 L 77.111 94.98 L 77.111 94.98 Q 76.53 95.02 75.915 95.127 L 75.915 95.127 L 75.954 92.383 L 75.954 92.383 Q 75.583 93.838 74.865 94.629 L 74.865 94.629 L 74.865 94.629 Q 74.147 95.42 73.18 95.42 L 73.18 95.42 L 73.18 95.42 Q 72.878 95.42 72.497 95.342 L 72.497 95.342 L 72.497 95.342 Q 72.116 95.264 71.72 95.044 L 71.72 95.044 L 71.72 95.044 Q 71.325 94.824 70.949 94.434 L 70.949 94.434 L 70.949 94.434 Q 70.573 94.043 70.28 93.423 L 70.28 93.423 L 70.28 93.423 Q 69.987 92.803 69.811 91.919 L 69.811 91.919 L 69.811 91.919 Q 69.635 91.035 69.635 89.824 L 69.635 89.824 L 69.635 89.824 Q 69.635 88.184 69.968 87.017 L 69.968 87.017 L 69.968 87.017 Q 70.3 85.85 70.817 85.107 L 70.817 85.107 L 70.817 85.107 Q 71.335 84.365 71.96 84.023 L 71.96 84.023 L 71.96 84.023 Q 72.585 83.682 73.18 83.682 L 73.18 83.682 L 73.18 83.682 Q 73.688 83.682 74.103 83.823 L 74.103 83.823 L 74.103 83.823 Q 74.518 83.965 74.841 84.185 L 74.841 84.185 L 74.841 84.185 Q 75.163 84.404 75.397 84.678 L 75.397 84.678 L 75.397 84.678 Q 75.632 84.951 75.778 85.225 L 75.778 85.225 L 75.778 85.225 Q 75.749 84.893 75.69 84.517 L 75.69 84.517 L 75.69 84.517 Q 75.632 84.141 75.553 83.74 L 75.553 83.74 L 75.553 83.74 Q 76.188 83.867 76.843 83.906 L 76.843 83.906 L 76.843 83.906 Q 77.497 83.945 78.053 83.945 L 78.053 83.945 L 78.053 83.945 Q 78.718 83.945 79.128 83.916 L 79.128 83.916 L 79.128 83.916 Q 79.362 83.906 79.557 83.887 L 79.557 83.887 L 79.557 83.887 Q 79.45 84.375 79.362 84.98 L 79.362 84.98 L 79.362 84.98 Q 79.274 85.586 79.211 86.274 L 79.211 86.274 L 79.211 86.274 Q 79.147 86.963 79.113 87.72 L 79.113 87.72 L 79.113 87.72 Q 79.079 88.477 79.079 89.268 L 79.079 89.268 L 79.079 89.268 Q 79.079 90.742 79.225 92.227 L 79.225 92.227 L 79.225 92.227 Q 79.372 93.711 79.733 95.02 Z  M 75.719 89.424 L 75.719 89.424 L 75.719 87.842 L 75.719 87.842 Q 75.719 87.578 75.69 87.305 L 75.69 87.305 L 75.69 87.305 Q 75.661 87.031 75.558 86.807 L 75.558 86.807 L 75.558 86.807 Q 75.456 86.582 75.26 86.44 L 75.26 86.44 L 75.26 86.44 Q 75.065 86.299 74.733 86.299 L 74.733 86.299 L 74.733 86.299 Q 74.382 86.299 74.152 86.543 L 74.152 86.543 L 74.152 86.543 Q 73.923 86.787 73.781 87.212 L 73.781 87.212 L 73.781 87.212 Q 73.639 87.637 73.586 88.218 L 73.586 88.218 L 73.586 88.218 Q 73.532 88.799 73.532 89.482 L 73.532 89.482 L 73.532 89.482 Q 73.532 89.873 73.586 90.273 L 73.586 90.273 L 73.586 90.273 Q 73.639 90.674 73.766 91.001 L 73.766 91.001 L 73.766 91.001 Q 73.893 91.328 74.108 91.533 L 74.108 91.533 L 74.108 91.533 Q 74.323 91.738 74.635 91.738 L 74.635 91.738 L 74.635 91.738 Q 74.987 91.738 75.202 91.494 L 75.202 91.494 L 75.202 91.494 Q 75.417 91.25 75.529 90.889 L 75.529 90.889 L 75.529 90.889 Q 75.641 90.527 75.68 90.132 L 75.68 90.132 L 75.68 90.132 Q 75.719 89.736 75.719 89.424 Z " fill-rule="evenodd" fill="rgb(255,255,255)"/><path d=" M 5.096 169.681 C 1.938 166.413 0 161.963 0 157.063 C 0 157.063 0 157.063 0 157.063 L 0 18.22 C 0 8.164 8.164 0 18.22 0 L 103.248 0 C 109.137 0 114.377 2.8 117.707 7.142 C 85.252 68.101 47.74 122.306 5.096 169.681 Z " fill="rgb(255,255,255)" fill-opacity="0.05"/></g></g></svg>