<?xml version="1.0" standalone="no"?><!-- Generator: Gravit.io --><svg xmlns="http://www.w3.org/2000/svg" xmlns:xlink="http://www.w3.org/1999/xlink" style="isolation:isolate" viewBox="0 0 121.468 175.283" width="121.468" height="175.283"><defs><clipPath id="_clipPath_QtjDO7IRCogdxiaL0JBRqNhiodrQBXbD"><rect width="121.468" height="175.283"/></clipPath></defs><g clip-path="url(#_clipPath_QtjDO7IRCogdxiaL0JBRqNhiodrQBXbD)"><g id="card-flipped - english"><path d="M 18.22 0 L 103.248 0 C 113.304 0 121.468 8.164 121.468 18.22 L 121.468 157.063 C 121.468 167.119 113.304 175.283 103.248 175.283 L 18.22 175.283 C 8.164 175.283 0 167.119 0 157.063 L 0 18.22 C 0 8.164 8.164 0 18.22 0 Z" style="stroke:none;fill:#8A85B9;stroke-miterlimit:10;"/><path d=" M 43.609 94.731 L 43.609 94.731 L 43.609 94.731 Q 43.424 94.712 43.18 94.692 L 43.18 94.692 L 43.18 94.692 Q 42.975 94.673 42.672 94.663 L 42.672 94.663 L 42.672 94.663 Q 42.369 94.653 41.988 94.653 L 41.988 94.653 L 41.988 94.653 Q 41.256 94.653 40.235 94.722 L 40.235 94.722 L 40.235 94.722 Q 39.215 94.79 37.994 94.985 L 37.994 94.985 L 37.994 94.985 Q 38.209 94.546 38.365 93.872 L 38.365 93.872 L 38.365 93.872 Q 38.521 93.198 38.624 92.432 L 38.624 92.432 L 38.624 92.432 Q 38.727 91.665 38.785 90.874 L 38.785 90.874 L 38.785 90.874 Q 38.844 90.083 38.873 89.399 L 38.873 89.399 L 38.873 89.399 Q 38.902 88.716 38.907 88.218 L 38.907 88.218 L 38.907 88.218 Q 38.912 87.72 38.912 87.534 L 38.912 87.534 L 38.912 87.534 Q 38.912 87.495 38.907 87.231 L 38.907 87.231 L 38.907 87.231 Q 38.902 86.968 38.893 86.548 L 38.893 86.548 L 38.893 86.548 Q 38.883 86.128 38.863 85.586 L 38.863 85.586 L 38.863 85.586 Q 38.844 85.044 38.81 84.458 L 38.81 84.458 L 38.81 84.458 Q 38.775 83.872 38.722 83.276 L 38.722 83.276 L 38.722 83.276 Q 38.668 82.681 38.595 82.153 L 38.595 82.153 L 38.595 82.153 Q 38.521 81.626 38.429 81.201 L 38.429 81.201 L 38.429 81.201 Q 38.336 80.776 38.209 80.532 L 38.209 80.532 L 38.209 80.532 Q 39.156 80.698 39.996 80.762 L 39.996 80.762 L 39.996 80.762 Q 40.836 80.825 41.529 80.825 L 41.529 80.825 L 41.529 80.825 Q 42.008 80.825 42.398 80.806 L 42.398 80.806 L 42.398 80.806 Q 42.789 80.786 43.062 80.757 L 43.062 80.757 L 43.062 80.757 Q 43.385 80.728 43.629 80.688 L 43.629 80.688 L 43.629 80.688 Q 43.189 81.909 43.009 83.018 L 43.009 83.018 L 43.009 83.018 Q 42.828 84.126 42.828 84.966 L 42.828 84.966 L 42.828 84.966 Q 42.828 86.04 43.111 86.543 L 43.111 86.543 L 43.111 86.543 Q 43.394 87.046 43.893 87.046 L 43.893 87.046 L 43.893 87.046 Q 44.508 87.046 44.762 86.416 L 44.762 86.416 L 44.762 86.416 Q 45.016 85.786 45.016 84.673 L 45.016 84.673 L 45.016 84.673 Q 45.016 84.067 44.957 83.452 L 44.957 83.452 L 44.957 83.452 Q 44.898 82.837 44.786 82.271 L 44.786 82.271 L 44.786 82.271 Q 44.674 81.704 44.522 81.206 L 44.522 81.206 L 44.522 81.206 Q 44.371 80.708 44.195 80.327 L 44.195 80.327 L 44.195 80.327 Q 45.172 80.513 46.021 80.571 L 46.021 80.571 L 46.021 80.571 Q 46.871 80.63 47.535 80.63 L 47.535 80.63 L 47.535 80.63 Q 47.984 80.63 48.336 80.61 L 48.336 80.61 L 48.336 80.61 Q 48.687 80.591 48.941 80.571 L 48.941 80.571 L 48.941 80.571 Q 49.234 80.542 49.449 80.513 L 49.449 80.513 L 49.449 80.513 Q 49.342 81.06 49.249 81.753 L 49.249 81.753 L 49.249 81.753 Q 49.156 82.446 49.088 83.242 L 49.088 83.242 L 49.088 83.242 Q 49.019 84.038 48.985 84.927 L 48.985 84.927 L 48.985 84.927 Q 48.951 85.815 48.951 86.753 L 48.951 86.753 L 48.951 86.753 Q 48.951 87.817 49 88.916 L 49 88.916 L 49 88.916 Q 49.049 90.015 49.161 91.089 L 49.161 91.089 L 49.161 91.089 Q 49.273 92.163 49.444 93.184 L 49.444 93.184 L 49.444 93.184 Q 49.615 94.204 49.85 95.112 L 49.85 95.112 L 49.85 95.112 Q 49.664 95.093 49.42 95.073 L 49.42 95.073 L 49.42 95.073 Q 49.215 95.054 48.912 95.044 L 48.912 95.044 L 48.912 95.044 Q 48.609 95.034 48.228 95.034 L 48.228 95.034 L 48.228 95.034 Q 47.496 95.034 46.476 95.103 L 46.476 95.103 L 46.476 95.103 Q 45.455 95.171 44.234 95.366 L 44.234 95.366 L 44.234 95.366 Q 44.371 95.093 44.498 94.663 L 44.498 94.663 L 44.498 94.663 Q 44.625 94.233 44.723 93.735 L 44.723 93.735 L 44.723 93.735 Q 44.82 93.237 44.879 92.705 L 44.879 92.705 L 44.879 92.705 Q 44.937 92.173 44.937 91.694 L 44.937 91.694 L 44.937 91.694 Q 44.937 90.776 44.679 90.303 L 44.679 90.303 L 44.679 90.303 Q 44.42 89.829 43.951 89.829 L 43.951 89.829 L 43.951 89.829 Q 43.541 89.829 43.287 90.21 L 43.287 90.21 L 43.287 90.21 Q 43.033 90.591 43.033 91.411 L 43.033 91.411 L 43.033 91.411 Q 43.033 91.792 43.082 92.212 L 43.082 92.212 L 43.082 92.212 Q 43.131 92.632 43.209 93.062 L 43.209 93.062 L 43.209 93.062 Q 43.287 93.491 43.394 93.916 L 43.394 93.916 L 43.394 93.916 Q 43.502 94.341 43.609 94.731 Z  M 59.088 85.708 L 59.088 85.708 L 59.088 85.708 Q 59.088 86.44 58.878 87.134 L 58.878 87.134 L 58.878 87.134 Q 58.668 87.827 58.141 88.364 L 58.141 88.364 L 58.141 88.364 Q 57.613 88.901 56.72 89.224 L 56.72 89.224 L 56.72 89.224 Q 55.826 89.546 54.449 89.546 L 54.449 89.546 L 54.449 89.546 Q 54.488 90.024 54.649 90.347 L 54.649 90.347 L 54.649 90.347 Q 54.81 90.669 55.035 90.864 L 55.035 90.864 L 55.035 90.864 Q 55.26 91.06 55.514 91.157 L 55.514 91.157 L 55.514 91.157 Q 55.768 91.255 55.982 91.294 L 55.982 91.294 L 55.982 91.294 Q 56.197 91.333 56.344 91.333 L 56.344 91.333 L 56.344 91.333 Q 56.49 91.333 56.49 91.333 L 56.49 91.333 L 56.49 91.333 Q 57.096 91.265 57.574 91.021 L 57.574 91.021 L 57.574 91.021 Q 57.779 90.923 57.975 90.772 L 57.975 90.772 L 57.975 90.772 Q 58.17 90.62 58.331 90.41 L 58.331 90.41 L 58.331 90.41 Q 58.492 90.2 58.595 89.932 L 58.595 89.932 L 58.595 89.932 Q 58.697 89.663 58.717 89.312 L 58.717 89.312 L 58.717 89.312 Q 58.971 89.946 59.073 90.498 L 59.073 90.498 L 59.073 90.498 Q 59.176 91.05 59.176 91.528 L 59.176 91.528 L 59.176 91.528 Q 59.176 92.407 58.858 93.145 L 58.858 93.145 L 58.858 93.145 Q 58.541 93.882 57.984 94.419 L 57.984 94.419 L 57.984 94.419 Q 57.428 94.956 56.661 95.254 L 56.661 95.254 L 56.661 95.254 Q 55.894 95.552 54.996 95.552 L 54.996 95.552 L 54.996 95.552 Q 54.117 95.552 53.302 95.249 L 53.302 95.249 L 53.302 95.249 Q 52.486 94.946 51.856 94.287 L 51.856 94.287 L 51.856 94.287 Q 51.227 93.628 50.851 92.573 L 50.851 92.573 L 50.851 92.573 Q 50.475 91.519 50.475 90.015 L 50.475 90.015 L 50.475 90.015 Q 50.475 88.384 50.943 87.124 L 50.943 87.124 L 50.943 87.124 Q 51.412 85.864 52.203 85.01 L 52.203 85.01 L 52.203 85.01 Q 52.994 84.155 54.034 83.711 L 54.034 83.711 L 54.034 83.711 Q 55.074 83.267 56.217 83.267 L 56.217 83.267 L 56.217 83.267 Q 56.783 83.267 57.306 83.394 L 57.306 83.394 L 57.306 83.394 Q 57.828 83.521 58.224 83.813 L 58.224 83.813 L 58.224 83.813 Q 58.619 84.106 58.853 84.57 L 58.853 84.57 L 58.853 84.57 Q 59.088 85.034 59.088 85.708 Z  M 54.41 87.935 L 54.41 87.935 L 54.41 87.935 Q 54.684 87.925 55.045 87.822 L 55.045 87.822 L 55.045 87.822 Q 55.406 87.72 55.728 87.534 L 55.728 87.534 L 55.728 87.534 Q 56.051 87.349 56.27 87.075 L 56.27 87.075 L 56.27 87.075 Q 56.49 86.802 56.49 86.45 L 56.49 86.45 L 56.49 86.45 Q 56.49 86.226 56.334 86.089 L 56.334 86.089 L 56.334 86.089 Q 56.178 85.952 55.934 85.952 L 55.934 85.952 L 55.934 85.952 Q 55.592 85.952 55.323 86.147 L 55.323 86.147 L 55.323 86.147 Q 55.055 86.343 54.864 86.636 L 54.864 86.636 L 54.864 86.636 Q 54.674 86.929 54.557 87.28 L 54.557 87.28 L 54.557 87.28 Q 54.439 87.632 54.41 87.935 Z  M 64.488 94.751 L 64.488 94.751 L 64.488 94.751 Q 64.322 94.741 64.098 94.722 L 64.098 94.722 L 64.098 94.722 Q 63.902 94.712 63.634 94.702 L 63.634 94.702 L 63.634 94.702 Q 63.365 94.692 63.023 94.692 L 63.023 94.692 L 63.023 94.692 Q 62.389 94.692 61.563 94.746 L 61.563 94.746 L 61.563 94.746 Q 60.738 94.8 59.771 94.946 L 59.771 94.946 L 59.771 94.946 Q 59.908 94.673 60.016 94.189 L 60.016 94.189 L 60.016 94.189 Q 60.123 93.706 60.201 93.096 L 60.201 93.096 L 60.201 93.096 Q 60.279 92.485 60.333 91.797 L 60.333 91.797 L 60.333 91.797 Q 60.387 91.108 60.421 90.415 L 60.421 90.415 L 60.421 90.415 Q 60.455 89.722 60.47 89.072 L 60.47 89.072 L 60.47 89.072 Q 60.484 88.423 60.494 87.9 L 60.494 87.9 L 60.494 87.9 Q 60.504 87.378 60.504 87.017 L 60.504 87.017 L 60.504 87.017 Q 60.504 86.655 60.504 86.548 L 60.504 86.548 L 60.504 86.548 Q 60.484 84.917 60.416 83.521 L 60.416 83.521 L 60.416 83.521 Q 60.387 82.935 60.348 82.339 L 60.348 82.339 L 60.348 82.339 Q 60.309 81.743 60.25 81.226 L 60.25 81.226 L 60.25 81.226 Q 60.191 80.708 60.118 80.317 L 60.118 80.317 L 60.118 80.317 Q 60.045 79.927 59.947 79.731 L 59.947 79.731 L 59.947 79.731 Q 60.738 79.868 61.412 79.917 L 61.412 79.917 L 61.412 79.917 Q 62.086 79.966 62.623 79.966 L 62.623 79.966 L 62.623 79.966 Q 62.975 79.966 63.258 79.951 L 63.258 79.951 L 63.258 79.951 Q 63.541 79.937 63.736 79.917 L 63.736 79.917 L 63.736 79.917 Q 63.971 79.897 64.146 79.868 L 64.146 79.868 L 64.146 79.868 Q 64.059 80.308 63.985 80.981 L 63.985 80.981 L 63.985 80.981 Q 63.912 81.655 63.858 82.495 L 63.858 82.495 L 63.858 82.495 Q 63.805 83.335 63.775 84.302 L 63.775 84.302 L 63.775 84.302 Q 63.746 85.269 63.746 86.294 L 63.746 86.294 L 63.746 86.294 Q 63.746 87.466 63.785 88.657 L 63.785 88.657 L 63.785 88.657 Q 63.824 89.849 63.912 90.962 L 63.912 90.962 L 63.912 90.962 Q 64 92.075 64.142 93.047 L 64.142 93.047 L 64.142 93.047 Q 64.283 94.019 64.488 94.751 Z  M 69.732 94.751 L 69.732 94.751 L 69.732 94.751 Q 69.566 94.741 69.342 94.722 L 69.342 94.722 L 69.342 94.722 Q 69.146 94.712 68.878 94.702 L 68.878 94.702 L 68.878 94.702 Q 68.609 94.692 68.268 94.692 L 68.268 94.692 L 68.268 94.692 Q 67.633 94.692 66.808 94.746 L 66.808 94.746 L 66.808 94.746 Q 65.982 94.8 65.016 94.946 L 65.016 94.946 L 65.016 94.946 Q 65.152 94.673 65.26 94.189 L 65.26 94.189 L 65.26 94.189 Q 65.367 93.706 65.445 93.096 L 65.445 93.096 L 65.445 93.096 Q 65.523 92.485 65.577 91.797 L 65.577 91.797 L 65.577 91.797 Q 65.631 91.108 65.665 90.415 L 65.665 90.415 L 65.665 90.415 Q 65.699 89.722 65.714 89.072 L 65.714 89.072 L 65.714 89.072 Q 65.728 88.423 65.738 87.9 L 65.738 87.9 L 65.738 87.9 Q 65.748 87.378 65.748 87.017 L 65.748 87.017 L 65.748 87.017 Q 65.748 86.655 65.748 86.548 L 65.748 86.548 L 65.748 86.548 Q 65.728 84.917 65.66 83.521 L 65.66 83.521 L 65.66 83.521 Q 65.631 82.935 65.592 82.339 L 65.592 82.339 L 65.592 82.339 Q 65.553 81.743 65.494 81.226 L 65.494 81.226 L 65.494 81.226 Q 65.435 80.708 65.362 80.317 L 65.362 80.317 L 65.362 80.317 Q 65.289 79.927 65.191 79.731 L 65.191 79.731 L 65.191 79.731 Q 65.982 79.868 66.656 79.917 L 66.656 79.917 L 66.656 79.917 Q 67.33 79.966 67.867 79.966 L 67.867 79.966 L 67.867 79.966 Q 68.219 79.966 68.502 79.951 L 68.502 79.951 L 68.502 79.951 Q 68.785 79.937 68.98 79.917 L 68.98 79.917 L 68.98 79.917 Q 69.215 79.897 69.391 79.868 L 69.391 79.868 L 69.391 79.868 Q 69.303 80.308 69.229 80.981 L 69.229 80.981 L 69.229 80.981 Q 69.156 81.655 69.102 82.495 L 69.102 82.495 L 69.102 82.495 Q 69.049 83.335 69.019 84.302 L 69.019 84.302 L 69.019 84.302 Q 68.99 85.269 68.99 86.294 L 68.99 86.294 L 68.99 86.294 Q 68.99 87.466 69.029 88.657 L 69.029 88.657 L 69.029 88.657 Q 69.068 89.849 69.156 90.962 L 69.156 90.962 L 69.156 90.962 Q 69.244 92.075 69.386 93.047 L 69.386 93.047 L 69.386 93.047 Q 69.527 94.019 69.732 94.751 Z  M 79.713 89.087 L 79.713 89.087 L 79.713 89.087 Q 79.713 89.653 79.625 90.332 L 79.625 90.332 L 79.625 90.332 Q 79.537 91.011 79.332 91.699 L 79.332 91.699 L 79.332 91.699 Q 79.127 92.388 78.775 93.037 L 78.775 93.037 L 78.775 93.037 Q 78.424 93.687 77.901 94.185 L 77.901 94.185 L 77.901 94.185 Q 77.379 94.683 76.656 94.985 L 76.656 94.985 L 76.656 94.985 Q 75.934 95.288 74.977 95.288 L 74.977 95.288 L 74.977 95.288 Q 74.019 95.288 73.302 95.005 L 73.302 95.005 L 73.302 95.005 Q 72.584 94.722 72.071 94.248 L 72.071 94.248 L 72.071 94.248 Q 71.559 93.774 71.227 93.154 L 71.227 93.154 L 71.227 93.154 Q 70.894 92.534 70.699 91.851 L 70.699 91.851 L 70.699 91.851 Q 70.504 91.167 70.431 90.469 L 70.431 90.469 L 70.431 90.469 Q 70.357 89.771 70.357 89.146 L 70.357 89.146 L 70.357 89.146 Q 70.357 88.042 70.65 86.982 L 70.65 86.982 L 70.65 86.982 Q 70.943 85.923 71.544 85.093 L 71.544 85.093 L 71.544 85.093 Q 72.144 84.263 73.048 83.755 L 73.048 83.755 L 73.048 83.755 Q 73.951 83.247 75.172 83.247 L 75.172 83.247 L 75.172 83.247 Q 75.992 83.247 76.646 83.496 L 76.646 83.496 L 76.646 83.496 Q 77.301 83.745 77.809 84.175 L 77.809 84.175 L 77.809 84.175 Q 78.316 84.605 78.673 85.181 L 78.673 85.181 L 78.673 85.181 Q 79.029 85.757 79.264 86.401 L 79.264 86.401 L 79.264 86.401 Q 79.498 87.046 79.605 87.739 L 79.605 87.739 L 79.605 87.739 Q 79.713 88.433 79.713 89.087 Z  M 76.314 89.409 L 76.314 89.409 L 76.314 89.409 Q 76.314 89.185 76.3 88.848 L 76.3 88.848 L 76.3 88.848 Q 76.285 88.511 76.236 88.14 L 76.236 88.14 L 76.236 88.14 Q 76.187 87.769 76.104 87.397 L 76.104 87.397 L 76.104 87.397 Q 76.021 87.026 75.885 86.733 L 75.885 86.733 L 75.885 86.733 Q 75.748 86.44 75.548 86.255 L 75.548 86.255 L 75.548 86.255 Q 75.348 86.069 75.074 86.069 L 75.074 86.069 L 75.074 86.069 Q 74.81 86.069 74.615 86.245 L 74.615 86.245 L 74.615 86.245 Q 74.42 86.421 74.278 86.704 L 74.278 86.704 L 74.278 86.704 Q 74.137 86.987 74.044 87.344 L 74.044 87.344 L 74.044 87.344 Q 73.951 87.7 73.897 88.057 L 73.897 88.057 L 73.897 88.057 Q 73.844 88.413 73.819 88.74 L 73.819 88.74 L 73.819 88.74 Q 73.795 89.067 73.795 89.292 L 73.795 89.292 L 73.795 89.292 Q 73.795 89.614 73.844 90.073 L 73.844 90.073 L 73.844 90.073 Q 73.893 90.532 74.029 90.952 L 74.029 90.952 L 74.029 90.952 Q 74.166 91.372 74.405 91.67 L 74.405 91.67 L 74.405 91.67 Q 74.644 91.968 75.035 91.968 L 75.035 91.968 L 75.035 91.968 Q 75.406 91.968 75.655 91.694 L 75.655 91.694 L 75.655 91.694 Q 75.904 91.421 76.051 91.025 L 76.051 91.025 L 76.051 91.025 Q 76.197 90.63 76.256 90.19 L 76.256 90.19 L 76.256 90.19 Q 76.314 89.751 76.314 89.409 Z " fill-rule="evenodd" fill="rgb(255,255,255)"/><path d=" M 5.096 169.681 C 1.938 166.413 0 161.963 0 157.063 C 0 157.063 0 157.063 0 157.063 L 0 18.22 C 0 8.164 8.164 0 18.22 0 L 103.248 0 C 109.137 0 114.377 2.8 117.707 7.142 C 85.252 68.101 47.74 122.306 5.096 169.681 Z " fill="rgb(255,255,255)" fill-opacity="0.05"/></g></g></svg>