<?xml version="1.0" standalone="no"?><!-- Generator: Gravit.io --><svg xmlns="http://www.w3.org/2000/svg" xmlns:xlink="http://www.w3.org/1999/xlink" style="isolation:isolate" viewBox="0 0 121.468 175.283" width="121.468" height="175.283"><defs><clipPath id="_clipPath_arpwUszPTJhrpGJAxizPzayhmusbc4Te"><rect width="121.468" height="175.283"/></clipPath></defs><g clip-path="url(#_clipPath_arpwUszPTJhrpGJAxizPzayhmusbc4Te)"><g id="card-flipped - spanish"><path d="M 18.22 0 L 103.248 0 C 113.304 0 121.468 8.164 121.468 18.22 L 121.468 157.063 C 121.468 167.119 113.304 175.283 103.248 175.283 L 18.22 175.283 C 8.164 175.283 0 167.119 0 157.063 L 0 18.22 C 0 8.164 8.164 0 18.22 0 Z" style="stroke:none;fill:#85A5B9;stroke-miterlimit:10;"/><path d=" M 40.851 100.562 L 40.851 100.562 L 40.851 100.562 Q 40.851 101.294 40.641 101.987 L 40.641 101.987 L 40.641 101.987 Q 40.431 102.681 39.904 103.218 L 39.904 103.218 L 39.904 103.218 Q 39.377 103.755 38.483 104.077 L 38.483 104.077 L 38.483 104.077 Q 37.59 104.399 36.213 104.399 L 36.213 104.399 L 36.213 104.399 Q 36.252 104.878 36.413 105.2 L 36.413 105.2 L 36.413 105.2 Q 36.574 105.522 36.799 105.718 L 36.799 105.718 L 36.799 105.718 Q 37.023 105.913 37.277 106.011 L 37.277 106.011 L 37.277 106.011 Q 37.531 106.108 37.746 106.147 L 37.746 106.147 L 37.746 106.147 Q 37.961 106.187 38.107 106.187 L 38.107 106.187 L 38.107 106.187 Q 38.254 106.187 38.254 106.187 L 38.254 106.187 L 38.254 106.187 Q 38.859 106.118 39.338 105.874 L 39.338 105.874 L 39.338 105.874 Q 39.543 105.776 39.738 105.625 L 39.738 105.625 L 39.738 105.625 Q 39.933 105.474 40.094 105.264 L 40.094 105.264 L 40.094 105.264 Q 40.256 105.054 40.358 104.785 L 40.358 104.785 L 40.358 104.785 Q 40.461 104.517 40.48 104.165 L 40.48 104.165 L 40.48 104.165 Q 40.734 104.8 40.837 105.352 L 40.837 105.352 L 40.837 105.352 Q 40.939 105.903 40.939 106.382 L 40.939 106.382 L 40.939 106.382 Q 40.939 107.261 40.622 107.998 L 40.622 107.998 L 40.622 107.998 Q 40.304 108.735 39.748 109.272 L 39.748 109.272 L 39.748 109.272 Q 39.191 109.81 38.425 110.107 L 38.425 110.107 L 38.425 110.107 Q 37.658 110.405 36.759 110.405 L 36.759 110.405 L 36.759 110.405 Q 35.881 110.405 35.065 110.103 L 35.065 110.103 L 35.065 110.103 Q 34.25 109.8 33.62 109.141 L 33.62 109.141 L 33.62 109.141 Q 32.99 108.481 32.614 107.427 L 32.614 107.427 L 32.614 107.427 Q 32.238 106.372 32.238 104.868 L 32.238 104.868 L 32.238 104.868 Q 32.238 103.237 32.707 101.978 L 32.707 101.978 L 32.707 101.978 Q 33.176 100.718 33.967 99.863 L 33.967 99.863 L 33.967 99.863 Q 34.758 99.009 35.798 98.564 L 35.798 98.564 L 35.798 98.564 Q 36.838 98.12 37.98 98.12 L 37.98 98.12 L 37.98 98.12 Q 38.547 98.12 39.069 98.247 L 39.069 98.247 L 39.069 98.247 Q 39.592 98.374 39.987 98.667 L 39.987 98.667 L 39.987 98.667 Q 40.383 98.96 40.617 99.424 L 40.617 99.424 L 40.617 99.424 Q 40.851 99.888 40.851 100.562 Z  M 36.174 102.788 L 36.174 102.788 L 36.174 102.788 Q 36.447 102.778 36.808 102.676 L 36.808 102.676 L 36.808 102.676 Q 37.17 102.573 37.492 102.388 L 37.492 102.388 L 37.492 102.388 Q 37.814 102.202 38.034 101.929 L 38.034 101.929 L 38.034 101.929 Q 38.254 101.655 38.254 101.304 L 38.254 101.304 L 38.254 101.304 Q 38.254 101.079 38.097 100.942 L 38.097 100.942 L 38.097 100.942 Q 37.941 100.806 37.697 100.806 L 37.697 100.806 L 37.697 100.806 Q 37.355 100.806 37.087 101.001 L 37.087 101.001 L 37.087 101.001 Q 36.818 101.196 36.628 101.489 L 36.628 101.489 L 36.628 101.489 Q 36.437 101.782 36.32 102.134 L 36.32 102.134 L 36.32 102.134 Q 36.203 102.485 36.174 102.788 Z  M 49.767 100.767 L 49.767 100.767 L 49.767 100.767 Q 49.767 101.157 49.611 101.47 L 49.611 101.47 L 49.611 101.47 Q 49.455 101.782 49.191 102.002 L 49.191 102.002 L 49.191 102.002 Q 48.927 102.222 48.576 102.344 L 48.576 102.344 L 48.576 102.344 Q 48.224 102.466 47.834 102.466 L 47.834 102.466 L 47.834 102.466 Q 47.384 102.466 47.067 102.358 L 47.067 102.358 L 47.067 102.358 Q 46.75 102.251 46.53 102.08 L 46.53 102.08 L 46.53 102.08 Q 46.31 101.909 46.183 101.699 L 46.183 101.699 L 46.183 101.699 Q 46.056 101.489 45.983 101.294 L 45.983 101.294 L 45.983 101.294 Q 45.91 101.099 45.89 100.933 L 45.89 100.933 L 45.89 100.933 Q 45.871 100.767 45.871 100.679 L 45.871 100.679 L 45.871 100.679 Q 45.959 100.845 46.095 100.884 L 46.095 100.884 L 46.095 100.884 Q 46.232 100.923 46.31 100.923 L 46.31 100.923 L 46.31 100.923 Q 46.535 100.923 46.633 100.806 L 46.633 100.806 L 46.633 100.806 Q 46.73 100.688 46.73 100.562 L 46.73 100.562 L 46.73 100.562 Q 46.73 100.483 46.691 100.386 L 46.691 100.386 L 46.691 100.386 Q 46.652 100.288 46.554 100.205 L 46.554 100.205 L 46.554 100.205 Q 46.457 100.122 46.301 100.063 L 46.301 100.063 L 46.301 100.063 Q 46.144 100.005 45.91 100.005 L 45.91 100.005 L 45.91 100.005 Q 45.763 100.005 45.597 100.063 L 45.597 100.063 L 45.597 100.063 Q 45.431 100.122 45.3 100.244 L 45.3 100.244 L 45.3 100.244 Q 45.168 100.366 45.08 100.547 L 45.08 100.547 L 45.08 100.547 Q 44.992 100.728 44.992 100.962 L 44.992 100.962 L 44.992 100.962 Q 44.992 101.401 45.217 101.704 L 45.217 101.704 L 45.217 101.704 Q 45.441 102.007 45.807 102.236 L 45.807 102.236 L 45.807 102.236 Q 46.174 102.466 46.637 102.661 L 46.637 102.661 L 46.637 102.661 Q 47.101 102.856 47.59 103.066 L 47.59 103.066 L 47.59 103.066 Q 48.078 103.276 48.542 103.535 L 48.542 103.535 L 48.542 103.535 Q 49.006 103.794 49.372 104.165 L 49.372 104.165 L 49.372 104.165 Q 49.738 104.536 49.963 105.054 L 49.963 105.054 L 49.963 105.054 Q 50.187 105.571 50.187 106.284 L 50.187 106.284 L 50.187 106.284 Q 50.187 107.192 49.816 107.925 L 49.816 107.925 L 49.816 107.925 Q 49.445 108.657 48.825 109.18 L 48.825 109.18 L 48.825 109.18 Q 48.205 109.702 47.384 109.98 L 47.384 109.98 L 47.384 109.98 Q 46.564 110.259 45.656 110.259 L 45.656 110.259 L 45.656 110.259 Q 44.826 110.259 44.084 110.034 L 44.084 110.034 L 44.084 110.034 Q 43.342 109.81 42.785 109.409 L 42.785 109.409 L 42.785 109.409 Q 42.228 109.009 41.901 108.462 L 41.901 108.462 L 41.901 108.462 Q 41.574 107.915 41.574 107.28 L 41.574 107.28 L 41.574 107.28 Q 41.574 106.802 41.73 106.445 L 41.73 106.445 L 41.73 106.445 Q 41.886 106.089 42.165 105.855 L 42.165 105.855 L 42.165 105.855 Q 42.443 105.62 42.819 105.503 L 42.819 105.503 L 42.819 105.503 Q 43.195 105.386 43.634 105.386 L 43.634 105.386 L 43.634 105.386 Q 43.957 105.386 44.279 105.454 L 44.279 105.454 L 44.279 105.454 Q 44.601 105.522 44.884 105.659 L 44.884 105.659 L 44.884 105.659 Q 45.168 105.796 45.392 105.991 L 45.392 105.991 L 45.392 105.991 Q 45.617 106.187 45.754 106.44 L 45.754 106.44 L 45.754 106.44 Q 45.676 106.421 45.602 106.411 L 45.602 106.411 L 45.602 106.411 Q 45.529 106.401 45.451 106.401 L 45.451 106.401 L 45.451 106.401 Q 45.236 106.401 45.114 106.514 L 45.114 106.514 L 45.114 106.514 Q 44.992 106.626 44.992 106.88 L 44.992 106.88 L 44.992 106.88 Q 44.992 107.153 45.217 107.339 L 45.217 107.339 L 45.217 107.339 Q 45.441 107.524 45.715 107.524 L 45.715 107.524 L 45.715 107.524 Q 45.871 107.524 46.008 107.456 L 46.008 107.456 L 46.008 107.456 Q 46.144 107.388 46.242 107.275 L 46.242 107.275 L 46.242 107.275 Q 46.34 107.163 46.393 107.026 L 46.393 107.026 L 46.393 107.026 Q 46.447 106.89 46.447 106.743 L 46.447 106.743 L 46.447 106.743 Q 46.447 106.489 46.276 106.196 L 46.276 106.196 L 46.276 106.196 Q 46.105 105.903 45.793 105.708 L 45.793 105.708 L 45.793 105.708 Q 45.177 105.327 44.631 105.054 L 44.631 105.054 L 44.631 105.054 Q 44.084 104.78 43.625 104.536 L 43.625 104.536 L 43.625 104.536 Q 43.166 104.292 42.8 104.048 L 42.8 104.048 L 42.8 104.048 Q 42.433 103.804 42.179 103.477 L 42.179 103.477 L 42.179 103.477 Q 41.926 103.149 41.789 102.705 L 41.789 102.705 L 41.789 102.705 Q 41.652 102.261 41.652 101.626 L 41.652 101.626 L 41.652 101.626 Q 41.652 100.874 41.95 100.234 L 41.95 100.234 L 41.95 100.234 Q 42.248 99.595 42.804 99.126 L 42.804 99.126 L 42.804 99.126 Q 43.361 98.657 44.172 98.389 L 44.172 98.389 L 44.172 98.389 Q 44.982 98.12 46.008 98.12 L 46.008 98.12 L 46.008 98.12 Q 47.052 98.12 47.77 98.364 L 47.77 98.364 L 47.77 98.364 Q 48.488 98.608 48.932 98.989 L 48.932 98.989 L 48.932 98.989 Q 49.377 99.37 49.572 99.839 L 49.572 99.839 L 49.572 99.839 Q 49.767 100.308 49.767 100.767 Z  M 58.615 97.788 L 58.615 97.788 L 58.615 97.788 Q 58.537 98.228 58.503 98.647 L 58.503 98.647 L 58.503 98.647 Q 58.468 99.067 58.468 99.507 L 58.468 99.507 L 58.468 99.507 Q 58.468 99.927 58.503 100.352 L 58.503 100.352 L 58.503 100.352 Q 58.537 100.776 58.615 101.206 L 58.615 101.206 L 58.615 101.206 Q 58.146 100.962 57.555 100.845 L 57.555 100.845 L 57.555 100.845 Q 56.965 100.728 56.349 100.659 L 56.349 100.659 L 56.349 101.499 L 56.349 101.499 Q 56.349 102.603 56.388 103.73 L 56.388 103.73 L 56.388 103.73 Q 56.427 104.858 56.515 105.918 L 56.515 105.918 L 56.515 105.918 Q 56.603 106.978 56.745 107.925 L 56.745 107.925 L 56.745 107.925 Q 56.886 108.872 57.092 109.605 L 57.092 109.605 L 57.092 109.605 Q 56.926 109.595 56.701 109.575 L 56.701 109.575 L 56.701 109.575 Q 56.506 109.565 56.242 109.556 L 56.242 109.556 L 56.242 109.556 Q 55.978 109.546 55.636 109.546 L 55.636 109.546 L 55.636 109.546 Q 55.002 109.546 54.172 109.6 L 54.172 109.6 L 54.172 109.6 Q 53.342 109.653 52.375 109.8 L 52.375 109.8 L 52.375 109.8 Q 52.707 107.896 52.848 105.84 L 52.848 105.84 L 52.848 105.84 Q 52.99 103.784 52.99 101.821 L 52.99 101.821 L 52.99 100.659 L 52.99 100.659 Q 52.326 100.708 51.676 100.811 L 51.676 100.811 L 51.676 100.811 Q 51.027 100.913 50.451 101.06 L 50.451 101.06 L 50.451 101.06 Q 50.49 100.952 50.519 100.776 L 50.519 100.776 L 50.519 100.776 Q 50.549 100.601 50.563 100.415 L 50.563 100.415 L 50.563 100.415 Q 50.578 100.23 50.583 100.054 L 50.583 100.054 L 50.583 100.054 Q 50.588 99.878 50.588 99.761 L 50.588 99.761 L 50.588 99.761 Q 50.588 99.263 50.549 98.774 L 50.549 98.774 L 50.549 98.774 Q 50.509 98.286 50.451 97.788 L 50.451 97.788 L 50.451 97.788 Q 50.92 97.983 51.564 98.105 L 51.564 98.105 L 51.564 98.105 Q 52.209 98.228 52.873 98.286 L 52.873 98.286 L 52.873 98.286 Q 52.814 97.437 52.736 96.714 L 52.736 96.714 L 52.736 96.714 Q 52.658 95.991 52.551 95.405 L 52.551 95.405 L 52.551 95.405 Q 53.342 95.542 54.015 95.591 L 54.015 95.591 L 54.015 95.591 Q 54.689 95.64 55.236 95.64 L 55.236 95.64 L 55.236 95.64 Q 55.588 95.64 55.866 95.625 L 55.866 95.625 L 55.866 95.625 Q 56.144 95.61 56.34 95.591 L 56.34 95.591 L 56.34 95.591 Q 56.574 95.571 56.75 95.542 L 56.75 95.542 L 56.75 95.542 Q 56.642 96.011 56.569 96.709 L 56.569 96.709 L 56.569 96.709 Q 56.496 97.407 56.427 98.267 L 56.427 98.267 L 56.427 98.267 Q 57.072 98.198 57.643 98.081 L 57.643 98.081 L 57.643 98.081 Q 58.215 97.964 58.615 97.788 Z  M 69.211 109.78 L 69.211 109.78 L 69.211 109.78 Q 69.025 109.761 68.781 109.741 L 68.781 109.741 L 68.781 109.741 Q 68.576 109.722 68.288 109.712 L 68.288 109.712 L 68.288 109.712 Q 68 109.702 67.658 109.702 L 67.658 109.702 L 67.658 109.702 Q 67.17 109.702 66.589 109.741 L 66.589 109.741 L 66.589 109.741 Q 66.008 109.78 65.392 109.888 L 65.392 109.888 L 65.431 107.144 L 65.431 107.144 Q 65.06 108.599 64.343 109.39 L 64.343 109.39 L 64.343 109.39 Q 63.625 110.181 62.658 110.181 L 62.658 110.181 L 62.658 110.181 Q 62.355 110.181 61.974 110.103 L 61.974 110.103 L 61.974 110.103 Q 61.593 110.024 61.198 109.805 L 61.198 109.805 L 61.198 109.805 Q 60.802 109.585 60.426 109.194 L 60.426 109.194 L 60.426 109.194 Q 60.051 108.804 59.758 108.184 L 59.758 108.184 L 59.758 108.184 Q 59.465 107.563 59.289 106.68 L 59.289 106.68 L 59.289 106.68 Q 59.113 105.796 59.113 104.585 L 59.113 104.585 L 59.113 104.585 Q 59.113 102.944 59.445 101.777 L 59.445 101.777 L 59.445 101.777 Q 59.777 100.61 60.295 99.868 L 60.295 99.868 L 60.295 99.868 Q 60.812 99.126 61.437 98.784 L 61.437 98.784 L 61.437 98.784 Q 62.062 98.442 62.658 98.442 L 62.658 98.442 L 62.658 98.442 Q 63.166 98.442 63.581 98.584 L 63.581 98.584 L 63.581 98.584 Q 63.996 98.726 64.318 98.945 L 64.318 98.945 L 64.318 98.945 Q 64.64 99.165 64.875 99.438 L 64.875 99.438 L 64.875 99.438 Q 65.109 99.712 65.256 99.985 L 65.256 99.985 L 65.256 99.985 Q 65.226 99.653 65.168 99.277 L 65.168 99.277 L 65.168 99.277 Q 65.109 98.901 65.031 98.501 L 65.031 98.501 L 65.031 98.501 Q 65.666 98.628 66.32 98.667 L 66.32 98.667 L 66.32 98.667 Q 66.974 98.706 67.531 98.706 L 67.531 98.706 L 67.531 98.706 Q 68.195 98.706 68.605 98.677 L 68.605 98.677 L 68.605 98.677 Q 68.84 98.667 69.035 98.647 L 69.035 98.647 L 69.035 98.647 Q 68.927 99.136 68.84 99.741 L 68.84 99.741 L 68.84 99.741 Q 68.752 100.347 68.688 101.035 L 68.688 101.035 L 68.688 101.035 Q 68.625 101.724 68.591 102.48 L 68.591 102.48 L 68.591 102.48 Q 68.556 103.237 68.556 104.028 L 68.556 104.028 L 68.556 104.028 Q 68.556 105.503 68.703 106.987 L 68.703 106.987 L 68.703 106.987 Q 68.849 108.472 69.211 109.78 Z  M 65.197 104.185 L 65.197 104.185 L 65.197 102.603 L 65.197 102.603 Q 65.197 102.339 65.168 102.065 L 65.168 102.065 L 65.168 102.065 Q 65.138 101.792 65.036 101.567 L 65.036 101.567 L 65.036 101.567 Q 64.933 101.343 64.738 101.201 L 64.738 101.201 L 64.738 101.201 Q 64.543 101.06 64.211 101.06 L 64.211 101.06 L 64.211 101.06 Q 63.859 101.06 63.63 101.304 L 63.63 101.304 L 63.63 101.304 Q 63.4 101.548 63.259 101.973 L 63.259 101.973 L 63.259 101.973 Q 63.117 102.397 63.063 102.979 L 63.063 102.979 L 63.063 102.979 Q 63.009 103.56 63.009 104.243 L 63.009 104.243 L 63.009 104.243 Q 63.009 104.634 63.063 105.034 L 63.063 105.034 L 63.063 105.034 Q 63.117 105.435 63.244 105.762 L 63.244 105.762 L 63.244 105.762 Q 63.371 106.089 63.586 106.294 L 63.586 106.294 L 63.586 106.294 Q 63.801 106.499 64.113 106.499 L 64.113 106.499 L 64.113 106.499 Q 64.465 106.499 64.679 106.255 L 64.679 106.255 L 64.679 106.255 Q 64.894 106.011 65.007 105.649 L 65.007 105.649 L 65.007 105.649 Q 65.119 105.288 65.158 104.893 L 65.158 104.893 L 65.158 104.893 Q 65.197 104.497 65.197 104.185 Z  M 67.834 94.448 L 64.601 97.935 L 62.658 97.065 L 62.658 97.065 Q 63.254 96.206 63.771 95.415 L 63.771 95.415 L 63.771 95.415 Q 63.986 95.083 64.216 94.731 L 64.216 94.731 L 64.216 94.731 Q 64.445 94.38 64.645 94.053 L 64.645 94.053 L 64.645 94.053 Q 64.845 93.726 65.011 93.433 L 65.011 93.433 L 65.011 93.433 Q 65.177 93.14 65.275 92.935 L 65.275 92.935 L 65.275 92.935 Q 65.578 93.159 66.012 93.423 L 66.012 93.423 L 66.012 93.423 Q 66.447 93.687 66.857 93.911 L 66.857 93.911 L 66.857 93.911 Q 67.326 94.175 67.834 94.448 L 67.834 94.448 Z  M 78.107 100.767 L 78.107 100.767 L 78.107 100.767 Q 78.107 101.157 77.951 101.47 L 77.951 101.47 L 77.951 101.47 Q 77.795 101.782 77.531 102.002 L 77.531 102.002 L 77.531 102.002 Q 77.267 102.222 76.916 102.344 L 76.916 102.344 L 76.916 102.344 Q 76.564 102.466 76.174 102.466 L 76.174 102.466 L 76.174 102.466 Q 75.724 102.466 75.407 102.358 L 75.407 102.358 L 75.407 102.358 Q 75.09 102.251 74.87 102.08 L 74.87 102.08 L 74.87 102.08 Q 74.65 101.909 74.523 101.699 L 74.523 101.699 L 74.523 101.699 Q 74.396 101.489 74.323 101.294 L 74.323 101.294 L 74.323 101.294 Q 74.25 101.099 74.23 100.933 L 74.23 100.933 L 74.23 100.933 Q 74.211 100.767 74.211 100.679 L 74.211 100.679 L 74.211 100.679 Q 74.299 100.845 74.435 100.884 L 74.435 100.884 L 74.435 100.884 Q 74.572 100.923 74.65 100.923 L 74.65 100.923 L 74.65 100.923 Q 74.875 100.923 74.972 100.806 L 74.972 100.806 L 74.972 100.806 Q 75.07 100.688 75.07 100.562 L 75.07 100.562 L 75.07 100.562 Q 75.07 100.483 75.031 100.386 L 75.031 100.386 L 75.031 100.386 Q 74.992 100.288 74.894 100.205 L 74.894 100.205 L 74.894 100.205 Q 74.797 100.122 74.64 100.063 L 74.64 100.063 L 74.64 100.063 Q 74.484 100.005 74.25 100.005 L 74.25 100.005 L 74.25 100.005 Q 74.103 100.005 73.937 100.063 L 73.937 100.063 L 73.937 100.063 Q 73.771 100.122 73.639 100.244 L 73.639 100.244 L 73.639 100.244 Q 73.508 100.366 73.42 100.547 L 73.42 100.547 L 73.42 100.547 Q 73.332 100.728 73.332 100.962 L 73.332 100.962 L 73.332 100.962 Q 73.332 101.401 73.556 101.704 L 73.556 101.704 L 73.556 101.704 Q 73.781 102.007 74.147 102.236 L 74.147 102.236 L 74.147 102.236 Q 74.513 102.466 74.977 102.661 L 74.977 102.661 L 74.977 102.661 Q 75.441 102.856 75.929 103.066 L 75.929 103.066 L 75.929 103.066 Q 76.418 103.276 76.882 103.535 L 76.882 103.535 L 76.882 103.535 Q 77.345 103.794 77.712 104.165 L 77.712 104.165 L 77.712 104.165 Q 78.078 104.536 78.302 105.054 L 78.302 105.054 L 78.302 105.054 Q 78.527 105.571 78.527 106.284 L 78.527 106.284 L 78.527 106.284 Q 78.527 107.192 78.156 107.925 L 78.156 107.925 L 78.156 107.925 Q 77.785 108.657 77.165 109.18 L 77.165 109.18 L 77.165 109.18 Q 76.545 109.702 75.724 109.98 L 75.724 109.98 L 75.724 109.98 Q 74.904 110.259 73.996 110.259 L 73.996 110.259 L 73.996 110.259 Q 73.166 110.259 72.424 110.034 L 72.424 110.034 L 72.424 110.034 Q 71.681 109.81 71.125 109.409 L 71.125 109.409 L 71.125 109.409 Q 70.568 109.009 70.241 108.462 L 70.241 108.462 L 70.241 108.462 Q 69.914 107.915 69.914 107.28 L 69.914 107.28 L 69.914 107.28 Q 69.914 106.802 70.07 106.445 L 70.07 106.445 L 70.07 106.445 Q 70.226 106.089 70.505 105.855 L 70.505 105.855 L 70.505 105.855 Q 70.783 105.62 71.159 105.503 L 71.159 105.503 L 71.159 105.503 Q 71.535 105.386 71.974 105.386 L 71.974 105.386 L 71.974 105.386 Q 72.297 105.386 72.619 105.454 L 72.619 105.454 L 72.619 105.454 Q 72.941 105.522 73.224 105.659 L 73.224 105.659 L 73.224 105.659 Q 73.508 105.796 73.732 105.991 L 73.732 105.991 L 73.732 105.991 Q 73.957 106.187 74.093 106.44 L 74.093 106.44 L 74.093 106.44 Q 74.015 106.421 73.942 106.411 L 73.942 106.411 L 73.942 106.411 Q 73.869 106.401 73.791 106.401 L 73.791 106.401 L 73.791 106.401 Q 73.576 106.401 73.454 106.514 L 73.454 106.514 L 73.454 106.514 Q 73.332 106.626 73.332 106.88 L 73.332 106.88 L 73.332 106.88 Q 73.332 107.153 73.556 107.339 L 73.556 107.339 L 73.556 107.339 Q 73.781 107.524 74.054 107.524 L 74.054 107.524 L 74.054 107.524 Q 74.211 107.524 74.347 107.456 L 74.347 107.456 L 74.347 107.456 Q 74.484 107.388 74.582 107.275 L 74.582 107.275 L 74.582 107.275 Q 74.679 107.163 74.733 107.026 L 74.733 107.026 L 74.733 107.026 Q 74.787 106.89 74.787 106.743 L 74.787 106.743 L 74.787 106.743 Q 74.787 106.489 74.616 106.196 L 74.616 106.196 L 74.616 106.196 Q 74.445 105.903 74.133 105.708 L 74.133 105.708 L 74.133 105.708 Q 73.517 105.327 72.97 105.054 L 72.97 105.054 L 72.97 105.054 Q 72.424 104.78 71.965 104.536 L 71.965 104.536 L 71.965 104.536 Q 71.506 104.292 71.139 104.048 L 71.139 104.048 L 71.139 104.048 Q 70.773 103.804 70.519 103.477 L 70.519 103.477 L 70.519 103.477 Q 70.265 103.149 70.129 102.705 L 70.129 102.705 L 70.129 102.705 Q 69.992 102.261 69.992 101.626 L 69.992 101.626 L 69.992 101.626 Q 69.992 100.874 70.29 100.234 L 70.29 100.234 L 70.29 100.234 Q 70.588 99.595 71.144 99.126 L 71.144 99.126 L 71.144 99.126 Q 71.701 98.657 72.511 98.389 L 72.511 98.389 L 72.511 98.389 Q 73.322 98.12 74.347 98.12 L 74.347 98.12 L 74.347 98.12 Q 75.392 98.12 76.11 98.364 L 76.11 98.364 L 76.11 98.364 Q 76.828 98.608 77.272 98.989 L 77.272 98.989 L 77.272 98.989 Q 77.717 99.37 77.912 99.839 L 77.912 99.839 L 77.912 99.839 Q 78.107 100.308 78.107 100.767 Z  M 89.23 99.819 L 89.23 99.819 L 89.23 99.819 Q 89.23 100.63 88.996 101.216 L 88.996 101.216 L 88.996 101.216 Q 88.761 101.802 88.4 102.256 L 88.4 102.256 L 88.4 102.256 Q 88.039 102.71 87.604 103.076 L 87.604 103.076 L 87.604 103.076 Q 87.17 103.442 86.779 103.804 L 86.779 103.804 L 86.779 103.804 Q 86.388 104.165 86.091 104.57 L 86.091 104.57 L 86.091 104.57 Q 85.793 104.976 85.695 105.503 L 85.695 105.503 L 85.695 105.503 Q 85.207 105.396 84.743 105.352 L 84.743 105.352 L 84.743 105.352 Q 84.279 105.308 83.81 105.308 L 83.81 105.308 L 83.81 105.308 Q 83.527 105.308 83.239 105.322 L 83.239 105.322 L 83.239 105.322 Q 82.951 105.337 82.668 105.386 L 82.668 105.386 L 82.668 105.386 Q 82.668 104.712 82.814 104.243 L 82.814 104.243 L 82.814 104.243 Q 82.961 103.774 83.185 103.413 L 83.185 103.413 L 83.185 103.413 Q 83.41 103.052 83.669 102.739 L 83.669 102.739 L 83.669 102.739 Q 83.927 102.427 84.152 102.065 L 84.152 102.065 L 84.152 102.065 Q 84.377 101.704 84.523 101.24 L 84.523 101.24 L 84.523 101.24 Q 84.67 100.776 84.67 100.103 L 84.67 100.103 L 84.67 100.103 Q 84.67 99.644 84.572 99.302 L 84.572 99.302 L 84.572 99.302 Q 84.474 98.96 84.313 98.721 L 84.313 98.721 L 84.313 98.721 Q 84.152 98.481 83.952 98.335 L 83.952 98.335 L 83.952 98.335 Q 83.752 98.188 83.556 98.105 L 83.556 98.105 L 83.556 98.105 Q 83.361 98.022 83.185 97.993 L 83.185 97.993 L 83.185 97.993 Q 83.009 97.964 82.892 97.964 L 82.892 97.964 L 82.892 97.964 Q 82.521 97.964 82.326 98.154 L 82.326 98.154 L 82.326 98.154 Q 82.131 98.345 82.131 98.54 L 82.131 98.54 L 82.131 98.54 Q 82.131 98.647 82.16 98.75 L 82.16 98.75 L 82.16 98.75 Q 82.189 98.853 82.262 98.931 L 82.262 98.931 L 82.262 98.931 Q 82.336 99.009 82.453 99.058 L 82.453 99.058 L 82.453 99.058 Q 82.57 99.106 82.756 99.106 L 82.756 99.106 L 82.756 99.106 Q 82.892 99.097 83.009 99.038 L 83.009 99.038 L 83.009 99.038 Q 83.117 98.989 83.224 98.877 L 83.224 98.877 L 83.224 98.877 Q 83.332 98.765 83.39 98.56 L 83.39 98.56 L 83.39 98.56 Q 83.605 98.862 83.718 99.248 L 83.718 99.248 L 83.718 99.248 Q 83.83 99.634 83.83 100.044 L 83.83 100.044 L 83.83 100.044 Q 83.83 100.454 83.713 100.835 L 83.713 100.835 L 83.713 100.835 Q 83.595 101.216 83.342 101.519 L 83.342 101.519 L 83.342 101.519 Q 83.088 101.821 82.692 102.002 L 82.692 102.002 L 82.692 102.002 Q 82.297 102.183 81.75 102.183 L 81.75 102.183 L 81.75 102.183 Q 81.076 102.183 80.568 101.885 L 80.568 101.885 L 80.568 101.885 Q 80.06 101.587 79.723 101.133 L 79.723 101.133 L 79.723 101.133 Q 79.386 100.679 79.22 100.142 L 79.22 100.142 L 79.22 100.142 Q 79.054 99.605 79.054 99.126 L 79.054 99.126 L 79.054 99.126 Q 79.054 98.687 79.162 98.213 L 79.162 98.213 L 79.162 98.213 Q 79.269 97.739 79.499 97.285 L 79.499 97.285 L 79.499 97.285 Q 79.728 96.831 80.094 96.426 L 80.094 96.426 L 80.094 96.426 Q 80.461 96.021 80.968 95.713 L 80.968 95.713 L 80.968 95.713 Q 81.476 95.405 82.145 95.225 L 82.145 95.225 L 82.145 95.225 Q 82.814 95.044 83.654 95.044 L 83.654 95.044 L 83.654 95.044 Q 84.338 95.044 85.021 95.161 L 85.021 95.161 L 85.021 95.161 Q 85.705 95.278 86.325 95.522 L 86.325 95.522 L 86.325 95.522 Q 86.945 95.767 87.477 96.147 L 87.477 96.147 L 87.477 96.147 Q 88.009 96.528 88.4 97.061 L 88.4 97.061 L 88.4 97.061 Q 88.791 97.593 89.01 98.281 L 89.01 98.281 L 89.01 98.281 Q 89.23 98.97 89.23 99.819 Z  M 82.013 108.081 L 82.013 108.081 L 82.013 108.081 Q 82.013 107.661 82.175 107.285 L 82.175 107.285 L 82.175 107.285 Q 82.336 106.909 82.614 106.626 L 82.614 106.626 L 82.614 106.626 Q 82.892 106.343 83.268 106.182 L 83.268 106.182 L 83.268 106.182 Q 83.644 106.021 84.074 106.021 L 84.074 106.021 L 84.074 106.021 Q 84.504 106.021 84.88 106.182 L 84.88 106.182 L 84.88 106.182 Q 85.256 106.343 85.534 106.626 L 85.534 106.626 L 85.534 106.626 Q 85.812 106.909 85.973 107.285 L 85.973 107.285 L 85.973 107.285 Q 86.134 107.661 86.134 108.081 L 86.134 108.081 L 86.134 108.081 Q 86.134 108.511 85.973 108.887 L 85.973 108.887 L 85.973 108.887 Q 85.812 109.263 85.534 109.541 L 85.534 109.541 L 85.534 109.541 Q 85.256 109.819 84.88 109.98 L 84.88 109.98 L 84.88 109.98 Q 84.504 110.142 84.074 110.142 L 84.074 110.142 L 84.074 110.142 Q 83.644 110.142 83.268 109.98 L 83.268 109.98 L 83.268 109.98 Q 82.892 109.819 82.614 109.541 L 82.614 109.541 L 82.614 109.541 Q 82.336 109.263 82.175 108.887 L 82.175 108.887 L 82.175 108.887 Q 82.013 108.511 82.013 108.081 Z  M 32.287 81.304 L 32.287 81.304 L 32.287 81.304 Q 32.336 80.552 32.609 80.024 L 32.609 80.024 L 32.609 80.024 Q 32.883 79.497 33.259 79.092 L 33.259 79.092 L 33.259 79.092 Q 33.634 78.687 34.059 78.369 L 34.059 78.369 L 34.059 78.369 Q 34.484 78.052 34.86 77.725 L 34.86 77.725 L 34.86 77.725 Q 35.236 77.397 35.495 77.017 L 35.495 77.017 L 35.495 77.017 Q 35.754 76.636 35.802 76.108 L 35.802 76.108 L 35.802 76.108 Q 36.271 76.216 36.745 76.27 L 36.745 76.27 L 36.745 76.27 Q 37.218 76.323 37.687 76.323 L 37.687 76.323 L 37.687 76.323 Q 37.97 76.323 38.259 76.299 L 38.259 76.299 L 38.259 76.299 Q 38.547 76.274 38.83 76.226 L 38.83 76.226 L 38.83 76.226 Q 38.83 76.899 38.683 77.368 L 38.683 77.368 L 38.683 77.368 Q 38.537 77.837 38.312 78.198 L 38.312 78.198 L 38.312 78.198 Q 38.088 78.56 37.829 78.872 L 37.829 78.872 L 37.829 78.872 Q 37.57 79.185 37.345 79.546 L 37.345 79.546 L 37.345 79.546 Q 37.121 79.907 36.974 80.371 L 36.974 80.371 L 36.974 80.371 Q 36.828 80.835 36.828 81.509 L 36.828 81.509 L 36.828 81.509 Q 36.828 82.202 37.043 82.627 L 37.043 82.627 L 37.043 82.627 Q 37.258 83.052 37.546 83.276 L 37.546 83.276 L 37.546 83.276 Q 37.834 83.501 38.132 83.574 L 38.132 83.574 L 38.132 83.574 Q 38.429 83.647 38.605 83.647 L 38.605 83.647 L 38.605 83.647 Q 38.976 83.647 39.172 83.457 L 39.172 83.457 L 39.172 83.457 Q 39.367 83.267 39.367 83.081 L 39.367 83.081 L 39.367 83.081 Q 39.367 82.856 39.225 82.681 L 39.225 82.681 L 39.225 82.681 Q 39.084 82.505 38.742 82.505 L 38.742 82.505 L 38.742 82.505 Q 38.595 82.515 38.478 82.573 L 38.478 82.573 L 38.478 82.573 Q 38.371 82.622 38.268 82.734 L 38.268 82.734 L 38.268 82.734 Q 38.166 82.847 38.107 83.042 L 38.107 83.042 L 38.107 83.042 Q 37.892 82.759 37.78 82.378 L 37.78 82.378 L 37.78 82.378 Q 37.668 81.997 37.668 81.587 L 37.668 81.587 L 37.668 81.587 Q 37.668 81.177 37.785 80.791 L 37.785 80.791 L 37.785 80.791 Q 37.902 80.405 38.156 80.107 L 38.156 80.107 L 38.156 80.107 Q 38.41 79.81 38.805 79.629 L 38.805 79.629 L 38.805 79.629 Q 39.201 79.448 39.748 79.448 L 39.748 79.448 L 39.748 79.448 Q 40.412 79.448 40.92 79.741 L 40.92 79.741 L 40.92 79.741 Q 41.427 80.034 41.764 80.483 L 41.764 80.483 L 41.764 80.483 Q 42.101 80.933 42.272 81.47 L 42.272 81.47 L 42.272 81.47 Q 42.443 82.007 42.443 82.485 L 42.443 82.485 L 42.443 82.485 Q 42.443 83.149 42.194 83.867 L 42.194 83.867 L 42.194 83.867 Q 41.945 84.585 41.393 85.186 L 41.393 85.186 L 41.393 85.186 Q 40.842 85.786 39.968 86.177 L 39.968 86.177 L 39.968 86.177 Q 39.093 86.567 37.843 86.567 L 37.843 86.567 L 37.843 86.567 Q 37.15 86.567 36.471 86.45 L 36.471 86.45 L 36.471 86.45 Q 35.793 86.333 35.173 86.094 L 35.173 86.094 L 35.173 86.094 Q 34.552 85.855 34.02 85.474 L 34.02 85.474 L 34.02 85.474 Q 33.488 85.093 33.097 84.561 L 33.097 84.561 L 33.097 84.561 Q 32.707 84.028 32.487 83.345 L 32.487 83.345 L 32.487 83.345 Q 32.267 82.661 32.267 81.802 L 32.267 81.802 L 32.267 81.802 Q 32.267 81.685 32.267 81.558 L 32.267 81.558 L 32.267 81.558 Q 32.267 81.431 32.287 81.304 Z  M 39.484 73.53 L 39.484 73.53 L 39.484 73.53 Q 39.484 73.96 39.323 74.331 L 39.323 74.331 L 39.323 74.331 Q 39.162 74.702 38.884 74.98 L 38.884 74.98 L 38.884 74.98 Q 38.605 75.259 38.229 75.42 L 38.229 75.42 L 38.229 75.42 Q 37.853 75.581 37.424 75.581 L 37.424 75.581 L 37.424 75.581 Q 36.994 75.581 36.618 75.42 L 36.618 75.42 L 36.618 75.42 Q 36.242 75.259 35.964 74.98 L 35.964 74.98 L 35.964 74.98 Q 35.685 74.702 35.524 74.331 L 35.524 74.331 L 35.524 74.331 Q 35.363 73.96 35.363 73.53 L 35.363 73.53 L 35.363 73.53 Q 35.363 73.101 35.524 72.725 L 35.524 72.725 L 35.524 72.725 Q 35.685 72.349 35.964 72.07 L 35.964 72.07 L 35.964 72.07 Q 36.242 71.792 36.618 71.631 L 36.618 71.631 L 36.618 71.631 Q 36.994 71.47 37.424 71.47 L 37.424 71.47 L 37.424 71.47 Q 37.853 71.47 38.229 71.631 L 38.229 71.631 L 38.229 71.631 Q 38.605 71.792 38.884 72.07 L 38.884 72.07 L 38.884 72.07 Q 39.162 72.349 39.323 72.725 L 39.323 72.725 L 39.323 72.725 Q 39.484 73.101 39.484 73.53 Z  M 53.742 71.724 L 53.742 71.724 L 53.742 71.724 Q 53.742 72.222 53.566 72.734 L 53.566 72.734 L 53.566 72.734 Q 53.39 73.247 53.063 73.662 L 53.063 73.662 L 53.063 73.662 Q 52.736 74.077 52.267 74.341 L 52.267 74.341 L 52.267 74.341 Q 51.799 74.605 51.203 74.605 L 51.203 74.605 L 51.203 74.605 Q 50.676 74.605 50.3 74.424 L 50.3 74.424 L 50.3 74.424 Q 49.924 74.243 49.684 73.94 L 49.684 73.94 L 49.684 73.94 Q 49.445 73.638 49.328 73.257 L 49.328 73.257 L 49.328 73.257 Q 49.211 72.876 49.211 72.466 L 49.211 72.466 L 49.211 72.466 Q 49.211 72.056 49.313 71.67 L 49.313 71.67 L 49.313 71.67 Q 49.416 71.284 49.631 70.981 L 49.631 70.981 L 49.631 70.981 Q 49.689 71.187 49.787 71.299 L 49.787 71.299 L 49.787 71.299 Q 49.884 71.411 49.992 71.46 L 49.992 71.46 L 49.992 71.46 Q 50.109 71.519 50.246 71.528 L 50.246 71.528 L 50.246 71.528 Q 50.558 71.528 50.69 71.362 L 50.69 71.362 L 50.69 71.362 Q 50.822 71.196 50.822 70.981 L 50.822 70.981 L 50.822 70.981 Q 50.822 70.884 50.783 70.781 L 50.783 70.781 L 50.783 70.781 Q 50.744 70.679 50.661 70.591 L 50.661 70.591 L 50.661 70.591 Q 50.578 70.503 50.441 70.444 L 50.441 70.444 L 50.441 70.444 Q 50.304 70.386 50.109 70.386 L 50.109 70.386 L 50.109 70.386 Q 50.002 70.386 49.801 70.415 L 49.801 70.415 L 49.801 70.415 Q 49.601 70.444 49.357 70.566 L 49.357 70.566 L 49.357 70.566 Q 49.113 70.688 48.859 70.933 L 48.859 70.933 L 48.859 70.933 Q 48.605 71.177 48.395 71.597 L 48.395 71.597 L 48.395 71.597 Q 48.185 72.017 48.053 72.642 L 48.053 72.642 L 48.053 72.642 Q 47.922 73.267 47.922 74.165 L 47.922 74.165 L 47.922 74.165 Q 47.922 74.78 48.044 75.234 L 48.044 75.234 L 48.044 75.234 Q 48.166 75.688 48.361 76.011 L 48.361 76.011 L 48.361 76.011 Q 48.556 76.333 48.81 76.538 L 48.81 76.538 L 48.81 76.538 Q 49.064 76.743 49.328 76.86 L 49.328 76.86 L 49.328 76.86 Q 49.592 76.978 49.841 77.022 L 49.841 77.022 L 49.841 77.022 Q 50.09 77.065 50.285 77.065 L 50.285 77.065 L 50.285 77.065 Q 50.539 77.065 50.925 76.973 L 50.925 76.973 L 50.925 76.973 Q 51.31 76.88 51.691 76.636 L 51.691 76.636 L 51.691 76.636 Q 52.072 76.392 52.38 75.962 L 52.38 75.962 L 52.38 75.962 Q 52.687 75.532 52.804 74.849 L 52.804 74.849 L 52.804 74.849 Q 53.146 75.327 53.327 75.991 L 53.327 75.991 L 53.327 75.991 Q 53.508 76.655 53.508 77.388 L 53.508 77.388 L 53.508 77.388 Q 53.508 78.384 53.151 79.316 L 53.151 79.316 L 53.151 79.316 Q 52.795 80.249 52.135 80.972 L 52.135 80.972 L 52.135 80.972 Q 51.476 81.694 50.539 82.129 L 50.539 82.129 L 50.539 82.129 Q 49.601 82.563 48.449 82.563 L 48.449 82.563 L 48.449 82.563 Q 47.599 82.563 46.877 82.295 L 46.877 82.295 L 46.877 82.295 Q 46.154 82.026 45.558 81.548 L 45.558 81.548 L 45.558 81.548 Q 44.963 81.069 44.513 80.42 L 44.513 80.42 L 44.513 80.42 Q 44.064 79.771 43.752 79.009 L 43.752 79.009 L 43.752 79.009 Q 43.439 78.247 43.283 77.402 L 43.283 77.402 L 43.283 77.402 Q 43.127 76.558 43.127 75.688 L 43.127 75.688 L 43.127 75.688 Q 43.127 74.731 43.332 73.76 L 43.332 73.76 L 43.332 73.76 Q 43.537 72.788 43.923 71.89 L 43.923 71.89 L 43.923 71.89 Q 44.308 70.991 44.86 70.205 L 44.86 70.205 L 44.86 70.205 Q 45.412 69.419 46.115 68.838 L 46.115 68.838 L 46.115 68.838 Q 46.818 68.257 47.658 67.92 L 47.658 67.92 L 47.658 67.92 Q 48.498 67.583 49.445 67.583 L 49.445 67.583 L 49.445 67.583 Q 50.304 67.583 50.959 67.783 L 50.959 67.783 L 50.959 67.783 Q 51.613 67.983 52.087 68.32 L 52.087 68.32 L 52.087 68.32 Q 52.56 68.657 52.883 69.087 L 52.883 69.087 L 52.883 69.087 Q 53.205 69.517 53.395 69.976 L 53.395 69.976 L 53.395 69.976 Q 53.586 70.435 53.664 70.889 L 53.664 70.889 L 53.664 70.889 Q 53.742 71.343 53.742 71.724 Z  M 63.761 76.362 L 63.761 76.362 L 63.761 76.362 Q 63.761 76.929 63.674 77.607 L 63.674 77.607 L 63.674 77.607 Q 63.586 78.286 63.381 78.975 L 63.381 78.975 L 63.381 78.975 Q 63.176 79.663 62.824 80.313 L 62.824 80.313 L 62.824 80.313 Q 62.472 80.962 61.95 81.46 L 61.95 81.46 L 61.95 81.46 Q 61.427 81.958 60.705 82.261 L 60.705 82.261 L 60.705 82.261 Q 59.982 82.563 59.025 82.563 L 59.025 82.563 L 59.025 82.563 Q 58.068 82.563 57.35 82.28 L 57.35 82.28 L 57.35 82.28 Q 56.633 81.997 56.12 81.523 L 56.12 81.523 L 56.12 81.523 Q 55.607 81.05 55.275 80.43 L 55.275 80.43 L 55.275 80.43 Q 54.943 79.81 54.748 79.126 L 54.748 79.126 L 54.748 79.126 Q 54.552 78.442 54.479 77.744 L 54.479 77.744 L 54.479 77.744 Q 54.406 77.046 54.406 76.421 L 54.406 76.421 L 54.406 76.421 Q 54.406 75.317 54.699 74.258 L 54.699 74.258 L 54.699 74.258 Q 54.992 73.198 55.593 72.368 L 55.593 72.368 L 55.593 72.368 Q 56.193 71.538 57.096 71.03 L 57.096 71.03 L 57.096 71.03 Q 58 70.522 59.22 70.522 L 59.22 70.522 L 59.22 70.522 Q 60.041 70.522 60.695 70.772 L 60.695 70.772 L 60.695 70.772 Q 61.349 71.021 61.857 71.45 L 61.857 71.45 L 61.857 71.45 Q 62.365 71.88 62.721 72.456 L 62.721 72.456 L 62.721 72.456 Q 63.078 73.032 63.312 73.677 L 63.312 73.677 L 63.312 73.677 Q 63.547 74.321 63.654 75.015 L 63.654 75.015 L 63.654 75.015 Q 63.761 75.708 63.761 76.362 Z  M 60.363 76.685 L 60.363 76.685 L 60.363 76.685 Q 60.363 76.46 60.348 76.123 L 60.348 76.123 L 60.348 76.123 Q 60.334 75.786 60.285 75.415 L 60.285 75.415 L 60.285 75.415 Q 60.236 75.044 60.153 74.673 L 60.153 74.673 L 60.153 74.673 Q 60.07 74.302 59.933 74.009 L 59.933 74.009 L 59.933 74.009 Q 59.797 73.716 59.596 73.53 L 59.596 73.53 L 59.596 73.53 Q 59.396 73.345 59.123 73.345 L 59.123 73.345 L 59.123 73.345 Q 58.859 73.345 58.664 73.521 L 58.664 73.521 L 58.664 73.521 Q 58.468 73.696 58.327 73.98 L 58.327 73.98 L 58.327 73.98 Q 58.185 74.263 58.093 74.619 L 58.093 74.619 L 58.093 74.619 Q 58 74.976 57.946 75.332 L 57.946 75.332 L 57.946 75.332 Q 57.892 75.688 57.868 76.016 L 57.868 76.016 L 57.868 76.016 Q 57.843 76.343 57.843 76.567 L 57.843 76.567 L 57.843 76.567 Q 57.843 76.89 57.892 77.349 L 57.892 77.349 L 57.892 77.349 Q 57.941 77.808 58.078 78.228 L 58.078 78.228 L 58.078 78.228 Q 58.215 78.647 58.454 78.945 L 58.454 78.945 L 58.454 78.945 Q 58.693 79.243 59.084 79.243 L 59.084 79.243 L 59.084 79.243 Q 59.455 79.243 59.704 78.97 L 59.704 78.97 L 59.704 78.97 Q 59.953 78.696 60.099 78.301 L 60.099 78.301 L 60.099 78.301 Q 60.246 77.905 60.304 77.466 L 60.304 77.466 L 60.304 77.466 Q 60.363 77.026 60.363 76.685 Z  M 63.4 66.392 L 60.168 69.878 L 58.224 69.009 L 58.224 69.009 Q 58.82 68.149 59.338 67.358 L 59.338 67.358 L 59.338 67.358 Q 59.552 67.026 59.782 66.675 L 59.782 66.675 L 59.782 66.675 Q 60.011 66.323 60.212 65.996 L 60.212 65.996 L 60.212 65.996 Q 60.412 65.669 60.578 65.376 L 60.578 65.376 L 60.578 65.376 Q 60.744 65.083 60.842 64.878 L 60.842 64.878 L 60.842 64.878 Q 61.144 65.103 61.579 65.366 L 61.579 65.366 L 61.579 65.366 Q 62.013 65.63 62.424 65.855 L 62.424 65.855 L 62.424 65.855 Q 62.892 66.118 63.4 66.392 L 63.4 66.392 Z  M 79.103 82.261 L 79.103 82.261 L 79.103 82.261 Q 78.801 82.212 78.464 82.197 L 78.464 82.197 L 78.464 82.197 Q 78.127 82.183 77.765 82.183 L 77.765 82.183 L 77.765 82.183 Q 77.326 82.183 76.886 82.207 L 76.886 82.207 L 76.886 82.207 Q 76.447 82.231 76.027 82.271 L 76.027 82.271 L 76.027 82.271 Q 75.607 82.31 75.226 82.358 L 75.226 82.358 L 75.226 82.358 Q 74.845 82.407 74.543 82.446 L 74.543 82.446 L 74.543 82.446 Q 74.67 81.948 74.772 81.221 L 74.772 81.221 L 74.772 81.221 Q 74.875 80.493 74.943 79.624 L 74.943 79.624 L 74.943 79.624 Q 75.011 78.755 75.046 77.793 L 75.046 77.793 L 75.046 77.793 Q 75.08 76.831 75.08 75.845 L 75.08 75.845 L 75.08 75.845 Q 75.08 75.698 75.075 75.454 L 75.075 75.454 L 75.075 75.454 Q 75.07 75.21 75.051 74.927 L 75.051 74.927 L 75.051 74.927 Q 75.031 74.644 74.987 74.355 L 74.987 74.355 L 74.987 74.355 Q 74.943 74.067 74.86 73.833 L 74.86 73.833 L 74.86 73.833 Q 74.777 73.599 74.655 73.452 L 74.655 73.452 L 74.655 73.452 Q 74.533 73.306 74.347 73.306 L 74.347 73.306 L 74.347 73.306 Q 74.152 73.306 73.967 73.55 L 73.967 73.55 L 73.967 73.55 Q 73.781 73.794 73.605 74.204 L 73.605 74.204 L 73.605 74.204 Q 73.634 74.751 73.654 75.498 L 73.654 75.498 L 73.654 75.498 Q 73.674 76.245 73.683 77.056 L 73.683 77.056 L 73.683 77.056 Q 73.693 77.866 73.698 78.657 L 73.698 78.657 L 73.698 78.657 Q 73.703 79.448 73.713 80.073 L 73.713 80.073 L 73.713 80.073 Q 73.722 80.698 73.732 81.084 L 73.732 81.084 L 73.732 81.084 Q 73.742 81.47 73.761 81.47 L 73.761 81.47 L 73.761 81.47 Q 73.322 81.401 72.956 81.362 L 72.956 81.362 L 72.956 81.362 Q 72.59 81.323 72.218 81.323 L 72.218 81.323 L 72.218 81.323 Q 71.73 81.323 71.164 81.401 L 71.164 81.401 L 71.164 81.401 Q 70.597 81.48 69.806 81.646 L 69.806 81.646 L 69.806 81.646 Q 69.933 80.718 70.041 79.731 L 70.041 79.731 L 70.041 79.731 Q 70.129 78.882 70.207 77.856 L 70.207 77.856 L 70.207 77.856 Q 70.285 76.831 70.285 75.845 L 70.285 75.845 L 70.285 75.845 Q 70.285 75.698 70.28 75.454 L 70.28 75.454 L 70.28 75.454 Q 70.275 75.21 70.256 74.927 L 70.256 74.927 L 70.256 74.927 Q 70.236 74.644 70.192 74.355 L 70.192 74.355 L 70.192 74.355 Q 70.148 74.067 70.065 73.833 L 70.065 73.833 L 70.065 73.833 Q 69.982 73.599 69.855 73.452 L 69.855 73.452 L 69.855 73.452 Q 69.728 73.306 69.543 73.306 L 69.543 73.306 L 69.543 73.306 Q 69.23 73.306 69.03 73.486 L 69.03 73.486 L 69.03 73.486 Q 68.83 73.667 68.713 73.97 L 68.713 73.97 L 68.713 73.97 Q 68.595 74.272 68.551 74.668 L 68.551 74.668 L 68.551 74.668 Q 68.508 75.063 68.508 75.503 L 68.508 75.503 L 68.508 75.503 Q 68.508 76.333 68.547 77.183 L 68.547 77.183 L 68.547 77.183 Q 68.586 78.032 68.674 78.867 L 68.674 78.867 L 68.674 78.867 Q 68.761 79.702 68.898 80.503 L 68.898 80.503 L 68.898 80.503 Q 69.035 81.304 69.24 82.026 L 69.24 82.026 L 69.24 82.026 Q 69.074 82.017 68.849 81.997 L 68.849 81.997 L 68.849 81.997 Q 68.654 81.987 68.39 81.978 L 68.39 81.978 L 68.39 81.978 Q 68.127 81.968 67.785 81.968 L 67.785 81.968 L 67.785 81.968 Q 67.15 81.968 66.32 82.022 L 66.32 82.022 L 66.32 82.022 Q 65.49 82.075 64.523 82.222 L 64.523 82.222 L 64.523 82.222 Q 64.64 81.675 64.728 80.884 L 64.728 80.884 L 64.728 80.884 Q 64.816 80.093 64.875 79.165 L 64.875 79.165 L 64.875 79.165 Q 64.933 78.237 64.968 77.227 L 64.968 77.227 L 64.968 77.227 Q 65.002 76.216 65.002 75.23 L 65.002 75.23 L 65.002 75.23 Q 65.002 74.497 64.982 73.794 L 64.982 73.794 L 64.982 73.794 Q 64.963 73.091 64.928 72.466 L 64.928 72.466 L 64.928 72.466 Q 64.894 71.841 64.836 71.313 L 64.836 71.313 L 64.836 71.313 Q 64.777 70.786 64.699 70.405 L 64.699 70.405 L 64.699 70.405 Q 65.49 70.542 66.164 70.596 L 66.164 70.596 L 66.164 70.596 Q 66.838 70.649 67.384 70.649 L 67.384 70.649 L 67.384 70.649 Q 67.736 70.649 68.014 70.635 L 68.014 70.635 L 68.014 70.635 Q 68.293 70.62 68.488 70.601 L 68.488 70.601 L 68.488 70.601 Q 68.722 70.571 68.898 70.542 L 68.898 70.542 L 68.898 70.542 Q 68.84 70.796 68.796 71.084 L 68.796 71.084 L 68.796 71.084 Q 68.752 71.372 68.703 71.704 L 68.703 71.704 L 68.703 71.704 Q 69.25 71.001 69.875 70.645 L 69.875 70.645 L 69.875 70.645 Q 70.5 70.288 71.105 70.288 L 71.105 70.288 L 71.105 70.288 Q 71.945 70.288 72.477 70.703 L 72.477 70.703 L 72.477 70.703 Q 73.009 71.118 73.283 72.026 L 73.283 72.026 L 73.283 72.026 Q 73.859 71.147 74.548 70.718 L 74.548 70.718 L 74.548 70.718 Q 75.236 70.288 75.9 70.288 L 75.9 70.288 L 75.9 70.288 Q 76.603 70.288 77.155 70.576 L 77.155 70.576 L 77.155 70.576 Q 77.707 70.864 78.078 71.48 L 78.078 71.48 L 78.078 71.48 Q 78.449 72.095 78.644 73.052 L 78.644 73.052 L 78.644 73.052 Q 78.84 74.009 78.84 75.347 L 78.84 75.347 L 78.84 75.347 Q 78.84 76.265 78.844 77.261 L 78.844 77.261 L 78.844 77.261 Q 78.849 78.257 78.874 79.189 L 78.874 79.189 L 78.874 79.189 Q 78.898 80.122 78.952 80.928 L 78.952 80.928 L 78.952 80.928 Q 79.006 81.733 79.103 82.261 Z  M 89.22 76.362 L 89.22 76.362 L 89.22 76.362 Q 89.22 76.929 89.133 77.607 L 89.133 77.607 L 89.133 77.607 Q 89.045 78.286 88.84 78.975 L 88.84 78.975 L 88.84 78.975 Q 88.634 79.663 88.283 80.313 L 88.283 80.313 L 88.283 80.313 Q 87.931 80.962 87.409 81.46 L 87.409 81.46 L 87.409 81.46 Q 86.886 81.958 86.164 82.261 L 86.164 82.261 L 86.164 82.261 Q 85.441 82.563 84.484 82.563 L 84.484 82.563 L 84.484 82.563 Q 83.527 82.563 82.809 82.28 L 82.809 82.28 L 82.809 82.28 Q 82.092 81.997 81.579 81.523 L 81.579 81.523 L 81.579 81.523 Q 81.066 81.05 80.734 80.43 L 80.734 80.43 L 80.734 80.43 Q 80.402 79.81 80.207 79.126 L 80.207 79.126 L 80.207 79.126 Q 80.011 78.442 79.938 77.744 L 79.938 77.744 L 79.938 77.744 Q 79.865 77.046 79.865 76.421 L 79.865 76.421 L 79.865 76.421 Q 79.865 75.317 80.158 74.258 L 80.158 74.258 L 80.158 74.258 Q 80.451 73.198 81.051 72.368 L 81.051 72.368 L 81.051 72.368 Q 81.652 71.538 82.555 71.03 L 82.555 71.03 L 82.555 71.03 Q 83.459 70.522 84.679 70.522 L 84.679 70.522 L 84.679 70.522 Q 85.5 70.522 86.154 70.772 L 86.154 70.772 L 86.154 70.772 Q 86.808 71.021 87.316 71.45 L 87.316 71.45 L 87.316 71.45 Q 87.824 71.88 88.18 72.456 L 88.18 72.456 L 88.18 72.456 Q 88.537 73.032 88.771 73.677 L 88.771 73.677 L 88.771 73.677 Q 89.006 74.321 89.113 75.015 L 89.113 75.015 L 89.113 75.015 Q 89.22 75.708 89.22 76.362 Z  M 85.822 76.685 L 85.822 76.685 L 85.822 76.685 Q 85.822 76.46 85.807 76.123 L 85.807 76.123 L 85.807 76.123 Q 85.793 75.786 85.744 75.415 L 85.744 75.415 L 85.744 75.415 Q 85.695 75.044 85.612 74.673 L 85.612 74.673 L 85.612 74.673 Q 85.529 74.302 85.392 74.009 L 85.392 74.009 L 85.392 74.009 Q 85.256 73.716 85.055 73.53 L 85.055 73.53 L 85.055 73.53 Q 84.855 73.345 84.582 73.345 L 84.582 73.345 L 84.582 73.345 Q 84.318 73.345 84.123 73.521 L 84.123 73.521 L 84.123 73.521 Q 83.927 73.696 83.786 73.98 L 83.786 73.98 L 83.786 73.98 Q 83.644 74.263 83.551 74.619 L 83.551 74.619 L 83.551 74.619 Q 83.459 74.976 83.405 75.332 L 83.405 75.332 L 83.405 75.332 Q 83.351 75.688 83.327 76.016 L 83.327 76.016 L 83.327 76.016 Q 83.302 76.343 83.302 76.567 L 83.302 76.567 L 83.302 76.567 Q 83.302 76.89 83.351 77.349 L 83.351 77.349 L 83.351 77.349 Q 83.4 77.808 83.537 78.228 L 83.537 78.228 L 83.537 78.228 Q 83.674 78.647 83.913 78.945 L 83.913 78.945 L 83.913 78.945 Q 84.152 79.243 84.543 79.243 L 84.543 79.243 L 84.543 79.243 Q 84.914 79.243 85.163 78.97 L 85.163 78.97 L 85.163 78.97 Q 85.412 78.696 85.558 78.301 L 85.558 78.301 L 85.558 78.301 Q 85.705 77.905 85.763 77.466 L 85.763 77.466 L 85.763 77.466 Q 85.822 77.026 85.822 76.685 Z " fill-rule="evenodd" fill="rgb(255,255,255)"/><path d=" M 5.096 169.681 C 1.938 166.413 0 161.963 0 157.063 C 0 157.063 0 157.063 0 157.063 L 0 18.22 C 0 8.164 8.164 0 18.22 0 L 103.248 0 C 109.137 0 114.377 2.8 117.707 7.142 C 85.252 68.101 47.74 122.306 5.096 169.681 Z " fill="rgb(255,255,255)" fill-opacity="0.05"/></g></g></svg>