<?xml version="1.0" standalone="no"?><!-- Generator: Gravit.io --><svg xmlns="http://www.w3.org/2000/svg" xmlns:xlink="http://www.w3.org/1999/xlink" style="isolation:isolate" viewBox="0 0 121.468 175.283" width="121.468" height="175.283"><defs><clipPath id="_clipPath_Ygkn67inwH7KjBX6QZZjwokqZbWMqAqO"><rect width="121.468" height="175.283"/></clipPath></defs><g clip-path="url(#_clipPath_Ygkn67inwH7KjBX6QZZjwokqZbWMqAqO)"><g id="card-flipped - english"><path d="M 18.22 0 L 103.248 0 C 113.304 0 121.468 8.164 121.468 18.22 L 121.468 157.063 C 121.468 167.119 113.304 175.283 103.248 175.283 L 18.22 175.283 C 8.164 175.283 0 167.119 0 157.063 L 0 18.22 C 0 8.164 8.164 0 18.22 0 Z" style="stroke:none;fill:#8A85B9;stroke-miterlimit:10;"/><path d=" M 50.358 94.941 L 50.358 94.941 L 50.358 94.941 Q 50.251 95.352 50.177 95.928 L 50.177 95.928 L 50.177 95.928 Q 50.104 96.504 50.046 97.168 L 50.046 97.168 L 50.046 97.168 Q 49.987 97.832 49.953 98.555 L 49.953 98.555 L 49.953 98.555 Q 49.919 99.277 49.889 99.961 L 49.889 99.961 L 49.889 99.961 Q 49.831 101.572 49.821 103.359 L 49.821 103.359 L 49.821 103.359 Q 49.821 104.355 49.699 105.322 L 49.699 105.322 L 49.699 105.322 Q 49.577 106.289 49.308 107.153 L 49.308 107.153 L 49.308 107.153 Q 49.04 108.018 48.615 108.755 L 48.615 108.755 L 48.615 108.755 Q 48.19 109.492 47.58 110.024 L 47.58 110.024 L 47.58 110.024 Q 46.969 110.557 46.164 110.859 L 46.164 110.859 L 46.164 110.859 Q 45.358 111.162 44.343 111.162 L 44.343 111.162 L 44.343 111.162 Q 43.395 111.162 42.702 110.967 L 42.702 110.967 L 42.702 110.967 Q 42.009 110.772 41.554 110.415 L 41.554 110.415 L 41.554 110.415 Q 41.1 110.059 40.881 109.561 L 40.881 109.561 L 40.881 109.561 Q 40.661 109.063 40.661 108.467 L 40.661 108.467 L 40.661 108.467 Q 40.661 107.871 40.866 107.388 L 40.866 107.388 L 40.866 107.388 Q 41.071 106.904 41.403 106.572 L 41.403 106.572 L 41.403 106.572 Q 41.735 106.24 42.155 106.06 L 42.155 106.06 L 42.155 106.06 Q 42.575 105.879 43.005 105.879 L 43.005 105.879 L 43.005 105.879 Q 43.551 105.879 44.04 106.191 L 44.04 106.191 L 44.04 106.191 Q 44.528 106.504 44.782 107.178 L 44.782 107.178 L 44.782 107.178 Q 44.723 107.129 44.65 107.114 L 44.65 107.114 L 44.65 107.114 Q 44.577 107.1 44.499 107.1 L 44.499 107.1 L 44.499 107.1 Q 44.391 107.1 44.279 107.148 L 44.279 107.148 L 44.279 107.148 Q 44.167 107.197 44.079 107.285 L 44.079 107.285 L 44.079 107.285 Q 43.991 107.373 43.937 107.485 L 43.937 107.485 L 43.937 107.485 Q 43.884 107.598 43.884 107.725 L 43.884 107.725 L 43.884 107.725 Q 43.884 107.871 43.942 107.974 L 43.942 107.974 L 43.942 107.974 Q 44.001 108.076 44.084 108.135 L 44.084 108.135 L 44.084 108.135 Q 44.167 108.193 44.269 108.218 L 44.269 108.218 L 44.269 108.218 Q 44.372 108.242 44.46 108.242 L 44.46 108.242 L 44.46 108.242 Q 44.596 108.242 44.801 108.184 L 44.801 108.184 L 44.801 108.184 Q 45.007 108.125 45.226 107.939 L 45.226 107.939 L 45.226 107.939 Q 45.446 107.754 45.666 107.422 L 45.666 107.422 L 45.666 107.422 Q 45.885 107.09 46.056 106.538 L 46.056 106.538 L 46.056 106.538 Q 46.227 105.986 46.33 105.195 L 46.33 105.195 L 46.33 105.195 Q 46.432 104.404 46.423 103.301 L 46.423 103.301 L 46.423 103.301 Q 46.169 103.984 45.89 104.409 L 45.89 104.409 L 45.89 104.409 Q 45.612 104.834 45.304 105.068 L 45.304 105.068 L 45.304 105.068 Q 44.997 105.303 44.66 105.381 L 44.66 105.381 L 44.66 105.381 Q 44.323 105.459 43.942 105.459 L 43.942 105.459 L 43.942 105.459 Q 43.464 105.459 42.941 105.288 L 42.941 105.288 L 42.941 105.288 Q 42.419 105.117 41.984 104.683 L 41.984 104.683 L 41.984 104.683 Q 41.55 104.248 41.266 103.496 L 41.266 103.496 L 41.266 103.496 Q 40.983 102.744 40.983 101.582 L 40.983 101.582 L 40.983 101.582 Q 40.983 101.426 40.988 101.362 L 40.988 101.362 L 40.988 101.362 Q 40.993 101.299 40.993 101.265 L 40.993 101.265 L 40.993 101.265 Q 40.993 101.23 41.003 101.182 L 41.003 101.182 L 41.003 101.182 Q 41.012 101.133 41.012 100.991 L 41.012 100.991 L 41.012 100.991 Q 41.012 100.85 41.017 100.586 L 41.017 100.586 L 41.017 100.586 Q 41.022 100.322 41.022 99.844 L 41.022 99.844 L 41.022 99.844 Q 41.022 99.287 41.003 98.584 L 41.003 98.584 L 41.003 98.584 Q 40.983 97.881 40.92 97.207 L 40.92 97.207 L 40.92 97.207 Q 40.856 96.533 40.739 95.981 L 40.739 95.981 L 40.739 95.981 Q 40.622 95.43 40.436 95.166 L 40.436 95.166 L 40.436 95.166 Q 41.227 95.303 41.926 95.352 L 41.926 95.352 L 41.926 95.352 Q 42.624 95.4 43.2 95.4 L 43.2 95.4 L 43.2 95.4 Q 43.581 95.4 43.888 95.386 L 43.888 95.386 L 43.888 95.386 Q 44.196 95.371 44.421 95.352 L 44.421 95.352 L 44.421 95.352 Q 44.675 95.332 44.88 95.303 L 44.88 95.303 L 44.88 95.303 Q 44.801 95.469 44.709 95.938 L 44.709 95.938 L 44.709 95.938 Q 44.616 96.406 44.528 97.061 L 44.528 97.061 L 44.528 97.061 Q 44.44 97.715 44.382 98.491 L 44.382 98.491 L 44.382 98.491 Q 44.323 99.268 44.323 100.059 L 44.323 100.059 L 44.323 100.059 Q 44.323 100.654 44.411 101.074 L 44.411 101.074 L 44.411 101.074 Q 44.499 101.494 44.65 101.763 L 44.65 101.763 L 44.65 101.763 Q 44.801 102.031 45.002 102.158 L 45.002 102.158 L 45.002 102.158 Q 45.202 102.285 45.436 102.285 L 45.436 102.285 L 45.436 102.285 Q 45.807 102.285 46.027 101.982 L 46.027 101.982 L 46.027 101.982 Q 46.247 101.68 46.403 101.221 L 46.403 101.221 L 46.403 101.221 Q 46.384 100.615 46.335 99.805 L 46.335 99.805 L 46.335 99.805 Q 46.286 98.994 46.203 98.115 L 46.203 98.115 L 46.203 98.115 Q 46.12 97.236 45.988 96.343 L 45.988 96.343 L 45.988 96.343 Q 45.856 95.449 45.661 94.678 L 45.661 94.678 L 45.661 94.678 Q 45.964 94.785 46.384 94.873 L 46.384 94.873 L 46.384 94.873 Q 46.745 94.951 47.262 95.005 L 47.262 95.005 L 47.262 95.005 Q 47.78 95.059 48.483 95.059 L 48.483 95.059 L 48.483 95.059 Q 49.313 95.059 50.358 94.941 Z  M 60.436 100.459 L 60.436 100.459 L 60.436 100.459 Q 60.436 101.025 60.348 101.704 L 60.348 101.704 L 60.348 101.704 Q 60.26 102.383 60.055 103.071 L 60.055 103.071 L 60.055 103.071 Q 59.85 103.76 59.499 104.409 L 59.499 104.409 L 59.499 104.409 Q 59.147 105.059 58.625 105.557 L 58.625 105.557 L 58.625 105.557 Q 58.102 106.055 57.38 106.357 L 57.38 106.357 L 57.38 106.357 Q 56.657 106.66 55.7 106.66 L 55.7 106.66 L 55.7 106.66 Q 54.743 106.66 54.025 106.377 L 54.025 106.377 L 54.025 106.377 Q 53.307 106.094 52.795 105.62 L 52.795 105.62 L 52.795 105.62 Q 52.282 105.147 51.95 104.526 L 51.95 104.526 L 51.95 104.526 Q 51.618 103.906 51.423 103.223 L 51.423 103.223 L 51.423 103.223 Q 51.227 102.539 51.154 101.841 L 51.154 101.841 L 51.154 101.841 Q 51.081 101.143 51.081 100.518 L 51.081 100.518 L 51.081 100.518 Q 51.081 99.414 51.374 98.355 L 51.374 98.355 L 51.374 98.355 Q 51.667 97.295 52.267 96.465 L 52.267 96.465 L 52.267 96.465 Q 52.868 95.635 53.771 95.127 L 53.771 95.127 L 53.771 95.127 Q 54.675 94.619 55.895 94.619 L 55.895 94.619 L 55.895 94.619 Q 56.716 94.619 57.37 94.868 L 57.37 94.868 L 57.37 94.868 Q 58.024 95.117 58.532 95.547 L 58.532 95.547 L 58.532 95.547 Q 59.04 95.977 59.396 96.553 L 59.396 96.553 L 59.396 96.553 Q 59.753 97.129 59.987 97.773 L 59.987 97.773 L 59.987 97.773 Q 60.221 98.418 60.329 99.111 L 60.329 99.111 L 60.329 99.111 Q 60.436 99.805 60.436 100.459 Z  M 57.038 100.781 L 57.038 100.781 L 57.038 100.781 Q 57.038 100.557 57.023 100.22 L 57.023 100.22 L 57.023 100.22 Q 57.009 99.883 56.96 99.512 L 56.96 99.512 L 56.96 99.512 Q 56.911 99.141 56.828 98.77 L 56.828 98.77 L 56.828 98.77 Q 56.745 98.398 56.608 98.105 L 56.608 98.105 L 56.608 98.105 Q 56.471 97.813 56.271 97.627 L 56.271 97.627 L 56.271 97.627 Q 56.071 97.441 55.798 97.441 L 55.798 97.441 L 55.798 97.441 Q 55.534 97.441 55.339 97.617 L 55.339 97.617 L 55.339 97.617 Q 55.143 97.793 55.002 98.076 L 55.002 98.076 L 55.002 98.076 Q 54.86 98.359 54.767 98.716 L 54.767 98.716 L 54.767 98.716 Q 54.675 99.072 54.621 99.429 L 54.621 99.429 L 54.621 99.429 Q 54.567 99.785 54.543 100.112 L 54.543 100.112 L 54.543 100.112 Q 54.518 100.439 54.518 100.664 L 54.518 100.664 L 54.518 100.664 Q 54.518 100.986 54.567 101.445 L 54.567 101.445 L 54.567 101.445 Q 54.616 101.904 54.753 102.324 L 54.753 102.324 L 54.753 102.324 Q 54.889 102.744 55.129 103.042 L 55.129 103.042 L 55.129 103.042 Q 55.368 103.34 55.759 103.34 L 55.759 103.34 L 55.759 103.34 Q 56.13 103.34 56.379 103.066 L 56.379 103.066 L 56.379 103.066 Q 56.628 102.793 56.774 102.397 L 56.774 102.397 L 56.774 102.397 Q 56.921 102.002 56.979 101.563 L 56.979 101.563 L 56.979 101.563 Q 57.038 101.123 57.038 100.781 Z  M 70.055 94.902 L 70.055 94.902 L 70.055 94.902 Q 69.968 95.342 69.894 95.928 L 69.894 95.928 L 69.894 95.928 Q 69.821 96.514 69.767 97.192 L 69.767 97.192 L 69.767 97.192 Q 69.714 97.871 69.684 98.608 L 69.684 98.608 L 69.684 98.608 Q 69.655 99.346 69.655 100.078 L 69.655 100.078 L 69.655 100.078 Q 69.655 100.322 69.665 100.562 L 69.665 100.562 L 69.665 100.562 Q 69.675 100.801 69.675 101.025 L 69.675 101.025 L 69.675 101.025 Q 69.675 101.504 69.621 102.109 L 69.621 102.109 L 69.621 102.109 Q 69.567 102.715 69.406 103.345 L 69.406 103.345 L 69.406 103.345 Q 69.245 103.975 68.962 104.58 L 68.962 104.58 L 68.962 104.58 Q 68.678 105.186 68.215 105.654 L 68.215 105.654 L 68.215 105.654 Q 67.751 106.123 67.087 106.411 L 67.087 106.411 L 67.087 106.411 Q 66.423 106.699 65.514 106.699 L 65.514 106.699 L 65.514 106.699 Q 64.733 106.699 64.133 106.494 L 64.133 106.494 L 64.133 106.494 Q 63.532 106.289 63.088 105.933 L 63.088 105.933 L 63.088 105.933 Q 62.643 105.576 62.341 105.088 L 62.341 105.088 L 62.341 105.088 Q 62.038 104.6 61.852 104.038 L 61.852 104.038 L 61.852 104.038 Q 61.667 103.477 61.584 102.861 L 61.584 102.861 L 61.584 102.861 Q 61.501 102.246 61.501 101.641 L 61.501 101.641 L 61.501 101.641 Q 61.501 101.494 61.506 101.46 L 61.506 101.46 L 61.506 101.46 Q 61.51 101.426 61.51 101.416 L 61.51 101.416 L 61.51 101.416 Q 61.51 101.406 61.52 101.382 L 61.52 101.382 L 61.52 101.382 Q 61.53 101.357 61.53 101.23 L 61.53 101.23 L 61.53 101.23 Q 61.53 101.104 61.535 100.83 L 61.535 100.83 L 61.535 100.83 Q 61.54 100.557 61.54 100.059 L 61.54 100.059 L 61.54 100.059 Q 61.54 99.473 61.52 98.735 L 61.52 98.735 L 61.52 98.735 Q 61.501 97.998 61.437 97.29 L 61.437 97.29 L 61.437 97.29 Q 61.374 96.582 61.257 96.006 L 61.257 96.006 L 61.257 96.006 Q 61.139 95.43 60.954 95.166 L 60.954 95.166 L 60.954 95.166 Q 61.745 95.303 62.443 95.352 L 62.443 95.352 L 62.443 95.352 Q 63.141 95.4 63.718 95.4 L 63.718 95.4 L 63.718 95.4 Q 64.098 95.4 64.406 95.386 L 64.406 95.386 L 64.406 95.386 Q 64.714 95.371 64.938 95.352 L 64.938 95.352 L 64.938 95.352 Q 65.192 95.332 65.397 95.303 L 65.397 95.303 L 65.397 95.303 Q 65.202 96.26 65.021 97.476 L 65.021 97.476 L 65.021 97.476 Q 64.841 98.691 64.841 100.264 L 64.841 100.264 L 64.841 100.264 Q 64.841 100.625 64.875 101.016 L 64.875 101.016 L 64.875 101.016 Q 64.909 101.406 64.997 101.733 L 64.997 101.733 L 64.997 101.733 Q 65.085 102.061 65.236 102.271 L 65.236 102.271 L 65.236 102.271 Q 65.387 102.48 65.622 102.48 L 65.622 102.48 L 65.622 102.48 Q 65.915 102.48 66.081 102.285 L 66.081 102.285 L 66.081 102.285 Q 66.247 102.09 66.33 101.772 L 66.33 101.772 L 66.33 101.772 Q 66.413 101.455 66.427 101.064 L 66.427 101.064 L 66.427 101.064 Q 66.442 100.674 66.442 100.283 L 66.442 100.283 L 66.442 100.283 Q 66.432 99.014 66.364 97.91 L 66.364 97.91 L 66.364 97.91 Q 66.335 97.441 66.291 96.963 L 66.291 96.963 L 66.291 96.963 Q 66.247 96.484 66.188 96.06 L 66.188 96.06 L 66.188 96.06 Q 66.13 95.635 66.051 95.298 L 66.051 95.298 L 66.051 95.298 Q 65.973 94.961 65.876 94.766 L 65.876 94.766 L 65.876 94.766 Q 66.667 94.902 67.341 94.951 L 67.341 94.951 L 67.341 94.951 Q 68.014 95 68.542 95 L 68.542 95 L 68.542 95 Q 68.893 95 69.172 94.985 L 69.172 94.985 L 69.172 94.985 Q 69.45 94.971 69.645 94.951 L 69.645 94.951 L 69.645 94.951 Q 69.88 94.932 70.055 94.902 Z  M 80.837 96.338 L 80.837 96.338 L 80.837 96.338 Q 80.837 97.148 80.602 97.734 L 80.602 97.734 L 80.602 97.734 Q 80.368 98.32 80.007 98.774 L 80.007 98.774 L 80.007 98.774 Q 79.645 99.229 79.211 99.595 L 79.211 99.595 L 79.211 99.595 Q 78.776 99.961 78.385 100.322 L 78.385 100.322 L 78.385 100.322 Q 77.995 100.684 77.697 101.089 L 77.697 101.089 L 77.697 101.089 Q 77.399 101.494 77.301 102.022 L 77.301 102.022 L 77.301 102.022 Q 76.813 101.914 76.349 101.87 L 76.349 101.87 L 76.349 101.87 Q 75.885 101.826 75.417 101.826 L 75.417 101.826 L 75.417 101.826 Q 75.134 101.826 74.845 101.841 L 74.845 101.841 L 74.845 101.841 Q 74.557 101.855 74.274 101.904 L 74.274 101.904 L 74.274 101.904 Q 74.274 101.23 74.421 100.762 L 74.421 100.762 L 74.421 100.762 Q 74.567 100.293 74.792 99.932 L 74.792 99.932 L 74.792 99.932 Q 75.016 99.57 75.275 99.258 L 75.275 99.258 L 75.275 99.258 Q 75.534 98.945 75.759 98.584 L 75.759 98.584 L 75.759 98.584 Q 75.983 98.223 76.13 97.759 L 76.13 97.759 L 76.13 97.759 Q 76.276 97.295 76.276 96.621 L 76.276 96.621 L 76.276 96.621 Q 76.276 96.162 76.178 95.82 L 76.178 95.82 L 76.178 95.82 Q 76.081 95.479 75.92 95.239 L 75.92 95.239 L 75.92 95.239 Q 75.759 95 75.558 94.854 L 75.558 94.854 L 75.558 94.854 Q 75.358 94.707 75.163 94.624 L 75.163 94.624 L 75.163 94.624 Q 74.968 94.541 74.792 94.512 L 74.792 94.512 L 74.792 94.512 Q 74.616 94.482 74.499 94.482 L 74.499 94.482 L 74.499 94.482 Q 74.128 94.482 73.932 94.673 L 73.932 94.673 L 73.932 94.673 Q 73.737 94.863 73.737 95.059 L 73.737 95.059 L 73.737 95.059 Q 73.737 95.166 73.766 95.269 L 73.766 95.269 L 73.766 95.269 Q 73.796 95.371 73.869 95.449 L 73.869 95.449 L 73.869 95.449 Q 73.942 95.527 74.059 95.576 L 74.059 95.576 L 74.059 95.576 Q 74.176 95.625 74.362 95.625 L 74.362 95.625 L 74.362 95.625 Q 74.499 95.615 74.616 95.557 L 74.616 95.557 L 74.616 95.557 Q 74.723 95.508 74.831 95.396 L 74.831 95.396 L 74.831 95.396 Q 74.938 95.283 74.997 95.078 L 74.997 95.078 L 74.997 95.078 Q 75.212 95.381 75.324 95.767 L 75.324 95.767 L 75.324 95.767 Q 75.436 96.152 75.436 96.563 L 75.436 96.563 L 75.436 96.563 Q 75.436 96.973 75.319 97.354 L 75.319 97.354 L 75.319 97.354 Q 75.202 97.734 74.948 98.037 L 74.948 98.037 L 74.948 98.037 Q 74.694 98.34 74.299 98.521 L 74.299 98.521 L 74.299 98.521 Q 73.903 98.701 73.356 98.701 L 73.356 98.701 L 73.356 98.701 Q 72.682 98.701 72.175 98.403 L 72.175 98.403 L 72.175 98.403 Q 71.667 98.105 71.33 97.651 L 71.33 97.651 L 71.33 97.651 Q 70.993 97.197 70.827 96.66 L 70.827 96.66 L 70.827 96.66 Q 70.661 96.123 70.661 95.645 L 70.661 95.645 L 70.661 95.645 Q 70.661 95.205 70.768 94.731 L 70.768 94.731 L 70.768 94.731 Q 70.876 94.258 71.105 93.804 L 71.105 93.804 L 71.105 93.804 Q 71.335 93.35 71.701 92.944 L 71.701 92.944 L 71.701 92.944 Q 72.067 92.539 72.575 92.231 L 72.575 92.231 L 72.575 92.231 Q 73.083 91.924 73.752 91.743 L 73.752 91.743 L 73.752 91.743 Q 74.421 91.563 75.26 91.563 L 75.26 91.563 L 75.26 91.563 Q 75.944 91.563 76.628 91.68 L 76.628 91.68 L 76.628 91.68 Q 77.311 91.797 77.931 92.041 L 77.931 92.041 L 77.931 92.041 Q 78.551 92.285 79.084 92.666 L 79.084 92.666 L 79.084 92.666 Q 79.616 93.047 80.007 93.579 L 80.007 93.579 L 80.007 93.579 Q 80.397 94.111 80.617 94.8 L 80.617 94.8 L 80.617 94.8 Q 80.837 95.488 80.837 96.338 Z  M 73.62 104.6 L 73.62 104.6 L 73.62 104.6 Q 73.62 104.18 73.781 103.804 L 73.781 103.804 L 73.781 103.804 Q 73.942 103.428 74.22 103.145 L 74.22 103.145 L 74.22 103.145 Q 74.499 102.861 74.875 102.7 L 74.875 102.7 L 74.875 102.7 Q 75.251 102.539 75.68 102.539 L 75.68 102.539 L 75.68 102.539 Q 76.11 102.539 76.486 102.7 L 76.486 102.7 L 76.486 102.7 Q 76.862 102.861 77.14 103.145 L 77.14 103.145 L 77.14 103.145 Q 77.419 103.428 77.58 103.804 L 77.58 103.804 L 77.58 103.804 Q 77.741 104.18 77.741 104.6 L 77.741 104.6 L 77.741 104.6 Q 77.741 105.029 77.58 105.405 L 77.58 105.405 L 77.58 105.405 Q 77.419 105.781 77.14 106.06 L 77.14 106.06 L 77.14 106.06 Q 76.862 106.338 76.486 106.499 L 76.486 106.499 L 76.486 106.499 Q 76.11 106.66 75.68 106.66 L 75.68 106.66 L 75.68 106.66 Q 75.251 106.66 74.875 106.499 L 74.875 106.499 L 74.875 106.499 Q 74.499 106.338 74.22 106.06 L 74.22 106.06 L 74.22 106.06 Q 73.942 105.781 73.781 105.405 L 73.781 105.405 L 73.781 105.405 Q 73.62 105.029 73.62 104.6 Z  M 75.046 78.721 L 75.046 78.721 L 75.046 78.721 Q 74.86 78.701 74.616 78.682 L 74.616 78.682 L 74.616 78.682 Q 74.411 78.662 74.123 78.652 L 74.123 78.652 L 74.123 78.652 Q 73.835 78.643 73.493 78.643 L 73.493 78.643 L 73.493 78.643 Q 73.005 78.643 72.424 78.682 L 72.424 78.682 L 72.424 78.682 Q 71.843 78.721 71.227 78.828 L 71.227 78.828 L 71.266 76.084 L 71.266 76.084 Q 70.895 77.539 70.177 78.33 L 70.177 78.33 L 70.177 78.33 Q 69.46 79.121 68.493 79.121 L 68.493 79.121 L 68.493 79.121 Q 68.19 79.121 67.809 79.043 L 67.809 79.043 L 67.809 79.043 Q 67.428 78.965 67.033 78.745 L 67.033 78.745 L 67.033 78.745 Q 66.637 78.525 66.261 78.135 L 66.261 78.135 L 66.261 78.135 Q 65.885 77.744 65.593 77.124 L 65.593 77.124 L 65.593 77.124 Q 65.3 76.504 65.124 75.62 L 65.124 75.62 L 65.124 75.62 Q 64.948 74.736 64.948 73.525 L 64.948 73.525 L 64.948 73.525 Q 64.948 71.885 65.28 70.718 L 65.28 70.718 L 65.28 70.718 Q 65.612 69.551 66.13 68.809 L 66.13 68.809 L 66.13 68.809 Q 66.647 68.066 67.272 67.725 L 67.272 67.725 L 67.272 67.725 Q 67.897 67.383 68.493 67.383 L 68.493 67.383 L 68.493 67.383 Q 69.001 67.383 69.416 67.524 L 69.416 67.524 L 69.416 67.524 Q 69.831 67.666 70.153 67.886 L 70.153 67.886 L 70.153 67.886 Q 70.475 68.105 70.71 68.379 L 70.71 68.379 L 70.71 68.379 Q 70.944 68.652 71.091 68.926 L 71.091 68.926 L 71.091 68.926 Q 71.061 68.594 71.003 68.218 L 71.003 68.218 L 71.003 68.218 Q 70.944 67.842 70.866 67.441 L 70.866 67.441 L 70.866 67.441 Q 71.501 67.568 72.155 67.607 L 72.155 67.607 L 72.155 67.607 Q 72.809 67.647 73.366 67.647 L 73.366 67.647 L 73.366 67.647 Q 74.03 67.647 74.44 67.617 L 74.44 67.617 L 74.44 67.617 Q 74.675 67.607 74.87 67.588 L 74.87 67.588 L 74.87 67.588 Q 74.762 68.076 74.675 68.682 L 74.675 68.682 L 74.675 68.682 Q 74.587 69.287 74.523 69.976 L 74.523 69.976 L 74.523 69.976 Q 74.46 70.664 74.426 71.421 L 74.426 71.421 L 74.426 71.421 Q 74.391 72.178 74.391 72.969 L 74.391 72.969 L 74.391 72.969 Q 74.391 74.443 74.538 75.928 L 74.538 75.928 L 74.538 75.928 Q 74.684 77.412 75.046 78.721 Z  M 71.032 73.125 L 71.032 73.125 L 71.032 71.543 L 71.032 71.543 Q 71.032 71.279 71.003 71.006 L 71.003 71.006 L 71.003 71.006 Q 70.973 70.732 70.871 70.508 L 70.871 70.508 L 70.871 70.508 Q 70.768 70.283 70.573 70.142 L 70.573 70.142 L 70.573 70.142 Q 70.378 70 70.046 70 L 70.046 70 L 70.046 70 Q 69.694 70 69.465 70.244 L 69.465 70.244 L 69.465 70.244 Q 69.235 70.488 69.093 70.913 L 69.093 70.913 L 69.093 70.913 Q 68.952 71.338 68.898 71.919 L 68.898 71.919 L 68.898 71.919 Q 68.844 72.5 68.844 73.184 L 68.844 73.184 L 68.844 73.184 Q 68.844 73.574 68.898 73.975 L 68.898 73.975 L 68.898 73.975 Q 68.952 74.375 69.079 74.702 L 69.079 74.702 L 69.079 74.702 Q 69.206 75.029 69.421 75.234 L 69.421 75.234 L 69.421 75.234 Q 69.635 75.439 69.948 75.439 L 69.948 75.439 L 69.948 75.439 Q 70.3 75.439 70.514 75.195 L 70.514 75.195 L 70.514 75.195 Q 70.729 74.951 70.842 74.59 L 70.842 74.59 L 70.842 74.59 Q 70.954 74.229 70.993 73.833 L 70.993 73.833 L 70.993 73.833 Q 71.032 73.438 71.032 73.125 Z  M 81.169 69.727 L 81.169 69.727 L 81.169 69.727 Q 80.866 69.727 80.622 69.897 L 80.622 69.897 L 80.622 69.897 Q 80.378 70.068 80.187 70.376 L 80.187 70.376 L 80.187 70.376 Q 79.997 70.684 79.855 71.113 L 79.855 71.113 L 79.855 71.113 Q 79.714 71.543 79.626 72.061 L 79.626 72.061 L 79.626 72.061 Q 79.626 72.891 79.665 73.74 L 79.665 73.74 L 79.665 73.74 Q 79.704 74.59 79.792 75.42 L 79.792 75.42 L 79.792 75.42 Q 79.88 76.25 80.021 77.041 L 80.021 77.041 L 80.021 77.041 Q 80.163 77.832 80.368 78.545 L 80.368 78.545 L 80.368 78.545 Q 80.212 78.535 80.007 78.516 L 80.007 78.516 L 80.007 78.516 Q 79.831 78.506 79.582 78.496 L 79.582 78.496 L 79.582 78.496 Q 79.333 78.486 79.01 78.486 L 79.01 78.486 L 79.01 78.486 Q 78.405 78.486 77.609 78.54 L 77.609 78.54 L 77.609 78.54 Q 76.813 78.594 75.846 78.74 L 75.846 78.74 L 75.846 78.74 Q 75.964 78.193 76.051 77.402 L 76.051 77.402 L 76.051 77.402 Q 76.139 76.611 76.198 75.684 L 76.198 75.684 L 76.198 75.684 Q 76.257 74.756 76.291 73.745 L 76.291 73.745 L 76.291 73.745 Q 76.325 72.734 76.325 71.748 L 76.325 71.748 L 76.325 71.748 Q 76.325 71.016 76.305 70.313 L 76.305 70.313 L 76.305 70.313 Q 76.286 69.609 76.252 68.984 L 76.252 68.984 L 76.252 68.984 Q 76.218 68.359 76.159 67.832 L 76.159 67.832 L 76.159 67.832 Q 76.1 67.305 76.022 66.924 L 76.022 66.924 L 76.022 66.924 Q 76.813 67.061 77.463 67.114 L 77.463 67.114 L 77.463 67.114 Q 78.112 67.168 78.63 67.168 L 78.63 67.168 L 78.63 67.168 Q 78.962 67.168 79.216 67.153 L 79.216 67.153 L 79.216 67.153 Q 79.469 67.139 79.655 67.119 L 79.655 67.119 L 79.655 67.119 Q 79.86 67.09 80.026 67.061 L 80.026 67.061 L 80.026 67.061 Q 79.909 67.549 79.85 68.145 L 79.85 68.145 L 79.85 68.145 Q 80.358 67.529 80.959 67.236 L 80.959 67.236 L 80.959 67.236 Q 81.559 66.943 82.087 66.943 L 82.087 66.943 L 82.087 66.943 Q 82.966 66.943 83.571 67.261 L 83.571 67.261 L 83.571 67.261 Q 84.176 67.578 84.548 68.091 L 84.548 68.091 L 84.548 68.091 Q 84.919 68.604 85.085 69.258 L 85.085 69.258 L 85.085 69.258 Q 85.251 69.912 85.251 70.586 L 85.251 70.586 L 85.251 70.586 Q 85.251 71.24 85.065 71.865 L 85.065 71.865 L 85.065 71.865 Q 84.88 72.49 84.528 72.983 L 84.528 72.983 L 84.528 72.983 Q 84.176 73.477 83.659 73.779 L 83.659 73.779 L 83.659 73.779 Q 83.141 74.082 82.487 74.082 L 82.487 74.082 L 82.487 74.082 Q 81.911 74.082 81.506 73.887 L 81.506 73.887 L 81.506 73.887 Q 81.1 73.691 80.837 73.379 L 80.837 73.379 L 80.837 73.379 Q 80.573 73.066 80.451 72.69 L 80.451 72.69 L 80.451 72.69 Q 80.329 72.314 80.329 71.943 L 80.329 71.943 L 80.329 71.943 Q 80.329 71.553 80.441 71.182 L 80.441 71.182 L 80.441 71.182 Q 80.553 70.811 80.768 70.508 L 80.768 70.508 L 80.768 70.508 Q 80.837 70.723 80.939 70.835 L 80.939 70.835 L 80.939 70.835 Q 81.042 70.947 81.149 70.996 L 81.149 70.996 L 81.149 70.996 Q 81.266 71.055 81.403 71.064 L 81.403 71.064 L 81.403 71.064 Q 81.764 71.064 81.945 70.898 L 81.945 70.898 L 81.945 70.898 Q 82.126 70.732 82.126 70.508 L 82.126 70.508 L 82.126 70.508 Q 82.126 70.4 82.087 70.264 L 82.087 70.264 L 82.087 70.264 Q 82.048 70.127 81.945 70.01 L 81.945 70.01 L 81.945 70.01 Q 81.843 69.893 81.657 69.81 L 81.657 69.81 L 81.657 69.81 Q 81.471 69.727 81.169 69.727 Z  M 94.245 69.502 L 94.245 69.502 L 94.245 69.502 Q 94.245 70.234 94.035 70.928 L 94.035 70.928 L 94.035 70.928 Q 93.825 71.621 93.298 72.158 L 93.298 72.158 L 93.298 72.158 Q 92.77 72.695 91.877 73.018 L 91.877 73.018 L 91.877 73.018 Q 90.983 73.34 89.606 73.34 L 89.606 73.34 L 89.606 73.34 Q 89.645 73.818 89.806 74.141 L 89.806 74.141 L 89.806 74.141 Q 89.968 74.463 90.192 74.658 L 90.192 74.658 L 90.192 74.658 Q 90.417 74.854 90.671 74.951 L 90.671 74.951 L 90.671 74.951 Q 90.925 75.049 91.139 75.088 L 91.139 75.088 L 91.139 75.088 Q 91.354 75.127 91.501 75.127 L 91.501 75.127 L 91.501 75.127 Q 91.647 75.127 91.647 75.127 L 91.647 75.127 L 91.647 75.127 Q 92.253 75.059 92.731 74.814 L 92.731 74.814 L 92.731 74.814 Q 92.936 74.717 93.132 74.565 L 93.132 74.565 L 93.132 74.565 Q 93.327 74.414 93.488 74.204 L 93.488 74.204 L 93.488 74.204 Q 93.649 73.994 93.752 73.726 L 93.752 73.726 L 93.752 73.726 Q 93.854 73.457 93.874 73.105 L 93.874 73.105 L 93.874 73.105 Q 94.128 73.74 94.23 74.292 L 94.23 74.292 L 94.23 74.292 Q 94.333 74.844 94.333 75.322 L 94.333 75.322 L 94.333 75.322 Q 94.333 76.201 94.015 76.938 L 94.015 76.938 L 94.015 76.938 Q 93.698 77.676 93.141 78.213 L 93.141 78.213 L 93.141 78.213 Q 92.585 78.75 91.818 79.048 L 91.818 79.048 L 91.818 79.048 Q 91.051 79.346 90.153 79.346 L 90.153 79.346 L 90.153 79.346 Q 89.274 79.346 88.459 79.043 L 88.459 79.043 L 88.459 79.043 Q 87.643 78.74 87.013 78.081 L 87.013 78.081 L 87.013 78.081 Q 86.384 77.422 86.008 76.367 L 86.008 76.367 L 86.008 76.367 Q 85.632 75.313 85.632 73.809 L 85.632 73.809 L 85.632 73.809 Q 85.632 72.178 86.1 70.918 L 86.1 70.918 L 86.1 70.918 Q 86.569 69.658 87.36 68.804 L 87.36 68.804 L 87.36 68.804 Q 88.151 67.949 89.191 67.505 L 89.191 67.505 L 89.191 67.505 Q 90.231 67.061 91.374 67.061 L 91.374 67.061 L 91.374 67.061 Q 91.94 67.061 92.463 67.188 L 92.463 67.188 L 92.463 67.188 Q 92.985 67.314 93.381 67.607 L 93.381 67.607 L 93.381 67.607 Q 93.776 67.9 94.01 68.364 L 94.01 68.364 L 94.01 68.364 Q 94.245 68.828 94.245 69.502 Z  M 89.567 71.729 L 89.567 71.729 L 89.567 71.729 Q 89.841 71.719 90.202 71.616 L 90.202 71.616 L 90.202 71.616 Q 90.563 71.514 90.885 71.328 L 90.885 71.328 L 90.885 71.328 Q 91.208 71.143 91.427 70.869 L 91.427 70.869 L 91.427 70.869 Q 91.647 70.596 91.647 70.244 L 91.647 70.244 L 91.647 70.244 Q 91.647 70.02 91.491 69.883 L 91.491 69.883 L 91.491 69.883 Q 91.335 69.746 91.091 69.746 L 91.091 69.746 L 91.091 69.746 Q 90.749 69.746 90.48 69.941 L 90.48 69.941 L 90.48 69.941 Q 90.212 70.137 90.021 70.43 L 90.021 70.43 L 90.021 70.43 Q 89.831 70.723 89.714 71.074 L 89.714 71.074 L 89.714 71.074 Q 89.596 71.426 89.567 71.729 Z  M 32.751 78.525 L 32.751 78.525 L 32.751 78.525 Q 32.565 78.506 32.321 78.486 L 32.321 78.486 L 32.321 78.486 Q 32.116 78.467 31.813 78.457 L 31.813 78.457 L 31.813 78.457 Q 31.51 78.447 31.13 78.447 L 31.13 78.447 L 31.13 78.447 Q 30.397 78.447 29.377 78.516 L 29.377 78.516 L 29.377 78.516 Q 28.356 78.584 27.135 78.779 L 27.135 78.779 L 27.135 78.779 Q 27.35 78.34 27.507 77.666 L 27.507 77.666 L 27.507 77.666 Q 27.663 76.992 27.765 76.226 L 27.765 76.226 L 27.765 76.226 Q 27.868 75.459 27.926 74.668 L 27.926 74.668 L 27.926 74.668 Q 27.985 73.877 28.014 73.193 L 28.014 73.193 L 28.014 73.193 Q 28.044 72.51 28.049 72.012 L 28.049 72.012 L 28.049 72.012 Q 28.053 71.514 28.053 71.328 L 28.053 71.328 L 28.053 71.328 Q 28.053 71.289 28.049 71.025 L 28.049 71.025 L 28.049 71.025 Q 28.044 70.762 28.034 70.342 L 28.034 70.342 L 28.034 70.342 Q 28.024 69.922 28.005 69.38 L 28.005 69.38 L 28.005 69.38 Q 27.985 68.838 27.951 68.252 L 27.951 68.252 L 27.951 68.252 Q 27.917 67.666 27.863 67.07 L 27.863 67.07 L 27.863 67.07 Q 27.809 66.475 27.736 65.947 L 27.736 65.947 L 27.736 65.947 Q 27.663 65.42 27.57 64.995 L 27.57 64.995 L 27.57 64.995 Q 27.477 64.57 27.35 64.326 L 27.35 64.326 L 27.35 64.326 Q 28.298 64.492 29.137 64.556 L 29.137 64.556 L 29.137 64.556 Q 29.977 64.619 30.671 64.619 L 30.671 64.619 L 30.671 64.619 Q 31.149 64.619 31.54 64.6 L 31.54 64.6 L 31.54 64.6 Q 31.93 64.58 32.204 64.551 L 32.204 64.551 L 32.204 64.551 Q 32.526 64.522 32.77 64.482 L 32.77 64.482 L 32.77 64.482 Q 32.331 65.703 32.15 66.812 L 32.15 66.812 L 32.15 66.812 Q 31.969 67.92 31.969 68.76 L 31.969 68.76 L 31.969 68.76 Q 31.969 69.834 32.253 70.337 L 32.253 70.337 L 32.253 70.337 Q 32.536 70.84 33.034 70.84 L 33.034 70.84 L 33.034 70.84 Q 33.649 70.84 33.903 70.21 L 33.903 70.21 L 33.903 70.21 Q 34.157 69.58 34.157 68.467 L 34.157 68.467 L 34.157 68.467 Q 34.157 67.861 34.098 67.246 L 34.098 67.246 L 34.098 67.246 Q 34.04 66.631 33.927 66.064 L 33.927 66.064 L 33.927 66.064 Q 33.815 65.498 33.664 65 L 33.664 65 L 33.664 65 Q 33.512 64.502 33.337 64.121 L 33.337 64.121 L 33.337 64.121 Q 34.313 64.307 35.163 64.365 L 35.163 64.365 L 35.163 64.365 Q 36.012 64.424 36.676 64.424 L 36.676 64.424 L 36.676 64.424 Q 37.126 64.424 37.477 64.404 L 37.477 64.404 L 37.477 64.404 Q 37.829 64.385 38.083 64.365 L 38.083 64.365 L 38.083 64.365 Q 38.376 64.336 38.591 64.307 L 38.591 64.307 L 38.591 64.307 Q 38.483 64.854 38.39 65.547 L 38.39 65.547 L 38.39 65.547 Q 38.298 66.24 38.229 67.036 L 38.229 67.036 L 38.229 67.036 Q 38.161 67.832 38.127 68.721 L 38.127 68.721 L 38.127 68.721 Q 38.093 69.609 38.093 70.547 L 38.093 70.547 L 38.093 70.547 Q 38.093 71.611 38.141 72.71 L 38.141 72.71 L 38.141 72.71 Q 38.19 73.809 38.302 74.883 L 38.302 74.883 L 38.302 74.883 Q 38.415 75.957 38.586 76.978 L 38.586 76.978 L 38.586 76.978 Q 38.757 77.998 38.991 78.906 L 38.991 78.906 L 38.991 78.906 Q 38.805 78.887 38.561 78.867 L 38.561 78.867 L 38.561 78.867 Q 38.356 78.848 38.053 78.838 L 38.053 78.838 L 38.053 78.838 Q 37.751 78.828 37.37 78.828 L 37.37 78.828 L 37.37 78.828 Q 36.637 78.828 35.617 78.897 L 35.617 78.897 L 35.617 78.897 Q 34.596 78.965 33.376 79.16 L 33.376 79.16 L 33.376 79.16 Q 33.512 78.887 33.639 78.457 L 33.639 78.457 L 33.639 78.457 Q 33.766 78.027 33.864 77.529 L 33.864 77.529 L 33.864 77.529 Q 33.962 77.031 34.02 76.499 L 34.02 76.499 L 34.02 76.499 Q 34.079 75.967 34.079 75.488 L 34.079 75.488 L 34.079 75.488 Q 34.079 74.57 33.82 74.097 L 33.82 74.097 L 33.82 74.097 Q 33.561 73.623 33.093 73.623 L 33.093 73.623 L 33.093 73.623 Q 32.682 73.623 32.428 74.004 L 32.428 74.004 L 32.428 74.004 Q 32.175 74.385 32.175 75.205 L 32.175 75.205 L 32.175 75.205 Q 32.175 75.586 32.223 76.006 L 32.223 76.006 L 32.223 76.006 Q 32.272 76.426 32.35 76.855 L 32.35 76.855 L 32.35 76.855 Q 32.428 77.285 32.536 77.71 L 32.536 77.71 L 32.536 77.71 Q 32.643 78.135 32.751 78.525 Z  M 49.01 72.881 L 49.01 72.881 L 49.01 72.881 Q 49.01 73.447 48.923 74.126 L 48.923 74.126 L 48.923 74.126 Q 48.835 74.805 48.63 75.493 L 48.63 75.493 L 48.63 75.493 Q 48.425 76.182 48.073 76.831 L 48.073 76.831 L 48.073 76.831 Q 47.721 77.48 47.199 77.979 L 47.199 77.979 L 47.199 77.979 Q 46.676 78.477 45.954 78.779 L 45.954 78.779 L 45.954 78.779 Q 45.231 79.082 44.274 79.082 L 44.274 79.082 L 44.274 79.082 Q 43.317 79.082 42.599 78.799 L 42.599 78.799 L 42.599 78.799 Q 41.882 78.516 41.369 78.042 L 41.369 78.042 L 41.369 78.042 Q 40.856 77.568 40.524 76.948 L 40.524 76.948 L 40.524 76.948 Q 40.192 76.328 39.997 75.645 L 39.997 75.645 L 39.997 75.645 Q 39.801 74.961 39.728 74.263 L 39.728 74.263 L 39.728 74.263 Q 39.655 73.564 39.655 72.939 L 39.655 72.939 L 39.655 72.939 Q 39.655 71.836 39.948 70.776 L 39.948 70.776 L 39.948 70.776 Q 40.241 69.717 40.842 68.887 L 40.842 68.887 L 40.842 68.887 Q 41.442 68.057 42.345 67.549 L 42.345 67.549 L 42.345 67.549 Q 43.249 67.041 44.469 67.041 L 44.469 67.041 L 44.469 67.041 Q 45.29 67.041 45.944 67.29 L 45.944 67.29 L 45.944 67.29 Q 46.598 67.539 47.106 67.969 L 47.106 67.969 L 47.106 67.969 Q 47.614 68.398 47.97 68.975 L 47.97 68.975 L 47.97 68.975 Q 48.327 69.551 48.561 70.195 L 48.561 70.195 L 48.561 70.195 Q 48.796 70.84 48.903 71.533 L 48.903 71.533 L 48.903 71.533 Q 49.01 72.227 49.01 72.881 Z  M 45.612 73.203 L 45.612 73.203 L 45.612 73.203 Q 45.612 72.979 45.597 72.642 L 45.597 72.642 L 45.597 72.642 Q 45.583 72.305 45.534 71.934 L 45.534 71.934 L 45.534 71.934 Q 45.485 71.563 45.402 71.191 L 45.402 71.191 L 45.402 71.191 Q 45.319 70.82 45.182 70.527 L 45.182 70.527 L 45.182 70.527 Q 45.046 70.234 44.845 70.049 L 44.845 70.049 L 44.845 70.049 Q 44.645 69.863 44.372 69.863 L 44.372 69.863 L 44.372 69.863 Q 44.108 69.863 43.913 70.039 L 43.913 70.039 L 43.913 70.039 Q 43.718 70.215 43.576 70.498 L 43.576 70.498 L 43.576 70.498 Q 43.434 70.781 43.342 71.138 L 43.342 71.138 L 43.342 71.138 Q 43.249 71.494 43.195 71.851 L 43.195 71.851 L 43.195 71.851 Q 43.141 72.207 43.117 72.534 L 43.117 72.534 L 43.117 72.534 Q 43.093 72.861 43.093 73.086 L 43.093 73.086 L 43.093 73.086 Q 43.093 73.408 43.141 73.867 L 43.141 73.867 L 43.141 73.867 Q 43.19 74.326 43.327 74.746 L 43.327 74.746 L 43.327 74.746 Q 43.464 75.166 43.703 75.464 L 43.703 75.464 L 43.703 75.464 Q 43.942 75.762 44.333 75.762 L 44.333 75.762 L 44.333 75.762 Q 44.704 75.762 44.953 75.488 L 44.953 75.488 L 44.953 75.488 Q 45.202 75.215 45.348 74.819 L 45.348 74.819 L 45.348 74.819 Q 45.495 74.424 45.553 73.984 L 45.553 73.984 L 45.553 73.984 Q 45.612 73.545 45.612 73.203 Z  M 53.893 66.787 L 53.893 66.787 L 53.893 66.787 Q 53.766 67.705 53.718 68.438 L 53.718 68.438 L 53.718 68.438 Q 53.669 69.17 53.669 69.844 L 53.669 69.844 L 53.669 69.844 Q 53.669 70.488 53.713 71.123 L 53.713 71.123 L 53.713 71.123 Q 53.757 71.758 53.835 72.48 L 53.835 72.48 L 53.835 72.48 Q 54.245 71.592 54.64 70.625 L 54.64 70.625 L 54.64 70.625 Q 55.036 69.658 55.436 68.623 L 55.436 68.623 L 55.436 68.623 Q 55.827 69.775 56.237 70.762 L 56.237 70.762 L 56.237 70.762 Q 56.647 71.748 57.116 72.666 L 57.116 72.666 L 57.116 72.666 Q 57.165 71.992 57.199 71.348 L 57.199 71.348 L 57.199 71.348 Q 57.233 70.703 57.233 70.02 L 57.233 70.02 L 57.233 70.02 Q 57.233 69.404 57.189 68.735 L 57.189 68.735 L 57.189 68.735 Q 57.145 68.066 57.009 67.305 L 57.009 67.305 L 57.009 67.305 Q 57.643 67.334 58.234 67.378 L 58.234 67.378 L 58.234 67.378 Q 58.825 67.422 59.411 67.422 L 59.411 67.422 L 59.411 67.422 Q 59.928 67.422 60.441 67.373 L 60.441 67.373 L 60.441 67.373 Q 60.954 67.324 61.53 67.188 L 61.53 67.188 L 61.53 67.188 Q 60.739 69.961 60.392 72.9 L 60.392 72.9 L 60.392 72.9 Q 60.046 75.84 59.968 78.945 L 59.968 78.945 L 59.968 78.945 Q 59.206 78.809 58.61 78.755 L 58.61 78.755 L 58.61 78.755 Q 58.014 78.701 57.594 78.701 L 57.594 78.701 L 57.594 78.701 Q 57.301 78.701 57.082 78.721 L 57.082 78.721 L 57.082 78.721 Q 56.862 78.74 56.725 78.76 L 56.725 78.76 L 56.725 78.76 Q 56.559 78.789 56.452 78.809 L 56.452 78.809 L 56.452 78.809 Q 56.354 78.105 56.252 77.407 L 56.252 77.407 L 56.252 77.407 Q 56.149 76.709 56.017 76.064 L 56.017 76.064 L 56.017 76.064 Q 55.885 75.42 55.71 74.854 L 55.71 74.854 L 55.71 74.854 Q 55.534 74.287 55.29 73.848 L 55.29 73.848 L 55.29 73.848 Q 55.114 74.346 54.982 74.858 L 54.982 74.858 L 54.982 74.858 Q 54.85 75.371 54.762 75.933 L 54.762 75.933 L 54.762 75.933 Q 54.675 76.494 54.635 77.139 L 54.635 77.139 L 54.635 77.139 Q 54.596 77.783 54.596 78.545 L 54.596 78.545 L 54.596 78.545 Q 54.108 78.486 53.678 78.467 L 53.678 78.467 L 53.678 78.467 Q 53.249 78.447 52.868 78.447 L 52.868 78.447 L 52.868 78.447 Q 52.399 78.447 52.033 78.472 L 52.033 78.472 L 52.033 78.472 Q 51.667 78.496 51.413 78.525 L 51.413 78.525 L 51.413 78.525 Q 51.11 78.564 50.895 78.604 L 50.895 78.604 L 50.895 78.604 Q 50.866 77.568 50.783 76.431 L 50.783 76.431 L 50.783 76.431 Q 50.7 75.293 50.573 74.15 L 50.573 74.15 L 50.573 74.15 Q 50.446 73.008 50.295 71.914 L 50.295 71.914 L 50.295 71.914 Q 50.143 70.82 49.982 69.863 L 49.982 69.863 L 49.982 69.863 Q 49.821 68.906 49.665 68.145 L 49.665 68.145 L 49.665 68.145 Q 49.509 67.383 49.372 66.904 L 49.372 66.904 L 49.372 66.904 Q 49.567 66.934 49.821 66.963 L 49.821 66.963 L 49.821 66.963 Q 50.046 66.982 50.358 67.002 L 50.358 67.002 L 50.358 67.002 Q 50.671 67.022 51.091 67.022 L 51.091 67.022 L 51.091 67.022 Q 51.647 67.022 52.345 66.973 L 52.345 66.973 L 52.345 66.973 Q 53.044 66.924 53.893 66.787 Z " fill-rule="evenodd" fill="rgb(255,255,255)"/><path d=" M 5.096 169.681 C 1.938 166.413 0 161.963 0 157.063 C 0 157.063 0 157.063 0 157.063 L 0 18.22 C 0 8.164 8.164 0 18.22 0 L 103.248 0 C 109.137 0 114.377 2.8 117.707 7.142 C 85.252 68.101 47.74 122.306 5.096 169.681 Z " fill="rgb(255,255,255)" fill-opacity="0.05"/></g></g></svg>