<?xml version="1.0" standalone="no"?><!-- Generator: Gravit.io --><svg xmlns="http://www.w3.org/2000/svg" xmlns:xlink="http://www.w3.org/1999/xlink" style="isolation:isolate" viewBox="0 0 121.468 175.283" width="121.468" height="175.283"><defs><clipPath id="_clipPath_XgbYFuEbXPPRliQmYcn709LHCTDRkYOo"><rect width="121.468" height="175.283"/></clipPath></defs><g clip-path="url(#_clipPath_XgbYFuEbXPPRliQmYcn709LHCTDRkYOo)"><g id="card-flipped - english"><path d="M 18.22 0 L 103.248 0 C 113.304 0 121.468 8.164 121.468 18.22 L 121.468 157.063 C 121.468 167.119 113.304 175.283 103.248 175.283 L 18.22 175.283 C 8.164 175.283 0 167.119 0 157.063 L 0 18.22 C 0 8.164 8.164 0 18.22 0 Z" style="stroke:none;fill:#8A85B9;stroke-miterlimit:10;"/><path d=" M 30.314 106.304 L 30.314 106.304 L 30.314 106.304 Q 30.148 106.284 29.904 106.265 L 29.904 106.265 L 29.904 106.265 Q 29.699 106.245 29.401 106.235 L 29.401 106.235 L 29.401 106.235 Q 29.103 106.226 28.732 106.226 L 28.732 106.226 L 28.732 106.226 Q 28.009 106.226 27.013 106.294 L 27.013 106.294 L 27.013 106.294 Q 26.017 106.362 24.797 106.558 L 24.797 106.558 L 24.797 106.558 Q 25.314 104.38 25.514 102.29 L 25.514 102.29 L 25.514 102.29 Q 25.715 100.2 25.715 98.267 L 25.715 98.267 L 25.715 98.267 Q 25.715 96.509 25.578 94.961 L 25.578 94.961 L 25.578 94.961 Q 25.441 93.413 25.217 92.105 L 25.217 92.105 L 25.217 92.105 Q 26.193 92.28 26.969 92.339 L 26.969 92.339 L 26.969 92.339 Q 27.746 92.397 28.312 92.397 L 28.312 92.397 L 28.312 92.397 Q 28.703 92.397 29.001 92.378 L 29.001 92.378 L 29.001 92.378 Q 29.299 92.358 29.494 92.339 L 29.494 92.339 L 29.494 92.339 Q 29.728 92.31 29.894 92.28 L 29.894 92.28 L 29.894 92.28 Q 30.226 94.194 30.724 96.064 L 30.724 96.064 L 30.724 96.064 Q 31.222 97.935 31.955 99.819 L 31.955 99.819 L 31.955 99.819 Q 32.57 97.915 32.931 96.006 L 32.931 96.006 L 32.931 96.006 Q 33.293 94.097 33.42 92.105 L 33.42 92.105 L 33.498 92.28 L 33.42 92.105 L 33.42 92.105 Q 34.396 92.28 35.197 92.339 L 35.197 92.339 L 35.197 92.339 Q 35.998 92.397 36.613 92.397 L 36.613 92.397 L 36.613 92.397 Q 37.023 92.397 37.336 92.378 L 37.336 92.378 L 37.336 92.378 Q 37.648 92.358 37.873 92.339 L 37.873 92.339 L 37.873 92.339 Q 38.127 92.31 38.312 92.28 L 38.312 92.28 L 38.312 92.28 Q 38.107 93.257 38 94.59 L 38 94.59 L 38 94.59 Q 37.892 95.923 37.892 97.446 L 37.892 97.446 L 37.892 97.446 Q 37.892 98.53 37.951 99.678 L 37.951 99.678 L 37.951 99.678 Q 38.009 100.825 38.132 101.963 L 38.132 101.963 L 38.132 101.963 Q 38.254 103.101 38.449 104.204 L 38.449 104.204 L 38.449 104.204 Q 38.644 105.308 38.918 106.304 L 38.918 106.304 L 38.918 106.304 Q 38.722 106.284 38.468 106.265 L 38.468 106.265 L 38.468 106.265 Q 38.244 106.245 37.941 106.235 L 37.941 106.235 L 37.941 106.235 Q 37.638 106.226 37.238 106.226 L 37.238 106.226 L 37.238 106.226 Q 36.476 106.226 35.446 106.294 L 35.446 106.294 L 35.446 106.294 Q 34.416 106.362 33.195 106.558 L 33.195 106.558 L 33.195 106.558 Q 33.439 106.069 33.6 105.308 L 33.6 105.308 L 33.6 105.308 Q 33.761 104.546 33.864 103.687 L 33.864 103.687 L 33.864 103.687 Q 33.967 102.827 34.02 101.973 L 34.02 101.973 L 34.02 101.973 Q 34.074 101.118 34.093 100.444 L 34.093 100.444 L 34.093 100.444 Q 33.81 101.05 33.547 101.675 L 33.547 101.675 L 33.547 101.675 Q 33.283 102.3 33.005 103.008 L 33.005 103.008 L 33.005 103.008 Q 32.726 103.716 32.424 104.536 L 32.424 104.536 L 32.424 104.536 Q 32.121 105.356 31.759 106.362 L 31.759 106.362 L 31.759 106.362 Q 31.388 105.356 31.086 104.536 L 31.086 104.536 L 31.086 104.536 Q 30.783 103.716 30.514 103.013 L 30.514 103.013 L 30.514 103.013 Q 30.246 102.31 29.987 101.68 L 29.987 101.68 L 29.987 101.68 Q 29.728 101.05 29.455 100.425 L 29.455 100.425 L 29.455 100.425 Q 29.543 101.968 29.748 103.467 L 29.748 103.467 L 29.748 103.467 Q 29.953 104.966 30.314 106.304 Z  M 48.908 100.659 L 48.908 100.659 L 48.908 100.659 Q 48.908 101.226 48.82 101.904 L 48.82 101.904 L 48.82 101.904 Q 48.732 102.583 48.527 103.271 L 48.527 103.271 L 48.527 103.271 Q 48.322 103.96 47.97 104.609 L 47.97 104.609 L 47.97 104.609 Q 47.619 105.259 47.096 105.757 L 47.096 105.757 L 47.096 105.757 Q 46.574 106.255 45.851 106.558 L 45.851 106.558 L 45.851 106.558 Q 45.129 106.86 44.172 106.86 L 44.172 106.86 L 44.172 106.86 Q 43.215 106.86 42.497 106.577 L 42.497 106.577 L 42.497 106.577 Q 41.779 106.294 41.266 105.82 L 41.266 105.82 L 41.266 105.82 Q 40.754 105.347 40.422 104.727 L 40.422 104.727 L 40.422 104.727 Q 40.09 104.106 39.894 103.423 L 39.894 103.423 L 39.894 103.423 Q 39.699 102.739 39.626 102.041 L 39.626 102.041 L 39.626 102.041 Q 39.552 101.343 39.552 100.718 L 39.552 100.718 L 39.552 100.718 Q 39.552 99.614 39.845 98.555 L 39.845 98.555 L 39.845 98.555 Q 40.138 97.495 40.739 96.665 L 40.739 96.665 L 40.739 96.665 Q 41.34 95.835 42.243 95.327 L 42.243 95.327 L 42.243 95.327 Q 43.146 94.819 44.367 94.819 L 44.367 94.819 L 44.367 94.819 Q 45.187 94.819 45.842 95.068 L 45.842 95.068 L 45.842 95.068 Q 46.496 95.317 47.004 95.747 L 47.004 95.747 L 47.004 95.747 Q 47.511 96.177 47.868 96.753 L 47.868 96.753 L 47.868 96.753 Q 48.224 97.329 48.459 97.974 L 48.459 97.974 L 48.459 97.974 Q 48.693 98.618 48.801 99.312 L 48.801 99.312 L 48.801 99.312 Q 48.908 100.005 48.908 100.659 Z  M 45.509 100.981 L 45.509 100.981 L 45.509 100.981 Q 45.509 100.757 45.495 100.42 L 45.495 100.42 L 45.495 100.42 Q 45.48 100.083 45.431 99.712 L 45.431 99.712 L 45.431 99.712 Q 45.383 99.341 45.3 98.97 L 45.3 98.97 L 45.3 98.97 Q 45.217 98.599 45.08 98.306 L 45.08 98.306 L 45.08 98.306 Q 44.943 98.013 44.743 97.827 L 44.743 97.827 L 44.743 97.827 Q 44.543 97.642 44.269 97.642 L 44.269 97.642 L 44.269 97.642 Q 44.006 97.642 43.81 97.817 L 43.81 97.817 L 43.81 97.817 Q 43.615 97.993 43.473 98.276 L 43.473 98.276 L 43.473 98.276 Q 43.332 98.56 43.239 98.916 L 43.239 98.916 L 43.239 98.916 Q 43.146 99.272 43.093 99.629 L 43.093 99.629 L 43.093 99.629 Q 43.039 99.985 43.014 100.313 L 43.014 100.313 L 43.014 100.313 Q 42.99 100.64 42.99 100.864 L 42.99 100.864 L 42.99 100.864 Q 42.99 101.187 43.039 101.646 L 43.039 101.646 L 43.039 101.646 Q 43.088 102.105 43.224 102.524 L 43.224 102.524 L 43.224 102.524 Q 43.361 102.944 43.6 103.242 L 43.6 103.242 L 43.6 103.242 Q 43.84 103.54 44.23 103.54 L 44.23 103.54 L 44.23 103.54 Q 44.601 103.54 44.85 103.267 L 44.85 103.267 L 44.85 103.267 Q 45.099 102.993 45.246 102.598 L 45.246 102.598 L 45.246 102.598 Q 45.392 102.202 45.451 101.763 L 45.451 101.763 L 45.451 101.763 Q 45.509 101.323 45.509 100.981 Z  M 54.992 97.505 L 54.992 97.505 L 54.992 97.505 Q 54.689 97.505 54.445 97.676 L 54.445 97.676 L 54.445 97.676 Q 54.201 97.847 54.01 98.154 L 54.01 98.154 L 54.01 98.154 Q 53.82 98.462 53.678 98.892 L 53.678 98.892 L 53.678 98.892 Q 53.537 99.321 53.449 99.839 L 53.449 99.839 L 53.449 99.839 Q 53.449 100.669 53.488 101.519 L 53.488 101.519 L 53.488 101.519 Q 53.527 102.368 53.615 103.198 L 53.615 103.198 L 53.615 103.198 Q 53.703 104.028 53.844 104.819 L 53.844 104.819 L 53.844 104.819 Q 53.986 105.61 54.191 106.323 L 54.191 106.323 L 54.191 106.323 Q 54.035 106.313 53.83 106.294 L 53.83 106.294 L 53.83 106.294 Q 53.654 106.284 53.405 106.274 L 53.405 106.274 L 53.405 106.274 Q 53.156 106.265 52.834 106.265 L 52.834 106.265 L 52.834 106.265 Q 52.228 106.265 51.432 106.318 L 51.432 106.318 L 51.432 106.318 Q 50.636 106.372 49.67 106.519 L 49.67 106.519 L 49.67 106.519 Q 49.787 105.972 49.875 105.181 L 49.875 105.181 L 49.875 105.181 Q 49.963 104.39 50.021 103.462 L 50.021 103.462 L 50.021 103.462 Q 50.08 102.534 50.114 101.523 L 50.114 101.523 L 50.114 101.523 Q 50.148 100.513 50.148 99.526 L 50.148 99.526 L 50.148 99.526 Q 50.148 98.794 50.129 98.091 L 50.129 98.091 L 50.129 98.091 Q 50.109 97.388 50.075 96.763 L 50.075 96.763 L 50.075 96.763 Q 50.041 96.138 49.982 95.61 L 49.982 95.61 L 49.982 95.61 Q 49.924 95.083 49.845 94.702 L 49.845 94.702 L 49.845 94.702 Q 50.636 94.839 51.286 94.893 L 51.286 94.893 L 51.286 94.893 Q 51.935 94.946 52.453 94.946 L 52.453 94.946 L 52.453 94.946 Q 52.785 94.946 53.039 94.932 L 53.039 94.932 L 53.039 94.932 Q 53.293 94.917 53.478 94.897 L 53.478 94.897 L 53.478 94.897 Q 53.683 94.868 53.849 94.839 L 53.849 94.839 L 53.849 94.839 Q 53.732 95.327 53.674 95.923 L 53.674 95.923 L 53.674 95.923 Q 54.181 95.308 54.782 95.015 L 54.782 95.015 L 54.782 95.015 Q 55.383 94.722 55.91 94.722 L 55.91 94.722 L 55.91 94.722 Q 56.789 94.722 57.394 95.039 L 57.394 95.039 L 57.394 95.039 Q 58 95.356 58.371 95.869 L 58.371 95.869 L 58.371 95.869 Q 58.742 96.382 58.908 97.036 L 58.908 97.036 L 58.908 97.036 Q 59.074 97.69 59.074 98.364 L 59.074 98.364 L 59.074 98.364 Q 59.074 99.019 58.888 99.644 L 58.888 99.644 L 58.888 99.644 Q 58.703 100.269 58.351 100.762 L 58.351 100.762 L 58.351 100.762 Q 58 101.255 57.482 101.558 L 57.482 101.558 L 57.482 101.558 Q 56.965 101.86 56.31 101.86 L 56.31 101.86 L 56.31 101.86 Q 55.734 101.86 55.329 101.665 L 55.329 101.665 L 55.329 101.665 Q 54.924 101.47 54.66 101.157 L 54.66 101.157 L 54.66 101.157 Q 54.396 100.845 54.274 100.469 L 54.274 100.469 L 54.274 100.469 Q 54.152 100.093 54.152 99.722 L 54.152 99.722 L 54.152 99.722 Q 54.152 99.331 54.264 98.96 L 54.264 98.96 L 54.264 98.96 Q 54.377 98.589 54.592 98.286 L 54.592 98.286 L 54.592 98.286 Q 54.66 98.501 54.762 98.613 L 54.762 98.613 L 54.762 98.613 Q 54.865 98.726 54.972 98.774 L 54.972 98.774 L 54.972 98.774 Q 55.09 98.833 55.226 98.843 L 55.226 98.843 L 55.226 98.843 Q 55.588 98.843 55.768 98.677 L 55.768 98.677 L 55.768 98.677 Q 55.949 98.511 55.949 98.286 L 55.949 98.286 L 55.949 98.286 Q 55.949 98.179 55.91 98.042 L 55.91 98.042 L 55.91 98.042 Q 55.871 97.905 55.768 97.788 L 55.768 97.788 L 55.768 97.788 Q 55.666 97.671 55.48 97.588 L 55.48 97.588 L 55.48 97.588 Q 55.295 97.505 54.992 97.505 Z  M 69.709 106.558 L 69.709 106.558 L 69.709 106.558 Q 69.406 106.509 69.045 106.494 L 69.045 106.494 L 69.045 106.494 Q 68.683 106.48 68.293 106.48 L 68.293 106.48 L 68.293 106.48 Q 67.824 106.48 67.341 106.504 L 67.341 106.504 L 67.341 106.504 Q 66.857 106.528 66.398 106.567 L 66.398 106.567 L 66.398 106.567 Q 65.939 106.606 65.529 106.655 L 65.529 106.655 L 65.529 106.655 Q 65.119 106.704 64.816 106.743 L 64.816 106.743 L 64.816 106.743 Q 65.236 105.327 65.466 103.716 L 65.466 103.716 L 65.466 103.716 Q 65.695 102.105 65.695 100.142 L 65.695 100.142 L 65.695 100.142 Q 65.695 99.995 65.69 99.751 L 65.69 99.751 L 65.69 99.751 Q 65.685 99.507 65.666 99.224 L 65.666 99.224 L 65.666 99.224 Q 65.646 98.94 65.602 98.652 L 65.602 98.652 L 65.602 98.652 Q 65.558 98.364 65.475 98.13 L 65.475 98.13 L 65.475 98.13 Q 65.392 97.896 65.265 97.749 L 65.265 97.749 L 65.265 97.749 Q 65.138 97.603 64.953 97.603 L 64.953 97.603 L 64.953 97.603 Q 64.679 97.603 64.421 97.798 L 64.421 97.798 L 64.421 97.798 Q 64.162 97.993 63.962 98.315 L 63.962 98.315 L 63.962 98.315 Q 63.761 98.638 63.639 99.058 L 63.639 99.058 L 63.639 99.058 Q 63.517 99.478 63.517 99.927 L 63.517 99.927 L 63.517 99.927 Q 63.517 100.737 63.556 101.572 L 63.556 101.572 L 63.556 101.572 Q 63.595 102.407 63.683 103.228 L 63.683 103.228 L 63.683 103.228 Q 63.771 104.048 63.908 104.834 L 63.908 104.834 L 63.908 104.834 Q 64.045 105.62 64.25 106.323 L 64.25 106.323 L 64.25 106.323 Q 64.084 106.313 63.859 106.294 L 63.859 106.294 L 63.859 106.294 Q 63.664 106.284 63.4 106.274 L 63.4 106.274 L 63.4 106.274 Q 63.136 106.265 62.795 106.265 L 62.795 106.265 L 62.795 106.265 Q 62.16 106.265 61.33 106.318 L 61.33 106.318 L 61.33 106.318 Q 60.5 106.372 59.533 106.519 L 59.533 106.519 L 59.533 106.519 Q 59.65 105.972 59.738 105.181 L 59.738 105.181 L 59.738 105.181 Q 59.826 104.39 59.884 103.462 L 59.884 103.462 L 59.884 103.462 Q 59.943 102.534 59.977 101.523 L 59.977 101.523 L 59.977 101.523 Q 60.011 100.513 60.011 99.526 L 60.011 99.526 L 60.011 99.526 Q 60.011 98.794 59.992 98.091 L 59.992 98.091 L 59.992 98.091 Q 59.972 97.388 59.938 96.763 L 59.938 96.763 L 59.938 96.763 Q 59.904 96.138 59.845 95.61 L 59.845 95.61 L 59.845 95.61 Q 59.787 95.083 59.709 94.702 L 59.709 94.702 L 59.709 94.702 Q 60.5 94.839 61.174 94.893 L 61.174 94.893 L 61.174 94.893 Q 61.847 94.946 62.394 94.946 L 62.394 94.946 L 62.394 94.946 Q 62.746 94.946 63.024 94.932 L 63.024 94.932 L 63.024 94.932 Q 63.302 94.917 63.498 94.897 L 63.498 94.897 L 63.498 94.897 Q 63.732 94.868 63.908 94.839 L 63.908 94.839 L 63.908 94.839 Q 63.849 95.142 63.796 95.483 L 63.796 95.483 L 63.796 95.483 Q 63.742 95.825 63.693 96.226 L 63.693 96.226 L 63.693 96.226 Q 64.015 95.815 64.377 95.508 L 64.377 95.508 L 64.377 95.508 Q 64.738 95.2 65.104 94.995 L 65.104 94.995 L 65.104 94.995 Q 65.47 94.79 65.832 94.688 L 65.832 94.688 L 65.832 94.688 Q 66.193 94.585 66.515 94.585 L 66.515 94.585 L 66.515 94.585 Q 67.218 94.585 67.731 94.873 L 67.731 94.873 L 67.731 94.873 Q 68.244 95.161 68.581 95.776 L 68.581 95.776 L 68.581 95.776 Q 68.918 96.392 69.084 97.349 L 69.084 97.349 L 69.084 97.349 Q 69.25 98.306 69.25 99.644 L 69.25 99.644 L 69.25 99.644 Q 69.25 100.562 69.255 101.509 L 69.255 101.509 L 69.255 101.509 Q 69.259 102.456 69.299 103.364 L 69.299 103.364 L 69.299 103.364 Q 69.338 104.272 69.435 105.088 L 69.435 105.088 L 69.435 105.088 Q 69.533 105.903 69.709 106.558 Z  M 75.051 106.323 L 75.051 106.323 L 75.051 106.323 Q 74.884 106.313 74.66 106.294 L 74.66 106.294 L 74.66 106.294 Q 74.465 106.284 74.201 106.274 L 74.201 106.274 L 74.201 106.274 Q 73.937 106.265 73.595 106.265 L 73.595 106.265 L 73.595 106.265 Q 72.961 106.265 72.131 106.318 L 72.131 106.318 L 72.131 106.318 Q 71.301 106.372 70.334 106.519 L 70.334 106.519 L 70.334 106.519 Q 70.519 106.147 70.646 105.586 L 70.646 105.586 L 70.646 105.586 Q 70.773 105.024 70.856 104.385 L 70.856 104.385 L 70.856 104.385 Q 70.939 103.745 70.983 103.091 L 70.983 103.091 L 70.983 103.091 Q 71.027 102.437 71.047 101.89 L 71.047 101.89 L 71.047 101.89 Q 71.066 101.343 71.071 100.962 L 71.071 100.962 L 71.071 100.962 Q 71.076 100.581 71.076 100.483 L 71.076 100.483 L 71.076 100.483 Q 71.056 99.214 70.988 98.11 L 70.988 98.11 L 70.988 98.11 Q 70.959 97.642 70.915 97.163 L 70.915 97.163 L 70.915 97.163 Q 70.871 96.685 70.812 96.26 L 70.812 96.26 L 70.812 96.26 Q 70.754 95.835 70.68 95.498 L 70.68 95.498 L 70.68 95.498 Q 70.607 95.161 70.509 94.966 L 70.509 94.966 L 70.509 94.966 Q 71.301 95.103 71.974 95.151 L 71.974 95.151 L 71.974 95.151 Q 72.648 95.2 73.195 95.2 L 73.195 95.2 L 73.195 95.2 Q 73.547 95.2 73.825 95.186 L 73.825 95.186 L 73.825 95.186 Q 74.103 95.171 74.299 95.151 L 74.299 95.151 L 74.299 95.151 Q 74.533 95.132 74.709 95.103 L 74.709 95.103 L 74.709 95.103 Q 74.533 95.981 74.421 97.222 L 74.421 97.222 L 74.421 97.222 Q 74.308 98.462 74.308 99.878 L 74.308 99.878 L 74.308 99.878 Q 74.308 100.688 74.347 101.519 L 74.347 101.519 L 74.347 101.519 Q 74.386 102.349 74.474 103.174 L 74.474 103.174 L 74.474 103.174 Q 74.562 103.999 74.704 104.795 L 74.704 104.795 L 74.704 104.795 Q 74.845 105.591 75.051 106.323 Z  M 70.568 92.358 L 70.568 92.358 L 70.568 92.358 Q 70.568 91.909 70.739 91.514 L 70.739 91.514 L 70.739 91.514 Q 70.91 91.118 71.208 90.82 L 71.208 90.82 L 71.208 90.82 Q 71.506 90.522 71.906 90.352 L 71.906 90.352 L 71.906 90.352 Q 72.306 90.181 72.756 90.181 L 72.756 90.181 L 72.756 90.181 Q 73.205 90.181 73.6 90.352 L 73.6 90.352 L 73.6 90.352 Q 73.996 90.522 74.294 90.82 L 74.294 90.82 L 74.294 90.82 Q 74.592 91.118 74.762 91.514 L 74.762 91.514 L 74.762 91.514 Q 74.933 91.909 74.933 92.358 L 74.933 92.358 L 74.933 92.358 Q 74.933 92.808 74.762 93.208 L 74.762 93.208 L 74.762 93.208 Q 74.592 93.608 74.294 93.906 L 74.294 93.906 L 74.294 93.906 Q 73.996 94.204 73.6 94.375 L 73.6 94.375 L 73.6 94.375 Q 73.205 94.546 72.756 94.546 L 72.756 94.546 L 72.756 94.546 Q 72.306 94.546 71.906 94.375 L 71.906 94.375 L 71.906 94.375 Q 71.506 94.204 71.208 93.906 L 71.208 93.906 L 71.208 93.906 Q 70.91 93.608 70.739 93.208 L 70.739 93.208 L 70.739 93.208 Q 70.568 92.808 70.568 92.358 Z  M 85.949 106.558 L 85.949 106.558 L 85.949 106.558 Q 85.646 106.509 85.285 106.494 L 85.285 106.494 L 85.285 106.494 Q 84.924 106.48 84.533 106.48 L 84.533 106.48 L 84.533 106.48 Q 84.064 106.48 83.581 106.504 L 83.581 106.504 L 83.581 106.504 Q 83.097 106.528 82.638 106.567 L 82.638 106.567 L 82.638 106.567 Q 82.179 106.606 81.769 106.655 L 81.769 106.655 L 81.769 106.655 Q 81.359 106.704 81.056 106.743 L 81.056 106.743 L 81.056 106.743 Q 81.476 105.327 81.706 103.716 L 81.706 103.716 L 81.706 103.716 Q 81.935 102.105 81.935 100.142 L 81.935 100.142 L 81.935 100.142 Q 81.935 99.995 81.93 99.751 L 81.93 99.751 L 81.93 99.751 Q 81.926 99.507 81.906 99.224 L 81.906 99.224 L 81.906 99.224 Q 81.886 98.94 81.842 98.652 L 81.842 98.652 L 81.842 98.652 Q 81.799 98.364 81.716 98.13 L 81.716 98.13 L 81.716 98.13 Q 81.633 97.896 81.506 97.749 L 81.506 97.749 L 81.506 97.749 Q 81.379 97.603 81.193 97.603 L 81.193 97.603 L 81.193 97.603 Q 80.92 97.603 80.661 97.798 L 80.661 97.798 L 80.661 97.798 Q 80.402 97.993 80.202 98.315 L 80.202 98.315 L 80.202 98.315 Q 80.002 98.638 79.88 99.058 L 79.88 99.058 L 79.88 99.058 Q 79.758 99.478 79.758 99.927 L 79.758 99.927 L 79.758 99.927 Q 79.758 100.737 79.797 101.572 L 79.797 101.572 L 79.797 101.572 Q 79.836 102.407 79.924 103.228 L 79.924 103.228 L 79.924 103.228 Q 80.011 104.048 80.148 104.834 L 80.148 104.834 L 80.148 104.834 Q 80.285 105.62 80.49 106.323 L 80.49 106.323 L 80.49 106.323 Q 80.324 106.313 80.099 106.294 L 80.099 106.294 L 80.099 106.294 Q 79.904 106.284 79.64 106.274 L 79.64 106.274 L 79.64 106.274 Q 79.377 106.265 79.035 106.265 L 79.035 106.265 L 79.035 106.265 Q 78.4 106.265 77.57 106.318 L 77.57 106.318 L 77.57 106.318 Q 76.74 106.372 75.773 106.519 L 75.773 106.519 L 75.773 106.519 Q 75.89 105.972 75.978 105.181 L 75.978 105.181 L 75.978 105.181 Q 76.066 104.39 76.125 103.462 L 76.125 103.462 L 76.125 103.462 Q 76.183 102.534 76.217 101.523 L 76.217 101.523 L 76.217 101.523 Q 76.252 100.513 76.252 99.526 L 76.252 99.526 L 76.252 99.526 Q 76.252 98.794 76.232 98.091 L 76.232 98.091 L 76.232 98.091 Q 76.213 97.388 76.178 96.763 L 76.178 96.763 L 76.178 96.763 Q 76.144 96.138 76.086 95.61 L 76.086 95.61 L 76.086 95.61 Q 76.027 95.083 75.949 94.702 L 75.949 94.702 L 75.949 94.702 Q 76.74 94.839 77.414 94.893 L 77.414 94.893 L 77.414 94.893 Q 78.088 94.946 78.634 94.946 L 78.634 94.946 L 78.634 94.946 Q 78.986 94.946 79.264 94.932 L 79.264 94.932 L 79.264 94.932 Q 79.543 94.917 79.738 94.897 L 79.738 94.897 L 79.738 94.897 Q 79.972 94.868 80.148 94.839 L 80.148 94.839 L 80.148 94.839 Q 80.09 95.142 80.036 95.483 L 80.036 95.483 L 80.036 95.483 Q 79.982 95.825 79.933 96.226 L 79.933 96.226 L 79.933 96.226 Q 80.256 95.815 80.617 95.508 L 80.617 95.508 L 80.617 95.508 Q 80.978 95.2 81.344 94.995 L 81.344 94.995 L 81.344 94.995 Q 81.711 94.79 82.072 94.688 L 82.072 94.688 L 82.072 94.688 Q 82.433 94.585 82.756 94.585 L 82.756 94.585 L 82.756 94.585 Q 83.459 94.585 83.971 94.873 L 83.971 94.873 L 83.971 94.873 Q 84.484 95.161 84.821 95.776 L 84.821 95.776 L 84.821 95.776 Q 85.158 96.392 85.324 97.349 L 85.324 97.349 L 85.324 97.349 Q 85.49 98.306 85.49 99.644 L 85.49 99.644 L 85.49 99.644 Q 85.49 100.562 85.495 101.509 L 85.495 101.509 L 85.495 101.509 Q 85.5 102.456 85.539 103.364 L 85.539 103.364 L 85.539 103.364 Q 85.578 104.272 85.676 105.088 L 85.676 105.088 L 85.676 105.088 Q 85.773 105.903 85.949 106.558 Z  M 96.672 95.142 L 96.672 95.142 L 96.672 95.142 Q 96.564 95.552 96.491 96.143 L 96.491 96.143 L 96.491 96.143 Q 96.418 96.733 96.359 97.432 L 96.359 97.432 L 96.359 97.432 Q 96.301 98.13 96.266 98.882 L 96.266 98.882 L 96.266 98.882 Q 96.232 99.634 96.203 100.356 L 96.203 100.356 L 96.203 100.356 Q 96.144 102.056 96.134 103.96 L 96.134 103.96 L 96.134 103.96 Q 96.134 104.956 96.012 105.908 L 96.012 105.908 L 96.012 105.908 Q 95.89 106.86 95.622 107.7 L 95.622 107.7 L 95.622 107.7 Q 95.353 108.54 94.924 109.253 L 94.924 109.253 L 94.924 109.253 Q 94.494 109.966 93.884 110.474 L 93.884 110.474 L 93.884 110.474 Q 93.273 110.981 92.472 111.27 L 92.472 111.27 L 92.472 111.27 Q 91.672 111.558 90.656 111.558 L 90.656 111.558 L 90.656 111.558 Q 89.709 111.558 89.015 111.362 L 89.015 111.362 L 89.015 111.362 Q 88.322 111.167 87.868 110.811 L 87.868 110.811 L 87.868 110.811 Q 87.414 110.454 87.194 109.961 L 87.194 109.961 L 87.194 109.961 Q 86.974 109.468 86.974 108.862 L 86.974 108.862 L 86.974 108.862 Q 86.974 108.267 87.179 107.788 L 87.179 107.788 L 87.179 107.788 Q 87.384 107.31 87.717 106.973 L 87.717 106.973 L 87.717 106.973 Q 88.049 106.636 88.464 106.46 L 88.464 106.46 L 88.464 106.46 Q 88.879 106.284 89.308 106.284 L 89.308 106.284 L 89.308 106.284 Q 89.865 106.284 90.353 106.597 L 90.353 106.597 L 90.353 106.597 Q 90.842 106.909 91.095 107.583 L 91.095 107.583 L 91.095 107.583 Q 90.978 107.505 90.812 107.505 L 90.812 107.505 L 90.812 107.505 Q 90.588 107.505 90.392 107.686 L 90.392 107.686 L 90.392 107.686 Q 90.197 107.866 90.197 108.12 L 90.197 108.12 L 90.197 108.12 Q 90.197 108.267 90.251 108.369 L 90.251 108.369 L 90.251 108.369 Q 90.304 108.472 90.392 108.53 L 90.392 108.53 L 90.392 108.53 Q 90.48 108.589 90.583 108.613 L 90.583 108.613 L 90.583 108.613 Q 90.685 108.638 90.773 108.638 L 90.773 108.638 L 90.773 108.638 Q 90.881 108.638 91.071 108.604 L 91.071 108.604 L 91.071 108.604 Q 91.261 108.569 91.486 108.413 L 91.486 108.413 L 91.486 108.413 Q 91.711 108.257 91.935 107.935 L 91.935 107.935 L 91.935 107.935 Q 92.16 107.612 92.345 107.046 L 92.345 107.046 L 92.345 107.046 Q 92.531 106.48 92.643 105.61 L 92.643 105.61 L 92.643 105.61 Q 92.756 104.741 92.756 103.501 L 92.756 103.501 L 92.756 103.501 Q 92.56 104.37 92.267 104.868 L 92.267 104.868 L 92.267 104.868 Q 91.974 105.366 91.642 105.615 L 91.642 105.615 L 91.642 105.615 Q 91.31 105.864 90.964 105.923 L 90.964 105.923 L 90.964 105.923 Q 90.617 105.981 90.314 105.981 L 90.314 105.981 L 90.314 105.981 Q 90.08 105.981 89.718 105.898 L 89.718 105.898 L 89.718 105.898 Q 89.357 105.815 88.952 105.605 L 88.952 105.605 L 88.952 105.605 Q 88.547 105.396 88.132 105.029 L 88.132 105.029 L 88.132 105.029 Q 87.717 104.663 87.384 104.102 L 87.384 104.102 L 87.384 104.102 Q 87.052 103.54 86.842 102.754 L 86.842 102.754 L 86.842 102.754 Q 86.633 101.968 86.633 100.903 L 86.633 100.903 L 86.633 100.903 Q 86.633 99.263 86.969 98.13 L 86.969 98.13 L 86.969 98.13 Q 87.306 96.997 87.839 96.299 L 87.839 96.299 L 87.839 96.299 Q 88.371 95.601 89.015 95.293 L 89.015 95.293 L 89.015 95.293 Q 89.66 94.985 90.275 94.985 L 90.275 94.985 L 90.275 94.985 Q 90.715 94.985 91.076 95.127 L 91.076 95.127 L 91.076 95.127 Q 91.437 95.269 91.73 95.503 L 91.73 95.503 L 91.73 95.503 Q 92.023 95.737 92.248 96.025 L 92.248 96.025 L 92.248 96.025 Q 92.472 96.313 92.648 96.606 L 92.648 96.606 L 92.648 96.606 Q 92.59 96.177 92.507 95.747 L 92.507 95.747 L 92.507 95.747 Q 92.424 95.317 92.316 94.878 L 92.316 94.878 L 92.316 94.878 Q 92.56 94.985 92.922 95.073 L 92.922 95.073 L 92.922 95.073 Q 93.234 95.151 93.703 95.205 L 93.703 95.205 L 93.703 95.205 Q 94.172 95.259 94.836 95.259 L 94.836 95.259 L 94.836 95.259 Q 95.617 95.259 96.672 95.142 Z  M 92.511 101.304 L 92.511 100.044 L 92.511 100.044 Q 92.511 99.771 92.472 99.385 L 92.472 99.385 L 92.472 99.385 Q 92.433 98.999 92.326 98.643 L 92.326 98.643 L 92.326 98.643 Q 92.218 98.286 92.028 98.032 L 92.028 98.032 L 92.028 98.032 Q 91.838 97.778 91.535 97.778 L 91.535 97.778 L 91.535 97.778 Q 91.31 97.778 91.125 98.037 L 91.125 98.037 L 91.125 98.037 Q 90.939 98.296 90.807 98.662 L 90.807 98.662 L 90.807 98.662 Q 90.676 99.028 90.602 99.419 L 90.602 99.419 L 90.602 99.419 Q 90.529 99.81 90.529 100.083 L 90.529 100.083 L 90.529 100.083 Q 90.529 100.552 90.578 101.04 L 90.578 101.04 L 90.578 101.04 Q 90.627 101.528 90.739 101.924 L 90.739 101.924 L 90.739 101.924 Q 90.851 102.319 91.022 102.573 L 91.022 102.573 L 91.022 102.573 Q 91.193 102.827 91.427 102.827 L 91.427 102.827 L 91.427 102.827 Q 91.681 102.827 91.882 102.705 L 91.882 102.705 L 91.882 102.705 Q 92.082 102.583 92.223 102.373 L 92.223 102.373 L 92.223 102.373 Q 92.365 102.163 92.438 101.89 L 92.438 101.89 L 92.438 101.89 Q 92.511 101.616 92.511 101.304 L 92.511 101.304 Z  M 50.939 71.44 L 50.939 71.44 L 50.939 71.44 Q 50.138 73.423 50.138 75.288 L 50.138 75.288 L 50.138 75.288 Q 50.138 76.187 50.304 77.1 L 50.304 77.1 L 50.304 77.1 Q 50.47 78.013 50.822 78.96 L 50.822 78.96 L 50.822 78.96 Q 50.265 78.823 49.787 78.755 L 49.787 78.755 L 49.787 78.755 Q 49.308 78.687 48.84 78.687 L 48.84 78.687 L 48.84 78.687 Q 48.342 78.687 47.824 78.774 L 47.824 78.774 L 47.824 78.774 Q 47.306 78.862 46.701 79.048 L 46.701 79.048 L 47.101 77.485 L 47.101 77.485 Q 46.906 77.798 46.633 78.125 L 46.633 78.125 L 46.633 78.125 Q 46.359 78.452 45.983 78.716 L 45.983 78.716 L 45.983 78.716 Q 45.607 78.98 45.124 79.15 L 45.124 79.15 L 45.124 79.15 Q 44.64 79.321 44.015 79.321 L 44.015 79.321 L 44.015 79.321 Q 43.078 79.321 42.292 78.872 L 42.292 78.872 L 42.292 78.872 Q 41.506 78.423 40.939 77.573 L 40.939 77.573 L 40.939 77.573 Q 40.373 76.724 40.055 75.488 L 40.055 75.488 L 40.055 75.488 Q 39.738 74.253 39.738 72.681 L 39.738 72.681 L 39.738 72.681 Q 39.738 71.636 39.933 70.605 L 39.933 70.605 L 39.933 70.605 Q 40.129 69.575 40.5 68.643 L 40.5 68.643 L 40.5 68.643 Q 40.871 67.71 41.418 66.914 L 41.418 66.914 L 41.418 66.914 Q 41.965 66.118 42.658 65.537 L 42.658 65.537 L 42.658 65.537 Q 43.351 64.956 44.196 64.629 L 44.196 64.629 L 44.196 64.629 Q 45.041 64.302 46.017 64.302 L 46.017 64.302 L 46.017 64.302 Q 46.906 64.302 47.57 64.482 L 47.57 64.482 L 47.57 64.482 Q 48.234 64.663 48.722 64.961 L 48.722 64.961 L 48.722 64.961 Q 49.211 65.259 49.528 65.645 L 49.528 65.645 L 49.528 65.645 Q 49.845 66.03 50.031 66.45 L 50.031 66.45 L 50.031 66.45 Q 50.217 66.87 50.295 67.285 L 50.295 67.285 L 50.295 67.285 Q 50.373 67.7 50.373 68.062 L 50.373 68.062 L 50.373 68.062 Q 50.373 68.579 50.192 69.058 L 50.192 69.058 L 50.192 69.058 Q 50.011 69.536 49.689 69.897 L 49.689 69.897 L 49.689 69.897 Q 49.367 70.259 48.927 70.474 L 48.927 70.474 L 48.927 70.474 Q 48.488 70.688 47.961 70.688 L 47.961 70.688 L 47.961 70.688 Q 47.414 70.688 47.013 70.522 L 47.013 70.522 L 47.013 70.522 Q 46.613 70.356 46.349 70.088 L 46.349 70.088 L 46.349 70.088 Q 46.086 69.819 45.954 69.487 L 45.954 69.487 L 45.954 69.487 Q 45.822 69.155 45.822 68.823 L 45.822 68.823 L 45.822 68.823 Q 45.822 68.54 45.92 68.247 L 45.92 68.247 L 45.92 68.247 Q 46.017 67.954 46.193 67.7 L 46.193 67.7 L 46.193 67.7 Q 46.252 67.905 46.359 68.018 L 46.359 68.018 L 46.359 68.018 Q 46.467 68.13 46.574 68.179 L 46.574 68.179 L 46.574 68.179 Q 46.691 68.237 46.838 68.247 L 46.838 68.247 L 46.838 68.247 Q 47.17 68.247 47.311 68.081 L 47.311 68.081 L 47.311 68.081 Q 47.453 67.915 47.453 67.7 L 47.453 67.7 L 47.453 67.7 Q 47.453 67.603 47.409 67.5 L 47.409 67.5 L 47.409 67.5 Q 47.365 67.397 47.277 67.31 L 47.277 67.31 L 47.277 67.31 Q 47.189 67.222 47.048 67.163 L 47.048 67.163 L 47.048 67.163 Q 46.906 67.105 46.701 67.105 L 46.701 67.105 L 46.701 67.105 Q 46.564 67.105 46.325 67.158 L 46.325 67.158 L 46.325 67.158 Q 46.086 67.212 45.807 67.368 L 45.807 67.368 L 45.807 67.368 Q 45.529 67.524 45.246 67.813 L 45.246 67.813 L 45.246 67.813 Q 44.963 68.101 44.728 68.579 L 44.728 68.579 L 44.728 68.579 Q 44.494 69.058 44.347 69.751 L 44.347 69.751 L 44.347 69.751 Q 44.201 70.444 44.201 71.401 L 44.201 71.401 L 44.201 71.401 Q 44.201 72.192 44.333 72.788 L 44.333 72.788 L 44.333 72.788 Q 44.465 73.384 44.699 73.784 L 44.699 73.784 L 44.699 73.784 Q 44.933 74.185 45.256 74.385 L 45.256 74.385 L 45.256 74.385 Q 45.578 74.585 45.959 74.585 L 45.959 74.585 L 45.959 74.585 Q 46.32 74.585 46.554 74.399 L 46.554 74.399 L 46.554 74.399 Q 46.789 74.214 46.926 73.95 L 46.926 73.95 L 46.926 73.95 Q 47.062 73.687 47.111 73.403 L 47.111 73.403 L 47.111 73.403 Q 47.16 73.12 47.16 72.925 L 47.16 72.925 L 47.16 72.925 Q 47.16 72.915 47.145 72.788 L 47.145 72.788 L 47.145 72.788 Q 47.131 72.661 47.052 72.495 L 47.052 72.495 L 47.052 72.495 Q 46.974 72.329 46.799 72.153 L 46.799 72.153 L 46.799 72.153 Q 46.623 71.978 46.301 71.86 L 46.301 71.86 L 46.301 71.86 Q 47.453 71.86 48.615 71.758 L 48.615 71.758 L 48.615 71.758 Q 49.777 71.655 50.939 71.44 Z  M 60.851 73.081 L 60.851 73.081 L 60.851 73.081 Q 60.851 73.647 60.763 74.326 L 60.763 74.326 L 60.763 74.326 Q 60.676 75.005 60.47 75.693 L 60.47 75.693 L 60.47 75.693 Q 60.265 76.382 59.914 77.031 L 59.914 77.031 L 59.914 77.031 Q 59.562 77.681 59.04 78.179 L 59.04 78.179 L 59.04 78.179 Q 58.517 78.677 57.795 78.98 L 57.795 78.98 L 57.795 78.98 Q 57.072 79.282 56.115 79.282 L 56.115 79.282 L 56.115 79.282 Q 55.158 79.282 54.44 78.999 L 54.44 78.999 L 54.44 78.999 Q 53.722 78.716 53.21 78.242 L 53.21 78.242 L 53.21 78.242 Q 52.697 77.769 52.365 77.148 L 52.365 77.148 L 52.365 77.148 Q 52.033 76.528 51.838 75.845 L 51.838 75.845 L 51.838 75.845 Q 51.642 75.161 51.569 74.463 L 51.569 74.463 L 51.569 74.463 Q 51.496 73.765 51.496 73.14 L 51.496 73.14 L 51.496 73.14 Q 51.496 72.036 51.789 70.977 L 51.789 70.977 L 51.789 70.977 Q 52.082 69.917 52.682 69.087 L 52.682 69.087 L 52.682 69.087 Q 53.283 68.257 54.186 67.749 L 54.186 67.749 L 54.186 67.749 Q 55.09 67.241 56.31 67.241 L 56.31 67.241 L 56.31 67.241 Q 57.131 67.241 57.785 67.49 L 57.785 67.49 L 57.785 67.49 Q 58.439 67.739 58.947 68.169 L 58.947 68.169 L 58.947 68.169 Q 59.455 68.599 59.811 69.175 L 59.811 69.175 L 59.811 69.175 Q 60.168 69.751 60.402 70.396 L 60.402 70.396 L 60.402 70.396 Q 60.636 71.04 60.744 71.733 L 60.744 71.733 L 60.744 71.733 Q 60.851 72.427 60.851 73.081 Z  M 57.453 73.403 L 57.453 73.403 L 57.453 73.403 Q 57.453 73.179 57.438 72.842 L 57.438 72.842 L 57.438 72.842 Q 57.424 72.505 57.375 72.134 L 57.375 72.134 L 57.375 72.134 Q 57.326 71.763 57.243 71.392 L 57.243 71.392 L 57.243 71.392 Q 57.16 71.021 57.023 70.728 L 57.023 70.728 L 57.023 70.728 Q 56.886 70.435 56.686 70.249 L 56.686 70.249 L 56.686 70.249 Q 56.486 70.063 56.213 70.063 L 56.213 70.063 L 56.213 70.063 Q 55.949 70.063 55.754 70.239 L 55.754 70.239 L 55.754 70.239 Q 55.558 70.415 55.417 70.698 L 55.417 70.698 L 55.417 70.698 Q 55.275 70.981 55.182 71.338 L 55.182 71.338 L 55.182 71.338 Q 55.09 71.694 55.036 72.051 L 55.036 72.051 L 55.036 72.051 Q 54.982 72.407 54.958 72.734 L 54.958 72.734 L 54.958 72.734 Q 54.933 73.062 54.933 73.286 L 54.933 73.286 L 54.933 73.286 Q 54.933 73.608 54.982 74.067 L 54.982 74.067 L 54.982 74.067 Q 55.031 74.526 55.168 74.946 L 55.168 74.946 L 55.168 74.946 Q 55.304 75.366 55.544 75.664 L 55.544 75.664 L 55.544 75.664 Q 55.783 75.962 56.174 75.962 L 56.174 75.962 L 56.174 75.962 Q 56.545 75.962 56.794 75.688 L 56.794 75.688 L 56.794 75.688 Q 57.043 75.415 57.189 75.02 L 57.189 75.02 L 57.189 75.02 Q 57.336 74.624 57.394 74.185 L 57.394 74.185 L 57.394 74.185 Q 57.453 73.745 57.453 73.403 Z  M 70.929 73.081 L 70.929 73.081 L 70.929 73.081 Q 70.929 73.647 70.842 74.326 L 70.842 74.326 L 70.842 74.326 Q 70.754 75.005 70.549 75.693 L 70.549 75.693 L 70.549 75.693 Q 70.343 76.382 69.992 77.031 L 69.992 77.031 L 69.992 77.031 Q 69.64 77.681 69.118 78.179 L 69.118 78.179 L 69.118 78.179 Q 68.595 78.677 67.873 78.98 L 67.873 78.98 L 67.873 78.98 Q 67.15 79.282 66.193 79.282 L 66.193 79.282 L 66.193 79.282 Q 65.236 79.282 64.518 78.999 L 64.518 78.999 L 64.518 78.999 Q 63.801 78.716 63.288 78.242 L 63.288 78.242 L 63.288 78.242 Q 62.775 77.769 62.443 77.148 L 62.443 77.148 L 62.443 77.148 Q 62.111 76.528 61.916 75.845 L 61.916 75.845 L 61.916 75.845 Q 61.72 75.161 61.647 74.463 L 61.647 74.463 L 61.647 74.463 Q 61.574 73.765 61.574 73.14 L 61.574 73.14 L 61.574 73.14 Q 61.574 72.036 61.867 70.977 L 61.867 70.977 L 61.867 70.977 Q 62.16 69.917 62.76 69.087 L 62.76 69.087 L 62.76 69.087 Q 63.361 68.257 64.264 67.749 L 64.264 67.749 L 64.264 67.749 Q 65.168 67.241 66.388 67.241 L 66.388 67.241 L 66.388 67.241 Q 67.209 67.241 67.863 67.49 L 67.863 67.49 L 67.863 67.49 Q 68.517 67.739 69.025 68.169 L 69.025 68.169 L 69.025 68.169 Q 69.533 68.599 69.889 69.175 L 69.889 69.175 L 69.889 69.175 Q 70.246 69.751 70.48 70.396 L 70.48 70.396 L 70.48 70.396 Q 70.715 71.04 70.822 71.733 L 70.822 71.733 L 70.822 71.733 Q 70.929 72.427 70.929 73.081 Z  M 67.531 73.403 L 67.531 73.403 L 67.531 73.403 Q 67.531 73.179 67.516 72.842 L 67.516 72.842 L 67.516 72.842 Q 67.502 72.505 67.453 72.134 L 67.453 72.134 L 67.453 72.134 Q 67.404 71.763 67.321 71.392 L 67.321 71.392 L 67.321 71.392 Q 67.238 71.021 67.101 70.728 L 67.101 70.728 L 67.101 70.728 Q 66.965 70.435 66.764 70.249 L 66.764 70.249 L 66.764 70.249 Q 66.564 70.063 66.291 70.063 L 66.291 70.063 L 66.291 70.063 Q 66.027 70.063 65.832 70.239 L 65.832 70.239 L 65.832 70.239 Q 65.636 70.415 65.495 70.698 L 65.495 70.698 L 65.495 70.698 Q 65.353 70.981 65.26 71.338 L 65.26 71.338 L 65.26 71.338 Q 65.168 71.694 65.114 72.051 L 65.114 72.051 L 65.114 72.051 Q 65.06 72.407 65.036 72.734 L 65.036 72.734 L 65.036 72.734 Q 65.011 73.062 65.011 73.286 L 65.011 73.286 L 65.011 73.286 Q 65.011 73.608 65.06 74.067 L 65.06 74.067 L 65.06 74.067 Q 65.109 74.526 65.246 74.946 L 65.246 74.946 L 65.246 74.946 Q 65.383 75.366 65.622 75.664 L 65.622 75.664 L 65.622 75.664 Q 65.861 75.962 66.252 75.962 L 66.252 75.962 L 66.252 75.962 Q 66.623 75.962 66.872 75.688 L 66.872 75.688 L 66.872 75.688 Q 67.121 75.415 67.267 75.02 L 67.267 75.02 L 67.267 75.02 Q 67.414 74.624 67.472 74.185 L 67.472 74.185 L 67.472 74.185 Q 67.531 73.745 67.531 73.403 Z  M 81.789 78.921 L 81.789 78.921 L 81.789 78.921 Q 81.564 78.901 81.281 78.882 L 81.281 78.882 L 81.281 78.882 Q 81.037 78.862 80.71 78.853 L 80.71 78.853 L 80.71 78.853 Q 80.383 78.843 79.992 78.843 L 79.992 78.843 L 79.992 78.843 Q 79.435 78.843 78.81 78.882 L 78.81 78.882 L 78.81 78.882 Q 78.185 78.921 77.57 79.028 L 77.57 79.028 L 77.57 79.028 Q 77.629 78.911 77.697 78.54 L 77.697 78.54 L 77.697 78.54 Q 77.765 78.169 77.829 77.72 L 77.829 77.72 L 77.829 77.72 Q 77.892 77.271 77.946 76.831 L 77.946 76.831 L 77.946 76.831 Q 78 76.392 78.029 76.147 L 78.029 76.147 L 78.029 76.147 Q 77.873 76.88 77.594 77.48 L 77.594 77.48 L 77.594 77.48 Q 77.316 78.081 76.945 78.506 L 76.945 78.506 L 76.945 78.506 Q 76.574 78.931 76.115 79.165 L 76.115 79.165 L 76.115 79.165 Q 75.656 79.399 75.148 79.399 L 75.148 79.399 L 75.148 79.399 Q 74.914 79.399 74.572 79.37 L 74.572 79.37 L 74.572 79.37 Q 74.23 79.341 73.844 79.175 L 73.844 79.175 L 73.844 79.175 Q 73.459 79.009 73.073 78.662 L 73.073 78.662 L 73.073 78.662 Q 72.687 78.315 72.38 77.686 L 72.38 77.686 L 72.38 77.686 Q 72.072 77.056 71.882 76.089 L 71.882 76.089 L 71.882 76.089 Q 71.691 75.122 71.691 73.726 L 71.691 73.726 L 71.691 73.726 Q 71.691 72.554 71.862 71.631 L 71.862 71.631 L 71.862 71.631 Q 72.033 70.708 72.321 70.005 L 72.321 70.005 L 72.321 70.005 Q 72.609 69.302 72.995 68.809 L 72.995 68.809 L 72.995 68.809 Q 73.381 68.315 73.805 68.003 L 73.805 68.003 L 73.805 68.003 Q 74.23 67.69 74.675 67.549 L 74.675 67.549 L 74.675 67.549 Q 75.119 67.407 75.529 67.407 L 75.529 67.407 L 75.529 67.407 Q 75.988 67.407 76.359 67.559 L 76.359 67.559 L 76.359 67.559 Q 76.73 67.71 77.033 67.949 L 77.033 67.949 L 77.033 67.949 Q 77.336 68.188 77.56 68.496 L 77.56 68.496 L 77.56 68.496 Q 77.785 68.804 77.951 69.106 L 77.951 69.106 L 77.951 69.106 Q 77.931 68.657 77.912 68.13 L 77.912 68.13 L 77.912 68.13 Q 77.892 67.603 77.863 67.065 L 77.863 67.065 L 77.863 67.065 Q 77.834 66.528 77.79 66.006 L 77.79 66.006 L 77.79 66.006 Q 77.746 65.483 77.692 65.034 L 77.692 65.034 L 77.692 65.034 Q 77.638 64.585 77.57 64.243 L 77.57 64.243 L 77.57 64.243 Q 77.502 63.901 77.414 63.726 L 77.414 63.726 L 77.414 63.726 Q 78.195 63.862 78.869 63.911 L 78.869 63.911 L 78.869 63.911 Q 79.543 63.96 80.09 63.96 L 80.09 63.96 L 80.09 63.96 Q 80.441 63.96 80.724 63.945 L 80.724 63.945 L 80.724 63.945 Q 81.008 63.931 81.203 63.911 L 81.203 63.911 L 81.203 63.911 Q 81.437 63.892 81.613 63.862 L 81.613 63.862 L 81.613 63.862 Q 81.506 64.351 81.418 65.137 L 81.418 65.137 L 81.418 65.137 Q 81.33 65.923 81.266 66.909 L 81.266 66.909 L 81.266 66.909 Q 81.203 67.896 81.169 69.023 L 81.169 69.023 L 81.169 69.023 Q 81.134 70.151 81.134 71.323 L 81.134 71.323 L 81.134 71.323 Q 81.134 72.407 81.169 73.481 L 81.169 73.481 L 81.169 73.481 Q 81.203 74.556 81.281 75.547 L 81.281 75.547 L 81.281 75.547 Q 81.359 76.538 81.486 77.402 L 81.486 77.402 L 81.486 77.402 Q 81.613 78.267 81.789 78.921 Z  M 77.775 73.325 L 77.775 73.325 L 77.775 71.743 L 77.775 71.743 Q 77.775 71.48 77.746 71.206 L 77.746 71.206 L 77.746 71.206 Q 77.717 70.933 77.614 70.708 L 77.614 70.708 L 77.614 70.708 Q 77.511 70.483 77.316 70.342 L 77.316 70.342 L 77.316 70.342 Q 77.121 70.2 76.789 70.2 L 76.789 70.2 L 76.789 70.2 Q 76.554 70.2 76.388 70.386 L 76.388 70.386 L 76.388 70.386 Q 76.222 70.571 76.115 70.864 L 76.115 70.864 L 76.115 70.864 Q 76.008 71.157 75.939 71.519 L 75.939 71.519 L 75.939 71.519 Q 75.871 71.88 75.842 72.236 L 75.842 72.236 L 75.842 72.236 Q 75.812 72.593 75.802 72.9 L 75.802 72.9 L 75.802 72.9 Q 75.793 73.208 75.793 73.384 L 75.793 73.384 L 75.793 73.384 Q 75.793 73.647 75.817 74.033 L 75.817 74.033 L 75.817 74.033 Q 75.842 74.419 75.929 74.775 L 75.929 74.775 L 75.929 74.775 Q 76.017 75.132 76.198 75.386 L 76.198 75.386 L 76.198 75.386 Q 76.379 75.64 76.691 75.64 L 76.691 75.64 L 76.691 75.64 Q 77.043 75.64 77.258 75.396 L 77.258 75.396 L 77.258 75.396 Q 77.472 75.151 77.585 74.79 L 77.585 74.79 L 77.585 74.79 Q 77.697 74.429 77.736 74.033 L 77.736 74.033 L 77.736 74.033 Q 77.775 73.638 77.775 73.325 Z " fill-rule="evenodd" fill="rgb(255,255,255)"/><path d=" M 5.096 169.681 C 1.938 166.413 0 161.963 0 157.063 C 0 157.063 0 157.063 0 157.063 L 0 18.22 C 0 8.164 8.164 0 18.22 0 L 103.248 0 C 109.137 0 114.377 2.8 117.707 7.142 C 85.252 68.101 47.74 122.306 5.096 169.681 Z " fill="rgb(255,255,255)" fill-opacity="0.05"/></g></g></svg>