<?xml version="1.0" standalone="no"?><!-- Generator: Gravit.io --><svg xmlns="http://www.w3.org/2000/svg" xmlns:xlink="http://www.w3.org/1999/xlink" style="isolation:isolate" viewBox="0 0 121.468 175.283" width="121.468" height="175.283"><defs><clipPath id="_clipPath_g9y5EeClH7lWWzxTZ00rd20Onc3qHvS5"><rect width="121.468" height="175.283"/></clipPath></defs><g clip-path="url(#_clipPath_g9y5EeClH7lWWzxTZ00rd20Onc3qHvS5)"><g id="card-flipped - spanish"><path d="M 18.22 0 L 103.248 0 C 113.304 0 121.468 8.164 121.468 18.22 L 121.468 157.063 C 121.468 167.119 113.304 175.283 103.248 175.283 L 18.22 175.283 C 8.164 175.283 0 167.119 0 157.063 L 0 18.22 C 0 8.164 8.164 0 18.22 0 Z" style="stroke:none;fill:#85A5B9;stroke-miterlimit:10;"/><path d=" M 52.844 101.138 L 52.844 101.138 L 52.844 101.138 Q 52.844 102.73 52.493 103.872 L 52.493 103.872 L 52.493 103.872 Q 52.141 105.015 51.565 105.811 L 51.565 105.811 L 51.565 105.811 Q 50.989 106.606 50.257 107.09 L 50.257 107.09 L 50.257 107.09 Q 49.524 107.573 48.767 107.842 L 48.767 107.842 L 48.767 107.842 Q 48.01 108.11 47.288 108.198 L 47.288 108.198 L 47.288 108.198 Q 46.565 108.286 46.009 108.286 L 46.009 108.286 L 46.009 108.286 Q 45.061 108.286 44.392 108.223 L 44.392 108.223 L 44.392 108.223 Q 43.723 108.159 43.284 108.159 L 43.284 108.159 L 43.284 108.159 Q 42.786 108.159 42.18 108.179 L 42.18 108.179 L 42.18 108.179 Q 41.575 108.198 40.901 108.257 L 40.901 108.257 L 40.901 108.257 Q 41.165 107.778 41.365 107.188 L 41.365 107.188 L 41.365 107.188 Q 41.565 106.597 41.712 105.952 L 41.712 105.952 L 41.712 105.952 Q 41.858 105.308 41.961 104.648 L 41.961 104.648 L 41.961 104.648 Q 42.063 103.989 42.132 103.374 L 42.132 103.374 L 42.132 103.374 Q 42.288 101.929 42.307 100.405 L 42.307 100.405 L 42.307 100.405 Q 42.288 98.892 42.161 97.563 L 42.161 97.563 L 42.161 97.563 Q 42.102 96.997 42.019 96.426 L 42.019 96.426 L 42.019 96.426 Q 41.936 95.855 41.819 95.342 L 41.819 95.342 L 41.819 95.342 Q 41.702 94.829 41.541 94.419 L 41.541 94.419 L 41.541 94.419 Q 41.38 94.009 41.165 93.765 L 41.165 93.765 L 41.165 93.765 Q 41.887 93.882 42.537 93.921 L 42.537 93.921 L 42.537 93.921 Q 43.186 93.96 43.684 93.96 L 43.684 93.96 L 43.684 93.96 Q 44.007 93.96 44.309 93.94 L 44.309 93.94 L 44.309 93.94 Q 44.612 93.921 44.934 93.901 L 44.934 93.901 L 44.934 93.901 Q 45.257 93.882 45.623 93.862 L 45.623 93.862 L 45.623 93.862 Q 45.989 93.843 46.448 93.843 L 46.448 93.843 L 46.448 93.843 Q 47.112 93.843 47.849 93.936 L 47.849 93.936 L 47.849 93.936 Q 48.587 94.028 49.295 94.302 L 49.295 94.302 L 49.295 94.302 Q 50.003 94.575 50.647 95.073 L 50.647 95.073 L 50.647 95.073 Q 51.292 95.571 51.78 96.382 L 51.78 96.382 L 51.78 96.382 Q 52.268 97.192 52.556 98.359 L 52.556 98.359 L 52.556 98.359 Q 52.844 99.526 52.844 101.138 Z  M 48.069 100.923 L 48.069 100.923 L 48.069 100.923 Q 48.069 99.78 48.001 99.019 L 48.001 99.019 L 48.001 99.019 Q 47.932 98.257 47.801 97.793 L 47.801 97.793 L 47.801 97.793 Q 47.669 97.329 47.473 97.134 L 47.473 97.134 L 47.473 97.134 Q 47.278 96.938 47.024 96.938 L 47.024 96.938 L 47.024 96.938 Q 46.8 96.938 46.619 97.168 L 46.619 97.168 L 46.619 97.168 Q 46.438 97.397 46.311 97.905 L 46.311 97.905 L 46.311 97.905 Q 46.184 98.413 46.116 99.209 L 46.116 99.209 L 46.116 99.209 Q 46.048 100.005 46.048 101.138 L 46.048 101.138 L 46.048 101.138 Q 46.048 102.329 46.111 103.125 L 46.111 103.125 L 46.111 103.125 Q 46.175 103.921 46.297 104.399 L 46.297 104.399 L 46.297 104.399 Q 46.419 104.878 46.599 105.078 L 46.599 105.078 L 46.599 105.078 Q 46.78 105.278 47.024 105.278 L 47.024 105.278 L 47.024 105.278 Q 47.503 105.278 47.786 104.233 L 47.786 104.233 L 47.786 104.233 Q 48.069 103.188 48.069 100.923 Z  M 58.343 108.022 L 58.343 108.022 L 58.343 108.022 Q 58.176 108.013 57.952 107.993 L 57.952 107.993 L 57.952 107.993 Q 57.757 107.983 57.493 107.974 L 57.493 107.974 L 57.493 107.974 Q 57.229 107.964 56.887 107.964 L 56.887 107.964 L 56.887 107.964 Q 56.253 107.964 55.423 108.018 L 55.423 108.018 L 55.423 108.018 Q 54.593 108.071 53.626 108.218 L 53.626 108.218 L 53.626 108.218 Q 53.811 107.847 53.938 107.285 L 53.938 107.285 L 53.938 107.285 Q 54.065 106.724 54.148 106.084 L 54.148 106.084 L 54.148 106.084 Q 54.231 105.444 54.275 104.79 L 54.275 104.79 L 54.275 104.79 Q 54.319 104.136 54.339 103.589 L 54.339 103.589 L 54.339 103.589 Q 54.358 103.042 54.363 102.661 L 54.363 102.661 L 54.363 102.661 Q 54.368 102.28 54.368 102.183 L 54.368 102.183 L 54.368 102.183 Q 54.348 100.913 54.28 99.81 L 54.28 99.81 L 54.28 99.81 Q 54.251 99.341 54.207 98.862 L 54.207 98.862 L 54.207 98.862 Q 54.163 98.384 54.104 97.959 L 54.104 97.959 L 54.104 97.959 Q 54.046 97.534 53.972 97.197 L 53.972 97.197 L 53.972 97.197 Q 53.899 96.86 53.801 96.665 L 53.801 96.665 L 53.801 96.665 Q 54.593 96.802 55.266 96.851 L 55.266 96.851 L 55.266 96.851 Q 55.94 96.899 56.487 96.899 L 56.487 96.899 L 56.487 96.899 Q 56.839 96.899 57.117 96.885 L 57.117 96.885 L 57.117 96.885 Q 57.395 96.87 57.591 96.851 L 57.591 96.851 L 57.591 96.851 Q 57.825 96.831 58.001 96.802 L 58.001 96.802 L 58.001 96.802 Q 57.825 97.681 57.713 98.921 L 57.713 98.921 L 57.713 98.921 Q 57.6 100.161 57.6 101.577 L 57.6 101.577 L 57.6 101.577 Q 57.6 102.388 57.639 103.218 L 57.639 103.218 L 57.639 103.218 Q 57.678 104.048 57.766 104.873 L 57.766 104.873 L 57.766 104.873 Q 57.854 105.698 57.996 106.494 L 57.996 106.494 L 57.996 106.494 Q 58.137 107.29 58.343 108.022 Z  M 60.081 92.71 L 56.848 96.196 L 54.905 95.327 L 54.905 95.327 Q 55.501 94.468 56.018 93.677 L 56.018 93.677 L 56.018 93.677 Q 56.233 93.345 56.463 92.993 L 56.463 92.993 L 56.463 92.993 Q 56.692 92.642 56.892 92.314 L 56.892 92.314 L 56.892 92.314 Q 57.093 91.987 57.259 91.694 L 57.259 91.694 L 57.259 91.694 Q 57.425 91.401 57.522 91.196 L 57.522 91.196 L 57.522 91.196 Q 57.825 91.421 58.259 91.685 L 58.259 91.685 L 58.259 91.685 Q 58.694 91.948 59.104 92.173 L 59.104 92.173 L 59.104 92.173 Q 59.573 92.437 60.081 92.71 L 60.081 92.71 Z  M 69.182 108.198 L 69.182 108.198 L 69.182 108.198 Q 68.997 108.179 68.753 108.159 L 68.753 108.159 L 68.753 108.159 Q 68.548 108.14 68.259 108.13 L 68.259 108.13 L 68.259 108.13 Q 67.971 108.12 67.63 108.12 L 67.63 108.12 L 67.63 108.12 Q 67.141 108.12 66.56 108.159 L 66.56 108.159 L 66.56 108.159 Q 65.979 108.198 65.364 108.306 L 65.364 108.306 L 65.403 105.562 L 65.403 105.562 Q 65.032 107.017 64.314 107.808 L 64.314 107.808 L 64.314 107.808 Q 63.596 108.599 62.63 108.599 L 62.63 108.599 L 62.63 108.599 Q 62.327 108.599 61.946 108.521 L 61.946 108.521 L 61.946 108.521 Q 61.565 108.442 61.17 108.223 L 61.17 108.223 L 61.17 108.223 Q 60.774 108.003 60.398 107.612 L 60.398 107.612 L 60.398 107.612 Q 60.022 107.222 59.729 106.602 L 59.729 106.602 L 59.729 106.602 Q 59.436 105.981 59.26 105.098 L 59.26 105.098 L 59.26 105.098 Q 59.085 104.214 59.085 103.003 L 59.085 103.003 L 59.085 103.003 Q 59.085 101.362 59.417 100.195 L 59.417 100.195 L 59.417 100.195 Q 59.749 99.028 60.266 98.286 L 60.266 98.286 L 60.266 98.286 Q 60.784 97.544 61.409 97.202 L 61.409 97.202 L 61.409 97.202 Q 62.034 96.86 62.63 96.86 L 62.63 96.86 L 62.63 96.86 Q 63.137 96.86 63.552 97.002 L 63.552 97.002 L 63.552 97.002 Q 63.968 97.144 64.29 97.363 L 64.29 97.363 L 64.29 97.363 Q 64.612 97.583 64.846 97.856 L 64.846 97.856 L 64.846 97.856 Q 65.081 98.13 65.227 98.403 L 65.227 98.403 L 65.227 98.403 Q 65.198 98.071 65.139 97.695 L 65.139 97.695 L 65.139 97.695 Q 65.081 97.319 65.003 96.919 L 65.003 96.919 L 65.003 96.919 Q 65.637 97.046 66.292 97.085 L 66.292 97.085 L 66.292 97.085 Q 66.946 97.124 67.503 97.124 L 67.503 97.124 L 67.503 97.124 Q 68.167 97.124 68.577 97.095 L 68.577 97.095 L 68.577 97.095 Q 68.811 97.085 69.007 97.065 L 69.007 97.065 L 69.007 97.065 Q 68.899 97.554 68.811 98.159 L 68.811 98.159 L 68.811 98.159 Q 68.723 98.765 68.66 99.453 L 68.66 99.453 L 68.66 99.453 Q 68.596 100.142 68.562 100.898 L 68.562 100.898 L 68.562 100.898 Q 68.528 101.655 68.528 102.446 L 68.528 102.446 L 68.528 102.446 Q 68.528 103.921 68.675 105.405 L 68.675 105.405 L 68.675 105.405 Q 68.821 106.89 69.182 108.198 Z  M 65.169 102.603 L 65.169 102.603 L 65.169 101.021 L 65.169 101.021 Q 65.169 100.757 65.139 100.483 L 65.139 100.483 L 65.139 100.483 Q 65.11 100.21 65.008 99.985 L 65.008 99.985 L 65.008 99.985 Q 64.905 99.761 64.71 99.619 L 64.71 99.619 L 64.71 99.619 Q 64.514 99.478 64.182 99.478 L 64.182 99.478 L 64.182 99.478 Q 63.831 99.478 63.601 99.722 L 63.601 99.722 L 63.601 99.722 Q 63.372 99.966 63.23 100.391 L 63.23 100.391 L 63.23 100.391 Q 63.089 100.815 63.035 101.396 L 63.035 101.396 L 63.035 101.396 Q 62.981 101.978 62.981 102.661 L 62.981 102.661 L 62.981 102.661 Q 62.981 103.052 63.035 103.452 L 63.035 103.452 L 63.035 103.452 Q 63.089 103.853 63.216 104.18 L 63.216 104.18 L 63.216 104.18 Q 63.343 104.507 63.557 104.712 L 63.557 104.712 L 63.557 104.712 Q 63.772 104.917 64.085 104.917 L 64.085 104.917 L 64.085 104.917 Q 64.436 104.917 64.651 104.673 L 64.651 104.673 L 64.651 104.673 Q 64.866 104.429 64.978 104.067 L 64.978 104.067 L 64.978 104.067 Q 65.091 103.706 65.13 103.311 L 65.13 103.311 L 65.13 103.311 Q 65.169 102.915 65.169 102.603 Z  M 78.079 99.185 L 78.079 99.185 L 78.079 99.185 Q 78.079 99.575 77.923 99.888 L 77.923 99.888 L 77.923 99.888 Q 77.766 100.2 77.503 100.42 L 77.503 100.42 L 77.503 100.42 Q 77.239 100.64 76.887 100.762 L 76.887 100.762 L 76.887 100.762 Q 76.536 100.884 76.145 100.884 L 76.145 100.884 L 76.145 100.884 Q 75.696 100.884 75.379 100.776 L 75.379 100.776 L 75.379 100.776 Q 75.061 100.669 74.842 100.498 L 74.842 100.498 L 74.842 100.498 Q 74.622 100.327 74.495 100.117 L 74.495 100.117 L 74.495 100.117 Q 74.368 99.907 74.295 99.712 L 74.295 99.712 L 74.295 99.712 Q 74.221 99.517 74.202 99.351 L 74.202 99.351 L 74.202 99.351 Q 74.182 99.185 74.182 99.097 L 74.182 99.097 L 74.182 99.097 Q 74.27 99.263 74.407 99.302 L 74.407 99.302 L 74.407 99.302 Q 74.544 99.341 74.622 99.341 L 74.622 99.341 L 74.622 99.341 Q 74.846 99.341 74.944 99.224 L 74.944 99.224 L 74.944 99.224 Q 75.042 99.106 75.042 98.98 L 75.042 98.98 L 75.042 98.98 Q 75.042 98.901 75.003 98.804 L 75.003 98.804 L 75.003 98.804 Q 74.964 98.706 74.866 98.623 L 74.866 98.623 L 74.866 98.623 Q 74.768 98.54 74.612 98.481 L 74.612 98.481 L 74.612 98.481 Q 74.456 98.423 74.221 98.423 L 74.221 98.423 L 74.221 98.423 Q 74.075 98.423 73.909 98.481 L 73.909 98.481 L 73.909 98.481 Q 73.743 98.54 73.611 98.662 L 73.611 98.662 L 73.611 98.662 Q 73.479 98.784 73.391 98.965 L 73.391 98.965 L 73.391 98.965 Q 73.303 99.146 73.303 99.38 L 73.303 99.38 L 73.303 99.38 Q 73.303 99.819 73.528 100.122 L 73.528 100.122 L 73.528 100.122 Q 73.753 100.425 74.119 100.654 L 74.119 100.654 L 74.119 100.654 Q 74.485 100.884 74.949 101.079 L 74.949 101.079 L 74.949 101.079 Q 75.413 101.274 75.901 101.484 L 75.901 101.484 L 75.901 101.484 Q 76.389 101.694 76.853 101.953 L 76.853 101.953 L 76.853 101.953 Q 77.317 102.212 77.683 102.583 L 77.683 102.583 L 77.683 102.583 Q 78.05 102.954 78.274 103.472 L 78.274 103.472 L 78.274 103.472 Q 78.499 103.989 78.499 104.702 L 78.499 104.702 L 78.499 104.702 Q 78.499 105.61 78.128 106.343 L 78.128 106.343 L 78.128 106.343 Q 77.757 107.075 77.136 107.598 L 77.136 107.598 L 77.136 107.598 Q 76.516 108.12 75.696 108.398 L 75.696 108.398 L 75.696 108.398 Q 74.876 108.677 73.967 108.677 L 73.967 108.677 L 73.967 108.677 Q 73.137 108.677 72.395 108.452 L 72.395 108.452 L 72.395 108.452 Q 71.653 108.228 71.096 107.827 L 71.096 107.827 L 71.096 107.827 Q 70.54 107.427 70.213 106.88 L 70.213 106.88 L 70.213 106.88 Q 69.885 106.333 69.885 105.698 L 69.885 105.698 L 69.885 105.698 Q 69.885 105.22 70.042 104.863 L 70.042 104.863 L 70.042 104.863 Q 70.198 104.507 70.476 104.272 L 70.476 104.272 L 70.476 104.272 Q 70.755 104.038 71.131 103.921 L 71.131 103.921 L 71.131 103.921 Q 71.507 103.804 71.946 103.804 L 71.946 103.804 L 71.946 103.804 Q 72.268 103.804 72.591 103.872 L 72.591 103.872 L 72.591 103.872 Q 72.913 103.94 73.196 104.077 L 73.196 104.077 L 73.196 104.077 Q 73.479 104.214 73.704 104.409 L 73.704 104.409 L 73.704 104.409 Q 73.928 104.605 74.065 104.858 L 74.065 104.858 L 74.065 104.858 Q 73.987 104.839 73.914 104.829 L 73.914 104.829 L 73.914 104.829 Q 73.841 104.819 73.762 104.819 L 73.762 104.819 L 73.762 104.819 Q 73.548 104.819 73.426 104.932 L 73.426 104.932 L 73.426 104.932 Q 73.303 105.044 73.303 105.298 L 73.303 105.298 L 73.303 105.298 Q 73.303 105.571 73.528 105.757 L 73.528 105.757 L 73.528 105.757 Q 73.753 105.942 74.026 105.942 L 74.026 105.942 L 74.026 105.942 Q 74.182 105.942 74.319 105.874 L 74.319 105.874 L 74.319 105.874 Q 74.456 105.806 74.553 105.693 L 74.553 105.693 L 74.553 105.693 Q 74.651 105.581 74.705 105.444 L 74.705 105.444 L 74.705 105.444 Q 74.759 105.308 74.759 105.161 L 74.759 105.161 L 74.759 105.161 Q 74.759 104.907 74.588 104.614 L 74.588 104.614 L 74.588 104.614 Q 74.417 104.321 74.104 104.126 L 74.104 104.126 L 74.104 104.126 Q 73.489 103.745 72.942 103.472 L 72.942 103.472 L 72.942 103.472 Q 72.395 103.198 71.936 102.954 L 71.936 102.954 L 71.936 102.954 Q 71.477 102.71 71.111 102.466 L 71.111 102.466 L 71.111 102.466 Q 70.745 102.222 70.491 101.895 L 70.491 101.895 L 70.491 101.895 Q 70.237 101.567 70.1 101.123 L 70.1 101.123 L 70.1 101.123 Q 69.964 100.679 69.964 100.044 L 69.964 100.044 L 69.964 100.044 Q 69.964 99.292 70.261 98.652 L 70.261 98.652 L 70.261 98.652 Q 70.559 98.013 71.116 97.544 L 71.116 97.544 L 71.116 97.544 Q 71.673 97.075 72.483 96.807 L 72.483 96.807 L 72.483 96.807 Q 73.294 96.538 74.319 96.538 L 74.319 96.538 L 74.319 96.538 Q 75.364 96.538 76.082 96.782 L 76.082 96.782 L 76.082 96.782 Q 76.8 97.026 77.244 97.407 L 77.244 97.407 L 77.244 97.407 Q 77.688 97.788 77.884 98.257 L 77.884 98.257 L 77.884 98.257 Q 78.079 98.726 78.079 99.185 Z  M 40.494 76.685 L 40.494 76.685 L 40.494 76.685 Q 40.494 77.769 40.04 78.53 L 40.04 78.53 L 40.04 78.53 Q 39.586 79.292 38.834 79.775 L 38.834 79.775 L 38.834 79.775 Q 38.082 80.259 37.11 80.493 L 37.11 80.493 L 37.11 80.493 Q 36.138 80.728 35.113 80.767 L 35.113 80.767 L 35.113 80.767 Q 34.459 80.747 33.863 80.718 L 33.863 80.718 L 33.863 80.718 Q 33.609 80.708 33.345 80.703 L 33.345 80.703 L 33.345 80.703 Q 33.082 80.698 32.833 80.688 L 32.833 80.688 L 32.833 80.688 Q 32.584 80.679 32.359 80.679 L 32.359 80.679 L 32.359 80.679 Q 32.134 80.679 31.978 80.679 L 31.978 80.679 L 31.978 80.679 Q 31.334 80.698 30.645 80.708 L 30.645 80.708 L 30.645 80.708 Q 29.957 80.718 29.293 80.767 L 29.293 80.767 L 29.293 80.767 Q 29.732 80.171 30.006 79.243 L 30.006 79.243 L 30.006 79.243 Q 30.279 78.315 30.44 77.241 L 30.44 77.241 L 30.44 77.241 Q 30.601 76.167 30.66 75.039 L 30.66 75.039 L 30.66 75.039 Q 30.718 73.911 30.718 72.925 L 30.718 72.925 L 30.718 72.925 Q 30.718 72.505 30.704 71.904 L 30.704 71.904 L 30.704 71.904 Q 30.689 71.304 30.65 70.625 L 30.65 70.625 L 30.65 70.625 Q 30.611 69.946 30.543 69.253 L 30.543 69.253 L 30.543 69.253 Q 30.474 68.56 30.352 67.959 L 30.352 67.959 L 30.352 67.959 Q 30.23 67.358 30.054 66.899 L 30.054 66.899 L 30.054 66.899 Q 29.879 66.44 29.634 66.245 L 29.634 66.245 L 29.634 66.245 Q 30.338 66.353 31.002 66.387 L 31.002 66.387 L 31.002 66.387 Q 31.666 66.421 32.134 66.421 L 32.134 66.421 L 32.134 66.421 Q 32.545 66.421 32.867 66.406 L 32.867 66.406 L 32.867 66.406 Q 33.189 66.392 33.502 66.372 L 33.502 66.372 L 33.502 66.372 Q 33.814 66.353 34.146 66.338 L 34.146 66.338 L 34.146 66.338 Q 34.478 66.323 34.898 66.323 L 34.898 66.323 L 34.898 66.323 Q 35.543 66.333 36.192 66.396 L 36.192 66.396 L 36.192 66.396 Q 36.842 66.46 37.432 66.616 L 37.432 66.616 L 37.432 66.616 Q 38.023 66.772 38.541 67.041 L 38.541 67.041 L 38.541 67.041 Q 39.058 67.31 39.434 67.739 L 39.434 67.739 L 39.434 67.739 Q 39.81 68.169 40.03 68.774 L 40.03 68.774 L 40.03 68.774 Q 40.25 69.38 40.25 70.2 L 40.25 70.2 L 40.25 70.2 Q 40.25 70.64 40.137 71.079 L 40.137 71.079 L 40.137 71.079 Q 40.025 71.519 39.776 71.938 L 39.776 71.938 L 39.776 71.938 Q 39.527 72.358 39.122 72.744 L 39.122 72.744 L 39.122 72.744 Q 38.717 73.13 38.131 73.462 L 38.131 73.462 L 38.131 73.462 Q 39.381 73.98 39.937 74.785 L 39.937 74.785 L 39.937 74.785 Q 40.494 75.591 40.494 76.685 Z  M 34.674 72.28 L 34.674 72.28 L 34.674 72.28 Q 34.869 72.134 35.133 71.885 L 35.133 71.885 L 35.133 71.885 Q 35.396 71.636 35.631 71.338 L 35.631 71.338 L 35.631 71.338 Q 35.865 71.04 36.031 70.718 L 36.031 70.718 L 36.031 70.718 Q 36.197 70.396 36.197 70.103 L 36.197 70.103 L 36.197 70.103 Q 36.197 69.79 36.016 69.595 L 36.016 69.595 L 36.016 69.595 Q 35.836 69.399 35.611 69.399 L 35.611 69.399 L 35.611 69.399 Q 35.299 69.399 35.113 69.683 L 35.113 69.683 L 35.113 69.683 Q 34.927 69.966 34.825 70.352 L 34.825 70.352 L 34.825 70.352 Q 34.722 70.737 34.688 71.133 L 34.688 71.133 L 34.688 71.133 Q 34.654 71.528 34.654 71.763 L 34.654 71.763 L 34.654 71.763 Q 34.654 71.88 34.654 72.012 L 34.654 72.012 L 34.654 72.012 Q 34.654 72.144 34.674 72.28 Z  M 36.011 77.144 L 36.011 77.144 L 36.011 77.144 Q 36.011 76.792 35.904 76.436 L 35.904 76.436 L 35.904 76.436 Q 35.797 76.079 35.616 75.732 L 35.616 75.732 L 35.616 75.732 Q 35.435 75.386 35.206 75.063 L 35.206 75.063 L 35.206 75.063 Q 34.976 74.741 34.732 74.448 L 34.732 74.448 L 34.732 74.448 Q 34.586 74.888 34.542 75.313 L 34.542 75.313 L 34.542 75.313 Q 34.498 75.737 34.498 76.079 L 34.498 76.079 L 34.498 76.079 Q 34.498 76.587 34.566 76.924 L 34.566 76.924 L 34.566 76.924 Q 34.634 77.261 34.757 77.466 L 34.757 77.466 L 34.757 77.466 Q 34.879 77.671 35.045 77.759 L 35.045 77.759 L 35.045 77.759 Q 35.211 77.847 35.416 77.847 L 35.416 77.847 L 35.416 77.847 Q 35.66 77.847 35.836 77.666 L 35.836 77.666 L 35.836 77.666 Q 36.011 77.485 36.011 77.144 Z  M 50.015 69.224 L 50.015 69.224 L 50.015 69.224 Q 49.927 69.663 49.854 70.249 L 49.854 70.249 L 49.854 70.249 Q 49.781 70.835 49.727 71.514 L 49.727 71.514 L 49.727 71.514 Q 49.674 72.192 49.644 72.93 L 49.644 72.93 L 49.644 72.93 Q 49.615 73.667 49.615 74.399 L 49.615 74.399 L 49.615 74.399 Q 49.615 74.644 49.625 74.883 L 49.625 74.883 L 49.625 74.883 Q 49.634 75.122 49.634 75.347 L 49.634 75.347 L 49.634 75.347 Q 49.634 75.825 49.581 76.431 L 49.581 76.431 L 49.581 76.431 Q 49.527 77.036 49.366 77.666 L 49.366 77.666 L 49.366 77.666 Q 49.205 78.296 48.922 78.901 L 48.922 78.901 L 48.922 78.901 Q 48.638 79.507 48.175 79.976 L 48.175 79.976 L 48.175 79.976 Q 47.711 80.444 47.047 80.732 L 47.047 80.732 L 47.047 80.732 Q 46.383 81.021 45.474 81.021 L 45.474 81.021 L 45.474 81.021 Q 44.693 81.021 44.093 80.815 L 44.093 80.815 L 44.093 80.815 Q 43.492 80.61 43.048 80.254 L 43.048 80.254 L 43.048 80.254 Q 42.603 79.897 42.301 79.409 L 42.301 79.409 L 42.301 79.409 Q 41.998 78.921 41.812 78.359 L 41.812 78.359 L 41.812 78.359 Q 41.627 77.798 41.544 77.183 L 41.544 77.183 L 41.544 77.183 Q 41.461 76.567 41.461 75.962 L 41.461 75.962 L 41.461 75.962 Q 41.461 75.815 41.466 75.781 L 41.466 75.781 L 41.466 75.781 Q 41.47 75.747 41.47 75.737 L 41.47 75.737 L 41.47 75.737 Q 41.47 75.728 41.48 75.703 L 41.48 75.703 L 41.48 75.703 Q 41.49 75.679 41.49 75.552 L 41.49 75.552 L 41.49 75.552 Q 41.49 75.425 41.495 75.151 L 41.495 75.151 L 41.495 75.151 Q 41.5 74.878 41.5 74.38 L 41.5 74.38 L 41.5 74.38 Q 41.5 73.794 41.48 73.057 L 41.48 73.057 L 41.48 73.057 Q 41.461 72.319 41.397 71.611 L 41.397 71.611 L 41.397 71.611 Q 41.334 70.903 41.217 70.327 L 41.217 70.327 L 41.217 70.327 Q 41.099 69.751 40.914 69.487 L 40.914 69.487 L 40.914 69.487 Q 41.705 69.624 42.403 69.673 L 42.403 69.673 L 42.403 69.673 Q 43.101 69.722 43.677 69.722 L 43.677 69.722 L 43.677 69.722 Q 44.058 69.722 44.366 69.707 L 44.366 69.707 L 44.366 69.707 Q 44.674 69.692 44.898 69.673 L 44.898 69.673 L 44.898 69.673 Q 45.152 69.653 45.357 69.624 L 45.357 69.624 L 45.357 69.624 Q 45.162 70.581 44.981 71.797 L 44.981 71.797 L 44.981 71.797 Q 44.801 73.013 44.801 74.585 L 44.801 74.585 L 44.801 74.585 Q 44.801 74.946 44.835 75.337 L 44.835 75.337 L 44.835 75.337 Q 44.869 75.728 44.957 76.055 L 44.957 76.055 L 44.957 76.055 Q 45.045 76.382 45.196 76.592 L 45.196 76.592 L 45.196 76.592 Q 45.347 76.802 45.582 76.802 L 45.582 76.802 L 45.582 76.802 Q 45.875 76.802 46.041 76.606 L 46.041 76.606 L 46.041 76.606 Q 46.207 76.411 46.29 76.094 L 46.29 76.094 L 46.29 76.094 Q 46.373 75.776 46.387 75.386 L 46.387 75.386 L 46.387 75.386 Q 46.402 74.995 46.402 74.605 L 46.402 74.605 L 46.402 74.605 Q 46.392 73.335 46.324 72.231 L 46.324 72.231 L 46.324 72.231 Q 46.295 71.763 46.251 71.284 L 46.251 71.284 L 46.251 71.284 Q 46.207 70.806 46.148 70.381 L 46.148 70.381 L 46.148 70.381 Q 46.09 69.956 46.011 69.619 L 46.011 69.619 L 46.011 69.619 Q 45.933 69.282 45.836 69.087 L 45.836 69.087 L 45.836 69.087 Q 46.627 69.224 47.301 69.272 L 47.301 69.272 L 47.301 69.272 Q 47.974 69.321 48.502 69.321 L 48.502 69.321 L 48.502 69.321 Q 48.853 69.321 49.132 69.307 L 49.132 69.307 L 49.132 69.307 Q 49.41 69.292 49.605 69.272 L 49.605 69.272 L 49.605 69.272 Q 49.84 69.253 50.015 69.224 Z  M 59.234 71.401 L 59.234 71.401 L 59.234 71.401 Q 59.234 72.134 59.024 72.827 L 59.024 72.827 L 59.024 72.827 Q 58.814 73.521 58.287 74.058 L 58.287 74.058 L 58.287 74.058 Q 57.759 74.595 56.866 74.917 L 56.866 74.917 L 56.866 74.917 Q 55.972 75.239 54.595 75.239 L 54.595 75.239 L 54.595 75.239 Q 54.634 75.718 54.796 76.04 L 54.796 76.04 L 54.796 76.04 Q 54.957 76.362 55.181 76.558 L 55.181 76.558 L 55.181 76.558 Q 55.406 76.753 55.66 76.851 L 55.66 76.851 L 55.66 76.851 Q 55.914 76.948 56.129 76.987 L 56.129 76.987 L 56.129 76.987 Q 56.343 77.026 56.49 77.026 L 56.49 77.026 L 56.49 77.026 Q 56.636 77.026 56.636 77.026 L 56.636 77.026 L 56.636 77.026 Q 57.242 76.958 57.72 76.714 L 57.72 76.714 L 57.72 76.714 Q 57.926 76.616 58.121 76.465 L 58.121 76.465 L 58.121 76.465 Q 58.316 76.313 58.477 76.104 L 58.477 76.104 L 58.477 76.104 Q 58.638 75.894 58.741 75.625 L 58.741 75.625 L 58.741 75.625 Q 58.843 75.356 58.863 75.005 L 58.863 75.005 L 58.863 75.005 Q 59.117 75.64 59.219 76.191 L 59.219 76.191 L 59.219 76.191 Q 59.322 76.743 59.322 77.222 L 59.322 77.222 L 59.322 77.222 Q 59.322 78.101 59.005 78.838 L 59.005 78.838 L 59.005 78.838 Q 58.687 79.575 58.131 80.112 L 58.131 80.112 L 58.131 80.112 Q 57.574 80.649 56.807 80.947 L 56.807 80.947 L 56.807 80.947 Q 56.041 81.245 55.142 81.245 L 55.142 81.245 L 55.142 81.245 Q 54.263 81.245 53.448 80.942 L 53.448 80.942 L 53.448 80.942 Q 52.633 80.64 52.003 79.98 L 52.003 79.98 L 52.003 79.98 Q 51.373 79.321 50.997 78.267 L 50.997 78.267 L 50.997 78.267 Q 50.621 77.212 50.621 75.708 L 50.621 75.708 L 50.621 75.708 Q 50.621 74.077 51.09 72.817 L 51.09 72.817 L 51.09 72.817 Q 51.558 71.558 52.349 70.703 L 52.349 70.703 L 52.349 70.703 Q 53.14 69.849 54.18 69.404 L 54.18 69.404 L 54.18 69.404 Q 55.22 68.96 56.363 68.96 L 56.363 68.96 L 56.363 68.96 Q 56.929 68.96 57.452 69.087 L 57.452 69.087 L 57.452 69.087 Q 57.974 69.214 58.37 69.507 L 58.37 69.507 L 58.37 69.507 Q 58.765 69.8 59 70.264 L 59 70.264 L 59 70.264 Q 59.234 70.728 59.234 71.401 Z  M 54.556 73.628 L 54.556 73.628 L 54.556 73.628 Q 54.83 73.618 55.191 73.516 L 55.191 73.516 L 55.191 73.516 Q 55.552 73.413 55.875 73.228 L 55.875 73.228 L 55.875 73.228 Q 56.197 73.042 56.417 72.769 L 56.417 72.769 L 56.417 72.769 Q 56.636 72.495 56.636 72.144 L 56.636 72.144 L 56.636 72.144 Q 56.636 71.919 56.48 71.782 L 56.48 71.782 L 56.48 71.782 Q 56.324 71.646 56.08 71.646 L 56.08 71.646 L 56.08 71.646 Q 55.738 71.646 55.469 71.841 L 55.469 71.841 L 55.469 71.841 Q 55.201 72.036 55.01 72.329 L 55.01 72.329 L 55.01 72.329 Q 54.82 72.622 54.703 72.974 L 54.703 72.974 L 54.703 72.974 Q 54.586 73.325 54.556 73.628 Z  M 70.23 80.679 L 70.23 80.679 L 70.23 80.679 Q 69.927 80.63 69.566 80.615 L 69.566 80.615 L 69.566 80.615 Q 69.205 80.601 68.814 80.601 L 68.814 80.601 L 68.814 80.601 Q 68.345 80.601 67.862 80.625 L 67.862 80.625 L 67.862 80.625 Q 67.379 80.649 66.92 80.688 L 66.92 80.688 L 66.92 80.688 Q 66.461 80.728 66.051 80.776 L 66.051 80.776 L 66.051 80.776 Q 65.64 80.825 65.338 80.864 L 65.338 80.864 L 65.338 80.864 Q 65.758 79.448 65.987 77.837 L 65.987 77.837 L 65.987 77.837 Q 66.217 76.226 66.217 74.263 L 66.217 74.263 L 66.217 74.263 Q 66.217 74.116 66.212 73.872 L 66.212 73.872 L 66.212 73.872 Q 66.207 73.628 66.187 73.345 L 66.187 73.345 L 66.187 73.345 Q 66.168 73.062 66.124 72.773 L 66.124 72.773 L 66.124 72.773 Q 66.08 72.485 65.997 72.251 L 65.997 72.251 L 65.997 72.251 Q 65.914 72.017 65.787 71.87 L 65.787 71.87 L 65.787 71.87 Q 65.66 71.724 65.474 71.724 L 65.474 71.724 L 65.474 71.724 Q 65.201 71.724 64.942 71.919 L 64.942 71.919 L 64.942 71.919 Q 64.683 72.114 64.483 72.437 L 64.483 72.437 L 64.483 72.437 Q 64.283 72.759 64.161 73.179 L 64.161 73.179 L 64.161 73.179 Q 64.039 73.599 64.039 74.048 L 64.039 74.048 L 64.039 74.048 Q 64.039 74.858 64.078 75.693 L 64.078 75.693 L 64.078 75.693 Q 64.117 76.528 64.205 77.349 L 64.205 77.349 L 64.205 77.349 Q 64.293 78.169 64.429 78.955 L 64.429 78.955 L 64.429 78.955 Q 64.566 79.741 64.771 80.444 L 64.771 80.444 L 64.771 80.444 Q 64.605 80.435 64.381 80.415 L 64.381 80.415 L 64.381 80.415 Q 64.185 80.405 63.922 80.396 L 63.922 80.396 L 63.922 80.396 Q 63.658 80.386 63.316 80.386 L 63.316 80.386 L 63.316 80.386 Q 62.681 80.386 61.851 80.439 L 61.851 80.439 L 61.851 80.439 Q 61.021 80.493 60.054 80.64 L 60.054 80.64 L 60.054 80.64 Q 60.172 80.093 60.259 79.302 L 60.259 79.302 L 60.259 79.302 Q 60.347 78.511 60.406 77.583 L 60.406 77.583 L 60.406 77.583 Q 60.465 76.655 60.499 75.645 L 60.499 75.645 L 60.499 75.645 Q 60.533 74.634 60.533 73.647 L 60.533 73.647 L 60.533 73.647 Q 60.533 72.915 60.513 72.212 L 60.513 72.212 L 60.513 72.212 Q 60.494 71.509 60.46 70.884 L 60.46 70.884 L 60.46 70.884 Q 60.426 70.259 60.367 69.731 L 60.367 69.731 L 60.367 69.731 Q 60.308 69.204 60.23 68.823 L 60.23 68.823 L 60.23 68.823 Q 61.021 68.96 61.695 69.014 L 61.695 69.014 L 61.695 69.014 Q 62.369 69.067 62.916 69.067 L 62.916 69.067 L 62.916 69.067 Q 63.267 69.067 63.546 69.053 L 63.546 69.053 L 63.546 69.053 Q 63.824 69.038 64.019 69.019 L 64.019 69.019 L 64.019 69.019 Q 64.254 68.989 64.429 68.96 L 64.429 68.96 L 64.429 68.96 Q 64.371 69.263 64.317 69.605 L 64.317 69.605 L 64.317 69.605 Q 64.263 69.946 64.215 70.347 L 64.215 70.347 L 64.215 70.347 Q 64.537 69.937 64.898 69.629 L 64.898 69.629 L 64.898 69.629 Q 65.259 69.321 65.626 69.116 L 65.626 69.116 L 65.626 69.116 Q 65.992 68.911 66.353 68.809 L 66.353 68.809 L 66.353 68.809 Q 66.715 68.706 67.037 68.706 L 67.037 68.706 L 67.037 68.706 Q 67.74 68.706 68.253 68.994 L 68.253 68.994 L 68.253 68.994 Q 68.765 69.282 69.102 69.897 L 69.102 69.897 L 69.102 69.897 Q 69.439 70.513 69.605 71.47 L 69.605 71.47 L 69.605 71.47 Q 69.771 72.427 69.771 73.765 L 69.771 73.765 L 69.771 73.765 Q 69.771 74.683 69.776 75.63 L 69.776 75.63 L 69.776 75.63 Q 69.781 76.577 69.82 77.485 L 69.82 77.485 L 69.82 77.485 Q 69.859 78.394 69.957 79.209 L 69.957 79.209 L 69.957 79.209 Q 70.054 80.024 70.23 80.679 Z  M 80.23 74.78 L 80.23 74.78 L 80.23 74.78 Q 80.23 75.347 80.142 76.025 L 80.142 76.025 L 80.142 76.025 Q 80.054 76.704 79.849 77.393 L 79.849 77.393 L 79.849 77.393 Q 79.644 78.081 79.293 78.73 L 79.293 78.73 L 79.293 78.73 Q 78.941 79.38 78.419 79.878 L 78.419 79.878 L 78.419 79.878 Q 77.896 80.376 77.174 80.679 L 77.174 80.679 L 77.174 80.679 Q 76.451 80.981 75.494 80.981 L 75.494 80.981 L 75.494 80.981 Q 74.537 80.981 73.819 80.698 L 73.819 80.698 L 73.819 80.698 Q 73.101 80.415 72.589 79.941 L 72.589 79.941 L 72.589 79.941 Q 72.076 79.468 71.744 78.848 L 71.744 78.848 L 71.744 78.848 Q 71.412 78.228 71.217 77.544 L 71.217 77.544 L 71.217 77.544 Q 71.021 76.86 70.948 76.162 L 70.948 76.162 L 70.948 76.162 Q 70.875 75.464 70.875 74.839 L 70.875 74.839 L 70.875 74.839 Q 70.875 73.735 71.168 72.676 L 71.168 72.676 L 71.168 72.676 Q 71.461 71.616 72.061 70.786 L 72.061 70.786 L 72.061 70.786 Q 72.662 69.956 73.565 69.448 L 73.565 69.448 L 73.565 69.448 Q 74.468 68.94 75.689 68.94 L 75.689 68.94 L 75.689 68.94 Q 76.509 68.94 77.164 69.189 L 77.164 69.189 L 77.164 69.189 Q 77.818 69.438 78.326 69.868 L 78.326 69.868 L 78.326 69.868 Q 78.834 70.298 79.19 70.874 L 79.19 70.874 L 79.19 70.874 Q 79.547 71.45 79.781 72.095 L 79.781 72.095 L 79.781 72.095 Q 80.015 72.739 80.123 73.433 L 80.123 73.433 L 80.123 73.433 Q 80.23 74.126 80.23 74.78 Z  M 76.832 75.103 L 76.832 75.103 L 76.832 75.103 Q 76.832 74.878 76.817 74.541 L 76.817 74.541 L 76.817 74.541 Q 76.802 74.204 76.754 73.833 L 76.754 73.833 L 76.754 73.833 Q 76.705 73.462 76.622 73.091 L 76.622 73.091 L 76.622 73.091 Q 76.539 72.72 76.402 72.427 L 76.402 72.427 L 76.402 72.427 Q 76.265 72.134 76.065 71.948 L 76.065 71.948 L 76.065 71.948 Q 75.865 71.763 75.592 71.763 L 75.592 71.763 L 75.592 71.763 Q 75.328 71.763 75.133 71.938 L 75.133 71.938 L 75.133 71.938 Q 74.937 72.114 74.796 72.397 L 74.796 72.397 L 74.796 72.397 Q 74.654 72.681 74.561 73.037 L 74.561 73.037 L 74.561 73.037 Q 74.468 73.394 74.415 73.75 L 74.415 73.75 L 74.415 73.75 Q 74.361 74.106 74.337 74.434 L 74.337 74.434 L 74.337 74.434 Q 74.312 74.761 74.312 74.985 L 74.312 74.985 L 74.312 74.985 Q 74.312 75.308 74.361 75.767 L 74.361 75.767 L 74.361 75.767 Q 74.41 76.226 74.547 76.646 L 74.547 76.646 L 74.547 76.646 Q 74.683 77.065 74.923 77.363 L 74.923 77.363 L 74.923 77.363 Q 75.162 77.661 75.552 77.661 L 75.552 77.661 L 75.552 77.661 Q 75.924 77.661 76.173 77.388 L 76.173 77.388 L 76.173 77.388 Q 76.422 77.114 76.568 76.719 L 76.568 76.719 L 76.568 76.719 Q 76.715 76.323 76.773 75.884 L 76.773 75.884 L 76.773 75.884 Q 76.832 75.444 76.832 75.103 Z  M 89.088 71.606 L 89.088 71.606 L 89.088 71.606 Q 89.088 71.997 88.931 72.31 L 88.931 72.31 L 88.931 72.31 Q 88.775 72.622 88.511 72.842 L 88.511 72.842 L 88.511 72.842 Q 88.248 73.062 87.896 73.184 L 87.896 73.184 L 87.896 73.184 Q 87.545 73.306 87.154 73.306 L 87.154 73.306 L 87.154 73.306 Q 86.705 73.306 86.387 73.198 L 86.387 73.198 L 86.387 73.198 Q 86.07 73.091 85.85 72.92 L 85.85 72.92 L 85.85 72.92 Q 85.631 72.749 85.504 72.539 L 85.504 72.539 L 85.504 72.539 Q 85.377 72.329 85.303 72.134 L 85.303 72.134 L 85.303 72.134 Q 85.23 71.938 85.211 71.772 L 85.211 71.772 L 85.211 71.772 Q 85.191 71.606 85.191 71.519 L 85.191 71.519 L 85.191 71.519 Q 85.279 71.685 85.416 71.724 L 85.416 71.724 L 85.416 71.724 Q 85.552 71.763 85.631 71.763 L 85.631 71.763 L 85.631 71.763 Q 85.855 71.763 85.953 71.646 L 85.953 71.646 L 85.953 71.646 Q 86.051 71.528 86.051 71.401 L 86.051 71.401 L 86.051 71.401 Q 86.051 71.323 86.011 71.226 L 86.011 71.226 L 86.011 71.226 Q 85.972 71.128 85.875 71.045 L 85.875 71.045 L 85.875 71.045 Q 85.777 70.962 85.621 70.903 L 85.621 70.903 L 85.621 70.903 Q 85.465 70.845 85.23 70.845 L 85.23 70.845 L 85.23 70.845 Q 85.084 70.845 84.918 70.903 L 84.918 70.903 L 84.918 70.903 Q 84.752 70.962 84.62 71.084 L 84.62 71.084 L 84.62 71.084 Q 84.488 71.206 84.4 71.387 L 84.4 71.387 L 84.4 71.387 Q 84.312 71.567 84.312 71.802 L 84.312 71.802 L 84.312 71.802 Q 84.312 72.241 84.537 72.544 L 84.537 72.544 L 84.537 72.544 Q 84.761 72.847 85.128 73.076 L 85.128 73.076 L 85.128 73.076 Q 85.494 73.306 85.958 73.501 L 85.958 73.501 L 85.958 73.501 Q 86.422 73.696 86.91 73.906 L 86.91 73.906 L 86.91 73.906 Q 87.398 74.116 87.862 74.375 L 87.862 74.375 L 87.862 74.375 Q 88.326 74.634 88.692 75.005 L 88.692 75.005 L 88.692 75.005 Q 89.058 75.376 89.283 75.894 L 89.283 75.894 L 89.283 75.894 Q 89.508 76.411 89.508 77.124 L 89.508 77.124 L 89.508 77.124 Q 89.508 78.032 89.136 78.765 L 89.136 78.765 L 89.136 78.765 Q 88.765 79.497 88.145 80.02 L 88.145 80.02 L 88.145 80.02 Q 87.525 80.542 86.705 80.82 L 86.705 80.82 L 86.705 80.82 Q 85.884 81.099 84.976 81.099 L 84.976 81.099 L 84.976 81.099 Q 84.146 81.099 83.404 80.874 L 83.404 80.874 L 83.404 80.874 Q 82.662 80.649 82.105 80.249 L 82.105 80.249 L 82.105 80.249 Q 81.549 79.849 81.221 79.302 L 81.221 79.302 L 81.221 79.302 Q 80.894 78.755 80.894 78.12 L 80.894 78.12 L 80.894 78.12 Q 80.894 77.642 81.051 77.285 L 81.051 77.285 L 81.051 77.285 Q 81.207 76.929 81.485 76.694 L 81.485 76.694 L 81.485 76.694 Q 81.763 76.46 82.139 76.343 L 82.139 76.343 L 82.139 76.343 Q 82.515 76.226 82.955 76.226 L 82.955 76.226 L 82.955 76.226 Q 83.277 76.226 83.599 76.294 L 83.599 76.294 L 83.599 76.294 Q 83.922 76.362 84.205 76.499 L 84.205 76.499 L 84.205 76.499 Q 84.488 76.636 84.713 76.831 L 84.713 76.831 L 84.713 76.831 Q 84.937 77.026 85.074 77.28 L 85.074 77.28 L 85.074 77.28 Q 84.996 77.261 84.923 77.251 L 84.923 77.251 L 84.923 77.251 Q 84.849 77.241 84.771 77.241 L 84.771 77.241 L 84.771 77.241 Q 84.556 77.241 84.434 77.354 L 84.434 77.354 L 84.434 77.354 Q 84.312 77.466 84.312 77.72 L 84.312 77.72 L 84.312 77.72 Q 84.312 77.993 84.537 78.179 L 84.537 78.179 L 84.537 78.179 Q 84.761 78.364 85.035 78.364 L 85.035 78.364 L 85.035 78.364 Q 85.191 78.364 85.328 78.296 L 85.328 78.296 L 85.328 78.296 Q 85.465 78.228 85.562 78.115 L 85.562 78.115 L 85.562 78.115 Q 85.66 78.003 85.714 77.866 L 85.714 77.866 L 85.714 77.866 Q 85.767 77.73 85.767 77.583 L 85.767 77.583 L 85.767 77.583 Q 85.767 77.329 85.596 77.036 L 85.596 77.036 L 85.596 77.036 Q 85.426 76.743 85.113 76.548 L 85.113 76.548 L 85.113 76.548 Q 84.498 76.167 83.951 75.894 L 83.951 75.894 L 83.951 75.894 Q 83.404 75.62 82.945 75.376 L 82.945 75.376 L 82.945 75.376 Q 82.486 75.132 82.12 74.888 L 82.12 74.888 L 82.12 74.888 Q 81.754 74.644 81.5 74.316 L 81.5 74.316 L 81.5 74.316 Q 81.246 73.989 81.109 73.545 L 81.109 73.545 L 81.109 73.545 Q 80.972 73.101 80.972 72.466 L 80.972 72.466 L 80.972 72.466 Q 80.972 71.714 81.27 71.074 L 81.27 71.074 L 81.27 71.074 Q 81.568 70.435 82.125 69.966 L 82.125 69.966 L 82.125 69.966 Q 82.681 69.497 83.492 69.229 L 83.492 69.229 L 83.492 69.229 Q 84.302 68.96 85.328 68.96 L 85.328 68.96 L 85.328 68.96 Q 86.373 68.96 87.091 69.204 L 87.091 69.204 L 87.091 69.204 Q 87.808 69.448 88.253 69.829 L 88.253 69.829 L 88.253 69.829 Q 88.697 70.21 88.892 70.679 L 88.892 70.679 L 88.892 70.679 Q 89.088 71.147 89.088 71.606 Z " fill-rule="evenodd" fill="rgb(255,255,255)"/><path d=" M 5.096 169.681 C 1.938 166.413 0 161.963 0 157.063 C 0 157.063 0 157.063 0 157.063 L 0 18.22 C 0 8.164 8.164 0 18.22 0 L 103.248 0 C 109.137 0 114.377 2.8 117.707 7.142 C 85.252 68.101 47.74 122.306 5.096 169.681 Z " fill="rgb(255,255,255)" fill-opacity="0.05"/></g></g></svg>